<?xml version="1.0" encoding="utf-8"?>
<!-- Generator: Adobe Illustrator 22.0.1, SVG Export Plug-In . SVG Version: 6.00 Build 0)  -->
<svg version="1.1" id="Capa_1" xmlns="http://www.w3.org/2000/svg" xmlns:xlink="http://www.w3.org/1999/xlink" x="0px" y="0px"
	 viewBox="0 0 800 800" style="enable-background:new 0 0 800 800;" xml:space="preserve">
<style type="text/css">
	.st0{fill:#F6A11A;}
</style>
<g>
	<path class="st0" d="M268.7,265.9l-0.4,8.4l-0.4,22v22.4l-0.4,14V519l40.4,5.2v16H169.2v-16l42.4-5.2V345.9c0-28-8-38-30.4-38
		c-5.6,0-7.2,0.4-16.8,1.2v-16.8L268.7,265.9z"/>
	<path class="st0" d="M431.1,265.9l-0.4,8.4l-0.4,22v22.4l-0.4,14V519l40.4,5.2v16H331.5v-16l42.4-5.2V345.9c0-28-8-38-30.4-38
		c-5.6,0-7.2,0.4-16.8,1.2v-16.8L431.1,265.9z"/>
	<path class="st0" d="M521.4,417c8-29.6,28.4-46,57.6-46c41.6,0,72,34.4,72,82c0,53.6-36.4,92.4-87.2,92.4
		c-58.8,0-96.8-50.4-96.8-128c0-89.2,45.6-149.2,113.6-149.2c34,0,57.2,17.6,57.2,43.6c0,15.6-11.2,28.4-25.2,28.4
		c-18,0-33.2-17.6-33.2-38.8c0-4.8,0.4-6.8,2.8-12.4c-4-0.8-5.6-0.8-8-0.8c-20.8,0-34.8,14-42.4,42.4
		C525.4,353.5,523.8,367.1,521.4,417z M593,468.2c0-43.2-11.2-66.8-31.6-66.8c-23.2,0-35.6,21.2-35.6,60.4c0,44,12,67.6,34.4,67.6
		C581,529.4,593,507.4,593,468.2z"/>
</g>
</svg>
