<?xml version="1.0" encoding="utf-8"?>
<!-- Generator: Adobe Illustrator 22.0.1, SVG Export Plug-In . SVG Version: 6.00 Build 0)  -->
<svg version="1.1" id="Capa_1" xmlns="http://www.w3.org/2000/svg" xmlns:xlink="http://www.w3.org/1999/xlink" x="0px" y="0px"
	 viewBox="0 0 1135 800" style="enable-background:new 0 0 1135 800;" xml:space="preserve">
<style type="text/css">
	.st0{fill:#7C6AA3;}
</style>
<g>
	<path class="st0" d="M85.9,485.9c14.2,6.6,19.9,8,30.9,8c34.1,0,51.8-22.6,51.8-68.2c0-43.4-14.2-65.5-41.7-65.5
		c-3.9,0-8.8,0.9-13.3,2.2c-5.7,1.7-10.3,2.7-12.8,2.7c-6.6,0-12-5.7-12-13.3c0-7.1,5.7-13.3,12-13.3c3.2,0,7.6,0.9,13.3,2.2
		c3.9,1.3,7.1,1.7,9.8,1.7c23.5,0,39.5-22.6,39.5-55.4c0-38-15-59.3-42.1-59.3c-11,0-16.4,2.2-27.9,10.6c7.9,16.4,9.3,20.8,9.3,31.4
		c0,17.7-14.7,32.8-31.9,32.8c-16.9,0-31.4-14.2-31.4-30.9c0-35.8,39-62.8,90.3-62.8c61.1,0,101,28.4,101,71.8
		c0,30.6-20.4,55.4-52.7,64.2c-9.8,2.7-16.4,3.5-33.6,5.4c63.8,7.6,95.2,34.1,95.2,80.2c0,52.7-45.1,85.4-117,85.4
		C65.3,515.9,29,492,29,454.3c0-19.9,14.2-35,32.8-35c19.9,0,34.6,15.5,34.6,37.2C96.6,468.2,94.4,473.9,85.9,485.9z"/>
	<path class="st0" d="M319.8,478.3c0,20.4-16.9,37.2-37.2,37.2c-20.8,0-37.2-16.4-37.2-36.8s16.9-37.2,37.6-37.2
		C302.9,441.5,319.8,457.9,319.8,478.3z"/>
	<path class="st0" d="M525.6,411.1l-18.2,105.4c-11.5-5.7-17.2-6.6-37.6-6.6H325.1v-26.2c15.5-21.6,21.6-29.7,40.2-51.8
		c13.7-16.4,27.5-31.4,40.7-45.1c39.5-42.1,48.8-60.3,48.8-98.3c0-35.8-17.2-57.6-45.6-57.6c-12.8,0-25.7,5.4-32.4,13.3
		c-1.3,1.7-1.7,3.2-1.7,4.4c0,0.9,0.9,2.7,2.7,4.9c9.8,11.5,15,24.3,15,36.8c0,18.6-14.7,34.1-32.4,34.1c-19.4,0-34.6-17.2-34.6-39
		c0-42.5,42.5-76.5,94.7-76.5c58.4,0,101.3,37.2,101.3,87.8c0,40.2-20.4,67.7-73.1,99.1c-31.4,18.6-37.2,22.6-56.2,39.9
		c-7.9,7.6-11,10.3-18.6,17.7h73.5c33.6,0,45.6-8,58.1-40.2c0-1.3,0.9-3.2,1.7-5.4L525.6,411.1z"/>
	<path class="st0" d="M679.8,189.6l-0.5,9.8l-0.5,20.8l-0.9,19.1v15.5v147.9c9.8-23,18.6-36.8,34.1-55.9
		c25.3-30.6,42.1-41.2,63.3-41.2c19.1,0,32.4,12.8,32.4,30.9c0,16.9-13.7,30.6-30.6,30.6c-15.9,0-29.2-11.5-30.1-27
		c-7.6,3.9-12.8,9.3-19.4,19.4l65,128l16.9,3.2v19.1h-95.6v-19.1l19.9-3.2l-37.9-85.1c-1.7,3.2-3.5,5.4-4.4,7.1
		c-6.2,9.3-7.1,11.5-13.3,23.8v54l17.7,3.2v19.1h-95.2v-19.1l22.1-3.2V278.2l-0.5-12.8c-0.5-24.3-3.5-30.9-14.2-30.9
		c-2.2,0-2.7,0-7.6,0.5v-18.6L679.8,189.6z"/>
	<path class="st0" d="M855.1,301.2c8.8,13.3,13.3,23.5,16.4,38.5c12.5-21.6,33.6-34.1,57.1-34.1c22.6,0,38.5,12.5,46.6,37.2
		c12.5-25.7,29.7-37.2,54.5-37.2c31.4,0,54,20.8,57.6,53.2c0.9,7.6,1.3,16.4,1.3,27v101.8l20.8,3.2v19.1h-93.9v-19.1l17.7-3.2v-94.4
		c0-34.1-8.8-50.5-27-50.5c-11,0-16.9,3.9-26.2,18.6v126.3l17.7,3.2v19.1h-91.2v-19.1l17.7-3.2V403c0-42.5-7.1-60.3-24.8-60.3
		c-9.8,0-19.4,6.6-27.9,18.6v126.3l17.7,3.2v19.1h-95.2v-19.1l22.1-3.2V391c0-30.9-5.4-41.2-20.8-41.2h-1.3v-19.4L855.1,301.2z"/>
</g>
</svg>
