<?xml version="1.0" encoding="utf-8"?>
<!-- Generator: Adobe Illustrator 22.0.1, SVG Export Plug-In . SVG Version: 6.00 Build 0)  -->
<svg version="1.1" id="Capa_1" xmlns="http://www.w3.org/2000/svg" xmlns:xlink="http://www.w3.org/1999/xlink" x="0px" y="0px"
	 viewBox="0 0 299.1 481.3" style="enable-background:new 0 0 299.1 481.3;" xml:space="preserve">
<style type="text/css">
	.st0{fill:#FFFFFF;}
	.st1{fill:#EE4A7B;}
</style>
<g>
	<path class="st0" d="M24.1,422.3L24.1,422.3c22.9,41.3,64,53.8,101.8,56.8c44.7,3.7,93.7-4.2,125.7-46.8c14.9-19.7,24.6-45,32-71.4
		c15.3-54.5,20-228-3-277.2c-11.1-23.6-27.8-42-46-55.2c-58-42.9-124.6-34.6-178.1,15.6C20.2,78.1,13.2,119.6,8.4,176.8
		C4.4,223.7,2.3,382.8,24.1,422.3z"/>
</g>
<path class="st1" d="M231.1,259.9h6v-15.1h-6c-28.5,0-53.6,14.4-68.9,36.2v-42.7c26.4-5.6,59.6-32,59.6-91.4h-15.1
	c0,51.5-26.9,70.3-44.7,75.6v-24.9c15.1-3.9,23.9-20.2,23.9-45.3c0-30.1-20.8-53.8-47.3-53.8c-23.5,0-71.7,18.1-71.7,73.8
	c0,50.1,49.9,65.2,80,66.8v5.1l0,0v36.4c-14.9-21.5-39.9-36-68.4-36h-6.3v15.1h6c35.7,0,65,27.1,68.4,62
	c-15.3-21.5-40.1-35.7-68.4-35.7h-6v15.1h6c38.1,0,68.9,30.8,68.9,68.9v6v12.3h15.1V376v-6c0-38.1,30.8-68.9,68.9-68.9h6V286h-6
	c-28.3,0-53.3,14.2-68.4,35.7C166.1,287,195.6,259.9,231.1,259.9z M82.4,172.4c0-48.7,44.7-58.7,56.6-58.7
	c18.1,0,32.2,16.9,32.2,38.8c0,7.4-1,22.8-9,28.8c-1-15.1-7.9-32.9-20.7-39.9c-7.6-4.2-16-3.7-23.9,1.4c-8.3,5.3-11.4,15.6-8.1,26.4
	c3.9,13.2,16.9,26.4,37.6,29V224C131.6,223,82.4,215.8,82.4,172.4z M147.3,183.1c-13-2.3-20.8-10.2-23.2-18.1
	c-0.4-1.7-1.8-7.2,1.8-9.5c2.1-1.4,3.7-1.7,5.1-1.7s2.5,0.4,3.5,1C141.3,158.5,146.9,171,147.3,183.1z"/>
</svg>
