<?xml version="1.0" encoding="utf-8"?>
<!-- Generator: Adobe Illustrator 22.0.1, SVG Export Plug-In . SVG Version: 6.00 Build 0)  -->
<svg version="1.1" id="Capa_1" xmlns="http://www.w3.org/2000/svg" xmlns:xlink="http://www.w3.org/1999/xlink" x="0px" y="0px"
	 viewBox="0 0 800 800" style="enable-background:new 0 0 800 800;" xml:space="preserve">
<style type="text/css">
	.st0{fill:#EE4A7B;}
</style>
<path class="st0" d="M506.3,430.5h9.5v-23.7h-9.5c-44.9,0-84.3,22.6-108.4,56.9v-67.2c41.6-8.8,93.8-50.4,93.8-143.8H468
	c0,81-42.3,110.6-70.4,119v-39.1c23.7-6.2,37.6-31.8,37.6-71.2c0-47.4-32.8-84.7-74.5-84.7c-36.9,0-112.8,28.5-112.8,116.1
	c0,78.8,78.5,102.6,125.9,105.1v8l0,0v57.3c-23.4-33.9-62.8-56.6-107.7-56.6h-9.9v23.7h9.5c56.2,0,102.2,42.7,107.7,97.5
	c-24.1-33.9-63.1-56.2-107.7-56.2h-9.5v23.7h9.5c59.9,0,108.4,48.5,108.4,108.4v9.5v19.3h23.7v-19.3v-9.5
	c0-59.9,48.5-108.4,108.4-108.4h9.5v-23.7h-9.5c-44.5,0-83.9,22.3-107.7,56.2C404.1,473.2,450.5,430.5,506.3,430.5z M272.3,292.9
	c0-76.6,70.4-92.3,89.1-92.3c28.5,0,50.7,26.6,50.7,61c0,11.7-1.5,35.8-14.2,45.3c-1.5-23.7-12.4-51.8-32.5-62.8
	c-12-6.6-25.2-5.8-37.6,2.2c-13.1,8.4-17.9,24.5-12.8,41.6c6.2,20.8,26.6,41.6,59.1,45.6V374C349.7,372.5,272.3,361.1,272.3,292.9z
	 M374.5,309.7c-20.4-3.6-32.8-16.1-36.5-28.5c-0.7-2.6-2.9-11.3,2.9-15c3.3-2.2,5.8-2.6,8-2.6s4,0.7,5.5,1.5
	C365.1,271,373.8,290.7,374.5,309.7z"/>
</svg>
