<?xml version="1.0" encoding="utf-8"?>
<!-- Generator: Adobe Illustrator 21.0.2, SVG Export Plug-In . SVG Version: 6.00 Build 0)  -->
<svg version="1.1" id="Capa_1" xmlns="http://www.w3.org/2000/svg" xmlns:xlink="http://www.w3.org/1999/xlink" x="0px" y="0px"
	 viewBox="0 0 800 800" style="enable-background:new 0 0 800 800;" xml:space="preserve">
<style type="text/css">
	.st0{fill:#E30F1C;}
	.st1{fill:#474747;}
	.st2{clip-path:url(#SVGID_2_);}
	.st3{clip-path:url(#SVGID_6_);}
	.st4{clip-path:url(#SVGID_10_);}
	.st5{clip-path:url(#SVGID_14_);}
	.st6{clip-path:url(#SVGID_18_);}
	.st7{clip-path:url(#SVGID_22_);}
	.st8{clip-path:url(#SVGID_26_);}
	.st9{clip-path:url(#SVGID_30_);}
	.st10{clip-path:url(#SVGID_34_);}
	.st11{clip-path:url(#SVGID_38_);}
	.st12{clip-path:url(#SVGID_42_);}
	.st13{clip-path:url(#SVGID_46_);}
	.st14{clip-path:url(#SVGID_50_);}
	.st15{clip-path:url(#SVGID_54_);}
	.st16{clip-path:url(#SVGID_58_);}
	.st17{clip-path:url(#SVGID_62_);}
	.st18{clip-path:url(#SVGID_66_);}
	.st19{clip-path:url(#SVGID_70_);}
	.st20{clip-path:url(#SVGID_74_);}
	.st21{clip-path:url(#SVGID_78_);}
	.st22{clip-path:url(#SVGID_82_);}
	.st23{clip-path:url(#SVGID_86_);}
	.st24{clip-path:url(#SVGID_90_);}
	.st25{clip-path:url(#SVGID_94_);}
	.st26{clip-path:url(#SVGID_98_);}
	.st27{clip-path:url(#SVGID_102_);}
	.st28{clip-path:url(#SVGID_106_);}
	.st29{clip-path:url(#SVGID_110_);}
	.st30{clip-path:url(#SVGID_114_);}
	.st31{clip-path:url(#SVGID_118_);}
	.st32{clip-path:url(#SVGID_122_);}
	.st33{clip-path:url(#SVGID_126_);}
	.st34{clip-path:url(#SVGID_130_);}
	.st35{clip-path:url(#SVGID_134_);}
	.st36{clip-path:url(#SVGID_138_);}
	.st37{clip-path:url(#SVGID_142_);}
	.st38{clip-path:url(#SVGID_146_);}
	.st39{clip-path:url(#SVGID_150_);}
	.st40{clip-path:url(#SVGID_154_);}
	.st41{clip-path:url(#SVGID_158_);}
	.st42{clip-path:url(#SVGID_162_);}
	.st43{clip-path:url(#SVGID_166_);}
	.st44{clip-path:url(#SVGID_170_);}
	.st45{clip-path:url(#SVGID_174_);}
	.st46{clip-path:url(#SVGID_178_);}
	.st47{clip-path:url(#SVGID_182_);}
	.st48{clip-path:url(#SVGID_186_);}
	.st49{clip-path:url(#SVGID_190_);}
	.st50{clip-path:url(#SVGID_194_);}
	.st51{clip-path:url(#SVGID_198_);}
	.st52{clip-path:url(#SVGID_202_);}
	.st53{clip-path:url(#SVGID_206_);}
	.st54{clip-path:url(#SVGID_210_);}
	.st55{clip-path:url(#SVGID_214_);}
	.st56{clip-path:url(#SVGID_218_);}
	.st57{clip-path:url(#SVGID_222_);}
	.st58{clip-path:url(#SVGID_226_);}
	.st59{clip-path:url(#SVGID_230_);}
	.st60{clip-path:url(#SVGID_234_);}
	.st61{clip-path:url(#SVGID_238_);}
	.st62{clip-path:url(#SVGID_242_);}
	.st63{clip-path:url(#SVGID_246_);}
	.st64{clip-path:url(#SVGID_250_);}
	.st65{clip-path:url(#SVGID_254_);}
	.st66{clip-path:url(#SVGID_258_);}
	.st67{clip-path:url(#SVGID_262_);}
	.st68{clip-path:url(#SVGID_266_);}
	.st69{clip-path:url(#SVGID_270_);}
	.st70{clip-path:url(#SVGID_274_);}
	.st71{clip-path:url(#SVGID_278_);}
	.st72{clip-path:url(#SVGID_282_);}
	.st73{clip-path:url(#SVGID_286_);}
	.st74{clip-path:url(#SVGID_290_);}
	.st75{clip-path:url(#SVGID_294_);}
	.st76{clip-path:url(#SVGID_298_);}
	.st77{clip-path:url(#SVGID_302_);}
	.st78{clip-path:url(#SVGID_306_);}
	.st79{clip-path:url(#SVGID_310_);}
	.st80{clip-path:url(#SVGID_314_);}
	.st81{clip-path:url(#SVGID_318_);}
	.st82{clip-path:url(#SVGID_322_);}
	.st83{fill:#FF8F10;}
	.st84{fill:#060D35;}
	.st85{fill:#51488B;}
	.st86{fill:#F8B1A1;}
	.st87{fill:#215A36;}
	.st88{fill:#F8B3A2;}
	.st89{fill:#FFFFFF;}
	.st90{fill:#EE4A7B;}
	.st91{fill:#EE4A7B;stroke:#EE4A7B;stroke-width:7;stroke-miterlimit:10;}
	.st92{fill:#EE4A7B;stroke:#EE4A7B;stroke-width:10;stroke-miterlimit:10;}
	.st93{fill:#EE4A7B;stroke:#EE4A7B;stroke-miterlimit:10;}
	.st94{fill:#E1E0E5;}
</style>
<path class="st90" d="M513.2,159H295.8C222,159,162,219,162,292.8v217.3C162,584,222,644,295.8,644h217.3C587,644,647,584,647,510.2
	V292.8C647,219,587,159,513.2,159 M604,510.2c0,50.1-40.7,90.8-90.8,90.8H295.8c-50.1,0-90.8-40.7-90.8-90.8V292.8
	c0-50.1,40.7-90.8,90.8-90.8h217.3c50.1,0,90.8,40.7,90.8,90.8L604,510.2L604,510.2z"/>
<path class="st90" d="M404.5,276.5c-68.9,0-125,56.1-125,125c0,68.9,56.1,125,125,125s125-56.1,125-125
	C529.5,332.6,473.4,276.5,404.5,276.5 M404.5,483.4c-45.2,0-81.9-36.8-81.9-81.9c0-45.2,36.8-81.9,81.9-81.9s81.9,36.8,81.9,81.9
	C486.4,446.7,449.7,483.4,404.5,483.4"/>
<path class="st90" d="M534.7,240c-8.3,0-16.4,3.4-22.3,9.2c-5.9,5.9-9.3,14-9.3,22.3c0,8.3,3.4,16.4,9.3,22.3
	c5.9,5.9,14,9.2,22.3,9.2c8.3,0,16.4-3.4,22.3-9.2c5.9-5.9,9.2-14,9.2-22.3c0-8.3-3.4-16.5-9.2-22.3C551.2,243.4,543,240,534.7,240"
	/>
</svg>
