<?xml version="1.0" encoding="utf-8"?>
<!-- Generator: Adobe Illustrator 22.0.1, SVG Export Plug-In . SVG Version: 6.00 Build 0)  -->
<svg version="1.1" id="Capa_1" xmlns="http://www.w3.org/2000/svg" xmlns:xlink="http://www.w3.org/1999/xlink" x="0px" y="0px"
	 viewBox="0 0 800 800" style="enable-background:new 0 0 800 800;" xml:space="preserve">
<style type="text/css">
	.st0{fill:#EE4A7B;}
</style>
<path class="st0" d="M308.1,604.7c-30.6-0.4-61.3-1.3-91.9-2.6c1.9,12.7,6.4,25,16,33.3c9.1,8,21.8,11,33.7,9.4
	c11.9-1.5,23-7.2,32.4-14.8C306.1,623.7,306.2,614.6,308.1,604.7"/>
<path class="st0" d="M593.6,608.3c-30.6-0.4-61.3-1.3-91.9-2.6c1.9,12.7,6.4,25,16,33.3c9.1,8,21.8,11,33.7,9.4
	c11.9-1.5,23-7.2,32.4-14.8C591.6,627.4,591.7,618.2,593.6,608.3"/>
<path class="st0" d="M166.4,339.9c-3.1,4-5,8.8-6.9,13.5c-6.6,16.6-13.3,33.2-19.9,49.9c-2.3,5.7-4.6,11.8-3.6,17.8
	c1.2,7.2,6.7,12.6,12,17.6c0.8,0.7,1.6,1.5,2.7,1.8c2.8,0.8,5.1-2.4,6.4-5.1c9.9-21.2,13.1-45.1,22.9-66.4c1.9-4.2,4.2-8.4,8-11
	c1.5-1,3.1-1.8,4.4-3c1.6-1.5,2.6-3.7,3.2-5.9C202.7,325.4,177.7,325.5,166.4,339.9"/>
<path class="st0" d="M632.2,339.9c3.1,4,5,8.8,6.9,13.5c6.6,16.6,13.3,33.2,19.9,49.9c2.3,5.7,4.6,11.8,3.6,17.8
	c-1.2,7.2-6.7,12.6-12,17.6c-0.8,0.7-1.6,1.5-2.7,1.8c-2.8,0.8-5.1-2.4-6.4-5.1c-9.9-21.2-13.1-45.1-22.9-66.4
	c-1.9-4.2-4.2-8.4-8-11c-1.5-1-3.1-1.8-4.4-3c-1.6-1.5-2.6-3.7-3.2-5.9C596,325.4,621,325.5,632.2,339.9"/>
<path class="st0" d="M574.9,421.9c-1.1,9.3-2.9,19.3-9.8,25.9c-8,7.7-20.4,8.7-31.6,9.2c-95.5,4.2-191.3,3.6-286.7-1.9
	c-6-0.4-12.9-1.1-16.5-5.8c-2.3-3.1-2.7-7.1-2.9-10.9c-1.6-31.3,0.3-62.8,5.7-93.7c3.5-19.8,5.5-48.6,25.5-60.1
	c19.2-11,50.9-12.3,72.3-14.2c33.7-3,67.7-1.6,101.4-0.2c38.1,1.6,76.8,3.3,112.8,15.6c5.2,1.8,10.4,3.8,14.2,7.7
	c4.2,4.2,5.9,10.1,7.4,15.7C576.3,346,579.1,384.3,574.9,421.9 M566,528.8c-0.4,3.2-0.8,6.4-1.9,9.4c-2.7,7.2-9.4,12.5-16.6,14.8
	c-7.3,2.3-15.1,1.9-22.6,0.4c-10.3-2-21-6.9-25.8-16.4c-4.2-8.4-2.8-18.5,0.4-27.3c1.9-5.2,4.6-10.3,8.6-14.2
	c19.5-18.7,39-1.6,52.2,13.6c2,2.3,3.9,4.6,5,7.4C566.8,520.4,566.4,524.7,566,528.8 M320.5,528.8c-0.4,3.2-0.8,6.4-1.9,9.4
	c-2.7,7.2-9.4,12.5-16.6,14.8c-7.3,2.3-15.1,1.9-22.6,0.4c-10.3-2-21-6.9-25.8-16.4c-4.1-8.4-2.8-18.5,0.4-27.3
	c1.9-5.2,4.6-10.3,8.6-14.2c19.5-18.7,39-1.6,52.2,13.6c2,2.3,3.9,4.6,5,7.4C321.4,520.4,321,524.7,320.5,528.8 M344.1,230.7
	c14.5-0.2,28.9-0.4,43.4-0.6c16.3-0.2,32.7-0.4,48.9,1.6c13.2,1.6,26.1,4.7,38.7,8.9c0.7,0.2,1.5,0.5,2,1c1.7,1.5,0.9,4.7-1,6
	s-4.4,1.3-6.7,1.2c-28.4-0.7-56.8-1.5-85.2-2.6c-11.4-0.4-33.6,3.1-43.7-1.9C330,239.3,330.7,230.9,344.1,230.7 M597.3,271.1
	c-4.8-20.9-11.3-43.3-28.1-56.2c-16-12.3-37.4-13.1-57.4-13.2c-65.1-0.3-130.2,2.2-195.1,7.4c-24.1,1.9-68-2.2-88.4,10.9
	c-21,13.5-25.8,48.6-28.7,71.1c-11.9,90.3-15.8,181.8-11.4,272.8c0.5,9.7,1.6,20.6,9.2,26.4c5.6,4.3,13.1,4.6,20.1,4.7
	c127.7,1.7,255.3,3.4,383,5.1c4.5,0.1,9.4,0,13.2-2.5c5.8-3.9,7-12,7.5-19.1C628.4,475.7,620.4,371.6,597.3,271.1"/>
</svg>
