<?xml version="1.0" encoding="utf-8"?>
<!-- Generator: Adobe Illustrator 21.0.2, SVG Export Plug-In . SVG Version: 6.00 Build 0)  -->
<svg version="1.1" id="Capa_1" xmlns="http://www.w3.org/2000/svg" xmlns:xlink="http://www.w3.org/1999/xlink" x="0px" y="0px"
	 viewBox="0 0 800 800" style="enable-background:new 0 0 800 800;" xml:space="preserve">
<style type="text/css">
	.st0{fill:#ED4A7B;}
</style>
<path class="st0" d="M266.6,178.9c1.7-2.6,4.3-4.6,7-6c8.8-4.6,18.8-3.4,26.7,2.3c5.4,3.9,6.3,8.5,6.9,14.9
	c0.5,5.2,0.7,10.8-2.7,15.1c-3.5,4.5-9.8,5.8-15.4,6c-6.7,0.2-14.1-0.8-18.8-5.6c-2.2-2.2-3.6-5.1-4.6-8
	C263.5,191.5,263,184.3,266.6,178.9 M320.6,229.2c1.7-2.6,4.3-4.6,7-6c8.8-4.6,18.8-3.4,26.7,2.3c5.4,3.9,6.4,8.5,6.9,14.9
	c0.5,5.2,0.7,10.8-2.7,15.1c-3.5,4.5-9.7,5.7-15.4,6c-6.7,0.3-14.1-0.7-18.8-5.6c-2.2-2.2-3.6-5.1-4.6-8
	C317.5,241.8,317,234.6,320.6,229.2 M450.9,264c-3,2.9-6.7,4.3-10.7,4.9c-2.3,0.1-4.5,0.5-6.8,0.7c-2.3,0.2-4.6,0.2-7,0.1
	c-3.2-0.1-6.5-0.6-9.6-1.4c-2.8-0.7-5.7-1.4-8-3.2c-1.4-1.1-2.7-2.5-3.6-4c-0.4-0.8-0.9-1.6-1.2-2.4c-0.3-0.8-0.7-1.5-1-2.4
	c-0.4-1.5-0.6-3-0.7-4.6c-0.1-2.1,0-4.2,0.1-6.3c0-0.8-0.1-1.6-0.1-2.4c0.1-0.9,0.3-1.9,0.4-2.8c1.2-5.9,4.1-10.1,10.2-11.6
	c7.7-2,15.4-2.8,23.3-1.5c4.5,0.7,8.5,2.5,11.8,5.8c3.1,3.2,5.2,6.9,6,11.4c0.6,3.5,1.1,7.1,0.7,10.6
	C454.5,258.2,453.5,261.5,450.9,264 M470.6,198.9c0.1-1-0.2-2-0.1-3c0.1-1.2,0.4-2.4,0.6-3.6c1.4-7.3,5.1-12.6,12.7-14.6
	c9.6-2.5,19.4-3.5,29.2-1.9c5.7,0.9,10.7,3.2,14.8,7.3c4,4,6.5,8.7,7.5,14.3c0.8,4.4,1.4,8.9,0.9,13.3c-0.5,4.3-1.7,8.4-4.9,11.6
	c-3.8,3.7-8.4,5.3-13.4,6.1c-2.8,0.1-5.6,0.6-8.5,0.9c-2.9,0.2-5.8,0.3-8.7,0.1c-4.1-0.2-8.1-0.8-12.1-1.8c-3.5-0.9-7.1-1.7-10-4
	c-1.8-1.4-3.3-3.1-4.5-5c-0.6-1-1.1-2-1.5-3c-0.4-1-0.9-1.9-1.2-3.1c-0.5-1.9-0.8-3.8-0.8-5.7C470.3,204.1,470.4,201.5,470.6,198.9
	 M499.6,275.9c1.5-5.7,3.3-11.7,8.6-15c5.4-3.4,12.5-2.3,18.6-0.4c7.2,2.3,14.6,6.2,17.8,13.2c1.5,3.2,1.9,6.8,1.9,10.3
	c0,7.3-2.1,15.2-7.9,19.5c-2.8,2.1-6.3,3.2-9.7,3.6c-11.1,1.4-21.2-3.6-27.5-12.7C497.1,288.1,497.8,282.8,499.6,275.9 M416,168.8
	c-4.9,6.3-13.7,8.1-21.7,8.4c-9.4,0.4-19.8-1.1-26.4-7.9c-3-3.1-5.1-7.1-6.6-11.3c-3-8.6-3.8-18.7,1.2-26.3c2.4-3.6,6-6.4,9.9-8.4
	c12.4-6.4,26.4-4.8,37.5,3.2c7.6,5.5,8.9,12,9.8,20.9C420.4,154.9,420.7,162.8,416,168.8 M217.1,361.4c0.3,11,1.1,22,2.7,33
	c0.9,6.5,4.1,9.7,10.1,11.3c16.4,4.4,33.2,6.7,50,8.8c22.8,2.8,45.7,3.7,68.6,4.9c5.8,93.7,28.7,185.1,67.8,270.1
	c3.8,8.4,10.4,18.1,21.6,17.2c14.9-1.3,19.5-18.5,19.3-30.9c-1-58.9-6.4-175.3-9.2-258.2c0.7-0.1,1.4-0.1,2.1-0.2
	c30.1-2.8,59.8-7.3,89.5-12.6c9.6-1.7,18.9-4.6,28.3-7.3c10.6-3,11.8-11.8,12.8-20.1c3-25,4-50,0.7-75.2c-1.9-14.9-1-30.1-2.7-45
	c-3-25.9-5.1-52.2-14.9-76.6c-8.3-20.6-22.5-36.5-42-47.4c-4-2.7-7.9-5.5-10.2-7.2c-0.2-0.3-0.5-0.4-0.8-0.6
	c-0.8-0.5-1.2-0.9-1.2-0.9h-0.2c-5.9-4-12.1-7.4-18.7-9.9c-19.1-7.3-40.1-14.1-60.6-16.7c-27.8-3.6-55.3-1.9-82.4,5
	c-9.4,1.2-25.1,5.9-25.1,5.9c-4.6,1-9.2,2.3-13.5,4.4c-10.5,5.2-20.7,11-30.6,17.3c-19.2,12.1-32.1,28.8-39.5,50.3
	c-13,38-17.3,77.5-20,117.2C216.3,319.1,216.5,340.2,217.1,361.4"/>
</svg>
