<?xml version="1.0" encoding="utf-8"?>
<!-- Generator: Adobe Illustrator 21.0.2, SVG Export Plug-In . SVG Version: 6.00 Build 0)  -->
<svg version="1.1" id="Capa_1" xmlns="http://www.w3.org/2000/svg" xmlns:xlink="http://www.w3.org/1999/xlink" x="0px" y="0px"
	 viewBox="0 0 800 800" style="enable-background:new 0 0 800 800;" xml:space="preserve">
<style type="text/css">
	.st0{fill:#E30F1C;}
	.st1{fill:#474747;}
	.st2{clip-path:url(#SVGID_2_);}
	.st3{clip-path:url(#SVGID_6_);}
	.st4{clip-path:url(#SVGID_10_);}
	.st5{clip-path:url(#SVGID_14_);}
	.st6{clip-path:url(#SVGID_18_);}
	.st7{clip-path:url(#SVGID_22_);}
	.st8{clip-path:url(#SVGID_26_);}
	.st9{clip-path:url(#SVGID_30_);}
	.st10{clip-path:url(#SVGID_34_);}
	.st11{clip-path:url(#SVGID_38_);}
	.st12{clip-path:url(#SVGID_42_);}
	.st13{clip-path:url(#SVGID_46_);}
	.st14{clip-path:url(#SVGID_50_);}
	.st15{clip-path:url(#SVGID_54_);}
	.st16{clip-path:url(#SVGID_58_);}
	.st17{clip-path:url(#SVGID_62_);}
	.st18{clip-path:url(#SVGID_66_);}
	.st19{clip-path:url(#SVGID_70_);}
	.st20{clip-path:url(#SVGID_74_);}
	.st21{clip-path:url(#SVGID_78_);}
	.st22{clip-path:url(#SVGID_82_);}
	.st23{clip-path:url(#SVGID_86_);}
	.st24{clip-path:url(#SVGID_90_);}
	.st25{clip-path:url(#SVGID_94_);}
	.st26{clip-path:url(#SVGID_98_);}
	.st27{clip-path:url(#SVGID_102_);}
	.st28{clip-path:url(#SVGID_106_);}
	.st29{clip-path:url(#SVGID_110_);}
	.st30{clip-path:url(#SVGID_114_);}
	.st31{clip-path:url(#SVGID_118_);}
	.st32{clip-path:url(#SVGID_122_);}
	.st33{clip-path:url(#SVGID_126_);}
	.st34{clip-path:url(#SVGID_130_);}
	.st35{clip-path:url(#SVGID_134_);}
	.st36{clip-path:url(#SVGID_138_);}
	.st37{clip-path:url(#SVGID_142_);}
	.st38{clip-path:url(#SVGID_146_);}
	.st39{clip-path:url(#SVGID_150_);}
	.st40{clip-path:url(#SVGID_154_);}
	.st41{clip-path:url(#SVGID_158_);}
	.st42{clip-path:url(#SVGID_162_);}
	.st43{clip-path:url(#SVGID_166_);}
	.st44{clip-path:url(#SVGID_170_);}
	.st45{clip-path:url(#SVGID_174_);}
	.st46{clip-path:url(#SVGID_178_);}
	.st47{clip-path:url(#SVGID_182_);}
	.st48{clip-path:url(#SVGID_186_);}
	.st49{clip-path:url(#SVGID_190_);}
	.st50{clip-path:url(#SVGID_194_);}
	.st51{clip-path:url(#SVGID_198_);}
	.st52{clip-path:url(#SVGID_202_);}
	.st53{clip-path:url(#SVGID_206_);}
	.st54{clip-path:url(#SVGID_210_);}
	.st55{clip-path:url(#SVGID_214_);}
	.st56{clip-path:url(#SVGID_218_);}
	.st57{clip-path:url(#SVGID_222_);}
	.st58{clip-path:url(#SVGID_226_);}
	.st59{clip-path:url(#SVGID_230_);}
	.st60{clip-path:url(#SVGID_234_);}
	.st61{clip-path:url(#SVGID_238_);}
	.st62{clip-path:url(#SVGID_242_);}
	.st63{clip-path:url(#SVGID_246_);}
	.st64{clip-path:url(#SVGID_250_);}
	.st65{clip-path:url(#SVGID_254_);}
	.st66{clip-path:url(#SVGID_258_);}
	.st67{clip-path:url(#SVGID_262_);}
	.st68{clip-path:url(#SVGID_266_);}
	.st69{clip-path:url(#SVGID_270_);}
	.st70{clip-path:url(#SVGID_274_);}
	.st71{clip-path:url(#SVGID_278_);}
	.st72{clip-path:url(#SVGID_282_);}
	.st73{clip-path:url(#SVGID_286_);}
	.st74{clip-path:url(#SVGID_290_);}
	.st75{clip-path:url(#SVGID_294_);}
	.st76{clip-path:url(#SVGID_298_);}
	.st77{clip-path:url(#SVGID_302_);}
	.st78{clip-path:url(#SVGID_306_);}
	.st79{clip-path:url(#SVGID_310_);}
	.st80{clip-path:url(#SVGID_314_);}
	.st81{clip-path:url(#SVGID_318_);}
	.st82{clip-path:url(#SVGID_322_);}
	.st83{fill:#FF8F10;}
	.st84{fill:#060D35;}
	.st85{fill:#51488B;}
	.st86{fill:#F8B1A1;}
	.st87{fill:#215A36;}
	.st88{fill:#F8B3A2;}
	.st89{fill:#FFFFFF;}
	.st90{fill:#EE4A7B;}
	.st91{fill:#EE4A7B;stroke:#EE4A7B;stroke-width:7;stroke-miterlimit:10;}
	.st92{fill:#EE4A7B;stroke:#EE4A7B;stroke-width:10;stroke-miterlimit:10;}
	.st93{fill:#EE4A7B;stroke:#EE4A7B;stroke-miterlimit:10;}
	.st94{fill:#E1E0E5;}
</style>
<g>
	<path class="st92" d="M608,448v-24c0-22.1-17.9-40-40-40H432c-12.6,0-24.5,5.9-32,16c-7.5-10.1-19.4-16-32-16H232
		c-22.1,0-40,17.9-40,40v24c-22.1,0-40,17.9-40,40v144c0,4.4,3.6,8,8,8h480c4.4,0,8-3.6,8-8V488C648,465.9,630.1,448,608,448z
		 M232,624h-64V488c0-13.2,10.8-24,24-24h16c13.2,0,24,10.8,24,24V624z M208,448v-24c0-13.2,10.8-24,24-24h136c13.2,0,24,10.8,24,24
		v96c-6.9-5.2-15.3-8-24-8h-96c-8.7,0-17.1,2.8-24,8v-32C248,465.9,230.1,448,208,448z M392,552v24H248v-24c0-13.2,10.8-24,24-24h96
		C381.2,528,392,538.8,392,552z M552,624H248v-32h304V624z M552,576H408v-24c0-13.2,10.8-24,24-24h96c13.2,0,24,10.8,24,24V576z
		 M552,488v32c-6.9-5.2-15.3-8-24-8h-96c-8.7,0-17.1,2.8-24,8v-96c0-13.2,10.8-24,24-24h136c13.2,0,24,10.8,24,24v24
		C569.9,448,552,465.9,552,488z M632,624h-64V488c0-13.2,10.8-24,24-24h16c13.2,0,24,10.8,24,24V624z"/>
	<path class="st93" d="M520,160H280c-4.4,0-8,3.6-8,8v176c0,4.4,3.6,8,8,8h240c4.4,0,8-3.6,8-8V168C528,163.6,524.4,160,520,160z
		 M512,336H288V176h224V336z"/>
	<path class="st93" d="M496,184H304c-4.4,0-8,3.6-8,8v128c0,4.4,3.6,8,8,8h192c4.4,0,8-3.6,8-8V192C504,187.6,500.4,184,496,184z
		 M337.1,312l22.9-27.5l22.9,27.5H337.1z M403.8,312l-16.7-20l32.6-39.1L464,312H403.8z M488,312h-4l-57.6-76.8
		c-2.6-3.5-7.7-4.3-11.2-1.6c-0.5,0.4-1,0.8-1.4,1.3l-37.2,44.6l-10.5-12.6c-2.8-3.4-7.9-3.9-11.3-1c-0.4,0.3-0.7,0.7-1,1L316.2,312
		H312V200h176V312z"/>
	<path class="st93" d="M360,256c13.3,0,24-10.7,24-24s-10.7-24-24-24s-24,10.7-24,24C336,245.2,346.8,256,360,256z M360,224
		c4.4,0,8,3.6,8,8s-3.6,8-8,8s-8-3.6-8-8C352,227.6,355.6,224,360,224z"/>
</g>
</svg>
