<?xml version="1.0" encoding="utf-8"?>
<!-- Generator: Adobe Illustrator 21.0.2, SVG Export Plug-In . SVG Version: 6.00 Build 0)  -->
<svg version="1.1" id="Capa_1" xmlns="http://www.w3.org/2000/svg" xmlns:xlink="http://www.w3.org/1999/xlink" x="0px" y="0px"
	 viewBox="0 0 800 800" style="enable-background:new 0 0 800 800;" xml:space="preserve">
<style type="text/css">
	.st0{fill:#E30F1C;}
	.st1{fill:#474747;}
	.st2{clip-path:url(#SVGID_2_);}
	.st3{clip-path:url(#SVGID_6_);}
	.st4{clip-path:url(#SVGID_10_);}
	.st5{clip-path:url(#SVGID_14_);}
	.st6{clip-path:url(#SVGID_18_);}
	.st7{clip-path:url(#SVGID_22_);}
	.st8{clip-path:url(#SVGID_26_);}
	.st9{clip-path:url(#SVGID_30_);}
	.st10{clip-path:url(#SVGID_34_);}
	.st11{clip-path:url(#SVGID_38_);}
	.st12{clip-path:url(#SVGID_42_);}
	.st13{clip-path:url(#SVGID_46_);}
	.st14{clip-path:url(#SVGID_50_);}
	.st15{clip-path:url(#SVGID_54_);}
	.st16{clip-path:url(#SVGID_58_);}
	.st17{clip-path:url(#SVGID_62_);}
	.st18{clip-path:url(#SVGID_66_);}
	.st19{clip-path:url(#SVGID_70_);}
	.st20{clip-path:url(#SVGID_74_);}
	.st21{clip-path:url(#SVGID_78_);}
	.st22{clip-path:url(#SVGID_82_);}
	.st23{clip-path:url(#SVGID_86_);}
	.st24{clip-path:url(#SVGID_90_);}
	.st25{clip-path:url(#SVGID_94_);}
	.st26{clip-path:url(#SVGID_98_);}
	.st27{clip-path:url(#SVGID_102_);}
	.st28{clip-path:url(#SVGID_106_);}
	.st29{clip-path:url(#SVGID_110_);}
	.st30{clip-path:url(#SVGID_114_);}
	.st31{clip-path:url(#SVGID_118_);}
	.st32{clip-path:url(#SVGID_122_);}
	.st33{clip-path:url(#SVGID_126_);}
	.st34{clip-path:url(#SVGID_130_);}
	.st35{clip-path:url(#SVGID_134_);}
	.st36{clip-path:url(#SVGID_138_);}
	.st37{clip-path:url(#SVGID_142_);}
	.st38{clip-path:url(#SVGID_146_);}
	.st39{clip-path:url(#SVGID_150_);}
	.st40{clip-path:url(#SVGID_154_);}
	.st41{clip-path:url(#SVGID_158_);}
	.st42{clip-path:url(#SVGID_162_);}
	.st43{clip-path:url(#SVGID_166_);}
	.st44{clip-path:url(#SVGID_170_);}
	.st45{clip-path:url(#SVGID_174_);}
	.st46{clip-path:url(#SVGID_178_);}
	.st47{clip-path:url(#SVGID_182_);}
	.st48{clip-path:url(#SVGID_186_);}
	.st49{clip-path:url(#SVGID_190_);}
	.st50{clip-path:url(#SVGID_194_);}
	.st51{clip-path:url(#SVGID_198_);}
	.st52{clip-path:url(#SVGID_202_);}
	.st53{clip-path:url(#SVGID_206_);}
	.st54{clip-path:url(#SVGID_210_);}
	.st55{clip-path:url(#SVGID_214_);}
	.st56{clip-path:url(#SVGID_218_);}
	.st57{clip-path:url(#SVGID_222_);}
	.st58{clip-path:url(#SVGID_226_);}
	.st59{clip-path:url(#SVGID_230_);}
	.st60{clip-path:url(#SVGID_234_);}
	.st61{clip-path:url(#SVGID_238_);}
	.st62{clip-path:url(#SVGID_242_);}
	.st63{clip-path:url(#SVGID_246_);}
	.st64{clip-path:url(#SVGID_250_);}
	.st65{clip-path:url(#SVGID_254_);}
	.st66{clip-path:url(#SVGID_258_);}
	.st67{clip-path:url(#SVGID_262_);}
	.st68{clip-path:url(#SVGID_266_);}
	.st69{clip-path:url(#SVGID_270_);}
	.st70{clip-path:url(#SVGID_274_);}
	.st71{clip-path:url(#SVGID_278_);}
	.st72{clip-path:url(#SVGID_282_);}
	.st73{clip-path:url(#SVGID_286_);}
	.st74{clip-path:url(#SVGID_290_);}
	.st75{clip-path:url(#SVGID_294_);}
	.st76{clip-path:url(#SVGID_298_);}
	.st77{clip-path:url(#SVGID_302_);}
	.st78{clip-path:url(#SVGID_306_);}
	.st79{clip-path:url(#SVGID_310_);}
	.st80{clip-path:url(#SVGID_314_);}
	.st81{clip-path:url(#SVGID_318_);}
	.st82{clip-path:url(#SVGID_322_);}
	.st83{fill:#FF8F10;}
	.st84{fill:#060D35;}
	.st85{fill:#51488B;}
	.st86{fill:#F8B1A1;}
	.st87{fill:#215A36;}
	.st88{fill:#F8B3A2;}
	.st89{fill:#FFFFFF;}
	.st90{fill:#EE4A7B;}
	.st91{fill:#EE4A7B;stroke:#EE4A7B;stroke-width:7;stroke-miterlimit:10;}
	.st92{fill:#EE4A7B;stroke:#EE4A7B;stroke-width:10;stroke-miterlimit:10;}
	.st93{fill:#EE4A7B;stroke:#EE4A7B;stroke-miterlimit:10;}
	.st94{fill:#E1E0E5;}
</style>
<path class="st83" d="M114.1,532.4h158.7c4.9,21.4-10.2,44.2-29.4,54.9c-19.2,10.7-42.4,11.6-64.2,9.2c-8.7-1-17.4-2.4-25.5-5.5
	C128.8,581.4,113.4,559,114.1,532.4"/>
<path class="st83" d="M508.3,532.4H667c4.9,21.4-10.2,44.2-29.4,54.9c-19.2,10.7-42.4,11.6-64.2,9.2c-8.7-1-17.4-2.4-25.5-5.5
	C523,581.4,507.6,559,508.3,532.4"/>
<path class="st83" d="M722.1,411.7c-0.3,4.8-0.7,9.7-2.9,14c-4.1,8.2-15.1,12.3-23.6,8.8c-5.6-2.3-9.7-7.2-13.1-12.3
	c-4.2-6.2-7.8-13.3-7.9-20.8c0-2.7,0.4-5.4,1.6-7.8c3.4-6.2,11.5-8.1,18.5-7.7C711.7,386.9,723.4,394,722.1,411.7 M525.6,388.4
	c-62.6-1.1-125.2-2.2-187.8-3.3c-2.5-36.7-1.6-73.7,2.9-110.2c0.7-5.3,1.7-11.1,5.6-14.2c3.1-2.5,7.2-2.7,11.1-2.8
	c24.3-0.7,79.4-13.8,99.9,0.9C475,271.3,529,367.7,525.6,388.4 M408.8,430.4c-0.5,2.2-3,3-5.2,3.5c-10.3,2.2-20.8,4.1-31.4,4.4
	c-5.2,0.1-27.2,0.7-29.4-5.7c-4.1-12.1,43-8.2,47.1-8.3c4.6-0.1,9.2-0.1,13.6,0.9C406.3,425.8,409.4,427.8,408.8,430.4 M303,302.1
	c-2.8,23.1-5.6,46.2-8.3,69.3c-0.4,2.9-0.8,6-2.8,8.1c-2.6,2.7-6.8,2.7-10.5,2.6c-42.1-1.3-84.1-2.6-126.2-3.9
	c-2.1-17.4-3.8-36.4,6-50.9c4.7-7,11.7-12.2,18.7-16.9c32.6-22,71.4-39.8,110.4-46.4C315.9,259.7,305.3,283,303,302.1 M737.3,389.2
	c-1.8-3.5-5.2-5.9-8.6-7.9c-33-19.7-73.7-19.2-112.1-20.5c-12.3-0.4-25.5-1.4-34.9-9.3c-5.5-4.6-9.1-11-12.5-17.3
	c-9.5-17.3-19-34.7-28.5-52c-9.4-17.1-19-34.5-33.1-48c-38.4-36.5-98.2-34.7-151-30.6c-48.4,3.8-235.2,49.5-249.8,93.3
	c-25,75.2-36.2,108.2-45,186.9c-0.9,8.2-1.7,16.9,1.9,24.4c8.2,17.2,32.1,15,51.2,15c193.1,0.2,359.2,2.2,553.4,0.9
	c23.3-0.2,47.3,0.7,60.6-18.5c6.9-10,7.6-23,8-35.1c0.8-23.1,1.6-46.2,2.4-69.3C739.1,397.2,739.2,392.9,737.3,389.2"/>
</svg>
