<?xml version="1.0" encoding="utf-8"?>
<!-- Generator: Adobe Illustrator 21.0.2, SVG Export Plug-In . SVG Version: 6.00 Build 0)  -->
<svg version="1.1" id="Capa_1" xmlns="http://www.w3.org/2000/svg" xmlns:xlink="http://www.w3.org/1999/xlink" x="0px" y="0px"
	 viewBox="0 0 800 800" style="enable-background:new 0 0 800 800;" xml:space="preserve">
<style type="text/css">
	.st0{fill:#E30F1C;}
	.st1{fill:#474747;}
	.st2{clip-path:url(#SVGID_2_);}
	.st3{clip-path:url(#SVGID_6_);}
	.st4{clip-path:url(#SVGID_10_);}
	.st5{clip-path:url(#SVGID_14_);}
	.st6{clip-path:url(#SVGID_18_);}
	.st7{clip-path:url(#SVGID_22_);}
	.st8{clip-path:url(#SVGID_26_);}
	.st9{clip-path:url(#SVGID_30_);}
	.st10{clip-path:url(#SVGID_34_);}
	.st11{clip-path:url(#SVGID_38_);}
	.st12{clip-path:url(#SVGID_42_);}
	.st13{clip-path:url(#SVGID_46_);}
	.st14{clip-path:url(#SVGID_50_);}
	.st15{clip-path:url(#SVGID_54_);}
	.st16{clip-path:url(#SVGID_58_);}
	.st17{clip-path:url(#SVGID_62_);}
	.st18{clip-path:url(#SVGID_66_);}
	.st19{clip-path:url(#SVGID_70_);}
	.st20{clip-path:url(#SVGID_74_);}
	.st21{clip-path:url(#SVGID_78_);}
	.st22{clip-path:url(#SVGID_82_);}
	.st23{clip-path:url(#SVGID_86_);}
	.st24{clip-path:url(#SVGID_90_);}
	.st25{clip-path:url(#SVGID_94_);}
	.st26{clip-path:url(#SVGID_98_);}
	.st27{clip-path:url(#SVGID_102_);}
	.st28{clip-path:url(#SVGID_106_);}
	.st29{clip-path:url(#SVGID_110_);}
	.st30{clip-path:url(#SVGID_114_);}
	.st31{clip-path:url(#SVGID_118_);}
	.st32{clip-path:url(#SVGID_122_);}
	.st33{clip-path:url(#SVGID_126_);}
	.st34{clip-path:url(#SVGID_130_);}
	.st35{clip-path:url(#SVGID_134_);}
	.st36{clip-path:url(#SVGID_138_);}
	.st37{clip-path:url(#SVGID_142_);}
	.st38{clip-path:url(#SVGID_146_);}
	.st39{clip-path:url(#SVGID_150_);}
	.st40{clip-path:url(#SVGID_154_);}
	.st41{clip-path:url(#SVGID_158_);}
	.st42{clip-path:url(#SVGID_162_);}
	.st43{clip-path:url(#SVGID_166_);}
	.st44{clip-path:url(#SVGID_170_);}
	.st45{clip-path:url(#SVGID_174_);}
	.st46{clip-path:url(#SVGID_178_);}
	.st47{clip-path:url(#SVGID_182_);}
	.st48{clip-path:url(#SVGID_186_);}
	.st49{clip-path:url(#SVGID_190_);}
	.st50{clip-path:url(#SVGID_194_);}
	.st51{clip-path:url(#SVGID_198_);}
	.st52{clip-path:url(#SVGID_202_);}
	.st53{clip-path:url(#SVGID_206_);}
	.st54{clip-path:url(#SVGID_210_);}
	.st55{clip-path:url(#SVGID_214_);}
	.st56{clip-path:url(#SVGID_218_);}
	.st57{clip-path:url(#SVGID_222_);}
	.st58{clip-path:url(#SVGID_226_);}
	.st59{clip-path:url(#SVGID_230_);}
	.st60{clip-path:url(#SVGID_234_);}
	.st61{clip-path:url(#SVGID_238_);}
	.st62{clip-path:url(#SVGID_242_);}
	.st63{clip-path:url(#SVGID_246_);}
	.st64{clip-path:url(#SVGID_250_);}
	.st65{clip-path:url(#SVGID_254_);}
	.st66{clip-path:url(#SVGID_258_);}
	.st67{clip-path:url(#SVGID_262_);}
	.st68{clip-path:url(#SVGID_266_);}
	.st69{clip-path:url(#SVGID_270_);}
	.st70{clip-path:url(#SVGID_274_);}
	.st71{clip-path:url(#SVGID_278_);}
	.st72{clip-path:url(#SVGID_282_);}
	.st73{clip-path:url(#SVGID_286_);}
	.st74{clip-path:url(#SVGID_290_);}
	.st75{clip-path:url(#SVGID_294_);}
	.st76{clip-path:url(#SVGID_298_);}
	.st77{clip-path:url(#SVGID_302_);}
	.st78{clip-path:url(#SVGID_306_);}
	.st79{clip-path:url(#SVGID_310_);}
	.st80{clip-path:url(#SVGID_314_);}
	.st81{clip-path:url(#SVGID_318_);}
	.st82{clip-path:url(#SVGID_322_);}
	.st83{fill:#FF8F10;}
	.st84{fill:#060D35;}
	.st85{fill:#51488B;}
	.st86{fill:#F8B1A1;}
	.st87{fill:#215A36;}
	.st88{fill:#F8B3A2;}
	.st89{fill:#FFFFFF;}
	.st90{fill:#EE4A7B;}
	.st91{fill:#EE4A7B;stroke:#EE4A7B;stroke-width:7;stroke-miterlimit:10;}
	.st92{fill:#EE4A7B;stroke:#EE4A7B;stroke-width:10;stroke-miterlimit:10;}
	.st93{fill:#EE4A7B;stroke:#EE4A7B;stroke-miterlimit:10;}
	.st94{fill:#E1E0E5;}
</style>
<g>
	<path class="st0" d="M525.5,280.3l-18.1,24.9l-18.1-24.9c-2.7-3.7-7.5-5.1-11.7-3.4c-0.7,0.3-16.2,6.6-30.7,16.3
		c-14.6-9.8-30-16.1-30.7-16.3c-4.2-1.7-9-0.3-11.7,3.4l-18.1,24.9l-18.1-24.9c-2.7-3.7-7.5-5.1-11.7-3.4
		c-0.7,0.3-16.2,6.6-30.7,16.3c-14.6-9.8-30.1-16.1-30.7-16.3c-4.2-1.7-9-0.3-11.7,3.4l-18.1,24.9l-18.1-24.9
		c-2.7-3.7-7.5-5.1-11.7-3.4c-0.8,0.3-19.7,8-35.5,19.6c-4.5,3.3-6.6,5.4-10.3,9.1c-13.7,13.7-6.1,70.5-2.6,83.5
		c4.8,17.5,17.5,41.1,19.5,44.7c2.3,5.4,3.8,11.1,4.4,16.8L229.1,627c1.1,10.7,10,18.7,20.7,18.7h31.1c10.8,0,19.6-8.1,20.7-18.7
		l18-176.4c0.6-5.8,2.1-11.5,4.4-16.8c0.3-0.6,1-1.8,1.9-3.5c0.9,1.7,1.6,2.9,1.9,3.5c2.3,5.4,3.8,11.1,4.4,16.8l18,176.4
		c1.1,10.7,10,18.7,20.7,18.7h31.1c10.8,0,19.6-8.1,20.7-18.7l17.9-176.4c0.6-5.8,2.1-11.5,4.4-16.8c0.3-0.6,1-1.9,1.9-3.5
		c0.9,1.7,1.6,2.9,1.9,3.5c2.3,5.4,3.8,11.1,4.4,16.8L471,627c1.1,10.7,10,18.7,20.7,18.7h31.1c10.8,0,19.6-8.1,20.7-18.7
		l17.9-176.4c0.6-5.8,2.1-11.5,4.4-16.8c2-3.6,14.7-27.1,19.5-44.7c3.6-13,11.2-69.9-2.6-83.5c-3.7-3.7-5.8-5.8-10.3-9.1
		c-15.8-11.7-34.7-19.3-35.5-19.6C533,275.3,528.2,276.6,525.5,280.3 M306.3,424.7c-0.1,0.3-0.3,0.5-0.4,0.8
		c-3.3,7.4-5.3,15.2-6.1,23.2l-17.9,176.4c-0.1,0.6-0.5,1-1.1,1h-31.1c-0.6,0-1.1-0.4-1.1-1l-17.9-176.4c-0.8-8-2.9-15.8-6.1-23.2
		c-0.1-0.3-0.3-0.6-0.4-0.8c-0.1-0.2-13.6-24.3-18-40.7c-4.9-18-6.3-57.6-2.3-64.7c3.2-3.2,4.6-4.5,7.8-6.9
		c8.3-6.1,17.9-11.1,24.2-14.1l21.4,29.5c1.9,2.6,4.8,4.1,8,4.1c3.2,0,6.1-1.5,8-4.1l21.4-29.5c4.1,2,9.7,4.8,15.3,8.2
		c-12.7,15-5.3,69.9-1.8,82.7c1.6,5.9,4.1,12.5,6.8,18.7C310.5,417.2,306.4,424.6,306.3,424.7 M445.4,384
		c-4.4,16.3-17.8,40.4-17.9,40.7c-0.1,0.3-0.3,0.5-0.4,0.8c-3.3,7.4-5.3,15.2-6.1,23.2l-18,176.4c-0.1,0.6-0.5,1-1.1,1h-31.1
		c-0.6,0-1.1-0.4-1.1-1l-18-176.4c-0.8-8-2.9-15.8-6.1-23.2c-0.1-0.3-0.3-0.6-0.4-0.8c-0.1-0.2-13.6-24.3-17.9-40.7
		c-4.9-18-6.3-57.6-2.3-64.7c3.2-3.2,4.6-4.5,7.8-6.9c8.3-6.1,17.9-11.1,24.2-14.1l21.4,29.5c1.9,2.6,4.8,4.1,8,4.1
		c3.2,0,6.1-1.5,8-4.1l21.4-29.5c6.3,3,15.8,8,24.2,14.1c3.2,2.4,4.6,3.7,7.8,6.9C451.7,326.4,450.3,366,445.4,384 M568.7,319.3
		c4,7.1,2.7,46.7-2.3,64.7c-4.4,16.3-17.8,40.4-18,40.7c-0.1,0.3-0.3,0.5-0.4,0.8c-3.3,7.4-5.3,15.2-6.1,23.2l-17.9,176.4
		c-0.1,0.6-0.5,1-1.1,1h-31.1c-0.6,0-1.1-0.4-1.1-1l-17.9-176.4c-0.8-8-2.9-15.8-6.1-23.2c-0.1-0.3-0.3-0.6-0.4-0.8
		c0-0.1-4.1-7.4-8.6-16.7c2.7-6.3,5.2-12.9,6.8-18.7c3.5-12.8,10.9-67.6-1.8-82.7c5.7-3.4,11.2-6.2,15.2-8.2l21.4,29.5
		c1.9,2.6,4.8,4.1,8,4.1c3.2,0,6.1-1.5,8-4.1l21.4-29.5c6.3,3,15.8,8,24.2,14.1C564.2,314.9,565.5,316.2,568.7,319.3"/>
	<path class="st0" d="M476,251.5c7.5,8.5,17.9,13.1,30.4,13.4h1.8c12.5-0.3,22.9-4.9,30.5-13.4c15.9-17.9,13.7-47.8,13.3-51.6
		c-1.6-33-24.6-44.8-43.8-44.8h-1.8c-19.1,0-42.1,11.8-43.8,44.8C462.4,203.5,460.1,233.5,476,251.5 M482.4,201.6V201
		c1.1-22.8,15.5-26.2,24-26.2h1.8c8.6,0,23,3.4,24,26.2v0.6c0.7,6.8,0.6,26.7-8.5,36.8c-3.9,4.4-9.3,6.6-16.3,6.7h-0.3
		c-7.1-0.1-12.5-2.3-16.5-6.7C481.8,228.2,481.7,208.4,482.4,201.6"/>
	<path class="st0" d="M264.2,264.7h1.8c12.4-0.3,22.8-4.9,30.4-13.3c15.9-18,13.6-47.9,13.2-51.6c-1.6-33-24.6-44.8-43.8-44.8h-1.8
		c-19.2,0-42.2,11.8-43.8,44.8c-0.4,3.7-2.7,33.7,13.2,51.6C241.3,260,251.9,264.5,264.2,264.7 M240.2,201.6V201
		c1-22.8,15.5-26.2,24-26.2h1.8c8.6,0,23,3.4,24,26.2v0.6c0,0.2,2.3,24.6-8.4,36.7c-3.9,4.4-9.3,6.6-16.4,6.7h-0.3
		c-7.1-0.1-12.5-2.3-16.3-6.7C239.6,228.2,239.4,208.4,240.2,201.6"/>
	<path class="st0" d="M385.2,264.7h1.8c12.5-0.3,22.9-4.9,30.5-13.3c15.9-18,13.7-47.9,13.2-51.6c-1.6-33-24.6-44.8-43.7-44.8h-1.8
		c-19.1,0-42.1,11.8-43.8,44.8c-0.4,3.7-2.7,33.7,13.3,51.6C362.4,259.9,372.9,264.5,385.2,264.7 M361.3,201.6V201
		c1.1-22.8,15.5-26.2,24-26.2h1.8c8.6,0,23,3.4,24,26.2v0.6c0,0.2,2.3,24.6-8.4,36.7c-3.9,4.4-9.3,6.6-16.5,6.7H386
		c-7.1-0.1-12.5-2.3-16.5-6.7C360.7,228.2,360.6,208.4,361.3,201.6"/>
</g>
</svg>
