<?xml version="1.0" encoding="utf-8"?>
<!-- Generator: Adobe Illustrator 21.0.2, SVG Export Plug-In . SVG Version: 6.00 Build 0)  -->
<svg version="1.1" id="Capa_1" xmlns="http://www.w3.org/2000/svg" xmlns:xlink="http://www.w3.org/1999/xlink" x="0px" y="0px"
	 viewBox="0 0 800 800" style="enable-background:new 0 0 800 800;" xml:space="preserve">
<style type="text/css">
	.st0{fill:#E30F1C;}
	.st1{fill:#474747;}
	.st2{clip-path:url(#SVGID_2_);}
	.st3{clip-path:url(#SVGID_6_);}
	.st4{clip-path:url(#SVGID_10_);}
	.st5{clip-path:url(#SVGID_14_);}
	.st6{clip-path:url(#SVGID_18_);}
	.st7{clip-path:url(#SVGID_22_);}
	.st8{clip-path:url(#SVGID_26_);}
	.st9{clip-path:url(#SVGID_30_);}
	.st10{clip-path:url(#SVGID_34_);}
	.st11{clip-path:url(#SVGID_38_);}
	.st12{clip-path:url(#SVGID_42_);}
	.st13{clip-path:url(#SVGID_46_);}
	.st14{clip-path:url(#SVGID_50_);}
	.st15{clip-path:url(#SVGID_54_);}
	.st16{clip-path:url(#SVGID_58_);}
	.st17{clip-path:url(#SVGID_62_);}
	.st18{clip-path:url(#SVGID_66_);}
	.st19{clip-path:url(#SVGID_70_);}
	.st20{clip-path:url(#SVGID_74_);}
	.st21{clip-path:url(#SVGID_78_);}
	.st22{clip-path:url(#SVGID_82_);}
	.st23{clip-path:url(#SVGID_86_);}
	.st24{clip-path:url(#SVGID_90_);}
	.st25{clip-path:url(#SVGID_94_);}
	.st26{clip-path:url(#SVGID_98_);}
	.st27{clip-path:url(#SVGID_102_);}
	.st28{clip-path:url(#SVGID_106_);}
	.st29{clip-path:url(#SVGID_110_);}
	.st30{clip-path:url(#SVGID_114_);}
	.st31{clip-path:url(#SVGID_118_);}
	.st32{clip-path:url(#SVGID_122_);}
	.st33{clip-path:url(#SVGID_126_);}
	.st34{clip-path:url(#SVGID_130_);}
	.st35{clip-path:url(#SVGID_134_);}
	.st36{clip-path:url(#SVGID_138_);}
	.st37{clip-path:url(#SVGID_142_);}
	.st38{clip-path:url(#SVGID_146_);}
	.st39{clip-path:url(#SVGID_150_);}
	.st40{clip-path:url(#SVGID_154_);}
	.st41{clip-path:url(#SVGID_158_);}
	.st42{clip-path:url(#SVGID_162_);}
	.st43{clip-path:url(#SVGID_166_);}
	.st44{clip-path:url(#SVGID_170_);}
	.st45{clip-path:url(#SVGID_174_);}
	.st46{clip-path:url(#SVGID_178_);}
	.st47{clip-path:url(#SVGID_182_);}
	.st48{clip-path:url(#SVGID_186_);}
	.st49{clip-path:url(#SVGID_190_);}
	.st50{clip-path:url(#SVGID_194_);}
	.st51{clip-path:url(#SVGID_198_);}
	.st52{clip-path:url(#SVGID_202_);}
	.st53{clip-path:url(#SVGID_206_);}
	.st54{clip-path:url(#SVGID_210_);}
	.st55{clip-path:url(#SVGID_214_);}
	.st56{clip-path:url(#SVGID_218_);}
	.st57{clip-path:url(#SVGID_222_);}
	.st58{clip-path:url(#SVGID_226_);}
	.st59{clip-path:url(#SVGID_230_);}
	.st60{clip-path:url(#SVGID_234_);}
	.st61{clip-path:url(#SVGID_238_);}
	.st62{clip-path:url(#SVGID_242_);}
	.st63{clip-path:url(#SVGID_246_);}
	.st64{clip-path:url(#SVGID_250_);}
	.st65{clip-path:url(#SVGID_254_);}
	.st66{clip-path:url(#SVGID_258_);}
	.st67{clip-path:url(#SVGID_262_);}
	.st68{clip-path:url(#SVGID_266_);}
	.st69{clip-path:url(#SVGID_270_);}
	.st70{clip-path:url(#SVGID_274_);}
	.st71{clip-path:url(#SVGID_278_);}
	.st72{clip-path:url(#SVGID_282_);}
	.st73{clip-path:url(#SVGID_286_);}
	.st74{clip-path:url(#SVGID_290_);}
	.st75{clip-path:url(#SVGID_294_);}
	.st76{clip-path:url(#SVGID_298_);}
	.st77{clip-path:url(#SVGID_302_);}
	.st78{clip-path:url(#SVGID_306_);}
	.st79{clip-path:url(#SVGID_310_);}
	.st80{clip-path:url(#SVGID_314_);}
	.st81{clip-path:url(#SVGID_318_);}
	.st82{clip-path:url(#SVGID_322_);}
	.st83{fill:#FF8F10;}
	.st84{fill:#060D35;}
	.st85{fill:#51488B;}
	.st86{fill:#F8B1A1;}
	.st87{fill:#215A36;}
	.st88{fill:#F8B3A2;}
	.st89{fill:#FFFFFF;}
	.st90{fill:#EE4A7B;}
	.st91{fill:#EE4A7B;stroke:#EE4A7B;stroke-width:7;stroke-miterlimit:10;}
	.st92{fill:#EE4A7B;stroke:#EE4A7B;stroke-width:10;stroke-miterlimit:10;}
	.st93{fill:#EE4A7B;stroke:#EE4A7B;stroke-miterlimit:10;}
	.st94{fill:#E1E0E5;}
</style>
<g>
	<g>
		<path class="st90" d="M612,387.6V262.4c17.5-6.2,30-22.9,30-42.4c0-24.8-20.2-45-45-45s-45,20.2-45,45c0,5.3,0.9,10.3,2.6,15
			h-33.9c-13.8,0-16.3-4.1-39.8-12.6c-1.2-0.6-44.6-17.4-94.9-17.4c-37.5,0-70.7,8.8-92.2,16.4c-0.9,0.2-1.8,0.6-2.7,1
			c-23.6,8.5-26.1,12.6-39.8,12.6h-33.9c1.7-4.7,2.6-9.7,2.6-15c0-24.8-20.2-45-45-45s-45,20.2-45,45c0,19.6,12.5,36.2,30,42.4
			v125.2c-17.5,6.2-30,22.9-30,42.4c0,9.7,0,174.5,0,180c0,8.3,6.7,15,15,15h45c5.7,0,10.9-3.2,13.4-8.3l10.9-21.7h343.5l10.9,21.7
			c2.5,5.1,7.7,8.3,13.4,8.3h45c8.3,0,15-6.7,15-15c0-6,0-170.7,0-180C642,410.4,629.5,393.8,612,387.6z M597,205
			c8.3,0,15,6.7,15,15s-6.7,15-15,15s-15-6.7-15-15S588.7,205,597,205z M251.3,265c21.2,0,28.4-6.7,51.2-14.9c0.1,0,0.2-0.1,0.3-0.1
			c15.8-5.6,47.6-15,83.2-15c28.1,0,57.6,5.9,83.5,15.1c22.9,8.2,30,14.9,51.2,14.9H582v120h-38.1c5.1-8.8,8.1-19.1,8.1-30
			c0-33.1-26.9-60-60-60H280c-33.1,0-60,26.9-60,60c0,10.9,2.9,21.2,8.1,30H190V265H251.3z M522,355c0,16.5-13.5,30-30,30
			c-7.3,0-204.4,0-212,0c-16.5,0-30-13.5-30-30s13.5-30,30-30h212C508.5,325,522,338.5,522,355z M175,205c8.3,0,15,6.7,15,15
			s-6.7,15-15,15s-15-6.7-15-15S166.7,205,175,205z M612,595h-20.7l-10.9-21.7c-2.5-5.1-7.7-8.3-13.4-8.3H205
			c-5.7,0-10.9,3.2-13.4,8.3L180.7,595H160v-60h452V595z M612,505H160v-75c0-8.3,6.7-15,15-15c7,0,415.1,0,422,0c8.3,0,15,6.7,15,15
			V505z"/>
	</g>
</g>
</svg>
