<?xml version="1.0" encoding="utf-8"?>
<!-- Generator: Adobe Illustrator 21.0.2, SVG Export Plug-In . SVG Version: 6.00 Build 0)  -->
<svg version="1.1" id="Capa_1" xmlns="http://www.w3.org/2000/svg" xmlns:xlink="http://www.w3.org/1999/xlink" x="0px" y="0px"
	 viewBox="0 0 800 800" style="enable-background:new 0 0 800 800;" xml:space="preserve">
<style type="text/css">
	.st0{fill:#E30F1C;}
	.st1{fill:#474747;}
	.st2{clip-path:url(#SVGID_2_);}
	.st3{clip-path:url(#SVGID_6_);}
	.st4{clip-path:url(#SVGID_10_);}
	.st5{clip-path:url(#SVGID_14_);}
	.st6{clip-path:url(#SVGID_18_);}
	.st7{clip-path:url(#SVGID_22_);}
	.st8{clip-path:url(#SVGID_26_);}
	.st9{clip-path:url(#SVGID_30_);}
	.st10{clip-path:url(#SVGID_34_);}
	.st11{clip-path:url(#SVGID_38_);}
	.st12{clip-path:url(#SVGID_42_);}
	.st13{clip-path:url(#SVGID_46_);}
	.st14{clip-path:url(#SVGID_50_);}
	.st15{clip-path:url(#SVGID_54_);}
	.st16{clip-path:url(#SVGID_58_);}
	.st17{clip-path:url(#SVGID_62_);}
	.st18{clip-path:url(#SVGID_66_);}
	.st19{clip-path:url(#SVGID_70_);}
	.st20{clip-path:url(#SVGID_74_);}
	.st21{clip-path:url(#SVGID_78_);}
	.st22{clip-path:url(#SVGID_82_);}
	.st23{clip-path:url(#SVGID_86_);}
	.st24{clip-path:url(#SVGID_90_);}
	.st25{clip-path:url(#SVGID_94_);}
	.st26{clip-path:url(#SVGID_98_);}
	.st27{clip-path:url(#SVGID_102_);}
	.st28{clip-path:url(#SVGID_106_);}
	.st29{clip-path:url(#SVGID_110_);}
	.st30{clip-path:url(#SVGID_114_);}
	.st31{clip-path:url(#SVGID_118_);}
	.st32{clip-path:url(#SVGID_122_);}
	.st33{clip-path:url(#SVGID_126_);}
	.st34{clip-path:url(#SVGID_130_);}
	.st35{clip-path:url(#SVGID_134_);}
	.st36{clip-path:url(#SVGID_138_);}
	.st37{clip-path:url(#SVGID_142_);}
	.st38{clip-path:url(#SVGID_146_);}
	.st39{clip-path:url(#SVGID_150_);}
	.st40{clip-path:url(#SVGID_154_);}
	.st41{clip-path:url(#SVGID_158_);}
	.st42{clip-path:url(#SVGID_162_);}
	.st43{clip-path:url(#SVGID_166_);}
	.st44{clip-path:url(#SVGID_170_);}
	.st45{clip-path:url(#SVGID_174_);}
	.st46{clip-path:url(#SVGID_178_);}
	.st47{clip-path:url(#SVGID_182_);}
	.st48{clip-path:url(#SVGID_186_);}
	.st49{clip-path:url(#SVGID_190_);}
	.st50{clip-path:url(#SVGID_194_);}
	.st51{clip-path:url(#SVGID_198_);}
	.st52{clip-path:url(#SVGID_202_);}
	.st53{clip-path:url(#SVGID_206_);}
	.st54{clip-path:url(#SVGID_210_);}
	.st55{clip-path:url(#SVGID_214_);}
	.st56{clip-path:url(#SVGID_218_);}
	.st57{clip-path:url(#SVGID_222_);}
	.st58{clip-path:url(#SVGID_226_);}
	.st59{clip-path:url(#SVGID_230_);}
	.st60{clip-path:url(#SVGID_234_);}
	.st61{clip-path:url(#SVGID_238_);}
	.st62{clip-path:url(#SVGID_242_);}
	.st63{clip-path:url(#SVGID_246_);}
	.st64{clip-path:url(#SVGID_250_);}
	.st65{clip-path:url(#SVGID_254_);}
	.st66{clip-path:url(#SVGID_258_);}
	.st67{clip-path:url(#SVGID_262_);}
	.st68{clip-path:url(#SVGID_266_);}
	.st69{clip-path:url(#SVGID_270_);}
	.st70{clip-path:url(#SVGID_274_);}
	.st71{clip-path:url(#SVGID_278_);}
	.st72{clip-path:url(#SVGID_282_);}
	.st73{clip-path:url(#SVGID_286_);}
	.st74{clip-path:url(#SVGID_290_);}
	.st75{clip-path:url(#SVGID_294_);}
	.st76{clip-path:url(#SVGID_298_);}
	.st77{clip-path:url(#SVGID_302_);}
	.st78{clip-path:url(#SVGID_306_);}
	.st79{clip-path:url(#SVGID_310_);}
	.st80{clip-path:url(#SVGID_314_);}
	.st81{clip-path:url(#SVGID_318_);}
	.st82{clip-path:url(#SVGID_322_);}
	.st83{fill:#FF8F10;}
	.st84{fill:#060D35;}
	.st85{fill:#51488B;}
	.st86{fill:#F8B1A1;}
	.st87{fill:#215A36;}
	.st88{fill:#F8B3A2;}
	.st89{fill:#FFFFFF;}
	.st90{fill:#EE4A7B;}
	.st91{fill:#EE4A7B;stroke:#EE4A7B;stroke-width:7;stroke-miterlimit:10;}
	.st92{fill:#EE4A7B;stroke:#EE4A7B;stroke-width:10;stroke-miterlimit:10;}
	.st93{fill:#EE4A7B;stroke:#EE4A7B;stroke-miterlimit:10;}
	.st94{fill:#E1E0E5;}
</style>
<path class="st91" d="M616,256H472c-4.4,0-8,3.6-8,8v184H288v-24c0-4.4-3.6-8-8-8h-24v16h16v16h-32v-32h-16v32h-32v-16h16v-16h-24
	c-4.4,0-8,3.6-8,8v24h-24c-4.4,0-8,3.6-8,8v176c0,4.4,3.6,8,8,8h464c4.4,0,8-3.6,8-8V264C624,259.6,620.4,256,616,256z M480,272h128
	v96H480V272z M464,496H320v-32h144V496z M160,464h144v32H160V464z M160,512h144v112H160V512z M320,512h64v112h-64V512z M400,512h64
	v112h-64V512z M480,624V384h128v240H480z"/>
<path class="st91" d="M496,304h16v32h-16V304z"/>
<path class="st91" d="M496,416h16v32h-16V416z"/>
<path class="st91" d="M192,480c0,4.4-3.6,8-8,8s-8-3.6-8-8s3.6-8,8-8S192,475.6,192,480z"/>
<path class="st91" d="M224,480c0,4.4-3.6,8-8,8s-8-3.6-8-8s3.6-8,8-8S224,475.6,224,480z"/>
<path class="st91" d="M256,480c0,4.4-3.6,8-8,8s-8-3.6-8-8s3.6-8,8-8S256,475.6,256,480z"/>
<path class="st91" d="M288,480c0,4.4-3.6,8-8,8s-8-3.6-8-8s3.6-8,8-8S288,475.6,288,480z"/>
<path class="st91" d="M152,312h160c4.4,0,8-3.6,8-8v-24c0-2.1-0.8-4.2-2.3-5.7l-32-32c-1.5-1.5-3.5-2.3-5.7-2.3h-8v-72
	c0-4.4-3.6-8-8-8h-64c-4.4,0-8,3.6-8,8v72h-8c-2.1,0-4.2,0.8-5.7,2.3l-32,32c-1.5,1.5-2.3,3.5-2.3,5.7v24
	C144,308.4,147.6,312,152,312z M208,176h48v64h-48V176z M160,283.3l27.3-27.3h89.4l27.3,27.3V296H160V283.3z"/>
<path class="st91" d="M280,528h-96c-4.4,0-8,3.6-8,8v64c0,4.4,3.6,8,8,8h96c4.4,0,8-3.6,8-8v-64C288,531.6,284.4,528,280,528z
	 M272,592h-80v-48h80V592z"/>
<path class="st91" d="M376,472h32v16h-32V472z"/>
<path class="st91" d="M352,552h16v32h-16V552z"/>
<path class="st91" d="M416,552h16v32h-16V552z"/>
<path class="st91" d="M336,360h48c4.4,0,8-3.6,8-8v-8c-0.1-14.5-9.9-27.2-24-30.9V160h-16v153.1c-14.1,3.6-23.9,16.3-24,30.9v8
	C328,356.4,331.6,360,336,360z M360,328c8.8,0,16,7.2,16,16h-32C344,335.2,351.2,328,360,328z"/>
<path class="st91" d="M392,296h48c4.4,0,8-3.6,8-8v-8c-0.1-14.5-9.9-27.2-24-30.9V160h-16v89.1c-14.1,3.6-23.9,16.3-24,30.9v8
	C384,292.4,387.6,296,392,296z M416,264c8.8,0,16,7.2,16,16h-32C400,271.2,407.2,264,416,264z"/>
</svg>
