<?xml version="1.0" encoding="utf-8"?>
<!-- Generator: Adobe Illustrator 21.0.2, SVG Export Plug-In . SVG Version: 6.00 Build 0)  -->
<svg version="1.1" id="Capa_1" xmlns="http://www.w3.org/2000/svg" xmlns:xlink="http://www.w3.org/1999/xlink" x="0px" y="0px"
	 viewBox="0 0 800 800" style="enable-background:new 0 0 800 800;" xml:space="preserve">
<style type="text/css">
	.st0{fill:#E30F1C;}
	.st1{fill:#474747;}
	.st2{clip-path:url(#SVGID_2_);}
	.st3{clip-path:url(#SVGID_6_);}
	.st4{clip-path:url(#SVGID_10_);}
	.st5{clip-path:url(#SVGID_14_);}
	.st6{clip-path:url(#SVGID_18_);}
	.st7{clip-path:url(#SVGID_22_);}
	.st8{clip-path:url(#SVGID_26_);}
	.st9{clip-path:url(#SVGID_30_);}
	.st10{clip-path:url(#SVGID_34_);}
	.st11{clip-path:url(#SVGID_38_);}
	.st12{clip-path:url(#SVGID_42_);}
	.st13{clip-path:url(#SVGID_46_);}
	.st14{clip-path:url(#SVGID_50_);}
	.st15{clip-path:url(#SVGID_54_);}
	.st16{clip-path:url(#SVGID_58_);}
	.st17{clip-path:url(#SVGID_62_);}
	.st18{clip-path:url(#SVGID_66_);}
	.st19{clip-path:url(#SVGID_70_);}
	.st20{clip-path:url(#SVGID_74_);}
	.st21{clip-path:url(#SVGID_78_);}
	.st22{clip-path:url(#SVGID_82_);}
	.st23{clip-path:url(#SVGID_86_);}
	.st24{clip-path:url(#SVGID_90_);}
	.st25{clip-path:url(#SVGID_94_);}
	.st26{clip-path:url(#SVGID_98_);}
	.st27{clip-path:url(#SVGID_102_);}
	.st28{clip-path:url(#SVGID_106_);}
	.st29{clip-path:url(#SVGID_110_);}
	.st30{clip-path:url(#SVGID_114_);}
	.st31{clip-path:url(#SVGID_118_);}
	.st32{clip-path:url(#SVGID_122_);}
	.st33{clip-path:url(#SVGID_126_);}
	.st34{clip-path:url(#SVGID_130_);}
	.st35{clip-path:url(#SVGID_134_);}
	.st36{clip-path:url(#SVGID_138_);}
	.st37{clip-path:url(#SVGID_142_);}
	.st38{clip-path:url(#SVGID_146_);}
	.st39{clip-path:url(#SVGID_150_);}
	.st40{clip-path:url(#SVGID_154_);}
	.st41{clip-path:url(#SVGID_158_);}
	.st42{clip-path:url(#SVGID_162_);}
	.st43{clip-path:url(#SVGID_166_);}
	.st44{clip-path:url(#SVGID_170_);}
	.st45{clip-path:url(#SVGID_174_);}
	.st46{clip-path:url(#SVGID_178_);}
	.st47{clip-path:url(#SVGID_182_);}
	.st48{clip-path:url(#SVGID_186_);}
	.st49{clip-path:url(#SVGID_190_);}
	.st50{clip-path:url(#SVGID_194_);}
	.st51{clip-path:url(#SVGID_198_);}
	.st52{clip-path:url(#SVGID_202_);}
	.st53{clip-path:url(#SVGID_206_);}
	.st54{clip-path:url(#SVGID_210_);}
	.st55{clip-path:url(#SVGID_214_);}
	.st56{clip-path:url(#SVGID_218_);}
	.st57{clip-path:url(#SVGID_222_);}
	.st58{clip-path:url(#SVGID_226_);}
	.st59{clip-path:url(#SVGID_230_);}
	.st60{clip-path:url(#SVGID_234_);}
	.st61{clip-path:url(#SVGID_238_);}
	.st62{clip-path:url(#SVGID_242_);}
	.st63{clip-path:url(#SVGID_246_);}
	.st64{clip-path:url(#SVGID_250_);}
	.st65{clip-path:url(#SVGID_254_);}
	.st66{clip-path:url(#SVGID_258_);}
	.st67{clip-path:url(#SVGID_262_);}
	.st68{clip-path:url(#SVGID_266_);}
	.st69{clip-path:url(#SVGID_270_);}
	.st70{clip-path:url(#SVGID_274_);}
	.st71{clip-path:url(#SVGID_278_);}
	.st72{clip-path:url(#SVGID_282_);}
	.st73{clip-path:url(#SVGID_286_);}
	.st74{clip-path:url(#SVGID_290_);}
	.st75{clip-path:url(#SVGID_294_);}
	.st76{clip-path:url(#SVGID_298_);}
	.st77{clip-path:url(#SVGID_302_);}
	.st78{clip-path:url(#SVGID_306_);}
	.st79{clip-path:url(#SVGID_310_);}
	.st80{clip-path:url(#SVGID_314_);}
	.st81{clip-path:url(#SVGID_318_);}
	.st82{clip-path:url(#SVGID_322_);}
	.st83{fill:#FF8F10;}
	.st84{fill:#060D35;}
	.st85{fill:#51488B;}
	.st86{fill:#F8B1A1;}
	.st87{fill:#215A36;}
	.st88{fill:#F8B3A2;}
	.st89{fill:#FFFFFF;}
	.st90{fill:#EE4A7B;}
	.st91{fill:#EE4A7B;stroke:#EE4A7B;stroke-width:7;stroke-miterlimit:10;}
	.st92{fill:#EE4A7B;stroke:#EE4A7B;stroke-width:10;stroke-miterlimit:10;}
	.st93{fill:#EE4A7B;stroke:#EE4A7B;stroke-miterlimit:10;}
	.st94{fill:#E1E0E5;}
</style>
<g>
	<path class="st0" d="M523.7,543.2h-85.7c-3.9,0-7.1-3.2-7.1-7.2v-92.9h-57.2V536c0,4-3.2,7.2-7.1,7.2h-85.7c-3.9,0-7.1-3.2-7.1-7.2
		V393.2c0-4,3.2-7.1,7.1-7.1c4,0,7.2,3.2,7.2,7.1v135.7h71.4V436c0-3.9,3.2-7.1,7.1-7.1h71.4c3.9,0,7.1,3.2,7.1,7.1v92.9h71.4V400.3
		c0-4,3.2-7.1,7.2-7.1c3.9,0,7.1,3.2,7.1,7.1V536C530.8,540,527.6,543.2,523.7,543.2 M566.5,393.2c-1.8,0-3.7-0.7-5.1-2.1
		L402.2,231.8L242.9,391.1c-2.8,2.8-7.3,2.8-10.1,0c-2.8-2.8-2.8-7.3,0-10.1l164.3-164.3c2.8-2.8,7.3-2.8,10.1,0L571.6,381
		c2.8,2.8,2.8,7.3,0,10.1C570.2,392.5,568.3,393.2,566.5,393.2"/>
	<path class="st0" d="M132.3,502.5v-40.4c2.9-0.5,5.5-0.8,8-1.4c29.6-6,60.5-30.5,55.3-73.1c-2.3-19.2-5.3-38.4-9.3-57.4
		c-5-23.9-12.7-46.9-28.1-66.4c-6.4-8.1-14.4-15.2-22.3-22c-6-5.1-13-5-19.7-0.2c-13.4,9.6-23.7,21.9-31.6,36.3
		c-11.1,20-17.2,41.8-21.3,64.1c-3.6,19.7-8,39.4-6.9,59.6c0.9,17.6,8.7,31.9,22.1,43.2c11.5,9.7,25,15.2,40.1,17.2v43.7
		c-0.8,0.3-1.4,0.4-2,0.6c-23.8,7.8-47.5,15.6-71.3,23.5c-3.4,1.1-6.3,2.7-6.4,6.9c-0.1,5.3,5,7.8,11.1,5.3
		c73-29.9,149.5-43.1,228-45.2l4.2-13.4C226.4,484.4,186.4,489.4,132.3,502.5 M131.9,420.6c-0.2-5.3,1.3-9.1,5.2-12.6
		c6.8-6.2,13.2-12.9,19.7-19.4c3.5-3.5,3.8-7.5,1-10.2c-3-2.9-6.6-2.5-10.2,1.1c-4.8,4.8-9.6,9.6-14.3,14.5
		c-0.4-0.1-0.8-0.3-1.2-0.4v-5.1v-53.4c0-1.1,0-2.3,0-3.4c-0.2-5.1-2.5-7.9-6.6-7.9c-4.1,0-6.5,2.8-6.6,7.9c-0.1,8.6,0,17.1,0,27.2
		c-2.9-2.9-4.9-5-7-6.9c-3.5-3.3-7.2-3.6-9.9-1c-2.9,2.8-2.6,6.7,0.7,10.2c0.6,0.6,1.1,1.1,1.7,1.7c4.7,4.8,11.2,8.9,13.7,14.7
		c2.4,5.6,0.7,13,0.7,19.7c0,15.4,0,30.7,0,46.1v5.2c-30.3-2-52-27-49.4-58.1c2.6-29.8,7.6-59.3,18.1-87.5
		c6.9-18.5,17.1-34.8,32.4-47.5c5.7-4.8,6.5-4.8,12.2-0.1c17.5,14.5,28.1,33.5,35,54.8c8.9,27.5,14.4,55.7,15.6,84.6
		c1.2,29.2-21,52.4-50.8,54C132,439.2,132.3,429.9,131.9,420.6"/>
	<path class="st0" d="M520.8,483.8l1.5,13.3c78.4,2.1,154.9,15.3,228,45.2c6.1,2.5,11.2,0,11.1-5.4c-0.1-4.2-3-5.8-6.4-6.9
		c-23.7-7.9-47.5-15.7-71.3-23.5c-0.6-0.2-1.2-0.4-2-0.6v-43.7c15.1-2,28.6-7.4,40.1-17.2c13.4-11.3,21.1-25.6,22.1-43.2
		c1.1-20.2-3.3-39.9-6.9-59.6c-4.1-22.3-10.2-44.1-21.3-64.1c-7.9-14.3-18.2-26.7-31.6-36.3c-6.7-4.8-13.7-4.9-19.7,0.2
		c-8,6.7-15.9,13.9-22.3,22c-15.4,19.4-23.2,42.5-28.1,66.4c-3.9,19-6.9,38.1-9.3,57.4c-5.2,42.6,25.7,67,55.3,73.1
		c2.5,0.5,5.1,0.9,8,1.3v40.4C613.9,489.4,576.6,484.4,520.8,483.8 M668.4,448.6c-29.8-1.6-52-24.8-50.8-54
		c1.2-28.8,6.7-57.1,15.6-84.6c6.9-21.2,17.5-40.3,35-54.8c5.7-4.7,6.5-4.7,12.2,0.1c15.3,12.8,25.5,29,32.4,47.5
		c10.5,28.2,15.6,57.7,18.1,87.5c2.6,31.1-19.1,56.1-49.4,58.1v-5.2c0-15.4,0-30.7,0-46.1c0-6.6-1.7-14,0.7-19.7
		c2.5-5.8,9-9.9,13.7-14.7c0.6-0.6,1.2-1.1,1.7-1.7c3.3-3.5,3.6-7.5,0.7-10.2c-2.7-2.6-6.4-2.3-9.9,1c-2.1,2-4.1,4.1-7,6.9
		c0-10,0.1-18.6,0-27.2c0-5.1-2.5-7.9-6.6-7.9c-4.1,0-6.4,2.8-6.6,7.9c0,1.1,0,2.3,0,3.4v53.4v5.1c-0.4,0.1-0.8,0.3-1.2,0.4
		c-4.8-4.8-9.5-9.7-14.3-14.5c-3.6-3.6-7.2-3.9-10.2-1.1c-2.8,2.7-2.5,6.7,1,10.2c6.5,6.5,12.9,13.2,19.7,19.4
		c3.9,3.6,5.4,7.4,5.2,12.6C668.1,429.9,668.4,439.2,668.4,448.6"/>
</g>
</svg>
