<?xml version="1.0" encoding="utf-8"?>
<!-- Generator: Adobe Illustrator 21.0.2, SVG Export Plug-In . SVG Version: 6.00 Build 0)  -->
<svg version="1.1" id="Capa_1" xmlns="http://www.w3.org/2000/svg" xmlns:xlink="http://www.w3.org/1999/xlink" x="0px" y="0px"
	 viewBox="0 0 800 800" style="enable-background:new 0 0 800 800;" xml:space="preserve">
<style type="text/css">
	.st0{fill:#ED4A7B;}
</style>
<g>
	<path class="st0" d="M698.7,60.6c-3,0.1-6.1,0.4-8.6,2c-9.1,6-0.8,21.6-6.3,31.1c-35.6-3.6-73.7-6.7-104.9,10.9
		c-27.4,15.4-50.6,39.8-58.6,70.4c-8,30.6-9.3,65.2-9.1,96.8c0.2,31-0.2,68.3,0,99.3c44.6,3.4,98.1,4,143.3,3
		c0.9-36.2,1.9-72.5,2.9-108.7c0.2-8.6,0.7-17.8,5.9-24.6c5.2-6.7,17.2-8.6,21.7-1.3c3.6,5.8,0.6,13.6,2.6,20.2
		c3.6,11.5,18.9,12.8,30.9,11.9c3.6-0.3,7.5-0.7,10.2-3c2.9-2.6,3.7-6.7,4.3-10.6c7.3-46.7,12.1-174.9,8.8-185.8
		C737.2,57.1,711.5,60.1,698.7,60.6"/>
	<path class="st0" d="M491.5,378.6c-2-0.1-4.1-0.1-5.9,0.9c-3.2,1.8-3.9,6-4.1,9.7c-0.6,9.8-0.4,19.7,0.7,29.5c0.2,2,0.5,4,1.7,5.5
		c1.9,2.4,5.4,2.7,8.5,2.7c55.8,1,111.6,1.9,167.4,2.9c5.2,0.1,11.3-0.2,14.3-4.6c1.8-2.7,2-6.1,1.9-9.4
		c-0.2-12.9,1.8-28.3-13.4-30.3c-18.8-2.4-38.5-1.9-57.4-2.7C567.4,381.2,529.5,379.8,491.5,378.6"/>
	<path class="st0" d="M183.7,586c2,8.2,5.3,16.2,9.6,23.5c0.9,1.5,2,3.1,3.7,3.7c1.9,0.6,3.8-0.3,5.7-0.8
		c14.1-3.3,24.9,18.9,39,15.5c8-1.9,11.8-11.2,12.4-19.4c0.1-1.9,0.2-3.9,1-5.6c1.4-2.9,4.7-4.5,7.9-4.8c7.7-0.6,14.3,5,21.1,8.7
		c6.8,3.7,17,4.7,20.8-2.2c3-5.6-0.6-12.7,0.9-19c1.2-5.5,6.3-10.1,5.9-15.7c-0.7-9.8-15.3-11.9-13.6-22c-5.4,4.3-8.9,10.9-9,17.9
		c-0.1,5.2,0.2,12.5-4.9,13.3c-3.2,0.5-5.8-2.4-8.2-4.6c-9.1-8.1-24.6-7.2-32.7,1.9c-3.6,4-5.7,9.1-9.1,13.1c-0.8,0.9-1.7,1.8-2.8,2
		c-1.5,0.2-3-0.8-4.2-1.8c-11.2-8.8-25.8-15.8-39.2-11c-1.8,0.6-3.6,1.6-4.2,3.4C183.1,583.4,183.4,584.8,183.7,586 M281.9,664.5
		c5.6-1.6,8.9-8.6,6.7-14.1c-0.5-1.2-1.2-2.4-2.2-3.3c-2.1-1.9-5.2-2.5-7.8-1.6c-5,0.2-9.6,5-9.3,10.1
		C269.8,661.5,276.3,666,281.9,664.5 M356.3,645.6c1.9,2.3,4.9,3.3,7.9,3.7c2.8,0.4,5.9,0.4,8.2-1.4c2.2-1.7,3.1-4.8,2.8-7.6
		c-0.3-4.1-2.8-8-6.4-9.9c-7.6-4.2-12.9-0.2-14.1,7.6C354.2,640.7,354.6,643.6,356.3,645.6 M360.1,710.8c0.9,0.5,1.9,0.6,3,0.6
		c4.3,0.3,9.5,0.1,11.8-3.6c0.7-1.2,1-2.6,1.1-4c0.1-3.3-1.3-6.7-3.9-8.7c-2.6-2-6.4-2.3-9.2-0.6l1.4,0.4c-1.8-0.6-3.8,0.5-4.9,2
		c-1.1,1.5-1.4,3.5-1.7,5.3C357.2,705.4,357.3,709.3,360.1,710.8 M430.3,705.7c2.6,5.1,10.1,6.8,14.6,3.4c0.8-0.6,1.5-1.3,1.9-2.2
		c0.4-1,0.5-2.1,0.5-3.2c0-4.5-1.4-9.5-5.4-11.5c-2.9-1.4-6.3-0.8-9.5-0.2l3.5-0.3C430.5,693.4,427.6,700.6,430.3,705.7
		 M461.2,635.7c3.3-4.9,2.2-12-1.9-16.2c-14.2-14.6-26.1,8.4-13.4,18.9C450.4,642.1,458,640.6,461.2,635.7 M497.2,561.6
		c0.6,0.8,1.7,0.9,2.7,1.1c6.9,0.9,12.8,7,13.5,14c0.5,4.9-1.1,10.8,2.4,14.3c1.4,1.4,3.3,2.1,5.3,2.4c7.2,1.1,14.3-2.2,21.4-3.9
		c7.1-1.7,16-1.2,19.8,5c1.5,2.4,2.1,5.5,4.3,7.4c2.5,2.1,6.2,1.8,9.4,1c8.1-2.1,16.2-7,24.3-4.8c2.2,0.6,4.3,1.7,6.6,1.7
		c4.4,0.1,7.9-3.9,9.6-8c11-22.1-17.5-13.9-30-12.9c-1.2,0.1-2.5,0.2-3.6-0.3c-1.6-0.7-2.5-2.3-3.4-3.8c-9.6-15.9-32.4-22-48.6-12.9
		c0.3-9.5-5.2-18.9-13.6-23.1c-1.9-0.9-4.2-1.6-6.1-0.6c-1.2,0.6-2,1.9-2.8,3.1c-3.5,5.6-7,11.1-10.5,16.7
		C497.1,559.1,496.5,560.5,497.2,561.6 M511,655.3c0.6,1.9,1.9,3.6,3.3,5c1.4,1.4,3,2.7,4.8,3.5c4.9,2,11-0.6,13.3-5.4
		c2.3-4.8,0.7-11-3.3-14.5c-3.1-2.7-7.3-3.4-11.3-2.9c-2,1.9-4.1,3.8-5.5,6.2C510.9,649.6,510.2,652.6,511,655.3 M63.8,236.8
		c4.6-3.5,10.8-3.7,16.6-3.8c11.6-0.2,26.8,2.7,28.1,14.3c0.6,5.7-2.7,12.4,0.9,16.9c2.7,3.4,7.7,3.4,12,3.1c32-1.9,64.7-0.7,95,9.9
		c30.3,10.5,58.1,31.4,71.6,60.7c28.8,62.2-12,143.3,24.4,201.3c24.4,38.8,76.7,51.7,121.4,42.7c15-3,29.8-8.2,41.9-17.6
		c17.9-13.8,28.3-35.7,32.7-58c2.9-14.3,3.5-29,3.4-43.5c0-7.3-6.1-28.7,3.5-28.6c37.8,0.7,75.6,1.4,113.3,2
		c9.2,0.2,19.5,0.9,25.5,7.9c6,7,5.2,17.4,3.9,26.6c-8,60.1-19.4,121.8-52.8,172.1c-28.1,42.2-71.1,74.2-119.5,88.6
		c-32.5,9.7-67,11.6-100.7,8.3c-17-1.7-33.9-4.7-50.4-9.4c-53.8-15.3-102.3-49-135.6-94.2c-33.4-45.2-51.4-101.7-50.5-158.1
		c0.3-17.1,2.1-35.1-5.1-50.7c-7.2-15.5-27.8-26.3-41.6-16.3c-2,10.4-3.9,20.9-5.9,31.3c-13.2,2-30.3,2.1-35.6-10.3
		c-1.6-3.7-1.7-7.9-1.7-11.9c-0.8-53.2-1.5-106.4-2.3-159.5C56.4,252,56.9,242,63.8,236.8"/>
</g>
</svg>
