<?xml version="1.0" encoding="utf-8"?>
<!-- Generator: Adobe Illustrator 21.0.2, SVG Export Plug-In . SVG Version: 6.00 Build 0)  -->
<svg version="1.1" id="Capa_1" xmlns="http://www.w3.org/2000/svg" xmlns:xlink="http://www.w3.org/1999/xlink" x="0px" y="0px"
	 viewBox="0 0 800 800" style="enable-background:new 0 0 800 800;" xml:space="preserve">
<style type="text/css">
	.st0{fill:#FFFFFF;}
	.st1{fill:#F6A733;}
</style>
<g>
	<path class="st0" d="M476.5,705.1c-49.4,12.3-88.7,18-123.5,18c-50.2,0-91.4-12.1-125.8-37.1c-53.5-38.7-94-101.8-108.4-168.7
		C76.8,321.4,153.9,162.5,325.3,92c23.4-9.6,49-14.5,76.1-14.5c61.6,0,129.3,25,185.6,68.6c46.4,35.9,78.2,83,94.4,139.8
		c9,31.5,13.4,66.7,13.1,104.5C693.7,487.9,664.3,658.4,476.5,705.1"/>
	<g>
		<path class="st1" d="M705.3,279.1c-16.7-58.4-49.2-110.9-103.1-152.7c-76.7-59.4-189.8-97-286.3-57.4
			C119.6,149.7,54,333.5,94.5,522.5c15,70.1,56.9,139.4,118.1,183.7c79.4,57.5,178,45.9,269.8,23.1
			C654,686.6,718.1,543.6,719.4,390.6C719.7,352,715.4,314.5,705.3,279.1 M476.5,705.1c-49.4,12.3-88.7,18-123.5,18
			c-50.2,0-91.4-12.1-125.8-37.1c-53.5-38.7-94-101.8-108.4-168.7C76.8,321.4,153.9,162.5,325.3,92c23.4-9.6,49-14.5,76.1-14.5
			c61.6,0,129.3,25,185.6,68.6c46.4,35.9,78.2,83,94.4,139.8c9,31.5,13.4,66.7,13.1,104.5C693.7,487.9,664.3,658.4,476.5,705.1"/>
		<path class="st1" d="M635.9,308.6c-13.5-47.5-40.1-86.8-78.9-116.8C509.6,155.1,452.8,134,401.2,134c-22.3,0-43.4,4-62.5,11.9
			c-144.7,59.5-209.9,194-174.3,359.9c12,56,45.9,108.8,90.6,141.2c28.3,20.5,62.2,30.4,103.8,30.4c29.5,0,63-4.9,105.4-15.4
			c157.4-39.1,182-182.8,182.7-265C647.2,364.9,643.5,335.2,635.9,308.6"/>
		<path class="st0" d="M352.9,345.8c0.3-35.7,11.9-101.4,47.4-95.6c28.3,4.6,35,55.9,37.1,93.7c-13,0.1-26.1,0.2-39.1,0.2
			C383,344.2,367.9,345,352.9,345.8 M520.6,510.9c-3.5-20.1-8.3-39.9-11.5-60c-3-18.9-4.7-38-5.7-57.1c-0.4-7.5,2-49.3-4.2-51.2
			c-12.9-3.9-32.6,0.6-46.6,1.1c-2.7-46.2-12-111.1-53.7-112.4c-45.7-1.4-61.9,71.7-61.5,115.3c-9.7,0.5-19.5,1-29.3,1.2
			c-3.9,0.1-7.8,0.2-11.5,1.4c-1.2,0.4-2.5,1-3.1,2.2c-0.6,1-0.6,2.2-0.6,3.4c0,18.2,0,36-0.8,54.2c-0.7,16.4-1.2,32.9-2.5,49.3
			c-1.5,19.2-3.6,38.3-6.1,57.4c-2.2,16.7-7.9,35.1-7.9,51.9c18,4.2,40.2,0.1,58.6,0c21.2-0.1,42.5-0.2,63.8-0.3
			c20.2-0.1,40.4-0.2,60.7-0.3c19-0.1,40.1-3.2,58.8-0.1c2.2,0.4,4.5,0.7,6.5-0.4C531.7,561.9,522.1,519.1,520.6,510.9"/>
	</g>
</g>
</svg>
