<?xml version="1.0" encoding="utf-8"?>
<!-- Generator: Adobe Illustrator 21.0.2, SVG Export Plug-In . SVG Version: 6.00 Build 0)  -->
<svg version="1.1" id="Capa_1" xmlns="http://www.w3.org/2000/svg" xmlns:xlink="http://www.w3.org/1999/xlink" x="0px" y="0px"
	 viewBox="0 0 800 800" style="enable-background:new 0 0 800 800;" xml:space="preserve">
<style type="text/css">
	.st0{fill:#E3A522;}
	.st1{fill:#060D35;}
</style>
<path class="st0" d="M142.4,432.1c-11.5-2-22-6-30.5-14.6c-7.3-7.4-9.9-16.6-10.7-26.4c-0.9-10.2,0.7-20.2,2.7-30.2
	c2.6-12.7,8.6-23.3,17.8-32.1c9.6-9.2,21.2-14.1,34.2-15.9c22.7-3,44.9-0.3,66.8,5.8c17.2,4.8,25.5,17,28.4,33.7
	c0.5,2.7,1,5.4,1.2,8.1c0.2,2.3-0.5,4.4-0.4,6.7c0.3,5.9,0.5,11.9,0,17.8c-0.3,4.4-1,8.8-2.2,13c-0.7,2.5-1.9,4.5-2.9,6.9
	c-1,2.3-2.2,4.6-3.6,6.7c-2.8,4.3-6.4,8.2-10.6,11.2c-6.9,5-15,6.8-23.2,8.6c-9.1,2-18.4,3.2-27.7,3.5c-6.7,0.2-13.3,0-20-0.7
	C155.3,433.8,148.9,432.5,142.4,432.1"/>
<path class="st0" d="M318.2,527.5c-9.2-1.6-17.5-4.8-24.3-11.6c-5.8-5.9-7.9-13.2-8.6-21c-0.7-8.1,0.5-16.1,2.1-24
	c2-10.1,6.8-18.5,14.2-25.6c7.6-7.3,16.9-11.2,27.2-12.6c18.1-2.4,35.8-0.3,53.2,4.6c13.7,3.8,20.3,13.5,22.7,26.9
	c0.4,2.1,0.8,4.3,1,6.5c0.1,1.8-0.4,3.5-0.3,5.4c0.2,4.7,0.4,9.5,0,14.2c-0.3,3.5-0.8,7-1.8,10.4c-0.6,2-1.5,3.6-2.3,5.5
	c-0.8,1.9-1.7,3.7-2.9,5.4c-2.3,3.5-5.1,6.5-8.5,8.9c-5.5,4-12,5.4-18.5,6.9c-7.3,1.6-14.7,2.6-22.1,2.8c-5.3,0.2-10.6,0-15.9-0.5
	C328.5,528.8,323.4,527.8,318.2,527.5"/>
<path class="st1" d="M378.3,301.7L378.3,301.7c11,14.6,30.9,19,49.2,20.1c21.6,1.3,45.3-1.5,60.7-16.6c7.1-6.9,11.9-16,15.5-25.2
	c7.4-19.3,9.6-42.2-1.5-59.6c-5.4-8.4-13.4-14.8-22.2-19.6c-28-15.1-60.1-12.2-86.1,5.5c-17.6,12.1-21,26.8-23.3,47
	C368.8,269.8,367.7,287.7,378.3,301.7"/>
<path class="st1" d="M163.1,506.2L163.1,506.2c-12.3-8-28.5-5.9-42.6-1.8c-16.6,4.9-33.7,13.4-41.3,29c-3.5,7.2-4.6,15.3-4.8,23.2
	c-0.3,16.5,4.2,34.5,17.3,44.6c6.3,4.9,14.2,7.5,22.1,8.7c25.3,3.8,48.6-7.1,63.4-27.5c10-13.9,8.6-25.9,4.8-41.8
	C179,527.6,174.9,513.8,163.1,506.2"/>
<path class="st1" d="M631.5,389.5L631.5,389.5c7.9,10.4,22,13.5,35,14.3c15.4,0.9,32.2-1.1,43.2-11.8c5.1-4.9,8.5-11.4,11-18
	c5.3-13.7,6.8-30.1-1.1-42.4c-3.8-6-9.6-10.5-15.8-13.9c-20-10.8-42.8-8.7-61.2,3.9c-12.5,8.6-14.9,19.1-16.6,33.5
	C624.7,366.8,623.9,379.5,631.5,389.5"/>
<path class="st1" d="M505.6,501.1L505.6,501.1c7.9,10.4,22,13.5,35,14.3c15.4,0.9,32.2-1.1,43.2-11.8c5.1-4.9,8.5-11.4,11-18
	c5.3-13.7,6.8-30.1-1.1-42.4c-3.8-6-9.6-10.5-15.8-13.9c-20-10.8-42.8-8.7-61.2,3.9c-12.5,8.6-14.9,19.1-16.6,33.5
	C498.8,478.4,498.1,491.2,505.6,501.1"/>
</svg>
