<?xml version="1.0" encoding="utf-8"?>
<!-- Generator: Adobe Illustrator 21.0.2, SVG Export Plug-In . SVG Version: 6.00 Build 0)  -->
<svg version="1.1" id="Capa_1" xmlns="http://www.w3.org/2000/svg" xmlns:xlink="http://www.w3.org/1999/xlink" x="0px" y="0px"
	 viewBox="0 0 800 800" style="enable-background:new 0 0 800 800;" xml:space="preserve">
<style type="text/css">
	.st0{fill:#ED4A7B;}
</style>
<path class="st0" d="M529.2,530.7c-4.6,3.1-10.5,3.7-16.1,4.1c-67.7,5.4-135.4,10.8-203.1,16.2c-4.6,0.4-11.2-1.5-10-5.9
	c0.3-1.1,1.1-2,1.9-2.8c43.8-47.8,88.7-94.5,134.6-140.2c20.6-20.4,45.1-54.8,70.6-68.5c16.5-8.9,16.7-1.2,21,17.9
	c3,13.2,4,26.9,4.9,40.4c2.6,36.2,4.5,72.4,5.7,108.7C539.1,511.6,538.4,524.6,529.2,530.7 M297.3,442.4c-4-4.7,71.3-86.6,78.8-94.8
	c10-10.9,28.6-38.9,43.2-42.7c12.8-3.4,34.1,10,21,22.9c-42.6,42.2-82.8,86.8-120.4,133.5C311.3,456.3,303.7,449.9,297.3,442.4
	 M265.4,500.3c2.7-16.3,9.3-30,17.3-44.4c6.8,8.4,13.7,16.8,20.5,25.2C289.3,491.7,281.4,493.3,265.4,500.3 M682.5,202.6
	c-145.9-34.9-298.5,2.2-448.5,0.2c-23.3-0.3-49.8-3.2-63.7-21.9c-10.5-14.1-10.5-33-10.2-50.6c-11.7-1.3-24-0.9-33.4,6.2
	c-11.7,8.8-12.4,25.9-12,40.6c4.2,153.4,8.5,306.8,12.7,460.2c0.1,4.2,0.3,8.7,2.5,12.4c3.6,6.1,11.4,8,18.3,9.1
	c32.8,5.2,66.1,4.8,99.3,4.5c137.8-1.4,195.7,7.6,421.7-12.1c9.5-0.8,16.5-183.9,17.8-262.6C688.1,325.8,686.8,265.3,682.5,202.6"/>
</svg>
