<?xml version="1.0" encoding="utf-8"?>
<!-- Generator: Adobe Illustrator 21.0.2, SVG Export Plug-In . SVG Version: 6.00 Build 0)  -->
<svg version="1.1" id="Capa_1" xmlns="http://www.w3.org/2000/svg" xmlns:xlink="http://www.w3.org/1999/xlink" x="0px" y="0px"
	 viewBox="0 0 800 800" style="enable-background:new 0 0 800 800;" xml:space="preserve">
<style type="text/css">
	.st0{fill:#ED4A7B;}
</style>
<path class="st0" d="M702.1,420c-15,0.3-30.1,0.6-45.1,0.9c-17,0.3-34,0.6-50.9-2.3c-13.7-2.4-27.2-6.9-40.3-13.2
	c-0.7-0.3-1.5-0.7-2.1-1.5c-1.8-2.3-0.9-6.9,1.1-8.9c2-1.9,4.5-1.9,6.9-1.8c29.6,1,59.1,2.2,88.7,3.8c11.9,0.6,34.9-4.5,45.5,2.8
	C716.8,407.3,716.1,419.8,702.1,420 M465,423.2c-15.1,0.3-30.1,0.6-45.1,0.9c-17,0.3-34,0.6-50.9-2.3c-13.7-2.4-27.2-6.9-40.3-13.2
	c-0.7-0.4-1.5-0.7-2.1-1.5c-1.8-2.3-0.9-6.9,1.1-8.9c2-1.9,4.5-1.9,6.9-1.8c29.6,1,59.1,2.2,88.7,3.8c11.9,0.6,34.9-4.5,45.5,2.8
	C479.7,410.5,479,422.9,465,423.2 M233.4,420.4c-15,0.3-30.1,0.6-45.1,0.9c-17,0.3-34,0.6-50.9-2.3c-13.7-2.4-27.2-6.9-40.3-13.2
	c-0.7-0.4-1.5-0.7-2.1-1.5c-1.8-2.3-0.9-6.9,1.1-8.9c2-1.9,4.5-1.9,6.9-1.8c29.6,1,59.1,2.2,88.7,3.8c11.9,0.6,34.9-4.5,45.5,2.8
	C248.1,407.7,247.4,420.2,233.4,420.4 M742,300.9c-0.1-79.3,2.4-113-83.6-115.8c-37.7-1.2-463.9,9.4-574.1,22.9
	c-25.9,3.2-26,17.2-25.9,19.5c4.5,102,10.7,218.6,18.8,320.4c1.4,17.4,3.2,35.8,13.7,49.7c12.9,17.1,122.8,12.9,144.2,14.5
	c156.4,11.5,318.3-10.4,469.5-2.3c12,0.6,25.1-4.5,32-14.4c5.3-7.6,5.5-17.5,5.5-26.8C742.1,479.3,742.2,390.1,742,300.9"/>
</svg>
