<?xml version="1.0" encoding="utf-8"?>
<!-- Generator: Adobe Illustrator 21.0.2, SVG Export Plug-In . SVG Version: 6.00 Build 0)  -->
<svg version="1.1" id="Capa_1" xmlns="http://www.w3.org/2000/svg" xmlns:xlink="http://www.w3.org/1999/xlink" x="0px" y="0px"
	 viewBox="0 0 800 800" style="enable-background:new 0 0 800 800;" xml:space="preserve">
<style type="text/css">
	.st0{fill:#FFFFFF;}
	.st1{fill:#987BB6;}
</style>
<g>
	<path class="st0" d="M482.5,730.6c-53.5,13.3-96,19.5-133.7,19.5c-54.4,0-98.9-13.1-136.2-40.2C154.7,668,110.9,599.7,95.3,527.2
		C49.8,315.1,133.3,143,318.9,66.7c25.3-10.4,53-15.7,82.4-15.7c66.7,0,139.9,27.1,200.9,74.2c50.3,38.9,84.7,89.8,102.3,151.4
		c9.7,34.1,14.5,72.2,14.2,113.1C717.8,495.4,685.9,680,482.5,730.6"/>
	<g>
		<path class="st1" d="M730.3,269.4c-18-63.2-53.2-120.1-111.7-165.3c-83-64.3-205.5-105.1-310-62.2C96.2,129.2,25.1,328.2,69,532.9
			c16.3,75.9,61.6,150.9,127.8,198.9c85.9,62.3,192.7,49.7,292.2,25c185.8-46.2,255.1-201,256.5-366.6
			C745.9,348.3,741.2,307.7,730.3,269.4 M482.5,730.6c-53.5,13.3-96,19.5-133.7,19.5c-54.4,0-98.9-13.1-136.2-40.2
			C154.7,668,110.9,599.7,95.3,527.2C49.8,315.1,133.3,143,318.9,66.7c25.3-10.4,53-15.7,82.4-15.7c66.7,0,139.9,27.1,200.9,74.2
			c50.3,38.9,84.7,89.8,102.3,151.4c9.7,34.1,14.5,72.2,14.2,113.1C717.8,495.4,685.9,680,482.5,730.6"/>
		<path class="st1" d="M655.1,301.2c-14.7-51.4-43.4-94-85.4-126.5C518.4,135,456.9,112.2,401,112.2c-24.2,0-46.9,4.3-67.7,12.9
			c-156.7,64.4-227.2,210.1-188.7,389.7c13,60.7,49.7,117.8,98.1,152.9c30.6,22.2,67.4,32.9,112.4,32.9c32,0,68.2-5.3,114.1-16.7
			c170.4-42.4,197-198,197.8-287C667.4,362.2,663.4,330,655.1,301.2"/>
		<path class="st0" d="M329.6,244.7c0.3-15.7,8.4-29.2,24.3-32.4c12.4-2.5,25.5,11.3,25.1,23c-0.4,11.7-9.7,20.5-19.6,27
			c-4.3,2.8-9.3,5.5-15,4.5C334.4,265.1,329.4,253.6,329.6,244.7 M603.7,496.2c-10.6,29.4-37.2,37.3-52.1,39.5
			c-12.2,1.7-25.2,0.9-37.7-2.4c-13.2-3.5-23-7.2-30.7-15c-20.9-21-17.6-63.3-0.6-87.2c2.1-3,4.7-5.8,7.6-8.4c2.1,3,4.2,5.8,6,8.3
			c6.7,9.2,13.7,18.7,20.9,27.8c3.8,4.8,7.7,9.3,13.5,11.9c1,0.4,2.1,0.6,3.2,0.4c2-0.3,3.8-1.5,4.6-3.5c1.3-3-0.1-6.5-3.1-7.8
			c-3.3-1.4-6-4.6-8.9-8.3c-7.1-9-14-18.3-20.7-27.5c-1.8-2.5-3.8-5.2-5.9-8.1c2.9-1.7,5.9-3.1,9-4.3c4.1-1.6,9.1-2.7,15.1-3.6
			c5-0.7,10.1-1.1,14.7-1.5c21.3-1.7,39.7,6.7,51.6,23.7C602.5,447.5,611.4,474.7,603.7,496.2 M448.2,367.5
			c-0.6,0.1-1.3,0.2-1.9,0.3l-85.2,14.4c-2.8-0.8-5.9-1.2-8.9-1.1c-18.3,0.3-36.3,3.2-54.7,2.4c-2.1-0.1-4.3-0.2-5.9-1.6
			c-1.3-1.1-1.9-2.8-2.3-4.5c-2.2-11.2,7.7-20.4,14.2-28.1c8.1-9.4,16.4-19.1,26.9-25.9c11.4-7.4,22.2-6.6,35.2-3.8
			c10.9,2.4,21.9,4.7,32.8,7.1c0.9,0.2,1.9,0.5,3,0.8c-2.6,1-4.3,3.7-3.8,6.5c0.5,3.2,3.5,5.4,6.7,4.9c0,0,0.1,0,0.1,0l27.8-4.5
			c5.5,9.7,12.4,21,19.9,32.6C450.6,367.2,449.2,367.4,448.2,367.5 M459.9,389.8c-6.6,18.4-14.3,36.6-22.8,54.3
			c-2.1,4.4-4.5,8.8-6.7,13c-2.1,4-4.3,8-6.3,12.1c-1.1,2.2-2,4.4-3,6.7c-2.3,5.4-4.5,10.5-8.2,14c-3.5,3.3-9.4,4.6-15.7,5.8
			c-16.7,3.1-33.6,5.6-50.7,7.5c-2.8-16.5-10-32-17.8-43c-0.6-0.9-1.3-1.8-2-2.6c13.2-14.3,26.7-28.5,37.7-44.7
			c3.7-5.5,7.3-11.6,7.1-18.3c0-0.7-0.1-1.4-0.2-2.1l77.1-13.1c0.5-0.1,1-0.2,1.5-0.2c5.6-0.8,9.2-0.3,10.6,1.6
			C461.8,382.3,461.6,385.1,459.9,389.8 M330.5,534.6c-10.6,29.4-37.2,37.3-52.1,39.5c-12.2,1.7-25.3,0.9-37.7-2.4
			c-13.2-3.5-23-7.2-30.7-15c-20.9-21-17.6-63.3-0.7-87.2c6-8.4,15.6-15.6,26.3-19.7c4.1-1.6,9-2.8,15.1-3.6
			c5-0.7,10.1-1.1,14.7-1.5c10.4-0.8,20.1,0.8,28.7,4.6l-12.5,22.5c-2.9,4.3-5.8,8.6-8.6,13c-4.3,6.6-10.7,14.1-11.5,22.3
			c-0.1,0.9-0.1,1.8,0.5,2.5c1.1,1.3,3.1,0.5,4.5-0.3c0.8-0.5,1.6-1,2.3-1.5c0.5,1.5,1.3,2.9,2.5,4.3c5.7,7,15.8,6.8,20.1,6.6
			c14-0.4,28-1.2,42-2.4C333.4,522.7,332.5,528.9,330.5,534.6 M280.1,500.5c13.2-9.5,25.4-20.5,36.7-32.3c0.1,0.1,0.1,0.2,0.2,0.3
			c6.9,9.9,12.8,22.8,15.2,36.2c-13.7,1.2-27.4,2-41.2,2.4c-3.6,0.1-8.7,0-10.5-2.3C280.1,504.3,279.4,503.3,280.1,500.5
			 M601.9,421.8c-15-21.2-37.8-31.8-64.4-29.7c-4.5,0.3-10.1,0.8-15.5,1.6c-7.1,1-13.1,2.4-18.2,4.4c-4.3,1.6-8.4,3.7-12.2,6
			c-15.5-22.1-34.3-50.2-46.7-71.7c3.2-0.6,5.4-3.6,4.8-6.8c-0.5-3.2-3.6-5.4-6.8-4.9l-7.1,1.2c-0.9,0-1.7,0.1-2.5,0.4l-5.7,0.9
			c-17.3-13.7-39.8-22.1-59.2-32.4c-16.6-8.8-34.7-20.3-54.3-14.9c-17.5,4.8-30.6,19.6-41.4,33.4c-11.4,14.6-24.5,28.3-35,43.6
			c-9.6,14-16.7,32.6-8.6,48.8c2.2,4.4,5.2,8.5,9.4,11c7,4.3,15.9,3.6,24.2,3.3c8.9-0.3,17.7-1.1,26.6-1.6
			c4.9-0.3,15.1-2.6,18.5,2.2c1.2,1.7,1.3,4,1.2,6.1c0,0.1,0,0.1,0,0.2l-7.8,14c-11-5.1-23.4-7.3-36.8-6.2
			c-4.5,0.3-10.1,0.8-15.5,1.6c-7.1,1-13.1,2.4-18.2,4.4c-13.6,5.2-25.3,14-32.9,24.8c-20.3,28.5-24.3,78.9,2.2,105.5
			c11.1,11.1,25,15.5,37.2,18.7c14.3,3.8,29.3,4.7,43.3,2.7c30.8-4.3,54-22.1,63.5-48.7c2.9-7.9,3.9-16.2,3.7-24.4
			c7.2-0.8,14.4-1.6,21.5-2.6c10.1-1.4,20.3-3.1,30.3-5c7.8-1.5,15.9-3.3,21.7-8.9c5.5-5.2,8.4-12.1,11-18c0.9-2.1,1.7-4.1,2.7-6.1
			c2-4,4-7.9,6.1-11.8c2.3-4.4,4.7-8.9,6.9-13.4c8.6-17.7,16.3-36,22.9-54.4c3.8,5.6,7.6,11,11.2,16.2c-4.2,3.6-7.9,7.6-11,11.9
			c-20.2,28.5-24.3,78.9,2.2,105.5c11.1,11.1,25,15.5,37.2,18.7c14.3,3.7,29.3,4.7,43.3,2.7c30.8-4.3,54-22.1,63.6-48.7
			C627.2,472.9,615.2,440.8,601.9,421.8"/>
	</g>
</g>
</svg>
