<?xml version="1.0" encoding="utf-8"?>
<!-- Generator: Adobe Illustrator 22.0.1, SVG Export Plug-In . SVG Version: 6.00 Build 0)  -->
<svg version="1.1" id="Capa_1" xmlns="http://www.w3.org/2000/svg" xmlns:xlink="http://www.w3.org/1999/xlink" x="0px" y="0px"
	 viewBox="0 0 800 800" style="enable-background:new 0 0 800 800;" xml:space="preserve">
<style type="text/css">
	.st0{fill:#51488B;}
</style>
<path class="st0" d="M565.2,329.3c-2-6.1-7.8-10.3-14.2-10.3H249c-6.5,0-12.2,4.1-14.2,10.3l-90,272c-1.5,4.6-0.7,9.6,2.1,13.5
	s7.3,6.2,12.2,6.2h482c4.8,0,9.3-2.3,12.2-6.2c2.8-3.9,3.6-8.9,2.1-13.5L565.2,329.3z M570.3,440H415v-91h125.2L570.3,440z
	 M259.8,349H385v91H229.7L259.8,349z M219.8,470H385v121H179.8L219.8,470z M415,591V470h165.2l40,121H415z"/>
<path class="st0" d="M475,244c0,8.3,6.7,15,15,15s15-6.7,15-15c0-24.8,20.2-45,45-45c8.3,0,15-6.7,15-15s-6.7-15-15-15
	c-24.8,0-45-20.2-45-45c0-8.3-6.7-15-15-15s-15,6.7-15,15c0,24.8-20.2,45-45,45c-8.3,0-15,6.7-15,15s6.7,15,15,15
	C454.8,199,475,219.2,475,244z M490,169c4.3,5.7,9.4,10.8,15,15c-5.7,4.3-10.8,9.4-15,15c-4.3-5.7-9.3-10.8-15-15
	C480.7,179.7,485.7,174.7,490,169z"/>
<path class="st0" d="M250,229c24.8,0,45,20.2,45,45c0,8.3,6.7,15,15,15s15-6.7,15-15c0-24.8,20.2-45,45-45c8.3,0,15-6.7,15-15
	s-6.7-15-15-15c-24.8,0-45-20.2-45-45c0-8.3-6.7-15-15-15s-15,6.7-15,15c0,24.8-20.2,45-45,45c-8.3,0-15,6.7-15,15
	S241.7,229,250,229z M310,199c4.3,5.7,9.4,10.8,15,15c-5.7,4.3-10.8,9.4-15,15c-4.3-5.7-9.3-10.8-15-15
	C300.7,209.7,305.7,204.7,310,199z"/>
</svg>
