<?xml version="1.0" encoding="utf-8"?>
<!-- Generator: Adobe Illustrator 21.0.2, SVG Export Plug-In . SVG Version: 6.00 Build 0)  -->
<svg version="1.1" id="Capa_1" xmlns="http://www.w3.org/2000/svg" xmlns:xlink="http://www.w3.org/1999/xlink" x="0px" y="0px"
	 viewBox="0 0 800 800" style="enable-background:new 0 0 800 800;" xml:space="preserve">
<style type="text/css">
	.st0{fill:#E30F1C;}
	.st1{fill:#474747;}
	.st2{clip-path:url(#SVGID_2_);}
	.st3{clip-path:url(#SVGID_6_);}
	.st4{clip-path:url(#SVGID_10_);}
	.st5{clip-path:url(#SVGID_14_);}
	.st6{clip-path:url(#SVGID_18_);}
	.st7{clip-path:url(#SVGID_22_);}
	.st8{clip-path:url(#SVGID_26_);}
	.st9{clip-path:url(#SVGID_30_);}
	.st10{clip-path:url(#SVGID_34_);}
	.st11{clip-path:url(#SVGID_38_);}
	.st12{clip-path:url(#SVGID_42_);}
	.st13{clip-path:url(#SVGID_46_);}
	.st14{clip-path:url(#SVGID_50_);}
	.st15{clip-path:url(#SVGID_54_);}
	.st16{clip-path:url(#SVGID_58_);}
	.st17{clip-path:url(#SVGID_62_);}
	.st18{clip-path:url(#SVGID_66_);}
	.st19{clip-path:url(#SVGID_70_);}
	.st20{clip-path:url(#SVGID_74_);}
	.st21{clip-path:url(#SVGID_78_);}
	.st22{clip-path:url(#SVGID_82_);}
	.st23{clip-path:url(#SVGID_86_);}
	.st24{clip-path:url(#SVGID_90_);}
	.st25{clip-path:url(#SVGID_94_);}
	.st26{clip-path:url(#SVGID_98_);}
	.st27{clip-path:url(#SVGID_102_);}
	.st28{clip-path:url(#SVGID_106_);}
	.st29{clip-path:url(#SVGID_110_);}
	.st30{clip-path:url(#SVGID_114_);}
	.st31{clip-path:url(#SVGID_118_);}
	.st32{clip-path:url(#SVGID_122_);}
	.st33{clip-path:url(#SVGID_126_);}
	.st34{clip-path:url(#SVGID_130_);}
	.st35{clip-path:url(#SVGID_134_);}
	.st36{clip-path:url(#SVGID_138_);}
	.st37{clip-path:url(#SVGID_142_);}
	.st38{clip-path:url(#SVGID_146_);}
	.st39{clip-path:url(#SVGID_150_);}
	.st40{clip-path:url(#SVGID_154_);}
	.st41{clip-path:url(#SVGID_158_);}
	.st42{clip-path:url(#SVGID_162_);}
	.st43{clip-path:url(#SVGID_166_);}
	.st44{clip-path:url(#SVGID_170_);}
	.st45{clip-path:url(#SVGID_174_);}
	.st46{clip-path:url(#SVGID_178_);}
	.st47{clip-path:url(#SVGID_182_);}
	.st48{clip-path:url(#SVGID_186_);}
	.st49{clip-path:url(#SVGID_190_);}
	.st50{clip-path:url(#SVGID_194_);}
	.st51{clip-path:url(#SVGID_198_);}
	.st52{clip-path:url(#SVGID_202_);}
	.st53{clip-path:url(#SVGID_206_);}
	.st54{clip-path:url(#SVGID_210_);}
	.st55{clip-path:url(#SVGID_214_);}
	.st56{clip-path:url(#SVGID_218_);}
	.st57{clip-path:url(#SVGID_222_);}
	.st58{clip-path:url(#SVGID_226_);}
	.st59{clip-path:url(#SVGID_230_);}
	.st60{clip-path:url(#SVGID_234_);}
	.st61{clip-path:url(#SVGID_238_);}
	.st62{clip-path:url(#SVGID_242_);}
	.st63{clip-path:url(#SVGID_246_);}
	.st64{clip-path:url(#SVGID_250_);}
	.st65{clip-path:url(#SVGID_254_);}
	.st66{clip-path:url(#SVGID_258_);}
	.st67{clip-path:url(#SVGID_262_);}
	.st68{clip-path:url(#SVGID_266_);}
	.st69{clip-path:url(#SVGID_270_);}
	.st70{clip-path:url(#SVGID_274_);}
	.st71{clip-path:url(#SVGID_278_);}
	.st72{clip-path:url(#SVGID_282_);}
	.st73{clip-path:url(#SVGID_286_);}
	.st74{clip-path:url(#SVGID_290_);}
	.st75{clip-path:url(#SVGID_294_);}
	.st76{clip-path:url(#SVGID_298_);}
	.st77{clip-path:url(#SVGID_302_);}
	.st78{clip-path:url(#SVGID_306_);}
	.st79{clip-path:url(#SVGID_310_);}
	.st80{clip-path:url(#SVGID_314_);}
	.st81{clip-path:url(#SVGID_318_);}
	.st82{clip-path:url(#SVGID_322_);}
	.st83{fill:#FF8F10;}
	.st84{fill:#060D35;}
	.st85{fill:#51488B;}
	.st86{fill:#F8B1A1;}
	.st87{fill:#215A36;}
	.st88{fill:#F8B3A2;}
	.st89{fill:#FFFFFF;}
	.st90{fill:#EE4A7B;}
	.st91{fill:#EE4A7B;stroke:#EE4A7B;stroke-width:7;stroke-miterlimit:10;}
	.st92{fill:#EE4A7B;stroke:#EE4A7B;stroke-width:10;stroke-miterlimit:10;}
	.st93{fill:#EE4A7B;stroke:#EE4A7B;stroke-miterlimit:10;}
	.st94{fill:#E1E0E5;}
</style>
<g id="Outline">
	<path class="st91" d="M511,620H351v-72h32v-16h-64c-50.3-0.1-94.5-33.6-108-82.1l-15.4,4.3C211,509.5,261.5,547.9,319,548h16v80
		c0,4.4,3.6,8,8,8h176c4.4,0,8-3.6,8-8v-48h-16V620z"/>
	<path class="st91" d="M223,428.7c0.5,5.9,1.6,11.8,3.2,17.5l15.4-4.4c-1.3-4.8-2.2-9.6-2.7-14.5L223,428.7z"/>
	<path class="st91" d="M301.5,514.4l2.9-15.7c-24.4-4.6-45.3-20.2-56.7-42.3l-14.2,7.3C247.2,490.2,272.3,508.9,301.5,514.4z"/>
	<path class="st91" d="M647,156H535c-13.2,0-24,10.8-24,24v208h-33.4c0.5-1.8,0.9-3.7,1.2-5.6c0-0.3,0.1-202.4,0.1-202.4
		c0-13.3-10.7-24-24-24s-24,10.7-24,24v176H215c-13.3,0-24,10.8-24,24c0,3.6,0.8,7.1,2.3,10.3c-1.5,1.5-2.3,3.5-2.3,5.6v24
		c0,5.7,0.4,11.4,1.1,17.1l15.9-2.1c-0.7-5-1-9.9-1-14.9v-16h448v24H519c-4.4,0-8,3.6-8,8v128h16V444h128c8.8,0,16-7.2,16-16V180
		C671,166.8,660.2,156,647,156z M535,172h112c4.4,0,8,3.6,8,8v16H527v-16C527,175.6,530.6,172,535,172z M447,180c0-4.4,3.6-8,8-8
		s8,3.6,8,8v200c0,0.3,0,0.5,0,0.8c0,0,0,0.1,0,0.1c-0.4,3.7-3.3,6.6-7,7c0,0-0.1,0-0.1,0c-4.4,0.4-8.3-2.8-8.8-7.1
		c0-0.3,0-0.5,0-0.8V180z M209.3,385.7c-3.1-3.1-3.1-8.2,0-11.3c1.5-1.5,3.5-2.3,5.7-2.3h216v8c0,2.7,0.5,5.4,1.4,8H215
		C212.9,388,210.8,387.2,209.3,385.7z M527,388V212h128v176H527z"/>
	<path class="st91" d="M615,228h-24c-8.8,0-16,7.2-16,16v10.2l-18.5,6.2c-3.3,1.1-5.5,4.1-5.5,7.6v16c0,4.4,3.6,8,8,8h56
		c8.8,0,16-7.2,16-16v-32C631,235.2,623.8,228,615,228z M615,276h-48v-2.2l18.5-6.2c3.3-1.1,5.5-4.1,5.5-7.6v-16h24V276L615,276z"/>
</g>
</svg>
