<?xml version="1.0" encoding="utf-8"?>
<!-- Generator: Adobe Illustrator 21.0.2, SVG Export Plug-In . SVG Version: 6.00 Build 0)  -->
<svg version="1.1" id="Capa_1" xmlns="http://www.w3.org/2000/svg" xmlns:xlink="http://www.w3.org/1999/xlink" x="0px" y="0px"
	 viewBox="0 0 800 800" style="enable-background:new 0 0 800 800;" xml:space="preserve">
<style type="text/css">
	.st0{fill:#FFFFFF;}
	.st1{fill:#E73E73;}
</style>
<g>
	<path class="st0" d="M495.6,727c-52.2,13-93.6,19-130.4,19c-53.1,0-96.5-12.8-132.9-39.2c-56.5-40.9-99.3-107.5-114.5-178.2
		C73.5,321.7,155,153.8,336,79.4c24.7-10.1,51.7-15.3,80.4-15.3c65.1,0,136.5,26.4,196,72.4c49.1,38,82.6,87.6,99.8,147.7
		c9.5,33.3,14.2,70.4,13.8,110.3C725.1,497.5,694,677.6,495.6,727"/>
	<g>
		<path class="st1" d="M737.3,277c-17.6-61.7-51.9-117.1-108.9-161.3C547.4,53.1,427.9,13.3,326,55.1
			C118.7,140.3,49.4,334.4,92.2,534c15.9,74,60.1,147.2,124.7,194c83.8,60.7,188,48.5,285,24.4c181.2-45.1,248.9-196.1,250.2-357.7
			C752.5,354,748,314.4,737.3,277 M495.6,727c-52.2,13-93.6,19-130.4,19c-53.1,0-96.5-12.8-132.9-39.2
			c-56.5-40.9-99.3-107.5-114.5-178.2C73.5,321.7,155,153.8,336,79.4c24.7-10.1,51.7-15.3,80.4-15.3c65.1,0,136.5,26.4,196,72.4
			c49.1,38,82.6,87.6,99.8,147.7c9.5,33.3,14.2,70.4,13.8,110.3C725.1,497.5,694,677.6,495.6,727"/>
		<path class="st1" d="M664,308.1c-14.3-50.2-42.4-91.7-83.3-123.4c-50.1-38.8-110.1-61-164.6-61c-23.6,0-45.8,4.2-66,12.5
			C197.2,199.1,128.4,341.2,166,516.4c12.7,59.2,48.5,114.9,95.7,149.2c29.9,21.6,65.7,32.1,109.7,32.1c31.2,0,66.6-5.2,111.3-16.3
			C649,640,675,488.3,675.7,401.4C676,367.6,672,336.2,664,308.1"/>
		<g>
			<path class="st0" d="M547.3,457.6c-0.2-3.6-0.4-7.2-0.6-10.7c-8.1-6.6-18.8-11.3-28.1-16.9c-2.5,1.5-5,2.9-7.5,4.4
				c-14.8,8.4-30,15.9-44.7,24.2c-13.3,7.4-25.8,17.8-41,20.9c-11.4,2.3-22.8-1.5-33.6-5.4c-36.5-13.3-72.2-28.6-106.9-45.8
				c0,15.5-2,31.2-1.5,46.8c0.2,4.7,0.4,9.4,1.8,13.9c1.5,5.1,4.4,9.8,7.8,13.9c11.4,14.2,28.1,23.2,45,29.9
				c24.8,9.8,51.4,15.6,78,15.3c0,0,0.1,0,0.1,0c0,0,0.1,0,0.1,0c26.6,0.4,53.2-5.4,78-15.3c16.9-6.7,33.6-15.7,45-29.9
				c3.4-4.2,6.3-8.8,7.8-13.9c0.3-0.9,0.5-1.8,0.7-2.7c0-2.6,0.1-5.3,0.1-7.9C547.8,471.4,547.6,464.5,547.3,457.6"/>
			<path class="st0" d="M232.1,390.9c51,28.9,104.4,53.6,159.7,73.7c10.7,3.9,22.2,7.7,33.6,5.4c15.2-3.1,27.8-13.4,41-20.9
				c14.8-8.3,30-15.8,44.7-24.2c0.2-0.1,0.4-0.3,0.6-0.4c-27.2-10.7-54.2-21.9-80.7-34.3c-16.1-7.5-29.1-18.1-13.9-34.2
				c2.7-2.9,7.1,1.5,4.4,4.4c-14.7,15.7,8.9,22.8,18.1,26.9c8.2,3.7,16.3,7.3,24.6,10.9c18,7.8,36.1,15.2,54.4,22.3
				c0.1-0.1,0.2-0.1,0.4-0.2c0.5,0.3,1,0.6,1.4,0.9c0.4,0.1,0.7,0.3,1.1,0.4c0.6,0.2,1,0.6,1.4,1c9.4,5.5,20.9,10.3,28.3,17.1
				c7.8,7.3,4.8,28.1,4.9,38.3c0.1,14.8-0.6,29.6-1.8,44.4c-1.1,13.5,19.9,13.4,21,0c1.4-16.8,2.1-33.5,1.8-50.3
				c-0.2-12.2,1.9-30.4-4.9-41.3c-5.4-8.7-17.1-12.7-25.5-17.8v-9.3c18.6-11.5,36.9-23.5,54.8-36c5.9-4.1,12.2-9.3,14.4-15.6
				c0.6-1.6,0.8-3.3,0.8-5.1c-0.3-10.2-11.4-16-20.9-19.6c-48.3-18.6-96.6-37.2-144.9-55.8c-3.3-1.5-6.8-3-10.6-4.4
				c-7.5-2.8-15.2-5.6-23.3-5.2c-8.7,0.4-16.9,4.5-24.8,8.4c-52.3,26.5-104.5,53-156.7,79.6c-9.3,4.7-20,11.6-19.7,21.9
				c0,1.5,0.3,2.9,0.8,4.2C218.9,382.7,225.8,387.4,232.1,390.9"/>
		</g>
	</g>
</g>
</svg>
