<?xml version="1.0" encoding="utf-8"?>
<!-- Generator: Adobe Illustrator 21.0.2, SVG Export Plug-In . SVG Version: 6.00 Build 0)  -->
<svg version="1.1" id="Capa_1" xmlns="http://www.w3.org/2000/svg" xmlns:xlink="http://www.w3.org/1999/xlink" x="0px" y="0px"
	 viewBox="0 0 800 800" style="enable-background:new 0 0 800 800;" xml:space="preserve">
<style type="text/css">
	.st0{fill:#FFFFFF;}
</style>
<g>
	<path class="st0" d="M430.4,270.9c0-32.5-21.2-58-48.3-58c-17.9,0-84.7,14.9-84.7,87.7c0,64.6,73.6,75.3,97.1,77.1v-38.6
		c-31.1-3.9-50.5-23.7-56.3-43.3c-4.8-16.4-0.1-31.6,12.3-39.6c11.6-7.5,24.3-8.2,35.7-2c19,10.3,29.5,36.9,30.7,59.6
		C428.8,305,430.4,282,430.4,270.9z"/>
	<path class="st0" d="M375.4,274c-1.4-0.8-3.1-1.5-5.2-1.5c-2.1,0-4.5,0.7-7.5,2.6c-5.6,3.6-3.6,11.9-2.9,14.3
		c3.5,11.7,15.3,23.6,34.7,26.9C394,298.3,385.6,279.5,375.4,274z"/>
	<path class="st0" d="M594.3,167.9c-16.6-35.5-41.6-62.6-68.8-82.6c-86.8-64-186.2-51.7-266.5,23.4c-54.5,50.9-65,113.1-72.2,198.9
		c-5.8,69.5-9.1,307.5,23.7,366.6c34.2,61.6,95.8,80.3,152.4,84.9c66.9,5.4,140.2-6.3,188.1-70.1c22.1-29.3,36.8-67.5,47.9-106.7
		C621.9,500.8,628.8,241.5,594.3,167.9z M529.2,431.1H520c-53.3,0-97.3,40.7-102.5,92.6c22.7-32.2,60.2-53.3,102.5-53.3h9.1V493H520
		c-56.8,0-103,46.2-103,103v9.2v18.4h-22.5v-18.4V596c0-56.8-46.2-103-103-103h-9.1v-22.5h9.1c42.3,0,79.7,21.1,102.4,53.3
		c-5.2-51.9-49.2-92.6-102.4-92.6h-9.1v-22.5h9.1c42.6,0,80.3,21.4,103,54v-54.5h0v-7.7c-45.1-2.2-119.6-24.8-119.6-99.7
		c0-83.3,72.2-110.2,107.2-110.2c39.7,0,70.8,35.4,70.8,80.5c0,37.4-13.2,61.7-35.8,67.6v37.1c26.5-7.9,66.8-36.3,66.8-113.1h22.5
		c0,88.6-49.8,128.3-89.3,136.5v63.7c22.7-32.6,60.4-54,103-54h9.1V431.1z"/>
</g>
</svg>
