<?xml version="1.0" encoding="utf-8"?>
<!-- Generator: Adobe Illustrator 22.0.1, SVG Export Plug-In . SVG Version: 6.00 Build 0)  -->
<svg version="1.1" id="Capa_1" xmlns="http://www.w3.org/2000/svg" xmlns:xlink="http://www.w3.org/1999/xlink" x="0px" y="0px"
	 viewBox="0 0 501.6 549.6" style="enable-background:new 0 0 501.6 549.6;" xml:space="preserve">
<style type="text/css">
	.st0{fill:#EE4A7B;}
	.st1{fill:#E1E0E5;}
</style>
<g>
	<g>
		<g>
			<g>
				<path class="st0" d="M45.9,401.4C24.2,364.9,12.7,323,12.7,280.3c0-27.7,4.7-54.8,14-80.6l5.6,2c-9.1,25.1-13.7,51.6-13.7,78.6
					c0,41.6,11.2,82.5,32.3,118.1L45.9,401.4z"/>
			</g>
			<g>
				<path class="st0" d="M454.5,401.4l-5.1-3c21.1-35.6,32.3-76.4,32.3-118.1c0-27-4.6-53.4-13.7-78.6l5.6-2
					c9.3,25.8,14,52.9,14,80.6C487.7,323,476.2,364.9,454.5,401.4z"/>
			</g>
		</g>
		<path class="st0" d="M324.6,293.6h6.1v-15h-6.1c-27.7,0-53.2,16-68.6,39.3v-41c26.3-5.5,59.5-31.9,59.5-90.9h-15
			c0,51.2-26.8,70.1-44.5,75.3v-24.7c15.1-3.9,23.9-20.1,23.9-45c0-30.1-20.7-53.6-47.1-53.6c-23.3,0-71.4,17.9-71.4,73.4
			c0,49.9,49.6,65,79.7,66.4v5.1l0,0v36.3c-15.1-21.7-40.2-35.9-68.6-35.9h-6.1v15h6.1c35.5,0,64.8,27.1,68.2,61.7
			c-15.1-21.4-40.1-35.5-68.2-35.5h-6.1v15h6.1c37.8,0,68.6,30.8,68.6,68.6v6.1v12.3h15v-12.3v-6c0-39.1,32-73.4,68.6-73.4h6.1v-15
			h-6.1c-27.3,0-52.6,15.6-68,38.5C260.9,323,290.8,293.6,324.6,293.6z M203.3,253.3c-17.9-9-27-23.1-27-41.8
			c0-48.5,44.5-58.4,56.4-58.4c18,0,32.1,17,32.1,38.6c0,7.4-1,22.7-9,28.6c-0.8-15.1-7.8-32.8-20.5-39.7c-7.6-4.1-16-3.7-23.8,1.3
			c-8.3,5.3-11.4,15.5-8.2,26.4c3.9,13.1,16.8,26.3,37.5,28.8v25.8C230.4,262.3,215.7,259.5,203.3,253.3z M241,222
			c-12.9-2.2-20.8-10.1-23.1-17.9c-0.5-1.6-1.8-7.2,1.9-9.6c2-1.3,3.6-1.7,5-1.7s2.5,0.5,3.5,1C235.1,197.5,240.6,209.9,241,222z"/>
	</g>
	<g>
		<path class="st1" d="M33.4,141.2l12.8,4.4l-0.8,2.6c-8.4-0.4-13.3,1.3-15.7,5.4c-2.9,5,0.1,10.3,8.6,15.2
			c10.9,6.3,20.5,6.6,23.9,0.8c0.4-0.8,0.8-1.6,1.4-3.4l-8.4-4.8l-2,2.8l-2.7-1.6l7.8-13.5l2.7,1.6l-1.2,2.8l9,5.2
			c-0.1,0.4-0.1,0.6-0.2,0.8c-0.6,1.9-0.9,2.9-0.9,3.2l-0.9,4.3c-0.6,2.5-1.5,4.8-2.6,6.8c-5.4,9.4-16.4,11.8-26.9,5.7
			c-10.6-6.1-15.3-18.3-10.3-27c0.8-1.4,2.2-3,4.1-4.9c0.8-0.7,1.3-1.3,1.6-1.7c0.3-0.5,0.5-1.2,0.5-2l0.2-1.5L33.4,141.2z"/>
		<path class="st1" d="M46.6,123.4l10.8-12.1c5.5-6.2,7.7-7.8,11.6-8.6c2.9-0.6,6.3,0.4,8.9,2.7c3.6,3.2,4.1,7.6,1.6,12.7l17.5,5.4
			l2.4-2l2.3,2.1l-7.9,8.9l-19.7-6.3l-2.3,2.5l11.4,10.2l2.6-2.3l2.3,2.1l-10.8,12.1l-2.3-2.1l2-2.9L51.5,123l-2.6,2.3L46.6,123.4z
			 M57.6,115.9l12,10.7l1.9-2.2c3.8-4.3,3.7-8-0.4-11.6c-3.9-3.5-8-3.4-11.2,0.3c-0.4,0.5-0.9,1.1-1.3,1.7
			C58.4,115,58.1,115.4,57.6,115.9z"/>
		<path class="st1" d="M101.2,71.7l32.7,22.8l2.7-1.5l1.8,2.5l-13.4,9.9l-1.8-2.5l2.5-2.4l-7.4-5.6l-11,8.1l1.1,3.6
			c0.2,0.7,0.6,1.5,0.9,1.9c1.4,1.9,3.5,1.9,6.1,0l1.8,2.5l-10.6,7.8l-1.8-2.5c1.8-1.5,2.1-3.5,1.1-6.4l-0.5-1.5L96.3,80l-4-1.9
			L101.2,71.7z M100,81.6l6.2,18.2l9.2-6.8L100,81.6z"/>
		<path class="st1" d="M159.8,39.7l1.3,2.8c-2.8,1.8-2.9,3.8-0.7,8.7l12.8,27.7l-5.1,2.3l-31.2-20.5l8.8,19.2c2.3,5,4,6,8,4.6
			l1.3,2.8l-11.5,5.3l-1.3-2.8c3.1-1.7,3.3-3.4,1-8.5l-10.4-22.5c-2.3-1.1-3.3-1.2-5.3-0.8l-1.3-2.8l11.5-5.3L164.9,68l-7.6-16.5
			c-1.9-4-3.8-5.1-7.2-3.8l-1.3-2.8L159.8,39.7z"/>
		<path class="st1" d="M231.6,23.2l4,13.4l-2.7,1c-3.9-6.5-8.9-10-13.6-9.4c-5.2,0.7-7.2,6-5.9,15.7c1.6,12.6,6.6,19.2,13.8,18.3
			c4.1-0.5,6.7-3.3,8.7-9.2l2.7,1c-2,7.7-7.4,12.7-14.5,13.6c-10.4,1.3-18.5-6.2-20.1-18.3c-1.6-12.8,4.9-22.9,15.6-24.3
			c1.6-0.2,3.3-0.2,5.1,0c1.6,0.2,2.5,0.3,3.1,0.2c0.9-0.1,1.1-0.3,3-1.6C231,23.6,231.2,23.4,231.6,23.2z"/>
		<path class="st1" d="M271.3,24.9l10.2,38.5l3.1,0.6l-0.2,3.1L267.7,66l0.2-3.1l3.4-0.2l-2-9.1l-13.6-0.9l-1.5,3.5
			c-0.3,0.7-0.5,1.5-0.5,2.1c-0.2,2.4,1.4,3.8,4.7,4l-0.2,3.1l-13.1-0.9l0.2-3.1c2.3,0,3.9-1.3,5-4.1l0.6-1.4l11.3-27.6l-1.8-4.1
			L271.3,24.9z M263.9,31.7l-7,17.9l11.4,0.8L263.9,31.7z"/>
		<path class="st1" d="M317.6,33l-0.8,3l-4.1-0.6l-8.8,33.7c1.1,0.3,1.6,0.4,2,0.5c3.6,1,6.3,0.4,10.5-2.3c2.7-1.7,3.5-2.3,5.5-4.5
			L324,64l-6.6,12.8c-2.2-1.6-2.9-1.9-6.5-2.8l-20.2-5.3l0.8-3l3.5,0.5l8.7-33.1l-3.2-1.3l0.8-3L317.6,33z"/>
		<path class="st1" d="M373.5,54.9l-1.4,2.9l-33.7,22.7c0.6,0.2,1.1,0.4,1.4,0.6c5.5,2.5,7.3,2.9,10.4,2.2c1.8-0.4,3.6-1.2,5.4-2.3
			c1.6-1,2.2-1.4,3.9-2.8l2.1,1.8l-8.5,11.9c-1.2-1.4-1.8-1.9-4.1-3l-21.5-10.1l1.3-2.9L362,53c-1.2-0.6-1.6-0.9-2.5-1.3
			c-3.9-1.8-6.3-2-9.8-0.8c-2.4,0.8-3.7,1.6-6.5,4.1l-2.2-1.9l8-10.5c1.1,1.1,2.8,2.1,5.5,3.4L373.5,54.9z"/>
		<path class="st1" d="M404.6,75.6l-11.9,38l2.2,2.2l-1.8,2.5l-13.5-9.9l1.8-2.5l3,1.7l3.2-8.7l-11-8.1l-3.1,2.2
			c-0.6,0.5-1.2,1-1.5,1.5c-1.4,1.9-0.8,3.9,1.8,5.9l-1.8,2.5l-10.6-7.7l1.8-2.5c2,1.3,4,1,6.4-0.8l1.3-0.9l24.3-17.2l0.6-4.4
			L404.6,75.6z M394.7,77.4l-15.5,11.3l9.2,6.8L394.7,77.4z"/>
		<path class="st1" d="M428.2,94.8l9.8,10.9c5.5,6.2,7.1,8.9,7.6,13.4c0.8,6.4-1.9,12.9-7.1,17.7c-5.5,5-13.2,7.1-19.3,5.5
			c-4.4-1.2-5.5-2-11.1-8.2l-10.5-11.7l2.3-2.1l2.6,2.3l25.4-22.9l-2-2.9L428.2,94.8z M434.4,106.5l-26,23.5c0.8,1,1.2,1.4,1.6,1.9
			c2.4,2.6,4.6,4.1,6.8,4.4c4,0.5,9-1.8,14.7-7c9.2-8.3,10.7-14.3,5.2-20.5C436.1,108.1,435.7,107.7,434.4,106.5z"/>
		<path class="st1" d="M473.3,153.5l-25.9,30.2l1.2,2.9l-2.7,1.6l-8.5-14.4l2.7-1.6l2.1,2.7l6.3-6.8l-7-11.8l-3.7,0.9
			c-0.8,0.2-1.5,0.5-2,0.8c-2.1,1.2-2.3,3.3-0.6,6.1l-2.7,1.6l-6.7-11.3l2.7-1.6c1.3,2,3.3,2.5,6.2,1.8l1.5-0.3l29.1-6.3l2.3-3.8
			L473.3,153.5z M463.5,151.2l-18.7,4.3l5.8,9.8L463.5,151.2z"/>
	</g>
	<g>
		<path class="st1" d="M79.3,427.7c0.3-2,0.3-3.6-0.1-4.9c-0.4-1.3-1-2.5-1.8-3.5c-1.2-1.5-2.5-2.7-4-3.5s-3.1-1.3-4.7-1.4
			c-1.6-0.1-3.3,0-4.9,0.5c-1.6,0.5-3.2,1.3-4.7,2.4c-1.6,1.2-2.8,2.6-3.8,4.1s-1.6,3.1-1.8,4.7c-0.3,1.6-0.2,3.3,0.2,4.9
			c0.4,1.7,1.2,3.2,2.4,4.8c0.9,1.2,2.1,2.1,3.5,2.8s3.1,1,5.1,1l0.3,6.7c-2.8,0.1-5.4-0.5-7.7-1.8s-4.3-3-6-5.1
			c-1.8-2.3-3-4.6-3.7-7.1s-1-4.9-0.7-7.3c0.3-2.4,1.1-4.7,2.3-6.9c1.3-2.2,3.1-4.2,5.3-6c2.3-1.8,4.8-3.1,7.3-3.8s5-0.9,7.4-0.6
			c2.4,0.3,4.7,1.1,6.9,2.5c2.2,1.3,4.2,3.1,5.9,5.4c1.5,2,2.6,4.1,3.2,6.3c0.6,2.2,0.6,4.7,0.1,7.5L79.3,427.7z"/>
		<path class="st1" d="M99.5,436.2l4.8,4.5l-25.4,27l-4.8-4.5L99.5,436.2z"/>
		<path class="st1" d="M128.6,488.1c-1.2,1.9-2.7,3.3-4.3,4.4c-1.6,1.1-3.4,1.7-5.2,2c-1.8,0.3-3.6,0.2-5.5-0.2
			c-1.9-0.5-3.7-1.3-5.5-2.5s-3.2-2.6-4.3-4.2c-1.1-1.6-1.9-3.3-2.3-5.1s-0.4-3.6,0-5.5s1.2-3.8,2.4-5.6L117,452l5.5,3.7l-13,19.3
			c-0.5,0.8-0.9,1.6-1.2,2.6c-0.3,1-0.5,2-0.4,3.1s0.4,2.1,1,3.1s1.5,2,2.8,2.9s2.5,1.4,3.7,1.5s2.3,0.1,3.3-0.3
			c1-0.3,1.9-0.8,2.7-1.5c0.8-0.7,1.4-1.4,1.9-2.1l13-19.3l5.5,3.7L128.6,488.1z"/>
		<path class="st1" d="M157.1,476.9l13.6,5.3c2.3,0.9,4.3,2.1,6.2,3.6c1.8,1.5,3.3,3.3,4.4,5.4c1.1,2.1,1.7,4.4,1.8,6.9
			c0.1,2.5-0.4,5.3-1.5,8.2c-1.2,3-2.7,5.3-4.7,7c-2,1.7-4.1,2.9-6.4,3.7c-2.3,0.7-4.7,1-7.1,0.9s-4.7-0.6-6.8-1.4l-12.9-5
			L157.1,476.9z M156.6,510c1.9,0.7,3.8,1.2,5.7,1.5c1.9,0.2,3.6,0.1,5.3-0.3c1.6-0.4,3.1-1.2,4.4-2.4s2.4-2.8,3.2-5
			c0.8-2.1,1.2-4,1.1-5.7s-0.5-3.3-1.3-4.7s-1.9-2.6-3.3-3.6c-1.4-1.1-3.1-1.9-4.9-2.7l-5.6-2.2l-9.1,23.4L156.6,510z"/>
		<path class="st1" d="M215.2,494.4l5.6,0.8l10.3,39l-7.4-1.1l-2.2-8.9l-15.9-2.4l-4.6,7.9l-7.3-1.1L215.2,494.4z M220.1,518.3
			l-3.4-15.7l-8,14L220.1,518.3z"/>
		<path class="st1" d="M250,497.8l14.6-1c2.4-0.2,4.8,0,7.1,0.6c2.3,0.6,4.4,1.6,6.2,3s3.4,3.2,4.6,5.5c1.2,2.2,1.9,4.9,2.1,8.1
			c0.2,3.2-0.2,5.9-1.2,8.3c-1,2.4-2.5,4.4-4.2,6.1c-1.8,1.6-3.8,2.9-6.1,3.8c-2.3,0.9-4.5,1.4-6.7,1.6l-13.8,1L250,497.8z
			 M263.7,528c2.1-0.1,4-0.5,5.8-1.1s3.3-1.4,4.6-2.5c1.3-1.1,2.3-2.4,2.9-4.1c0.7-1.6,0.9-3.6,0.8-5.8c-0.2-2.2-0.6-4.1-1.4-5.7
			s-1.9-2.8-3.2-3.7c-1.3-0.9-2.8-1.5-4.5-1.9s-3.6-0.5-5.6-0.3l-6,0.4l1.8,25L263.7,528z"/>
		<path class="st1" d="M318,487.2l7-2.9l20.2,21.9l-1.3-29.8l6.6-2.8l0.6,39.9l-5.3,2.2L318,487.2z"/>
		<path class="st1" d="M361.3,466.6l5.6-3.5l19.5,31.5l-5.6,3.5L361.3,466.6z"/>
		<path class="st1" d="M377.9,456.5l5.7-4.9l25.9,14.6l-10.3-28l5.4-4.6l12.8,37.8l-4.3,3.7L377.9,456.5z"/>
		<path class="st1" d="M418.9,416.5l3.5-4.5l39,10.3l-4.7,5.9l-8.8-2.5l-9.9,12.6l4.6,7.9L438,452L418.9,416.5z M442.1,424.1
			l-15.4-4.8l8.3,13.9L442.1,424.1z"/>
	</g>
</g>
</svg>
