<?xml version="1.0" encoding="utf-8"?>
<!-- Generator: Adobe Illustrator 21.0.2, SVG Export Plug-In . SVG Version: 6.00 Build 0)  -->
<svg version="1.1" id="Capa_1" xmlns="http://www.w3.org/2000/svg" xmlns:xlink="http://www.w3.org/1999/xlink" x="0px" y="0px"
	 viewBox="0 0 800 800" style="enable-background:new 0 0 800 800;" xml:space="preserve">
<style type="text/css">
	.st0{fill:#EE4A7B;}
	.st1{fill:#FFFFFF;}
</style>
<g>
	<g>
		<g>
			<path class="st0" d="M57.3,480.5L57.3,480.5c9.9,17.8,27.6,23.2,43.9,24.5c19.3,1.6,40.4-1.8,54.2-20.2
				c6.4-8.5,10.6-19.4,13.8-30.8c6.6-23.5,8.6-98.3-1.3-119.5c-4.8-10.2-12-18.1-19.8-23.8c-25-18.5-53.7-14.9-76.8,6.7
				c-15.7,14.7-18.7,32.6-20.8,57.3C48.8,394.9,47.9,463.5,57.3,480.5z"/>
		</g>
		<path class="st1" d="M146.5,410.5h2.6V404h-2.6c-12.3,0-23.1,6.2-29.7,15.6v-18.4c11.4-2.4,25.7-13.8,25.7-39.4h-6.5
			c0,22.2-11.6,30.3-19.3,32.6v-10.7c6.5-1.7,10.3-8.7,10.3-19.5c0-13-9-23.2-20.4-23.2c-10.1,0-30.9,7.8-30.9,31.8
			c0,21.6,21.5,28.1,34.5,28.8v2.2h0v15.7C103.8,410.2,93,404,80.7,404H78v6.5h2.6c15.4,0,28,11.7,29.5,26.7
			c-6.6-9.3-17.3-15.4-29.5-15.4H78v6.5h2.6c16.4,0,29.7,13.3,29.7,29.7v2.6v5.3h6.5v-5.3V458c0-16.4,13.3-29.7,29.7-29.7h2.6v-6.5
			h-2.6c-12.2,0-23,6.1-29.5,15.4C118.5,422.2,131.2,410.5,146.5,410.5z M82.4,372.8c0-21,19.3-25.3,24.4-25.3
			c7.8,0,13.9,7.3,13.9,16.7c0,3.2-0.4,9.8-3.9,12.4c-0.4-6.5-3.4-14.2-8.9-17.2c-3.3-1.8-6.9-1.6-10.3,0.6
			c-3.6,2.3-4.9,6.7-3.5,11.4c1.7,5.7,7.3,11.4,16.2,12.5v11.1C103.6,394.6,82.4,391.5,82.4,372.8z M110.4,377.4
			c-5.6-1-9-4.4-10-7.8c-0.2-0.7-0.8-3.1,0.8-4.1c0.9-0.6,1.6-0.7,2.2-0.7c0.6,0,1.1,0.2,1.5,0.4
			C107.8,366.8,110.2,372.2,110.4,377.4z"/>
	</g>
	<g>
		<path class="st1" d="M218.5,452.3c-0.9-1-1.8-1.6-2.6-2c-0.9-0.3-1.7-0.5-2.6-0.5c-1.3,0-2.4,0.2-3.5,0.7c-1,0.5-1.9,1.1-2.7,1.9
			c-0.7,0.8-1.3,1.7-1.7,2.8c-0.4,1.1-0.6,2.2-0.6,3.5c0,1.3,0.2,2.5,0.6,3.7c0.4,1.1,1,2.1,1.7,2.9c0.7,0.8,1.6,1.5,2.7,1.9
			c1,0.5,2.2,0.7,3.5,0.7c1,0,2-0.2,2.9-0.7c0.9-0.5,1.8-1.2,2.6-2.3l3.6,2.6c-1.1,1.5-2.5,2.7-4.1,3.3c-1.6,0.7-3.3,1-5.1,1
			c-1.9,0-3.7-0.3-5.3-0.9c-1.6-0.6-3-1.5-4.1-2.6c-1.2-1.1-2.1-2.5-2.7-4.1c-0.7-1.6-1-3.3-1-5.3c0-2,0.3-3.8,1-5.4
			c0.7-1.6,1.6-3,2.7-4.1c1.2-1.1,2.5-2,4.1-2.6c1.6-0.6,3.3-0.9,5.3-0.9c1.7,0,3.2,0.3,4.7,0.9c1.4,0.6,2.8,1.6,4,3L218.5,452.3z"
			/>
		<path class="st1" d="M232.3,446.5h4.4v24.7h-4.4V446.5z"/>
		<path class="st1" d="M268.8,462.1c0,1.5-0.3,2.8-0.8,4c-0.5,1.2-1.2,2.2-2.1,3.1c-0.9,0.8-1.9,1.5-3.1,1.9
			c-1.2,0.5-2.5,0.7-3.9,0.7c-1.4,0-2.7-0.2-3.9-0.7c-1.2-0.5-2.3-1.1-3.2-1.9c-0.9-0.8-1.6-1.9-2.1-3.1c-0.5-1.2-0.7-2.5-0.7-4
			v-15.6h4.4V462c0,0.6,0.1,1.2,0.3,1.9c0.2,0.7,0.5,1.3,0.9,1.8c0.4,0.6,1,1,1.7,1.4c0.7,0.4,1.6,0.5,2.6,0.5c1,0,1.9-0.2,2.6-0.5
			c0.7-0.4,1.3-0.8,1.7-1.4c0.4-0.6,0.7-1.2,0.9-1.8c0.2-0.7,0.3-1.3,0.3-1.9v-15.5h4.4V462.1z"/>
		<path class="st1" d="M281.2,446.5h9.7c1.6,0,3.2,0.3,4.7,0.8c1.5,0.5,2.9,1.3,4,2.3c1.2,1,2.1,2.3,2.8,3.9c0.7,1.5,1,3.4,1,5.5
			c0,2.1-0.4,3.9-1.2,5.5c-0.8,1.5-1.8,2.8-3.1,3.8c-1.3,1-2.7,1.8-4.2,2.3c-1.5,0.5-3.1,0.7-4.6,0.7h-9.2V446.5z M288.9,467.2
			c1.4,0,2.7-0.2,3.9-0.5c1.2-0.3,2.3-0.8,3.2-1.5c0.9-0.7,1.6-1.5,2.1-2.6s0.8-2.3,0.8-3.9c0-1.5-0.2-2.8-0.7-3.8
			c-0.5-1.1-1.1-1.9-1.9-2.6c-0.8-0.7-1.8-1.2-2.9-1.5c-1.1-0.3-2.4-0.5-3.7-0.5h-4v16.7H288.9z"/>
		<path class="st1" d="M322.7,446.5h3.8l10.6,24.7h-5l-2.3-5.7h-10.7l-2.2,5.7h-4.9L322.7,446.5z M328.3,461.8l-3.8-10l-3.9,10
			H328.3z"/>
		<path class="st1" d="M346.8,446.5h9.7c1.6,0,3.2,0.3,4.7,0.8c1.5,0.5,2.9,1.3,4,2.3c1.2,1,2.1,2.3,2.8,3.9c0.7,1.5,1,3.4,1,5.5
			c0,2.1-0.4,3.9-1.2,5.5c-0.8,1.5-1.8,2.8-3.1,3.8c-1.3,1-2.7,1.8-4.2,2.3c-1.5,0.5-3.1,0.7-4.6,0.7h-9.2V446.5z M354.5,467.2
			c1.4,0,2.7-0.2,3.9-0.5c1.2-0.3,2.3-0.8,3.2-1.5c0.9-0.7,1.6-1.5,2.1-2.6s0.8-2.3,0.8-3.9c0-1.5-0.2-2.8-0.7-3.8
			c-0.5-1.1-1.1-1.9-1.9-2.6c-0.8-0.7-1.8-1.2-2.9-1.5c-1.1-0.3-2.4-0.5-3.7-0.5h-4v16.7H354.5z"/>
		<path class="st1" d="M394.7,446.5h5.1l6.7,18.7l6.9-18.7h4.7l-10,24.7h-3.8L394.7,446.5z"/>
		<path class="st1" d="M427.8,446.5h4.4v24.7h-4.4V446.5z"/>
		<path class="st1" d="M441.7,446.5h5.1l6.7,18.7l6.9-18.7h4.7l-10,24.7h-3.8L441.7,446.5z"/>
		<path class="st1" d="M480.9,446.5h3.8l10.6,24.7h-5l-2.3-5.7h-10.7l-2.2,5.7h-4.9L480.9,446.5z M486.4,461.8l-3.8-10l-3.9,10
			H486.4z"/>
	</g>
	<g>
		<path class="st0" d="M259.7,402.4l-5.1,1v16.9l0.3,3.1l0.1,2.4c-1.3-0.3-2-0.4-2-0.4c-0.6,0-1.1,0-1.5,0c-1.1,0-4.1,0.9-8.8,2.6
			c-4.7,1.7-9.3,2.6-13.8,2.6c-9.7,0-17.7-3.8-24-11.4c-5.9-7.1-8.9-15.5-8.9-25.3c0-10.4,2.9-19.6,8.7-27.6
			c6.1-8.3,13.4-12.5,21.9-12.5c2.1,0,4.3,0.2,6.8,0.7c2.4,0.4,5,0.9,7.7,1.4c2,0,3.6-0.2,5-0.6c1.3-0.5,2.3-0.9,2.9-1.1l5.2,21.7
			l-3.8,0.9l-1.4-2.4c-3.1-5.4-6-9.3-8.7-11.7c-3.6-3.3-7.8-4.9-12.4-4.9c-6,0-10.7,3.1-14.1,9.2c-3,5.3-4.4,11.6-4.4,19
			c0,9.9,2.2,18.7,6.6,26.3c4.9,8.5,11.3,12.8,19.2,12.8c2.5,0,4-0.1,4.6-0.4s1.1-0.5,1.5-0.8v-20.6l-6-0.5v-3.5h24.3L259.7,402.4z"
			/>
		<path class="st0" d="M300.1,383.1c0,2-0.7,3.7-2.2,4.9c-1.5,1.3-3.3,1.9-5.6,1.9c-1.1,0-2.4-0.3-4-0.9c-0.3-0.1-0.6-0.3-1.1-0.5
			c-0.5,0.8-0.8,1.4-1.1,1.9c-0.8,1.5-1.4,2.9-1.8,4c-0.4,1.1-0.7,2.2-1,3.2c-0.7,3-1.1,6-1.1,9.1v17.9l5.9,0.9v3.3h-22.8v-3.4
			l5.4-0.8v-25.2c0-2.3-0.3-4.7-0.9-7.3c-0.6-2.6-1.2-4.4-1.9-5.3c-0.4-0.6-1.1-1-2.2-1.3c-1.1-0.2-1.7-0.4-1.8-0.4v-3.1l12.1-5.1
			c1.1,2.2,1.6,3.3,1.7,3.5c0.5,1,0.9,2.2,1.2,3.7c0.3,1.4,0.7,2.9,1.1,4.4c0.4,1.5,0.6,3,0.6,4.5l1.1-2.8c1.4-3.6,3-6.4,4.8-8.6
			c2.3-2.6,4.7-3.9,7.3-3.9c2.5,0,4.2,0.5,5.1,1.6C299.7,380.2,300.1,381.4,300.1,383.1z"/>
		<path class="st0" d="M350.9,424.6c-0.9,1.4-1.8,2.5-2.5,3.1c-2.2,2.1-4.8,3.1-7.7,3.1c-2,0-3.7-0.6-5.1-1.7
			c-1.4-1.1-2.5-2.8-3.2-4.8l-2.4,1.9c-2,1.6-3.8,2.8-5.6,3.5c-1.8,0.7-3.8,1.1-6.1,1.1c-3.5,0-6.5-1.2-9-3.7
			c-2.5-2.5-3.7-5.5-3.7-9.1c0-4.7,2.4-9,7.2-12.9c4.2-3.4,9.5-6.1,15.8-7.9l2.7-0.8v-4.4c0-2.6-0.9-4.9-2.6-6.9
			c-0.8-0.9-2.2-1.8-4-2.4c-0.6-0.2-1.4-0.4-2.5-0.7c0.1,1.3-0.5,2.9-1.8,4.5c-1.6,2-3.6,3-6,3c-1.7,0-3.1-0.5-4.3-1.5
			c-1.2-1-1.8-2.3-1.8-4c0-2,0.9-3.5,2.6-4.5c1.7-1,3.9-1.5,6.6-1.5c7,0,12.8,1.5,17.4,4.5c5,3.3,7.5,7.8,7.5,13.6v23.6
			c0,1.2,0.3,2.3,0.9,3.1c0.6,0.9,1.4,1.3,2.5,1.3c0.7,0,1.6-0.4,2.6-1.3c0.1-0.1,0.4-0.4,0.7-0.7L350.9,424.6z M331.7,419.9v-19.7
			l-2,0.4c-3.8,0.9-6.9,2.8-9.4,5.6c-2.5,2.8-3.8,5.7-3.8,8.9c0,2.3,0.8,4.3,2.3,6c1.5,1.7,3.4,2.5,5.7,2.5c1.4,0,2.8-0.4,4.2-1.2
			C330,421.7,331,420.8,331.7,419.9z"/>
		<path class="st0" d="M403.7,428.9h-20.8v-3.5l5-0.7v-29.5c0-2.6-0.6-4.9-1.9-6.9c-1.3-2.1-3.1-3.1-5.3-3.1c-1.5,0-2.9,0.2-4.1,0.7
			c-1.3,0.5-2.5,1.3-3.6,2.4l-2.1,2.3v33.9l5.1,0.7v3.6h-21.8v-3.6l5.4-0.7v-33.1c0-1.5-0.1-2.6-0.3-3.2c-0.2-0.7-0.7-1.4-1.6-2.1
			c-0.3-0.3-0.8-0.6-1.5-0.7c-0.7-0.1-1.3-0.2-1.9-0.2c-0.9,0-1.4,0-1.5,0v-3.1l13-5.8c1.3,1.3,2.3,2.8,3,4.5c0.5,1.1,0.8,2.1,1,2.8
			c0.2,0.7,0.3,1.6,0.3,2.6c0.6-1.3,2.2-3,4.7-4.9c3.4-2.6,6.7-3.9,9.9-3.9c4.1,0,7.5,1.6,10.2,4.7c2.7,3.2,4.1,6.9,4.1,11.2v31.4
			l4.6,0.7V428.9z"/>
		<path class="st0" d="M490.3,408.5l-1,2.7c-2.1,5.9-5.5,10.5-10.2,13.9c-4.7,3.3-10.1,5-16.2,5c-9.4,0-16.9-3.7-22.5-11
			c-5.2-6.7-7.8-15.1-7.8-25c0-10.7,2.7-19.9,8.1-27.6c5.9-8.3,13.4-12.5,22.6-12.5c1.7,0,5.1,0.5,10.2,1.4c2.1,0.5,3.5,0.6,4.1,0.5
			c2.3-0.3,3.7-0.6,4.2-0.7c0.5-0.1,1.6-0.5,3.2-1.2l5,22.2l-3.6,0.8l-1.3-2.3c-3.2-5.6-6-9.6-8.6-12c-3.6-3.4-7.6-5.1-12.2-5.1
			c-6.1,0-10.8,3.1-14.2,9.3c-3,5.4-4.4,11.8-4.4,19.2c0,9.2,1.9,17.1,5.6,23.8c4.3,7.7,10.1,11.6,17.5,11.6c3.8,0,7.2-1,10.2-3.1
			c3-2.1,5.4-5,7.1-8.7l1.1-2.4L490.3,408.5z"/>
		<path class="st0" d="M541.6,424.6c-0.9,1.4-1.8,2.5-2.5,3.1c-2.2,2.1-4.8,3.1-7.7,3.1c-2,0-3.7-0.6-5.1-1.7
			c-1.4-1.1-2.5-2.8-3.2-4.8l-2.4,1.9c-2,1.6-3.8,2.8-5.6,3.5c-1.8,0.7-3.8,1.1-6.1,1.1c-3.5,0-6.5-1.2-9-3.7
			c-2.5-2.5-3.7-5.5-3.7-9.1c0-4.7,2.4-9,7.2-12.9c4.2-3.4,9.5-6.1,15.8-7.9l2.7-0.8v-4.4c0-2.6-0.9-4.9-2.6-6.9
			c-0.8-0.9-2.2-1.8-4-2.4c-0.6-0.2-1.4-0.4-2.5-0.7c0.1,1.3-0.5,2.9-1.8,4.5c-1.6,2-3.6,3-6,3c-1.7,0-3.1-0.5-4.3-1.5
			c-1.2-1-1.8-2.3-1.8-4c0-2,0.9-3.5,2.6-4.5c1.7-1,3.9-1.5,6.6-1.5c7,0,12.8,1.5,17.4,4.5c5,3.3,7.5,7.8,7.5,13.6v23.6
			c0,1.2,0.3,2.3,0.9,3.1c0.6,0.9,1.4,1.3,2.5,1.3c0.7,0,1.6-0.4,2.6-1.3c0.1-0.1,0.4-0.4,0.7-0.7L541.6,424.6z M522.4,419.9v-19.7
			l-2,0.4c-3.8,0.9-6.9,2.8-9.4,5.6c-2.5,2.8-3.8,5.7-3.8,8.9c0,2.3,0.8,4.3,2.3,6c1.5,1.7,3.4,2.5,5.7,2.5c1.4,0,2.8-0.4,4.2-1.2
			C520.7,421.7,521.8,420.8,522.4,419.9z"/>
		<path class="st0" d="M568.9,428.9h-23.1v-3.5l5.7-0.7v-59.5c0-0.7,0-1.3,0-1.6c0-0.5,0-1.1,0-1.6c-0.1-0.9-0.6-1.7-1.3-2.3
			c-0.7-0.6-1.7-0.9-3.1-0.9c-1.3,0-2.1,0.1-2.3,0.2v-3.5l18.1-6.9v76.1l6.1,0.7V428.9z"/>
		<path class="st0" d="M615.9,411.1l-5,18.9l-2.6-0.6c-0.7-0.2-1.2-0.3-1.5-0.3c-0.4-0.1-0.9-0.1-1.6-0.1H575v-3.3l27.7-42.3h-4.9
			c-2.2,0-4,0.3-5.5,1c-1.5,0.7-3.1,1.8-4.9,3.3c-1.5,1.3-3.1,3.4-4.7,6.1c-0.5,0.9-1.2,2.2-2.1,3.8l-3.3-1.1l4.3-17.5l2.3,0.8h2.2
			h29.6l0,3.3l-27.7,42.3l4.7,0c2.5,0,4.6-0.4,6.3-1.1c1.7-0.7,3.7-2,5.9-3.8c1.7-1.3,3.5-3.4,5.4-6.3c0.6-0.9,1.4-2.3,2.4-4
			L615.9,411.1z"/>
		<path class="st0" d="M667.3,424.6c-0.9,1.4-1.8,2.5-2.5,3.1c-2.2,2.1-4.8,3.1-7.7,3.1c-2,0-3.7-0.6-5.1-1.7
			c-1.4-1.1-2.5-2.8-3.2-4.8l-2.4,1.9c-2,1.6-3.8,2.8-5.6,3.5c-1.8,0.7-3.8,1.1-6.1,1.1c-3.5,0-6.5-1.2-9-3.7
			c-2.5-2.5-3.7-5.5-3.7-9.1c0-4.7,2.4-9,7.2-12.9c4.2-3.4,9.5-6.1,15.8-7.9l2.7-0.8v-4.4c0-2.6-0.9-4.9-2.6-6.9
			c-0.8-0.9-2.2-1.8-4-2.4c-0.6-0.2-1.4-0.4-2.5-0.7c0.1,1.3-0.5,2.9-1.8,4.5c-1.6,2-3.6,3-6,3c-1.7,0-3.1-0.5-4.3-1.5
			c-1.2-1-1.8-2.3-1.8-4c0-2,0.9-3.5,2.6-4.5c1.7-1,3.9-1.5,6.6-1.5c7,0,12.8,1.5,17.4,4.5c5,3.3,7.5,7.8,7.5,13.6v23.6
			c0,1.2,0.3,2.3,0.9,3.1c0.6,0.9,1.4,1.3,2.5,1.3c0.7,0,1.6-0.4,2.6-1.3c0.1-0.1,0.4-0.4,0.7-0.7L667.3,424.6z M648.1,419.9v-19.7
			l-2,0.4c-3.8,0.9-6.9,2.8-9.4,5.6c-2.5,2.8-3.8,5.7-3.8,8.9c0,2.3,0.8,4.3,2.3,6c1.5,1.7,3.4,2.5,5.7,2.5c1.4,0,2.8-0.4,4.2-1.2
			C646.4,421.7,647.4,420.8,648.1,419.9z"/>
		<path class="st0" d="M719.9,426.4l-12.6,4.4c-0.4-0.6-0.8-1.4-1.3-2.3c-0.5-0.9-0.7-1.5-0.8-1.6c-0.3-0.6-0.5-1.3-0.8-2
			c-0.2-0.7-0.5-1.7-0.7-2.8l-2,2.5c-3.1,4-7.1,6-12.1,6c-5.6,0-10.1-2.6-13.4-7.8c-3-4.7-4.5-10.2-4.5-16.8c0-7.3,1.8-13.6,5.3-19
			c3.9-6.1,9.1-9.1,15.5-9.1c2.1,0,3.9,0.2,5.3,0.6c1.5,0.4,3.2,1.1,5.1,2v-16.9c0-1.9-0.8-3.2-2.3-4.1c-0.5-0.3-1.3-0.5-2.4-0.5
			c-0.5,0-1,0-1.4,0c-0.1,0-0.3,0-0.6,0v-3.5l17.9-5.6v65.5c0,1.8,0.2,3.2,0.5,4.3c0.3,1.1,1.1,2,2.2,2.7c1.1,0.6,2.2,1,3.2,1V426.4
			z M702.9,417.4v-29.9c-0.8-1.1-1.6-2.2-2.3-3.2c-2-1.9-4.4-2.8-7.3-2.8c-3.8,0-6.7,2.2-8.5,6.5c-1.4,3.4-2.1,7.7-2.1,13.1
			c0,5.5,1,10.3,2.9,14.3c2.4,4.8,5.8,7.2,10.3,7.2c2,0,3.7-0.8,5.1-2.3C702.2,418.5,702.8,417.5,702.9,417.4z"/>
		<path class="st0" d="M770,424.6c-0.9,1.4-1.8,2.5-2.5,3.1c-2.2,2.1-4.8,3.1-7.7,3.1c-2,0-3.7-0.6-5.1-1.7
			c-1.4-1.1-2.5-2.8-3.2-4.8l-2.4,1.9c-2,1.6-3.8,2.8-5.6,3.5c-1.8,0.7-3.8,1.1-6.1,1.1c-3.5,0-6.5-1.2-9-3.7
			c-2.5-2.5-3.7-5.5-3.7-9.1c0-4.7,2.4-9,7.2-12.9c4.2-3.4,9.5-6.1,15.8-7.9l2.7-0.8v-4.4c0-2.6-0.9-4.9-2.6-6.9
			c-0.8-0.9-2.2-1.8-4-2.4c-0.6-0.2-1.4-0.4-2.5-0.7c0.1,1.3-0.5,2.9-1.8,4.5c-1.6,2-3.6,3-6,3c-1.7,0-3.1-0.5-4.3-1.5
			c-1.2-1-1.8-2.3-1.8-4c0-2,0.9-3.5,2.6-4.5c1.7-1,3.9-1.5,6.6-1.5c7,0,12.8,1.5,17.4,4.5c5,3.3,7.5,7.8,7.5,13.6v23.6
			c0,1.2,0.3,2.3,0.9,3.1c0.6,0.9,1.4,1.3,2.5,1.3c0.7,0,1.6-0.4,2.6-1.3c0.1-0.1,0.4-0.4,0.7-0.7L770,424.6z M750.8,419.9v-19.7
			l-2,0.4c-3.8,0.9-6.9,2.8-9.4,5.6c-2.5,2.8-3.8,5.7-3.8,8.9c0,2.3,0.8,4.3,2.3,6c1.5,1.7,3.4,2.5,5.7,2.5c1.4,0,2.8-0.4,4.2-1.2
			C749.1,421.7,750.2,420.8,750.8,419.9z"/>
	</g>
</g>
</svg>
