<?xml version="1.0" encoding="utf-8"?>
<!-- Generator: Adobe Illustrator 21.0.2, SVG Export Plug-In . SVG Version: 6.00 Build 0)  -->
<svg version="1.1" id="Capa_1" xmlns="http://www.w3.org/2000/svg" xmlns:xlink="http://www.w3.org/1999/xlink" x="0px" y="0px"
	 viewBox="0 0 800 800" style="enable-background:new 0 0 800 800;" xml:space="preserve">
<style type="text/css">
	.st0{fill:#E30F1C;}
	.st1{fill:#474747;}
	.st2{clip-path:url(#SVGID_2_);}
	.st3{clip-path:url(#SVGID_6_);}
	.st4{clip-path:url(#SVGID_10_);}
	.st5{clip-path:url(#SVGID_14_);}
	.st6{clip-path:url(#SVGID_18_);}
	.st7{clip-path:url(#SVGID_22_);}
	.st8{clip-path:url(#SVGID_26_);}
	.st9{clip-path:url(#SVGID_30_);}
	.st10{clip-path:url(#SVGID_34_);}
	.st11{clip-path:url(#SVGID_38_);}
	.st12{clip-path:url(#SVGID_42_);}
	.st13{clip-path:url(#SVGID_46_);}
	.st14{clip-path:url(#SVGID_50_);}
	.st15{clip-path:url(#SVGID_54_);}
	.st16{clip-path:url(#SVGID_58_);}
	.st17{clip-path:url(#SVGID_62_);}
	.st18{clip-path:url(#SVGID_66_);}
	.st19{clip-path:url(#SVGID_70_);}
	.st20{clip-path:url(#SVGID_74_);}
	.st21{clip-path:url(#SVGID_78_);}
	.st22{clip-path:url(#SVGID_82_);}
	.st23{clip-path:url(#SVGID_86_);}
	.st24{clip-path:url(#SVGID_90_);}
	.st25{clip-path:url(#SVGID_94_);}
	.st26{clip-path:url(#SVGID_98_);}
	.st27{clip-path:url(#SVGID_102_);}
	.st28{clip-path:url(#SVGID_106_);}
	.st29{clip-path:url(#SVGID_110_);}
	.st30{clip-path:url(#SVGID_114_);}
	.st31{clip-path:url(#SVGID_118_);}
	.st32{clip-path:url(#SVGID_122_);}
	.st33{clip-path:url(#SVGID_126_);}
	.st34{clip-path:url(#SVGID_130_);}
	.st35{clip-path:url(#SVGID_134_);}
	.st36{clip-path:url(#SVGID_138_);}
	.st37{clip-path:url(#SVGID_142_);}
	.st38{clip-path:url(#SVGID_146_);}
	.st39{clip-path:url(#SVGID_150_);}
	.st40{clip-path:url(#SVGID_154_);}
	.st41{clip-path:url(#SVGID_158_);}
	.st42{clip-path:url(#SVGID_162_);}
	.st43{clip-path:url(#SVGID_166_);}
	.st44{clip-path:url(#SVGID_170_);}
	.st45{clip-path:url(#SVGID_174_);}
	.st46{clip-path:url(#SVGID_178_);}
	.st47{clip-path:url(#SVGID_182_);}
	.st48{clip-path:url(#SVGID_186_);}
	.st49{clip-path:url(#SVGID_190_);}
	.st50{clip-path:url(#SVGID_194_);}
	.st51{clip-path:url(#SVGID_198_);}
	.st52{clip-path:url(#SVGID_202_);}
	.st53{clip-path:url(#SVGID_206_);}
	.st54{clip-path:url(#SVGID_210_);}
	.st55{clip-path:url(#SVGID_214_);}
	.st56{clip-path:url(#SVGID_218_);}
	.st57{clip-path:url(#SVGID_222_);}
	.st58{clip-path:url(#SVGID_226_);}
	.st59{clip-path:url(#SVGID_230_);}
	.st60{clip-path:url(#SVGID_234_);}
	.st61{clip-path:url(#SVGID_238_);}
	.st62{clip-path:url(#SVGID_242_);}
	.st63{clip-path:url(#SVGID_246_);}
	.st64{clip-path:url(#SVGID_250_);}
	.st65{clip-path:url(#SVGID_254_);}
	.st66{clip-path:url(#SVGID_258_);}
	.st67{clip-path:url(#SVGID_262_);}
	.st68{clip-path:url(#SVGID_266_);}
	.st69{clip-path:url(#SVGID_270_);}
	.st70{clip-path:url(#SVGID_274_);}
	.st71{clip-path:url(#SVGID_278_);}
	.st72{clip-path:url(#SVGID_282_);}
	.st73{clip-path:url(#SVGID_286_);}
	.st74{clip-path:url(#SVGID_290_);}
	.st75{clip-path:url(#SVGID_294_);}
	.st76{clip-path:url(#SVGID_298_);}
	.st77{clip-path:url(#SVGID_302_);}
	.st78{clip-path:url(#SVGID_306_);}
	.st79{clip-path:url(#SVGID_310_);}
	.st80{clip-path:url(#SVGID_314_);}
	.st81{clip-path:url(#SVGID_318_);}
	.st82{clip-path:url(#SVGID_322_);}
	.st83{fill:#FF8F10;}
	.st84{fill:#060D35;}
	.st85{fill:#51488B;}
	.st86{fill:#F8B1A1;}
	.st87{fill:#215A36;}
	.st88{fill:#F8B3A2;}
	.st89{fill:#FFFFFF;}
	.st90{fill:#EE4A7B;}
	.st91{fill:#EE4A7B;stroke:#EE4A7B;stroke-width:7;stroke-miterlimit:10;}
	.st92{fill:#EE4A7B;stroke:#EE4A7B;stroke-width:10;stroke-miterlimit:10;}
	.st93{fill:#EE4A7B;stroke:#EE4A7B;stroke-miterlimit:10;}
	.st94{fill:#E1E0E5;}
</style>
<g>
	<g>
		<g>
			<path class="st87" d="M177.7,483.2v63.5h-13.1v-40.4l-26,40.4h-14.6l-26-40.3v40.3H85v-63.5h13.1l33.2,52.2l33.4-52.2H177.7z"/>
			<path class="st87" d="M207.7,483.2v63.5h-13.1v-63.5H207.7z"/>
			<path class="st87" d="M290.7,531.6v15.1h-13l0-14.2c0-7.2-5.6-9.2-15.9-9.2h-24v23.4h-13.1v-63.5h43.1c14.7,0,24.3,5.9,24.3,19.2
				c0,10.7-6.9,15.1-16,16.6C286,519.9,290.7,522.6,290.7,531.6z M267.7,513c6.6,0,11.2-3.7,11.3-9.8c0-5.8-4.6-8.7-11.3-8.7h-30
				V513H267.7z"/>
			<path class="st87" d="M353.1,532.3h-32.6l-6.6,14.5h-14.1l29.8-63.5h14.2l30.1,63.5h-14.2L353.1,532.3z M348.7,522.5l-11.9-26.1
				l-11.9,26.1H348.7z"/>
			<path class="st87" d="M442.5,483.2l-27.8,63.5h-16.3l-28-63.5h14.4l21.7,52.1l21.7-52.1H442.5z"/>
			<path class="st87" d="M514.1,535.8v10.9h-62.1v-63.5H514v10.9h-48.9V511h40v8.1h-40v16.7H514.1z"/>
			<path class="st87" d="M593.6,531.6v15.1h-13l0-14.2c0-7.2-5.6-9.2-15.9-9.2h-24v23.4h-13.1v-63.5h43.1c14.7,0,24.3,5.9,24.3,19.2
				c0,10.7-6.9,15.1-16,16.6C588.8,519.9,593.6,522.6,593.6,531.6z M570.6,513c6.6,0,11.2-3.7,11.3-9.8c0-5.8-4.6-8.7-11.3-8.7h-30
				V513H570.6z"/>
			<path class="st87" d="M682.1,514.8c0,16.8-9.9,31.9-37.2,31.9h-36.3v-63.5h36.3C673.5,483.2,682.1,498,682.1,514.8z M668.8,514.8
				c0-10.8-5.4-20.2-24.2-20.2h-22.9v40.8h22.9C663.4,535.4,668.8,525.5,668.8,514.8z"/>
			<path class="st87" d="M756.9,535.8v10.9h-62.1v-63.5h61.9v10.9h-48.9V511h40v8.1h-40v16.7H756.9z"/>
		</g>
	</g>
	<g>
		<g>
			<path class="st87" d="M261.5,445.9h6.8c0.9,0,1.8,0.1,2.7,0.3c0.8,0.2,1.6,0.5,2.2,0.9c0.6,0.4,1.1,1,1.5,1.7
				c0.4,0.7,0.6,1.6,0.6,2.7c0,1.1-0.2,2-0.5,2.7c-0.3,0.7-0.8,1.3-1.4,1.7c-0.6,0.4-1.3,0.7-2.1,0.9c-0.8,0.2-1.7,0.3-2.7,0.3h-2.9
				v7.1h-4V445.9z M265.5,453.7h2.7c0.4,0,0.7,0,1-0.1c0.3-0.1,0.6-0.2,0.9-0.3c0.3-0.2,0.5-0.4,0.6-0.7s0.2-0.6,0.2-1.1
				c0-0.5-0.1-0.8-0.3-1.1s-0.5-0.5-0.8-0.7c-0.3-0.2-0.7-0.2-1.1-0.3c-0.4,0-0.8-0.1-1.2-0.1h-2.1V453.7z"/>
			<path class="st87" d="M277.7,445.9h7c0.9,0,1.8,0.1,2.6,0.3c0.8,0.2,1.6,0.5,2.2,0.9c0.6,0.4,1.1,1,1.5,1.7
				c0.4,0.7,0.6,1.6,0.6,2.7c0,1.3-0.3,2.4-1,3.3c-0.7,0.9-1.6,1.5-2.9,1.7l4.6,7.7h-4.8l-3.8-7.3h-2v7.3h-4V445.9z M281.7,453.5
				h2.4c0.4,0,0.7,0,1.1,0c0.4,0,0.8-0.1,1.1-0.2c0.3-0.1,0.6-0.3,0.8-0.6c0.2-0.3,0.3-0.7,0.3-1.2c0-0.5-0.1-0.8-0.3-1.1
				c-0.2-0.3-0.4-0.5-0.7-0.6c-0.3-0.1-0.6-0.2-1-0.3c-0.4-0.1-0.7-0.1-1.1-0.1h-2.6V453.5z"/>
			<path class="st87" d="M294.3,445.9h4v18.2h-4V445.9z"/>
			<path class="st87" d="M300.2,445.9h4.6l4.5,11.9h0.1l4.6-11.9h4.3l-7.5,18.2h-3.2L300.2,445.9z"/>
			<path class="st87" d="M324.7,445.9h3.3l7.9,18.2h-4.5l-1.6-3.9h-7.1l-1.5,3.9h-4.4L324.7,445.9z M326.2,451.2l-2.2,5.7h4.5
				L326.2,451.2z"/>
			<path class="st87" d="M337.7,445.9h6c1.5,0,2.8,0.2,4.2,0.5c1.3,0.3,2.5,0.9,3.4,1.6c1,0.7,1.8,1.7,2.3,2.8
				c0.6,1.2,0.9,2.6,0.9,4.2c0,1.5-0.3,2.8-0.8,3.9c-0.6,1.1-1.3,2.1-2.3,2.8c-0.9,0.8-2,1.3-3.3,1.7c-1.2,0.4-2.5,0.6-3.9,0.6h-6.6
				V445.9z M341.8,460.5h2.1c0.9,0,1.8-0.1,2.6-0.3c0.8-0.2,1.5-0.5,2.1-0.9c0.6-0.4,1-1,1.4-1.7c0.3-0.7,0.5-1.6,0.5-2.6
				c0-0.9-0.2-1.7-0.5-2.3c-0.3-0.7-0.8-1.2-1.4-1.6c-0.6-0.4-1.2-0.7-2-1s-1.6-0.3-2.4-0.3h-2.4V460.5z"/>
			<path class="st87" d="M363.3,445.9h3.3l7.9,18.2H370l-1.6-3.9h-7.1l-1.5,3.9h-4.4L363.3,445.9z M364.8,451.2l-2.2,5.7h4.5
				L364.8,451.2z"/>
			<path class="st87" d="M383.9,445.9h4v6.8h7.8v-6.8h4v18.2h-4v-7.9H388v7.9h-4V445.9z"/>
			<path class="st87" d="M409.5,445.9h3.3l7.9,18.2h-4.5l-1.6-3.9h-7.1l-1.5,3.9h-4.4L409.5,445.9z M411,451.2l-2.2,5.7h4.5
				L411,451.2z"/>
			<path class="st87" d="M422.5,445.9h6.8c0.8,0,1.6,0.1,2.4,0.2c0.8,0.1,1.5,0.3,2.1,0.7c0.6,0.3,1.1,0.8,1.5,1.4
				c0.4,0.6,0.6,1.4,0.6,2.4c0,1-0.3,1.9-0.9,2.6c-0.6,0.7-1.3,1.2-2.3,1.5v0.1c0.6,0.1,1.1,0.2,1.6,0.5s0.9,0.6,1.3,1
				c0.3,0.4,0.6,0.8,0.8,1.4c0.2,0.5,0.3,1.1,0.3,1.6c0,1-0.2,1.8-0.6,2.4c-0.4,0.6-0.9,1.2-1.6,1.6c-0.7,0.4-1.4,0.7-2.2,0.8
				c-0.8,0.2-1.6,0.3-2.4,0.3h-7.5V445.9z M426.6,453.2h2.9c0.3,0,0.6,0,0.9-0.1c0.3-0.1,0.6-0.2,0.8-0.3c0.2-0.2,0.4-0.4,0.6-0.6
				c0.1-0.3,0.2-0.6,0.2-0.9c0-0.4-0.1-0.7-0.2-0.9c-0.2-0.2-0.4-0.4-0.6-0.6c-0.3-0.1-0.5-0.2-0.9-0.3c-0.3-0.1-0.6-0.1-1-0.1h-2.7
				V453.2z M426.6,460.8h3.6c0.3,0,0.6,0,0.9-0.1c0.3-0.1,0.6-0.2,0.9-0.4c0.3-0.2,0.5-0.4,0.6-0.7c0.2-0.3,0.2-0.6,0.2-1
				c0-0.4-0.1-0.8-0.3-1c-0.2-0.3-0.5-0.5-0.8-0.6c-0.3-0.1-0.7-0.2-1.1-0.3c-0.4,0-0.7-0.1-1.1-0.1h-3V460.8z"/>
			<path class="st87" d="M439.2,445.9h4v18.2h-4V445.9z"/>
			<path class="st87" d="M450.4,449.5h-5.2v-3.5h14.4v3.5h-5.2v14.7h-4V449.5z"/>
			<path class="st87" d="M465.2,445.9h3.3l7.9,18.2H472l-1.6-3.9h-7.1l-1.5,3.9h-4.4L465.2,445.9z M466.8,451.2l-2.2,5.7h4.5
				L466.8,451.2z"/>
			<path class="st87" d="M490.2,450.7c-0.4-0.5-0.9-0.8-1.5-1.1c-0.6-0.3-1.2-0.4-2-0.4c-0.8,0-1.5,0.1-2.1,0.4
				c-0.6,0.3-1.2,0.7-1.7,1.2c-0.5,0.5-0.8,1.1-1.1,1.9c-0.3,0.7-0.4,1.5-0.4,2.3c0,0.9,0.1,1.6,0.4,2.4c0.3,0.7,0.6,1.3,1.1,1.9
				c0.5,0.5,1,0.9,1.6,1.2c0.6,0.3,1.3,0.4,2,0.4c0.8,0,1.6-0.2,2.2-0.5c0.6-0.3,1.2-0.8,1.6-1.4l3.3,2.5c-0.8,1.1-1.8,1.9-2.9,2.4
				c-1.2,0.5-2.4,0.8-3.7,0.8c-1.4,0-2.7-0.2-3.9-0.7c-1.2-0.4-2.2-1.1-3.1-1.9c-0.9-0.8-1.6-1.8-2-3c-0.5-1.2-0.7-2.5-0.7-4
				c0-1.5,0.2-2.8,0.7-4c0.5-1.2,1.2-2.2,2-3c0.9-0.8,1.9-1.5,3.1-1.9c1.2-0.4,2.5-0.7,3.9-0.7c0.5,0,1.1,0,1.6,0.1
				c0.6,0.1,1.1,0.2,1.6,0.5s1.1,0.5,1.6,0.8s0.9,0.8,1.3,1.3L490.2,450.7z"/>
			<path class="st87" d="M495.9,445.9h4v18.2h-4V445.9z"/>
			<path class="st87" d="M502.6,455.1c0-1.5,0.2-2.8,0.7-4c0.5-1.2,1.2-2.2,2-3c0.9-0.8,1.9-1.5,3.1-1.9c1.2-0.4,2.5-0.7,3.9-0.7
				c1.4,0,2.7,0.2,3.9,0.7c1.2,0.4,2.2,1.1,3.1,1.9c0.9,0.8,1.6,1.8,2,3c0.5,1.2,0.7,2.5,0.7,4c0,1.5-0.2,2.8-0.7,4
				c-0.5,1.2-1.2,2.2-2,3c-0.9,0.8-1.9,1.5-3.1,1.9c-1.2,0.4-2.5,0.7-3.9,0.7c-1.4,0-2.7-0.2-3.9-0.7c-1.2-0.4-2.2-1.1-3.1-1.9
				c-0.9-0.8-1.6-1.8-2-3C502.8,457.8,502.6,456.5,502.6,455.1z M506.7,455.1c0,0.9,0.1,1.6,0.4,2.4c0.3,0.7,0.6,1.3,1.1,1.9
				s1.1,0.9,1.8,1.2c0.7,0.3,1.5,0.4,2.3,0.4c0.9,0,1.6-0.1,2.3-0.4c0.7-0.3,1.3-0.7,1.8-1.2c0.5-0.5,0.9-1.1,1.1-1.9
				c0.3-0.7,0.4-1.5,0.4-2.4c0-0.8-0.1-1.6-0.4-2.3c-0.3-0.7-0.6-1.3-1.1-1.9c-0.5-0.5-1.1-0.9-1.8-1.2c-0.7-0.3-1.5-0.4-2.3-0.4
				c-0.9,0-1.6,0.1-2.3,0.4c-0.7,0.3-1.3,0.7-1.8,1.2c-0.5,0.5-0.9,1.1-1.1,1.9C506.9,453.4,506.7,454.2,506.7,455.1z"/>
			<path class="st87" d="M525,445.9h5.5l7.7,12.7h0.1v-12.7h4v18.2H537l-8-13h0v13h-4V445.9z"/>
			<path class="st87" d="M551.9,445.9h3.3l7.9,18.2h-4.5l-1.6-3.9H550l-1.5,3.9h-4.4L551.9,445.9z M553.5,451.2l-2.2,5.7h4.5
				L553.5,451.2z"/>
			<path class="st87" d="M565.2,445.9h4v14.5h7.4v3.7h-11.4V445.9z"/>
		</g>
	</g>
	<g>
		<g>
			<g>
				<path class="st87" d="M349.3,385.8L349.3,385.8c12.7,23,35.7,29.9,56.8,31.6c24.9,2,52.2-2.4,70.1-26.1
					c8.2-10.9,13.7-25.1,17.8-39.8c8.5-30.4,11.1-127-1.7-154.4c-6.2-13.2-15.5-23.3-25.6-30.8c-32.4-23.8-69.4-19.3-99.3,8.7
					c-20.3,19-24.2,42.2-26.9,74.1C338.3,275.1,337.1,363.8,349.3,385.8z"/>
			</g>
		</g>
	</g>
	<g>
		<path class="st88" d="M420.4,358.6c-13.1,0-18.7-6.9-21.1-12.7c-7-16.8,3.3-47.5,16.8-73.8c-7.3-13.8-15.5-26.3-22.5-34.4
			c-3.6,4.4-7.6,10.7-11.4,17.7c7.8,15.5,13.6,33.4,9.4,43.5c-1.6,3.8-5.2,8.3-13.7,8.3c-8.3,0-12-4.4-13.5-8.1
			c-4.2-9.9,1.6-27.9,9.5-43.6c-4.7-8.8-9.9-16.6-14.1-20.7c-1.4-1.4-1.4-3.8,0-5.2c1.4-1.4,3.8-1.4,5.2,0c3.7,3.7,8.5,10.3,13,18.2
			c4.5-7.8,9.1-14.4,12.8-18.2c1.4-1.4,3.9-1.4,5.3,0c6.8,7,15.7,19.9,24,34.8c8.4-15.1,17.5-28.1,24.2-34.8
			c0.7-0.7,1.6-1.1,2.6-1.1c1,0.2,2,0.4,2.6,1.1c3.6,3.7,8.2,10.2,12.6,17.9c4.5-7.7,9.2-14.3,12.9-17.9c1.4-1.4,3.8-1.4,5.2,0
			c1.4,1.4,1.4,3.8,0,5.2c-4.1,4.1-9.3,11.8-14,20.5c7.9,15.7,13.7,33.8,9.5,43.8c-1.6,3.7-5.2,8.2-13.6,8.2
			c-8.5,0-12.1-4.5-13.7-8.3c-4.2-10.2,1.6-28.2,9.5-43.8c-3.7-6.9-7.7-13.1-11.2-17.5c-6.9,7.9-15.2,20.5-22.6,34.5
			c13.7,26.6,24,57.5,16.9,74.2C438.8,351.8,433.3,358.6,420.4,358.6z M420.2,280.2c-11.6,23.8-19.6,49.8-14.1,62.9
			c2.3,5.5,7,8.2,14.3,8.2c7.2,0,11.8-2.6,14.1-7.9C440,330.3,431.9,304.2,420.2,280.2z M462.3,263.5c-5.8,12.7-9.6,25.9-6.9,32.5
			c0.7,1.8,2.2,3.8,6.9,3.8c4.7,0,6.1-2,6.8-3.7C471.9,289.4,468.1,276.2,462.3,263.5z M378.1,263.7c-5.9,12.7-9.7,25.9-6.9,32.4
			c0.7,1.7,2.1,3.6,6.8,3.6c4.7,0,6.2-2,6.9-3.8C387.6,289.4,383.9,276.4,378.1,263.7z"/>
	</g>
	<g>
		<path class="st89" d="M324.6,578.9l-0.3,0.8c-0.6,1.7-1.6,3-2.9,4c-1.4,1-2.9,1.4-4.6,1.4c-2.7,0-4.8-1.1-6.5-3.2
			c-1.5-1.9-2.2-4.3-2.2-7.2c0-3.1,0.8-5.7,2.3-7.9c1.7-2.4,3.8-3.6,6.5-3.6c0.5,0,1.5,0.1,2.9,0.4c0.6,0.1,1,0.2,1.2,0.1
			c0.7-0.1,1.1-0.2,1.2-0.2c0.1,0,0.4-0.2,0.9-0.3l1.4,6.4l-1,0.2l-0.4-0.7c-0.9-1.6-1.7-2.8-2.5-3.5c-1-1-2.2-1.5-3.5-1.5
			c-1.7,0-3.1,0.9-4.1,2.7c-0.9,1.5-1.3,3.4-1.3,5.5c0,2.6,0.5,4.9,1.6,6.8c1.2,2.2,2.9,3.3,5,3.3c1.1,0,2.1-0.3,2.9-0.9
			c0.9-0.6,1.5-1.4,2-2.5l0.3-0.7L324.6,578.9z"/>
		<path class="st89" d="M337.8,584.7h-7.9v-1l1.9-0.2v-18.7l-1.9-0.2v-1h7.9v1l-2.1,0.2v18.7l2.1,0.2V584.7z"/>
		<path class="st89" d="M361.8,564.6c-0.3,0-0.6,0-0.9,0.1c-0.3,0.1-0.5,0.2-0.7,0.4c-0.4,0.3-0.6,0.6-0.7,1
			c-0.1,0.4-0.2,0.8-0.2,1.4v10.9c0,2-0.5,3.6-1.6,4.7c-1.2,1.3-3,2-5.4,2c-2.4,0-4.2-0.6-5.5-1.7c-1.3-1.1-1.9-2.6-1.9-4.5v-14.1
			l-1.7-0.2v-1h7.5v1l-1.9,0.2v13.3c0,1.6,0.3,2.9,1,3.8c0.8,1.2,2,1.7,3.7,1.7c1.5,0,2.7-0.5,3.5-1.5c0.7-0.9,1-2,1-3.4v-11.2
			c0-0.6,0-1-0.1-1.3c-0.1-0.3-0.3-0.6-0.6-1c-0.2-0.2-0.4-0.3-0.8-0.5c-0.4-0.1-0.7-0.2-1-0.2v-1h6.4V564.6z"/>
		<path class="st89" d="M385.3,574.1c0,3.2-1,5.8-2.9,7.8c-1.9,1.9-4.2,2.8-7.1,2.8h-8.4v-1l1.8-0.2v-18.7l-1.8-0.2v-1h6.3h2.5
			c2.2,0,4.2,0.8,6.1,2.3C384.1,567.9,385.3,570.6,385.3,574.1z M381.3,574c0-3.3-0.6-5.8-1.9-7.3c-1.1-1.4-2.6-2-4.6-2
			c-0.4,0-1,0-1.8,0.1c-0.1,0-0.3,0-0.5,0.1v18.7h3c2,0,3.6-0.9,4.6-2.8C380.9,579.1,381.3,576.8,381.3,574z"/>
		<path class="st89" d="M410.4,584.7H403v-1l1.9-0.2l-1.8-5.3h-7.1l-0.9,2.9c-0.1,0.3-0.2,0.7-0.2,1c0,0.3,0,0.5,0.1,0.7
			c0.1,0.2,0.2,0.4,0.5,0.5c0.2,0.1,0.6,0.2,1.2,0.3c0.1,0,0.2,0,0.4,0.1v1h-6.3v-1c0.5-0.1,1-0.2,1.4-0.5c0.4-0.3,0.8-0.6,0.9-0.8
			s0.4-0.7,0.5-1.2l5.1-15.8l-0.7-1.6l4-0.3l6.8,20.1l1.4,0.2V584.7z M402.7,576.8l-3.1-9.6l-3,9.6H402.7z"/>
		<path class="st89" d="M433.9,574.1c0,3.2-1,5.8-2.9,7.8c-1.9,1.9-4.2,2.8-7.1,2.8h-8.4v-1l1.8-0.2v-18.7l-1.8-0.2v-1h6.3h2.5
			c2.2,0,4.2,0.8,6.1,2.3C432.7,567.9,433.9,570.6,433.9,574.1z M429.9,574c0-3.3-0.6-5.8-1.9-7.3c-1.1-1.4-2.6-2-4.6-2
			c-0.4,0-1,0-1.8,0.1c-0.1,0-0.3,0-0.5,0.1v18.7h3c2,0,3.6-0.9,4.6-2.8C429.4,579.1,429.9,576.8,429.9,574z"/>
		<path class="st89" d="M468.4,564.6c-0.4,0-0.6,0-0.8,0.1c-0.2,0-0.4,0.2-0.8,0.4c-0.3,0.2-0.6,0.5-0.8,0.8
			c-0.2,0.3-0.4,0.7-0.5,1.3l-5,15.7l0.8,1.8l-4.1,0.3l-6.7-20l-1.4-0.2v-1h7.3v1l-1.8,0.2l5.2,15.9l4.3-13.5
			c0.1-0.2,0.1-0.5,0.1-0.8c0-0.7-0.2-1.2-0.7-1.5c-0.2-0.1-0.5-0.2-0.8-0.2c-0.3,0-0.6-0.1-0.8-0.1v-1h6.5V564.6z"/>
		<path class="st89" d="M481.4,584.7h-7.9v-1l1.9-0.2v-18.7l-1.9-0.2v-1h7.9v1l-2.1,0.2v18.7l2.1,0.2V584.7z"/>
		<path class="st89" d="M505.7,564.6c-0.4,0-0.6,0-0.8,0.1c-0.2,0-0.4,0.2-0.8,0.4s-0.6,0.5-0.8,0.8c-0.2,0.3-0.4,0.7-0.5,1.3
			l-5,15.7l0.8,1.8l-4.1,0.3l-6.7-20l-1.4-0.2v-1h7.3v1l-1.8,0.2l5.2,15.9l4.3-13.5c0.1-0.2,0.1-0.5,0.1-0.8c0-0.7-0.2-1.2-0.7-1.5
			c-0.2-0.1-0.5-0.2-0.8-0.2s-0.6-0.1-0.8-0.1v-1h6.5V564.6z"/>
		<path class="st89" d="M530.3,584.7H523v-1l1.9-0.2l-1.8-5.3h-7.1l-0.9,2.9c-0.1,0.3-0.2,0.7-0.2,1c0,0.3,0,0.5,0.1,0.7
			c0.1,0.2,0.2,0.4,0.4,0.5c0.2,0.1,0.6,0.2,1.2,0.3c0.1,0,0.2,0,0.4,0.1v1h-6.3v-1c0.5-0.1,1-0.2,1.4-0.5c0.4-0.3,0.8-0.6,0.9-0.8
			c0.2-0.3,0.4-0.7,0.5-1.2l5.1-15.8l-0.7-1.6l4-0.3l6.8,20.1l1.4,0.2V584.7z M522.7,576.8l-3.1-9.6l-3,9.6H522.7z"/>
	</g>
</g>
</svg>
