<?xml version="1.0" encoding="utf-8"?>
<!-- Generator: Adobe Illustrator 21.0.2, SVG Export Plug-In . SVG Version: 6.00 Build 0)  -->
<svg version="1.1" id="Capa_1" xmlns="http://www.w3.org/2000/svg" xmlns:xlink="http://www.w3.org/1999/xlink" x="0px" y="0px"
	 viewBox="0 0 800 800" style="enable-background:new 0 0 800 800;" xml:space="preserve">
<style type="text/css">
	.st0{clip-path:url(#SVGID_2_);fill:#F8060A;}
	.st1{clip-path:url(#SVGID_2_);fill:#FFFFFF;}
	.st2{fill:#FFFFFF;}
	.st3{clip-path:url(#SVGID_4_);fill:#FFFFFF;}
	.st4{clip-path:url(#SVGID_6_);fill:#FFFFFF;}
	.st5{clip-path:url(#SVGID_8_);fill:#FFFFFF;}
	.st6{clip-path:url(#SVGID_10_);fill:#FFFFFF;}
	.st7{clip-path:url(#SVGID_12_);fill:#FFFFFF;}
	.st8{clip-path:url(#SVGID_12_);fill:#E30F1C;}
</style>
<g>
	<defs>
		<rect id="SVGID_1_" x="67.9" y="190.4" width="693.1" height="420.8"/>
	</defs>
	<clipPath id="SVGID_2_">
		<use xlink:href="#SVGID_1_"  style="overflow:visible;"/>
	</clipPath>
	<path class="st0" d="M706.9,327.5c-0.1-0.4-0.2-0.8-0.2-1.2c-0.2-0.8-0.4-1.6-0.6-2.4c-0.1-0.4-0.3-0.9-0.5-1.3
		c-0.3-0.7-0.6-1.4-0.9-2.1c-0.2-0.4-0.4-0.8-0.7-1.3c-0.4-0.7-0.8-1.3-1.2-1.9c-0.3-0.4-0.5-0.7-0.8-1.1c-0.5-0.7-1.1-1.3-1.7-1.9
		c-0.2-0.2-0.5-0.5-0.7-0.7c-0.9-0.8-1.8-1.6-2.7-2.3c-0.2-0.2-0.5-0.3-0.7-0.5c-0.6-0.4-1.3-0.8-1.9-1.2l-0.3-0.1
		c-1.3-0.7-2.7-1.2-4.1-1.7l-0.2,0L405.9,194.3c-1.2-0.6-2.4-1.1-3.7-1.6c-4-1.5-8.3-2.3-12.9-2.3c-0.6,0-1.2,0.1-1.8,0.2
		c-0.6,0-1.2-0.2-1.8-0.2c-4.5,0-8.9,0.8-12.9,2.3c-1.3,0.5-2.5,1-3.7,1.6l-147.9,59.1v-43.4c0-10.8-8.7-19.5-19.5-19.5H146
		c-10.8,0-19.5,8.7-19.5,19.5v81.3l-41.1,16.5l-0.2,0c-1.4,0.4-2.8,1-4.1,1.7l-0.3,0.1c-0.7,0.4-1.3,0.8-1.9,1.2
		c-0.3,0.2-0.5,0.3-0.7,0.5c-1,0.7-1.9,1.4-2.7,2.3c-0.2,0.2-0.4,0.5-0.7,0.7c-0.6,0.6-1.2,1.2-1.7,1.9c-0.3,0.4-0.5,0.7-0.8,1.1
		c-0.4,0.6-0.8,1.2-1.2,1.9c-0.2,0.4-0.5,0.8-0.7,1.3c-0.3,0.7-0.6,1.4-0.9,2.1c-0.2,0.4-0.3,0.8-0.5,1.3c-0.2,0.8-0.4,1.6-0.6,2.4
		c-0.1,0.4-0.2,0.8-0.2,1.2c-0.2,1.2-0.3,2.5-0.3,3.8v251.1c0,13.5,10.9,24.4,24.4,24.4h590.6c13.5,0,24.4-10.9,24.4-24.4V331.3
		C707.3,330,707.1,328.7,706.9,327.5"/>
	<path class="st1" d="M222.8,450c-3.6,4.2-11.4,10.4-25,10.4c-7.8,0-14.7-1.9-20.7-7c-10.2-8.6-11-20.8-11-25.1
		c0-3.7,0.4-12.2,6.3-20.4c8.4-11.9,20.1-12.7,25.5-12.7c13.9,0,22.3,7.3,25.6,11.2c1.8,2.1,2.7,3.5,4,5.9l-16.2,8
		c-0.3-0.6-0.6-1.2-0.9-1.8c-1-2.1-4.1-8.4-11.9-8.3c-3.5,0-5.8,1.3-7,2.2c-6.1,4.5-5.8,13.3-5.8,14.9c0,8.4,2.7,12.9,5.6,15.2
		c3,2.3,5.8,2.4,7.3,2.4c6.7,0,9.8-4.5,11-6.6c0.4-0.9,0.8-1.7,1.4-3.5l16.5,8C225.3,446.7,224.2,448.2,222.8,450"/>
</g>
<path class="st2" d="M283,458.4l-2.7-8.6H259l-2.7,8.6h-20.8l23.4-61.1h22l22.9,61.1H283z M269.8,414.7l-6.7,21.6h13.2L269.8,414.7z
	"/>
<g>
	<defs>
		<rect id="SVGID_3_" x="67.9" y="190.4" width="693.1" height="420.8"/>
	</defs>
	<clipPath id="SVGID_4_">
		<use xlink:href="#SVGID_3_"  style="overflow:visible;"/>
	</clipPath>
	<path class="st3" d="M361.9,454.6c-7.9,5.8-18.2,5.6-20.8,5.6c-8.9,0-17.4-1.5-24.7-6.9c-2.8-2.1-4.4-3.9-6.5-6.6l14.8-9.4
		c1.3,2.1,2.1,3,2.9,3.7c3.5,3,9.9,4.3,14.1,4.3c5.5,0,9.3-1.7,9.3-4.7c0-0.7-0.3-1.2-0.4-1.5c-0.4-0.9-1.1-1.6-2.9-2.3
		c-2.2-0.8-6.1-1.3-11.5-2.4c-8.4-1.7-12.9-3.7-15.8-6.3c-1.9-1.7-5.4-5.7-5.3-12.4c0-1.7,0.1-5.4,2.3-9.3
		c6.2-11.4,22.4-11.3,24.8-11.3c3.1,0,14.1,0.2,22.9,6.6c1.9,1.4,3,2.6,4.7,4.2l-12.2,10.1c-0.8-1.1-1.2-1.6-1.7-2
		c-3.6-3.3-9.7-4.2-14.3-4.2c-0.4,0-2.8,0-4.6,0.8c-0.4,0.2-2.4,1.1-2.4,3.2c0,1.1,0.7,2.2,1.6,2.8c1.6,0.9,5.2,1.6,6.8,1.9
		c2.2,0.3,7.9,1.1,13.9,3.1c3.8,1.2,13.3,4.6,13.3,16.8C369.9,447.7,364.6,452.6,361.9,454.6"/>
</g>
<rect x="383.2" y="397.3" class="st2" width="19.4" height="61.1"/>
<polygon class="st2" points="448.3,412.4 448.3,458.4 429,458.4 429,412.4 413.4,412.4 413.4,397.3 463.8,397.3 463.8,412.4 "/>
<path class="st2" d="M513.2,458.4l-2.7-8.6h-21.3l-2.7,8.6h-20.8l23.4-61.1h22l22.9,61.1H513.2z M500,414.7l-6.7,21.6h13.2
	L500,414.7z"/>
<g>
	<defs>
		<rect id="SVGID_5_" x="67.9" y="190.4" width="693.1" height="420.8"/>
	</defs>
	<clipPath id="SVGID_6_">
		<use xlink:href="#SVGID_5_"  style="overflow:visible;"/>
	</clipPath>
	<path class="st4" d="M593.9,454.6c-7.9,5.8-18.2,5.6-20.8,5.6c-8.9,0-17.4-1.5-24.7-6.9c-2.8-2.1-4.4-3.9-6.5-6.6l14.8-9.4
		c1.3,2.1,2.1,3,2.9,3.7c3.5,3,9.9,4.3,14.1,4.3c5.5,0,9.3-1.7,9.3-4.7c0-0.7-0.3-1.2-0.4-1.5c-0.4-0.9-1.1-1.6-2.9-2.3
		c-2.2-0.8-6.1-1.3-11.5-2.4c-8.4-1.7-12.9-3.7-15.9-6.3c-1.9-1.7-5.4-5.7-5.3-12.4c0-1.7,0.1-5.4,2.3-9.3
		c6.2-11.4,22.4-11.3,24.8-11.3c3.1,0,14.1,0.2,22.9,6.6c1.9,1.4,3,2.6,4.7,4.2l-12.2,10.1c-0.8-1.1-1.2-1.6-1.7-2
		c-3.6-3.3-9.7-4.2-14.3-4.2c-0.4,0-2.8,0-4.6,0.8c-0.4,0.2-2.4,1.1-2.4,3.2c0,1.1,0.7,2.2,1.6,2.8c1.6,0.9,5.2,1.6,6.8,1.9
		c2.2,0.3,7.9,1.1,13.9,3.1c3.8,1.2,13.3,4.6,13.3,16.8C602,447.7,596.6,452.6,593.9,454.6"/>
	<path class="st4" d="M336.1,342.6v13c-1.4,1.1-3.2,2.1-5.3,2.9c-2.1,0.8-4.4,1.2-6.9,1.2c-2.4,0-4.4-0.4-6.1-1.1
		c-1.7-0.7-3.2-1.7-4.3-3c-1.2-1.3-2-2.8-2.6-4.7c-0.6-1.8-0.9-3.8-0.9-6.1c0-2.4,0.3-4.5,0.9-6.4c0.6-1.9,1.5-3.4,2.7-4.7
		c1.2-1.3,2.6-2.3,4.3-3c1.7-0.7,3.7-1,5.9-1c1.9,0,3.6,0.3,5,0.8c1.4,0.5,2.6,1.2,3.6,2c1,0.8,1.8,1.8,2.3,2.9
		c0.5,1.1,0.9,2.3,1.1,3.5l-7.7,0.8c-0.3-1.2-0.8-2.1-1.5-2.7c-0.7-0.6-1.7-0.9-3-0.9c-2,0-3.5,0.7-4.4,2.1
		c-0.9,1.4-1.4,3.5-1.4,6.3c0,2.8,0.5,5,1.5,6.4c1,1.4,2.7,2.1,5.2,2.1c1.7,0,3.2-0.3,4.5-1v-3.3h-4.5v-6.2H336.1z"/>
	<path class="st4" d="M367,344.2c-0.7,1.4-1.8,2.5-3.2,3.3l5.8,11.4h-8.1l-4.7-9.8h-4.1v9.8h-7.3v-28.4h11.2c2.2,0,4.1,0.3,5.5,0.8
		c1.5,0.5,2.6,1.2,3.5,2c0.9,0.8,1.5,1.8,1.8,2.9c0.4,1.1,0.5,2.2,0.5,3.3C368,341.3,367.7,342.8,367,344.2 M356.5,343.2
		c1.5,0,2.6-0.3,3.2-0.9c0.6-0.6,0.9-1.5,0.9-2.6c0-1.1-0.3-1.9-1-2.5c-0.7-0.6-1.8-0.9-3.4-0.9h-3.5v6.8H356.5z"/>
	<path class="st4" d="M383.5,358.9c-1.5-0.5-2.7-1.2-3.8-2.2c-1-1-1.8-2.3-2.3-3.9c-0.5-1.6-0.8-3.5-0.8-5.7v-16.7h7.7v16.9
		c0,1.9,0.3,3.3,1,4.3c0.7,0.9,1.8,1.4,3.4,1.4c1.6,0,2.7-0.5,3.4-1.4c0.7-0.9,1-2.4,1-4.3v-16.9h7.6v16.7c0,2.2-0.3,4.1-0.8,5.7
		c-0.6,1.6-1.4,2.9-2.4,3.9c-1,1-2.3,1.8-3.8,2.2c-1.5,0.5-3.2,0.7-5.1,0.7C386.7,359.6,385,359.4,383.5,358.9"/>
	<path class="st4" d="M420.9,330.4c2.2,0,4.1,0.3,5.6,0.8c1.5,0.5,2.7,1.2,3.5,2.1c0.9,0.9,1.5,1.9,1.8,3c0.3,1.1,0.5,2.4,0.5,3.7
		c0,1.3-0.2,2.6-0.5,3.8c-0.4,1.2-1,2.2-1.9,3.1c-0.9,0.9-2,1.6-3.5,2.1c-1.4,0.5-3.3,0.8-5.4,0.8h-3.3v9.2h-7.4v-28.4H420.9z
		 M420.9,343.6c1.6,0,2.7-0.3,3.3-0.9c0.6-0.6,0.9-1.5,0.9-2.7s-0.3-2.1-1-2.6c-0.6-0.6-1.8-0.8-3.4-0.8h-3.2v7.1H420.9z"/>
	<path class="st4" d="M459.8,330.8c1.7,0.7,3.2,1.7,4.4,2.9c1.2,1.3,2.1,2.8,2.7,4.7c0.6,1.8,0.9,3.9,0.9,6.2c0,2.3-0.3,4.4-0.9,6.3
		c-0.6,1.9-1.5,3.4-2.7,4.7c-1.2,1.3-2.7,2.3-4.4,3c-1.8,0.7-3.8,1.1-6,1.1c-2.2,0-4.2-0.3-5.9-1c-1.7-0.7-3.2-1.7-4.4-2.9
		c-1.2-1.3-2.1-2.8-2.7-4.7c-0.6-1.8-0.9-3.9-0.9-6.2c0-2.3,0.3-4.4,0.9-6.3c0.6-1.9,1.5-3.4,2.7-4.7c1.2-1.3,2.7-2.3,4.4-3
		c1.8-0.7,3.8-1.1,6-1.1C456.1,329.7,458.1,330.1,459.8,330.8 M449.2,350.9c1,1.4,2.5,2.1,4.6,2.1c2,0,3.6-0.7,4.6-2.1
		c1-1.4,1.5-3.5,1.5-6.2c0-2.7-0.5-4.8-1.5-6.2c-1-1.4-2.5-2.1-4.6-2.1c-2,0-3.6,0.7-4.6,2.1c-1,1.4-1.5,3.5-1.5,6.2
		C447.7,347.4,448.2,349.5,449.2,350.9"/>
	<path class="st4" d="M223,497.3h11.2c4.7,0,8.3,1.2,10.7,3.5c2.4,2.4,3.6,5.8,3.6,10.4c0,4.7-1.3,8.3-3.8,10.8
		c-2.6,2.5-6.2,3.8-11,3.8H223V497.3z M233.9,519.3c2.3,0,4-0.7,5.1-2.1s1.6-3.3,1.6-5.8c0-2.5-0.5-4.4-1.5-5.7c-1-1.3-2.6-2-4.9-2
		h-3.6v15.5H233.9z"/>
</g>
<polygon class="st2" points="277.7,497.3 277.7,503.6 264.8,503.6 264.8,508.2 276.9,508.2 276.9,514.4 264.8,514.4 264.8,519.5 
	278.5,519.5 277.9,525.8 257.3,525.8 257.3,497.3 "/>
<g>
	<defs>
		<rect id="SVGID_7_" x="67.9" y="190.4" width="693.1" height="420.8"/>
	</defs>
	<clipPath id="SVGID_8_">
		<use xlink:href="#SVGID_7_"  style="overflow:visible;"/>
	</clipPath>
	<path class="st5" d="M294.5,519.4c0.8,0.7,2,1,3.6,1c1.4,0,2.4-0.2,3.1-0.7c0.7-0.5,1-1.1,1-2c0-0.7-0.2-1.2-0.7-1.7
		c-0.4-0.4-1.3-0.8-2.5-1l-3.8-0.7c-3.2-0.6-5.5-1.6-7-2.9c-1.5-1.4-2.3-3.3-2.3-5.7c0-2.9,1-5.2,3.1-6.7c2-1.5,4.8-2.2,8.4-2.2
		c2.1,0,3.8,0.2,5.3,0.7c1.5,0.5,2.7,1.1,3.6,1.9c0.9,0.8,1.6,1.7,2.1,2.8c0.5,1.1,0.8,2.2,0.9,3.3l-7.4,0.7c-0.2-1.1-0.7-2-1.4-2.5
		c-0.7-0.6-1.7-0.8-3.2-0.8c-1.3,0-2.3,0.2-2.9,0.7c-0.6,0.4-0.9,1-0.9,1.8c0,0.7,0.3,1.2,0.8,1.6c0.5,0.4,1.3,0.7,2.4,0.9l3.9,0.8
		c3.3,0.7,5.7,1.7,7.1,3.2c1.4,1.5,2.1,3.3,2.1,5.6c0,1.4-0.2,2.7-0.7,3.8c-0.5,1.2-1.2,2.1-2.2,2.9c-1,0.8-2.2,1.4-3.7,1.9
		c-1.5,0.5-3.3,0.7-5.3,0.7c-7.9-0.1-12-3.4-12.4-10.1h7.6C293.2,517.7,293.6,518.7,294.5,519.4"/>
</g>
<path class="st2" d="M344.1,525.8h-7.9l-1.6-5.5H325l-1.6,5.5h-7.7l9.9-28.4h8.7L344.1,525.8z M332.7,514.2l-2.9-9.8l-3,9.8H332.7z"
	/>
<g>
	<defs>
		<rect id="SVGID_9_" x="67.9" y="190.4" width="693.1" height="420.8"/>
	</defs>
	<clipPath id="SVGID_10_">
		<use xlink:href="#SVGID_9_"  style="overflow:visible;"/>
	</clipPath>
	<path class="st6" d="M373.3,511.1c-0.7,1.4-1.8,2.5-3.2,3.3l5.8,11.4h-8.1l-4.7-9.8h-4.2v9.8h-7.3v-28.4H363c2.2,0,4,0.2,5.5,0.8
		c1.5,0.5,2.6,1.2,3.5,2c0.9,0.8,1.5,1.8,1.8,2.9c0.4,1.1,0.5,2.2,0.5,3.3C374.4,508.1,374,509.7,373.3,511.1 M362.8,510
		c1.5,0,2.6-0.3,3.2-0.9c0.6-0.6,0.9-1.5,0.9-2.6c0-1.1-0.3-1.9-1-2.5c-0.7-0.6-1.8-0.9-3.4-0.9h-3.5v6.8H362.8z"/>
	<path class="st6" d="M405,511.1c-0.7,1.4-1.8,2.5-3.2,3.3l5.8,11.4h-8.1l-4.7-9.8h-4.1v9.8h-7.3v-28.4h11.2c2.2,0,4,0.2,5.5,0.8
		c1.5,0.5,2.6,1.2,3.5,2c0.9,0.8,1.5,1.8,1.8,2.9c0.4,1.1,0.5,2.2,0.5,3.3C406,508.1,405.7,509.7,405,511.1 M394.4,510
		c1.6,0,2.6-0.3,3.3-0.9c0.6-0.6,0.9-1.5,0.9-2.6c0-1.1-0.3-1.9-1-2.5c-0.7-0.6-1.8-0.9-3.4-0.9h-3.5v6.8H394.4z"/>
	<path class="st6" d="M433.8,497.6c1.7,0.7,3.2,1.7,4.4,2.9c1.2,1.3,2.1,2.8,2.7,4.7c0.6,1.8,0.9,3.9,0.9,6.2c0,2.3-0.3,4.4-0.9,6.3
		c-0.6,1.9-1.5,3.4-2.7,4.7c-1.2,1.3-2.7,2.3-4.4,3c-1.7,0.7-3.8,1.1-6,1.1c-2.2,0-4.2-0.3-5.9-1c-1.7-0.7-3.2-1.7-4.4-2.9
		c-1.2-1.3-2.1-2.8-2.7-4.7c-0.6-1.8-0.9-3.9-0.9-6.2c0-2.3,0.3-4.4,0.9-6.3c0.6-1.9,1.5-3.4,2.7-4.7c1.2-1.3,2.7-2.3,4.4-3
		c1.8-0.7,3.8-1,6-1C430.1,496.6,432.1,496.9,433.8,497.6 M423.2,517.8c1,1.4,2.5,2.1,4.6,2.1c2,0,3.6-0.7,4.6-2.1s1.5-3.5,1.5-6.2
		c0-2.7-0.5-4.8-1.5-6.2c-1-1.4-2.5-2.1-4.6-2.1c-2,0-3.6,0.7-4.6,2.1c-1,1.4-1.5,3.5-1.5,6.2C421.7,514.3,422.2,516.4,423.2,517.8"
		/>
</g>
<polygon class="st2" points="458.2,497.3 458.2,519.3 470.8,519.3 470.2,525.8 450.6,525.8 450.6,497.3 "/>
<polygon class="st2" points="486.3,497.3 486.3,519.3 498.8,519.3 498.2,525.8 478.6,525.8 478.6,497.3 "/>
<g>
	<defs>
		<rect id="SVGID_11_" x="67.9" y="190.4" width="693.1" height="420.8"/>
	</defs>
	<clipPath id="SVGID_12_">
		<use xlink:href="#SVGID_11_"  style="overflow:visible;"/>
	</clipPath>
	<path class="st7" d="M525.6,497.6c1.7,0.7,3.2,1.7,4.4,2.9c1.2,1.3,2.1,2.8,2.7,4.7c0.6,1.8,0.9,3.9,0.9,6.2c0,2.3-0.3,4.4-0.9,6.3
		c-0.6,1.9-1.5,3.4-2.7,4.7c-1.2,1.3-2.7,2.3-4.4,3c-1.8,0.7-3.8,1.1-6,1.1c-2.2,0-4.2-0.3-5.9-1c-1.7-0.7-3.2-1.7-4.4-2.9
		c-1.2-1.3-2.1-2.8-2.7-4.7c-0.6-1.8-0.9-3.9-0.9-6.2c0-2.3,0.3-4.4,0.9-6.3c0.6-1.9,1.5-3.4,2.7-4.7c1.2-1.3,2.7-2.3,4.4-3
		c1.7-0.7,3.7-1,6-1C521.9,496.6,523.9,496.9,525.6,497.6 M515.1,517.8c1,1.4,2.5,2.1,4.6,2.1c2.1,0,3.6-0.7,4.6-2.1
		c1-1.4,1.5-3.5,1.5-6.2c0-2.7-0.5-4.8-1.5-6.2c-1-1.4-2.5-2.1-4.6-2.1c-2,0-3.6,0.7-4.6,2.1c-1,1.4-1.5,3.5-1.5,6.2
		C513.5,514.3,514,516.4,515.1,517.8"/>
	<path class="st7" d="M549.9,519.4c0.8,0.7,2,1,3.6,1c1.3,0,2.4-0.2,3-0.7c0.7-0.5,1-1.1,1-2c0-0.7-0.2-1.2-0.7-1.7
		c-0.5-0.4-1.3-0.8-2.5-1l-3.8-0.7c-3.2-0.6-5.5-1.6-7-2.9c-1.5-1.4-2.3-3.3-2.3-5.7c0-2.9,1-5.2,3-6.7c2-1.5,4.8-2.2,8.4-2.2
		c2.1,0,3.8,0.2,5.3,0.7c1.5,0.5,2.7,1.1,3.6,1.9c0.9,0.8,1.6,1.7,2.1,2.8c0.5,1.1,0.8,2.2,0.9,3.3l-7.4,0.7c-0.2-1.1-0.7-2-1.4-2.5
		c-0.7-0.6-1.7-0.8-3.2-0.8c-1.3,0-2.3,0.2-2.9,0.7c-0.6,0.4-0.9,1-0.9,1.8c0,0.7,0.3,1.2,0.8,1.6c0.5,0.4,1.3,0.7,2.4,0.9l3.9,0.8
		c3.4,0.7,5.7,1.7,7.1,3.2c1.4,1.5,2.1,3.3,2.1,5.6c0,1.4-0.2,2.7-0.7,3.8c-0.5,1.2-1.2,2.1-2.2,2.9c-1,0.8-2.2,1.4-3.7,1.9
		c-1.5,0.5-3.3,0.7-5.3,0.7c-7.9-0.1-12-3.4-12.4-10.1h7.6C548.6,517.7,549.1,518.7,549.9,519.4"/>
	<path class="st8" d="M735.6,589.8h4.3c1.9,0,3.3-0.4,4.1-1.1c0.6-0.4,1.1-1.3,1.1-2.4c0-0.7-0.2-1.1-0.6-1.8
		c-0.2-0.4-0.9-0.9-1.5-1.1c-0.7-0.2-1.8-0.2-3.5-0.2h-3.9V589.8z M732.2,602v-21.9h7.4c2.6,0,4.3,0.2,5.4,0.7
		c1.3,0.4,2.2,1.1,2.8,2c0.7,1.1,1.1,2.2,1.1,3.3c0,1.5-0.6,3.1-1.7,4.2c-1.1,1.1-2.6,1.8-4.6,2c0.9,0.4,1.5,0.7,2,1.1
		c0.9,0.9,2,2.4,3,4.4l2.6,4.2H746l-1.9-3.3c-1.5-2.6-2.6-4.4-3.7-5.1c-0.6-0.7-1.5-0.9-2.8-0.9h-2v9.3H732.2z M741,573.7
		c-2.8,0-5.6,0.9-8.2,2.2c-2.8,1.6-4.8,3.8-6.3,6.4c-1.5,2.7-2.4,5.5-2.4,8.4c0,3.1,0.9,5.7,2.4,8.6c1.3,2.6,3.5,4.6,6.1,6.2
		c2.6,1.5,5.4,2.2,8.5,2.2c2.8,0,5.6-0.7,8.2-2.2c2.6-1.6,4.8-3.5,6.1-6.2c1.5-2.9,2.2-5.5,2.2-8.6c0-2.9-0.7-5.7-2.2-8.4
		c-1.5-2.6-3.5-4.9-6.3-6.4C746.5,574.6,743.7,573.7,741,573.7 M741,570.4c3.3,0,6.5,0.9,9.8,2.7c3.3,1.8,5.6,4.2,7.4,7.5
		c2,3.3,2.8,6.6,2.8,10.2c0,3.5-0.9,7.1-2.6,10.2c-1.9,3.3-4.3,5.7-7.6,7.7c-3,1.8-6.3,2.7-9.8,2.7c-3.4,0-6.9-0.9-10-2.7
		c-3.2-2-5.6-4.4-7.6-7.7c-1.7-3.1-2.6-6.6-2.6-10.2c0-3.5,0.9-6.8,2.8-10.2c1.7-3.3,4.1-5.7,7.4-7.5
		C734.3,571.3,737.6,570.4,741,570.4"/>
</g>
</svg>
