<?xml version="1.0" encoding="utf-8"?>
<!-- Generator: Adobe Illustrator 21.0.2, SVG Export Plug-In . SVG Version: 6.00 Build 0)  -->
<svg version="1.1" id="Capa_1" xmlns="http://www.w3.org/2000/svg" xmlns:xlink="http://www.w3.org/1999/xlink" x="0px" y="0px"
	 viewBox="0 0 800 800" style="enable-background:new 0 0 800 800;" xml:space="preserve">
<style type="text/css">
	.st0{fill:#E30F1C;}
	.st1{fill:#474747;}
	.st2{clip-path:url(#SVGID_2_);}
	.st3{clip-path:url(#SVGID_6_);}
	.st4{clip-path:url(#SVGID_10_);}
	.st5{clip-path:url(#SVGID_14_);}
	.st6{clip-path:url(#SVGID_18_);}
	.st7{clip-path:url(#SVGID_22_);}
	.st8{clip-path:url(#SVGID_26_);}
	.st9{clip-path:url(#SVGID_30_);}
	.st10{clip-path:url(#SVGID_34_);}
	.st11{clip-path:url(#SVGID_38_);}
	.st12{clip-path:url(#SVGID_42_);}
	.st13{clip-path:url(#SVGID_46_);}
	.st14{clip-path:url(#SVGID_50_);}
	.st15{clip-path:url(#SVGID_54_);}
	.st16{clip-path:url(#SVGID_58_);}
	.st17{clip-path:url(#SVGID_62_);}
	.st18{clip-path:url(#SVGID_66_);}
	.st19{clip-path:url(#SVGID_70_);}
	.st20{clip-path:url(#SVGID_74_);}
	.st21{clip-path:url(#SVGID_78_);}
	.st22{clip-path:url(#SVGID_82_);}
	.st23{clip-path:url(#SVGID_86_);}
	.st24{clip-path:url(#SVGID_90_);}
	.st25{clip-path:url(#SVGID_94_);}
	.st26{clip-path:url(#SVGID_98_);}
	.st27{clip-path:url(#SVGID_102_);}
	.st28{clip-path:url(#SVGID_106_);}
	.st29{clip-path:url(#SVGID_110_);}
	.st30{clip-path:url(#SVGID_114_);}
	.st31{clip-path:url(#SVGID_118_);}
	.st32{clip-path:url(#SVGID_122_);}
	.st33{clip-path:url(#SVGID_126_);}
	.st34{clip-path:url(#SVGID_130_);}
	.st35{clip-path:url(#SVGID_134_);}
	.st36{clip-path:url(#SVGID_138_);}
	.st37{clip-path:url(#SVGID_142_);}
	.st38{clip-path:url(#SVGID_146_);}
	.st39{clip-path:url(#SVGID_150_);}
	.st40{clip-path:url(#SVGID_154_);}
	.st41{clip-path:url(#SVGID_158_);}
	.st42{clip-path:url(#SVGID_162_);}
	.st43{clip-path:url(#SVGID_166_);}
	.st44{clip-path:url(#SVGID_170_);}
	.st45{clip-path:url(#SVGID_174_);}
	.st46{clip-path:url(#SVGID_178_);}
	.st47{clip-path:url(#SVGID_182_);}
	.st48{clip-path:url(#SVGID_186_);}
	.st49{clip-path:url(#SVGID_190_);}
	.st50{clip-path:url(#SVGID_194_);}
	.st51{clip-path:url(#SVGID_198_);}
	.st52{clip-path:url(#SVGID_202_);}
	.st53{clip-path:url(#SVGID_206_);}
	.st54{clip-path:url(#SVGID_210_);}
	.st55{clip-path:url(#SVGID_214_);}
	.st56{clip-path:url(#SVGID_218_);}
	.st57{clip-path:url(#SVGID_222_);}
	.st58{clip-path:url(#SVGID_226_);}
	.st59{clip-path:url(#SVGID_230_);}
	.st60{clip-path:url(#SVGID_234_);}
	.st61{clip-path:url(#SVGID_238_);}
	.st62{clip-path:url(#SVGID_242_);}
	.st63{clip-path:url(#SVGID_246_);}
	.st64{clip-path:url(#SVGID_250_);}
	.st65{clip-path:url(#SVGID_254_);}
	.st66{clip-path:url(#SVGID_258_);}
	.st67{clip-path:url(#SVGID_262_);}
	.st68{clip-path:url(#SVGID_266_);}
	.st69{clip-path:url(#SVGID_270_);}
	.st70{clip-path:url(#SVGID_274_);}
	.st71{clip-path:url(#SVGID_278_);}
	.st72{clip-path:url(#SVGID_282_);}
	.st73{clip-path:url(#SVGID_286_);}
	.st74{clip-path:url(#SVGID_290_);}
	.st75{clip-path:url(#SVGID_294_);}
	.st76{clip-path:url(#SVGID_298_);}
	.st77{clip-path:url(#SVGID_302_);}
	.st78{clip-path:url(#SVGID_306_);}
	.st79{clip-path:url(#SVGID_310_);}
	.st80{clip-path:url(#SVGID_314_);}
	.st81{clip-path:url(#SVGID_318_);}
	.st82{clip-path:url(#SVGID_322_);}
	.st83{fill:#FF8F10;}
	.st84{fill:#060D35;}
	.st85{fill:#51488B;}
	.st86{fill:#F8B1A1;}
	.st87{fill:#215A36;}
	.st88{fill:#F8B3A2;}
	.st89{fill:#FFFFFF;}
	.st90{fill:#EE4A7B;}
	.st91{fill:#EE4A7B;stroke:#EE4A7B;stroke-width:7;stroke-miterlimit:10;}
	.st92{fill:#EE4A7B;stroke:#EE4A7B;stroke-width:10;stroke-miterlimit:10;}
	.st93{fill:#EE4A7B;stroke:#EE4A7B;stroke-miterlimit:10;}
	.st94{fill:#E1E0E5;}
</style>
<g>
	<polygon class="st0" points="263.4,87 146.4,138 177.3,201 236.6,176.7 236.6,378.8 317.6,378.8 317.6,87 	"/>
	<path class="st0" d="M329.9,382.9c16.8,10.7,36,19.3,57.5,26c21.5,6.7,41.5,10.1,60.1,10.1c26.1,0,48.9-5,68.3-15
		c17.9-9.2,32-21.8,42.3-37.7l-68.6-30.6c-0.4,0.4-0.8,0.8-1.3,1.2c-10.3,8.9-23.4,13.4-39.2,13.4c-13.4,0-26-1.9-37.6-5.7
		c-11.7-3.8-25.4-10-41.2-18.6L329.9,382.9z"/>
	<path class="st0" d="M364,87l-9.3,192.3h69.1c2.4-5.8,7-11.2,13.7-16c6.7-4.8,14.7-7.2,24-7.2c12.4,0,22.5,4.1,30.4,12.4
		c1.8,1.8,3.2,3.8,4.6,5.9l68.6-25.5c-0.5-1-0.8-2.1-1.3-3.1c-8.4-16.8-21.1-30.3-37.9-40.5c-16.8-10.1-37-15.2-60.3-15.2
		c-13.4,0-25.1,2.8-35.1,8.2l1.5-47.4h119.6l8.2-63.9H364z"/>
	<path class="st0" d="M478.3,301.2l3.8,12.8h-7.6L478.3,301.2z M472.8,292l-12.9,37.1h10l2.1-7.1h12.5l2.1,7.1H497L484.1,292H472.8z
		"/>
	<path class="st0" d="M523.3,292v21.3L509.9,292h-8.7v37.1h9.5v-21.2l13.5,21.2h8.6V292H523.3z M521.5,280.8c0,1.4-0.6,2.1-1.9,2.1
		c-0.6,0-1.1-0.1-1.5-0.3c-0.5-0.2-1-0.5-1.5-0.7c-0.5-0.3-1.1-0.5-1.7-0.7c-0.6-0.2-1.4-0.3-2.3-0.3c-2,0-3.6,0.7-4.8,2
		c-1.2,1.4-1.8,3.5-1.8,6.3h6c0-1.4,0.6-2.1,1.9-2.1c0.6,0,1.1,0.1,1.5,0.3l1.5,0.7c0.5,0.3,1.1,0.5,1.8,0.7
		c0.7,0.2,1.4,0.3,2.3,0.3c2,0,3.6-0.7,4.8-2.1c1.2-1.4,1.8-3.5,1.8-6.3H521.5z"/>
	<path class="st0" d="M550.5,318.7c-1.3-1.9-2-4.6-2-8.1c0-3.6,0.6-6.3,2-8.1c1.3-1.9,3.3-2.8,6-2.8c2.7,0,4.6,0.9,5.9,2.8
		c1.3,1.8,1.9,4.6,1.9,8.1c0,3.6-0.6,6.3-1.9,8.1c-1.3,1.9-3.3,2.8-5.9,2.8C553.9,321.4,551.9,320.5,550.5,318.7 M548.8,292.4
		c-2.3,0.9-4.2,2.2-5.8,3.9c-1.6,1.7-2.7,3.8-3.6,6.2c-0.8,2.4-1.2,5.1-1.2,8.2c0,3,0.4,5.7,1.2,8c0.8,2.4,2,4.4,3.5,6.1
		c1.5,1.7,3.4,2.9,5.7,3.8c2.2,0.9,4.8,1.4,7.7,1.4c2.9,0,5.6-0.5,7.8-1.4c2.3-0.9,4.2-2.2,5.8-3.9c1.6-1.7,2.7-3.8,3.6-6.2
		c0.8-2.4,1.2-5.1,1.2-8.2c0-3-0.4-5.7-1.2-8c-0.8-2.4-2-4.4-3.5-6.1c-1.5-1.7-3.4-2.9-5.7-3.8c-2.2-0.9-4.8-1.4-7.7-1.4
		C553.7,291,551.1,291.5,548.8,292.4"/>
	<path class="st0" d="M583.1,294c-2.6,2-4,4.9-4,8.7c0,3.2,1,5.7,3,7.5c2,1.8,5,3.1,9.1,3.8l4.9,0.9c1.6,0.3,2.6,0.8,3.2,1.3
		c0.6,0.6,0.9,1.3,0.9,2.2c0,1.1-0.4,2-1.3,2.6c-0.9,0.6-2.2,0.9-4,0.9c-2.1,0-3.7-0.4-4.7-1.3c-1.1-0.9-1.7-2.1-1.9-3.9h-9.9
		c0.5,8.7,5.9,13.1,16.2,13.1c2.7,0,5-0.3,7-0.9c2-0.6,3.6-1.4,4.9-2.5c1.3-1.1,2.2-2.3,2.9-3.8c0.6-1.5,0.9-3.2,0.9-5
		c0-2.9-0.9-5.4-2.8-7.3c-1.8-1.9-4.9-3.3-9.3-4.2l-5-1c-1.5-0.3-2.5-0.7-3.2-1.2c-0.7-0.5-1-1.2-1-2.1c0-1,0.4-1.7,1.2-2.3
		c0.8-0.6,2.1-0.9,3.8-0.9c1.9,0,3.2,0.4,4.1,1.1c0.9,0.7,1.5,1.8,1.8,3.3l9.7-1c-0.2-1.5-0.6-2.9-1.2-4.3c-0.6-1.4-1.5-2.6-2.8-3.6
		c-1.2-1-2.8-1.9-4.7-2.5c-1.9-0.6-4.2-0.9-6.9-0.9C589.3,291,585.7,292,583.1,294"/>
	<path class="st1" d="M202,540.8c2.7,0,5.1-0.4,7.1-1.2c2-0.8,3.7-1.8,5.2-3c1.5-1.2,2.7-2.7,3.6-4.2c1-1.6,1.8-3.2,2.4-4.8
		l12.7,4.8c-1,2.5-2.4,4.9-4,7.3c-1.6,2.4-3.7,4.5-6.2,6.4c-2.5,1.8-5.4,3.3-8.8,4.5c-3.4,1.1-7.4,1.7-12,1.7
		c-6,0-11.2-0.9-15.6-2.7c-4.4-1.8-8-4.3-10.9-7.5c-2.9-3.2-5-7-6.4-11.4c-1.4-4.4-2.1-9.2-2.1-14.5c0-5.4,0.7-10.3,2.1-14.7
		c1.4-4.4,3.5-8.1,6.3-11.2c2.8-3.1,6.4-5.4,10.7-7.1c4.3-1.7,9.4-2.5,15.3-2.5c4.5,0,8.5,0.5,11.9,1.4c3.4,1,6.3,2.3,8.8,4
		c2.5,1.7,4.5,3.8,6.2,6.1c1.6,2.4,2.9,4.9,3.8,7.8l-12.8,3.5c-0.5-1.5-1.2-2.9-2.1-4.3c-1-1.4-2.2-2.6-3.6-3.6
		c-1.5-1.1-3.2-1.9-5.1-2.5c-2-0.6-4.2-1-6.7-1c-3.5,0-6.5,0.6-9.1,1.7c-2.5,1.1-4.6,2.7-6.2,4.9c-1.6,2.1-2.8,4.6-3.6,7.6
		c-0.8,2.9-1.2,6.2-1.2,9.9c0,3.6,0.4,6.9,1.2,9.9c0.8,3,2,5.6,3.6,7.8c1.6,2.2,3.8,3.9,6.3,5.1C195.3,540.2,198.4,540.8,202,540.8"
		/>
	<path class="st1" d="M240.8,551.3v-40.8c0-1.1,0-2.4,0-3.6c0-1.3,0-2.5-0.1-3.7s-0.1-2.2-0.1-3.2c0-0.9-0.1-1.6-0.1-2h13.2
		c0.1,0.4,0.1,1.1,0.2,2c0.1,1,0.1,2,0.2,3.2c0.1,1.1,0.1,2.3,0.2,3.4s0.1,2,0.1,2.7h0.2c0.7-1.9,1.4-3.7,2.1-5.2
		c0.7-1.5,1.5-2.8,2.4-3.9c0.9-1.1,2.1-1.9,3.4-2.5c1.3-0.6,2.9-0.9,4.9-0.9c0.8,0,1.6,0.1,2.4,0.2c0.8,0.1,1.4,0.3,1.8,0.5v11.6
		c-0.9-0.2-1.8-0.4-2.7-0.5c-0.9-0.1-2-0.2-3.2-0.2c-3.4,0-6.1,1.4-8.1,4.2c-1.9,2.8-2.9,6.9-2.9,12.4v26.2H240.8z"/>
	<path class="st1" d="M299.9,505.7c-1.4,0-2.7,0.2-4,0.7c-1.2,0.5-2.3,1.2-3.2,2.3c-0.9,1-1.6,2.4-2.2,4c-0.6,1.6-0.9,3.6-0.9,5.9
		h20.7c-0.3-4.3-1.3-7.5-3.1-9.7C305.3,506.8,302.9,505.7,299.9,505.7 M299.9,552.3c-3.9,0-7.3-0.6-10.4-1.7
		c-3.1-1.1-5.7-2.9-7.9-5.2c-2.2-2.3-3.8-5.2-5-8.7c-1.2-3.5-1.7-7.6-1.7-12.3c0-5.1,0.7-9.4,2-12.9c1.4-3.5,3.2-6.3,5.5-8.5
		c2.3-2.1,5-3.7,8-4.7c3-1,6.2-1.4,9.6-1.4c4.2,0,7.8,0.7,10.8,2.2c3,1.5,5.4,3.5,7.3,6.1c1.9,2.6,3.3,5.8,4.2,9.4
		c0.9,3.7,1.3,7.7,1.3,12.1v0.4h-34.2c0,2.2,0.2,4.3,0.6,6.2c0.4,1.9,1,3.6,1.9,5c0.9,1.4,2,2.5,3.5,3.3s3.1,1.2,5.1,1.2
		c2.4,0,4.4-0.5,6-1.5c1.5-1,2.6-2.6,3.3-4.8l13.1,1.1c-0.6,1.5-1.4,3.1-2.5,4.8c-1.1,1.7-2.5,3.3-4.3,4.7c-1.8,1.4-4,2.6-6.6,3.5
		C306.8,551.8,303.6,552.3,299.9,552.3"/>
	<path class="st1" d="M360.6,526.6l-7.1,0.1c-1.5,0.1-2.9,0.2-4.2,0.4c-1.3,0.2-2.5,0.6-3.5,1.1c-1,0.6-1.8,1.4-2.4,2.5
		c-0.6,1.1-0.9,2.6-0.9,4.4c0,2.5,0.6,4.4,1.7,5.6c1.2,1.2,2.7,1.9,4.7,1.9c1.8,0,3.4-0.4,4.8-1.1c1.4-0.8,2.7-1.7,3.7-3
		c1-1.2,1.8-2.6,2.3-4.3c0.6-1.6,0.8-3.2,0.8-4.9V526.6z M344.5,552.3c-2.6,0-4.9-0.4-6.9-1.1s-3.7-1.7-5.1-3.1
		c-1.4-1.4-2.5-3-3.3-5c-0.7-2-1.1-4.3-1.1-6.9c0-3.2,0.6-5.8,1.6-8c1.1-2.2,2.6-3.9,4.5-5.2c1.9-1.3,4.1-2.3,6.7-2.9s5.3-0.9,8.2-1
		l11.5-0.2v-2.7c0-1.9-0.2-3.6-0.5-4.9c-0.3-1.3-0.8-2.4-1.5-3.2c-0.7-0.8-1.5-1.4-2.4-1.7c-1-0.4-2.1-0.5-3.3-0.5
		c-1.1,0-2.2,0.1-3.1,0.4c-0.9,0.2-1.7,0.6-2.3,1.2c-0.7,0.6-1.2,1.4-1.6,2.3c-0.4,1-0.7,2.2-0.9,3.7l-14.4-0.7
		c0.4-2.3,1.1-4.5,2.2-6.4c1-1.9,2.5-3.6,4.4-5c1.9-1.4,4.1-2.5,6.9-3.3c2.7-0.8,5.9-1.2,9.5-1.2c3.3,0,6.3,0.4,8.9,1.2
		c2.6,0.8,4.8,2,6.6,3.7c1.8,1.6,3.2,3.6,4.1,6c1,2.4,1.4,5.1,1.4,8.2v19.4c0,1.2,0.1,2.4,0.2,3.3c0.1,1,0.3,1.8,0.6,2.5
		c0.3,0.7,0.8,1.2,1.3,1.5c0.6,0.3,1.3,0.5,2.2,0.5c1.1,0,2.1-0.1,3.1-0.3v7.5c-0.8,0.2-1.6,0.4-2.2,0.5s-1.3,0.3-2,0.4
		c-0.7,0.1-1.4,0.2-2.1,0.2c-0.7,0.1-1.6,0.1-2.6,0.1c-3.5,0-6.1-0.9-7.7-2.6c-1.7-1.7-2.7-4.2-3-7.5H362c-1.8,3.3-4.2,5.9-7.1,7.7
		C352.1,551.4,348.6,552.3,344.5,552.3"/>
	<path class="st1" d="M420.8,551.3v-29.9c0-2.1-0.2-4-0.5-5.7c-0.3-1.7-0.9-3.2-1.6-4.4c-0.8-1.2-1.7-2.2-3-2.9
		c-1.2-0.7-2.7-1-4.4-1c-1.7,0-3.2,0.4-4.6,1.1c-1.4,0.7-2.5,1.8-3.5,3.2c-1,1.4-1.8,3-2.3,4.9c-0.5,1.9-0.8,4-0.8,6.2v28.6h-13.9
		v-41.4c0-1.1,0-2.3,0-3.5c0-1.2,0-2.4-0.1-3.5c0-1.1-0.1-2.1-0.1-3c0-0.9-0.1-1.5-0.1-2h13.2c0.1,0.4,0.1,1,0.2,1.9
		c0.1,0.9,0.1,1.8,0.2,2.9c0.1,1.1,0.1,2.1,0.2,3.2c0,1,0.1,1.9,0.1,2.7h0.2c1.9-4.1,4.2-7,7-8.9c2.8-1.8,6.2-2.8,10.1-2.8
		c3.2,0,5.9,0.5,8.2,1.6c2.2,1.1,4,2.5,5.4,4.3c1.4,1.8,2.4,4,3,6.5c0.6,2.5,0.9,5.2,0.9,8.1v33.9H420.8z"/>
	<path class="st1" d="M479.8,524.3c0-3.5-0.3-6.4-1-8.7c-0.7-2.3-1.5-4.2-2.6-5.5c-1.1-1.4-2.3-2.3-3.6-2.9
		c-1.4-0.5-2.8-0.8-4.2-0.8c-1.8,0-3.3,0.4-4.7,1c-1.4,0.7-2.5,1.8-3.4,3.3c-0.9,1.5-1.6,3.4-2.1,5.7c-0.5,2.3-0.7,5.1-0.7,8.3
		c0,12.1,3.6,18.1,10.9,18.1c1.4,0,2.8-0.3,4.1-0.9c1.4-0.6,2.6-1.6,3.7-3c1.1-1.4,2-3.3,2.6-5.7
		C479.5,530.8,479.8,527.9,479.8,524.3 M480.5,551.3c-0.1-0.3-0.1-0.7-0.2-1.4c-0.1-0.7-0.2-1.4-0.2-2.3c-0.1-0.9-0.1-1.7-0.2-2.6
		c0-0.9-0.1-1.7-0.1-2.4h-0.2c-1.6,3.4-3.9,5.9-6.7,7.4c-2.9,1.5-6.3,2.2-10.3,2.2c-3.4,0-6.3-0.7-8.7-2.1c-2.4-1.4-4.5-3.3-6.1-5.8
		c-1.6-2.5-2.8-5.4-3.6-8.7c-0.8-3.4-1.2-7-1.2-11c0-4,0.4-7.8,1.2-11.1c0.8-3.4,2-6.3,3.7-8.7c1.7-2.4,3.8-4.4,6.4-5.7
		c2.6-1.4,5.6-2.1,9.2-2.1c1.7,0,3.4,0.2,5,0.5c1.6,0.4,3.1,0.9,4.5,1.7c1.4,0.8,2.6,1.7,3.7,2.9c1.1,1.2,2.1,2.6,2.9,4.3h0.1
		c0-0.3,0-0.8,0-1.5s0-1.4,0-2.2c0-0.8,0-1.7,0-2.6c0-0.9,0-1.7,0-2.6v-19.5h13.9v61.5c0,2.6,0,4.9,0.1,6.9c0.1,2,0.2,3.6,0.2,4.7
		H480.5z"/>
	<path class="st1" d="M541.8,524.6c0-6.3-1-10.9-3.1-13.8c-2.1-2.9-5.1-4.3-9-4.3c-4.1,0-7.2,1.4-9.4,4.3c-2.2,2.9-3.2,7.5-3.2,13.7
		c0,3.2,0.3,5.9,0.9,8.2c0.6,2.3,1.4,4.2,2.4,5.7c1,1.5,2.3,2.6,3.8,3.3c1.5,0.7,3.1,1.1,4.9,1.1c2,0,3.9-0.4,5.5-1.1
		c1.6-0.7,2.9-1.8,4-3.3c1.1-1.5,1.9-3.4,2.5-5.7C541.5,530.5,541.8,527.8,541.8,524.6 M556.2,524.6c0,4.1-0.6,7.8-1.7,11.2
		c-1.1,3.4-2.8,6.3-5.1,8.7c-2.3,2.4-5.1,4.4-8.5,5.7c-3.4,1.4-7.3,2-11.8,2c-4.3,0-8.2-0.7-11.5-2c-3.3-1.4-6.1-3.2-8.4-5.7
		c-2.3-2.4-4-5.4-5.1-8.7c-1.1-3.4-1.7-7.2-1.7-11.3c0-4,0.5-7.6,1.6-11c1.1-3.4,2.8-6.3,5-8.7c2.2-2.5,5-4.4,8.4-5.8
		c3.4-1.4,7.3-2.1,11.9-2.1c4.8,0,8.9,0.7,12.3,2.1c3.4,1.4,6.2,3.3,8.3,5.7c2.2,2.4,3.7,5.4,4.7,8.7
		C555.7,516.9,556.2,520.6,556.2,524.6"/>
	<path class="st1" d="M90.1,634.2c2.7,0,5.1-0.4,7.1-1.2c2-0.8,3.7-1.8,5.2-3c1.5-1.2,2.7-2.7,3.6-4.2c1-1.6,1.8-3.2,2.4-4.8
		l12.7,4.8c-1,2.5-2.4,4.9-4,7.3c-1.6,2.4-3.7,4.5-6.2,6.4c-2.5,1.8-5.4,3.3-8.8,4.5c-3.4,1.1-7.4,1.7-12,1.7
		c-6,0-11.2-0.9-15.6-2.7c-4.4-1.8-8-4.3-10.9-7.5c-2.9-3.2-5-7-6.4-11.4c-1.4-4.4-2.1-9.2-2.1-14.5c0-5.4,0.7-10.3,2.1-14.7
		c1.4-4.4,3.5-8.1,6.3-11.2c2.8-3.1,6.4-5.4,10.7-7.1c4.3-1.7,9.4-2.5,15.3-2.5c4.5,0,8.5,0.5,11.9,1.4c3.4,1,6.3,2.3,8.8,4
		c2.5,1.7,4.5,3.8,6.2,6.1s2.9,4.9,3.8,7.8l-12.8,3.5c-0.5-1.5-1.2-2.9-2.1-4.3c-1-1.4-2.2-2.6-3.6-3.6c-1.5-1.1-3.2-1.9-5.2-2.5
		c-2-0.6-4.2-1-6.7-1c-3.5,0-6.5,0.6-9.1,1.7c-2.5,1.1-4.6,2.7-6.2,4.9c-1.6,2.1-2.8,4.6-3.6,7.6c-0.8,2.9-1.2,6.2-1.2,9.9
		c0,3.6,0.4,6.9,1.2,9.9c0.8,3,2,5.6,3.6,7.8c1.6,2.2,3.8,3.9,6.3,5.1C83.3,633.6,86.4,634.2,90.1,634.2"/>
	<path class="st1" d="M165,617.9c0-6.3-1-10.9-3.1-13.8s-5.1-4.3-9-4.3c-4.1,0-7.2,1.4-9.4,4.3c-2.2,2.9-3.3,7.5-3.3,13.7
		c0,3.2,0.3,5.9,0.9,8.2c0.6,2.3,1.4,4.2,2.4,5.7c1.1,1.5,2.3,2.6,3.8,3.3c1.5,0.7,3.1,1.1,4.9,1.1c2,0,3.9-0.4,5.4-1.1
		c1.6-0.7,2.9-1.8,4-3.3c1.1-1.5,1.9-3.4,2.5-5.7C164.7,623.8,165,621.1,165,617.9 M179.5,617.9c0,4.1-0.6,7.8-1.7,11.2
		c-1.1,3.4-2.8,6.3-5.1,8.7c-2.3,2.4-5.1,4.4-8.5,5.7c-3.4,1.4-7.3,2-11.8,2c-4.3,0-8.2-0.7-11.5-2c-3.3-1.4-6.1-3.2-8.4-5.7
		c-2.3-2.4-4-5.4-5.1-8.7c-1.2-3.4-1.7-7.2-1.7-11.3c0-4,0.5-7.6,1.6-11c1.1-3.4,2.8-6.3,5-8.7c2.2-2.5,5-4.4,8.4-5.8
		c3.4-1.4,7.3-2.1,11.9-2.1c4.8,0,8.9,0.7,12.3,2.1c3.4,1.4,6.2,3.3,8.3,5.7c2.2,2.4,3.7,5.4,4.7,8.7
		C179,610.2,179.5,613.9,179.5,617.9"/>
	<path class="st1" d="M219.8,644.6v-29.9c0-2.1-0.1-4-0.4-5.7c-0.3-1.7-0.7-3.2-1.4-4.4c-0.6-1.2-1.5-2.2-2.5-2.9s-2.3-1-3.8-1
		c-1.4,0-2.7,0.4-3.9,1.1c-1.1,0.7-2.1,1.8-3,3.2c-0.8,1.4-1.5,3-1.9,4.9c-0.5,1.9-0.7,4-0.7,6.2v28.6h-13.8v-41.4
		c0-1.1,0-2.3,0-3.5c0-1.2,0-2.4-0.1-3.5c-0.1-1.1-0.1-2.1-0.1-3c0-0.9-0.1-1.5-0.1-2h13.2c0.1,0.4,0.1,1,0.2,1.9
		c0.1,0.9,0.1,1.8,0.2,2.9c0.1,1.1,0.1,2.1,0.2,3.2c0,1,0.1,1.9,0.1,2.7h0.2c1.7-4.1,3.8-7,6.4-8.9c2.5-1.8,5.6-2.8,9.1-2.8
		c4.1,0,7.4,1,9.8,3c2.5,2,4.1,4.9,5,8.6h0.3c1-2.2,2-4,3.1-5.5c1.1-1.5,2.3-2.7,3.6-3.6c1.3-0.9,2.8-1.6,4.3-1.9
		c1.6-0.4,3.3-0.6,5.1-0.6c2.9,0,5.4,0.5,7.4,1.6c2,1.1,3.7,2.5,4.9,4.3c1.3,1.8,2.2,4,2.8,6.5c0.6,2.5,0.9,5.2,0.9,8.1v33.9h-13.8
		v-29.9c0-2.1-0.1-4-0.4-5.7c-0.3-1.7-0.7-3.2-1.4-4.4c-0.6-1.2-1.5-2.2-2.5-2.9c-1-0.7-2.3-1-3.8-1c-1.4,0-2.6,0.4-3.8,1.1
		c-1.1,0.7-2.1,1.7-3,3c-0.8,1.3-1.5,2.9-1.9,4.7c-0.5,1.8-0.7,3.8-0.8,6v29.2H219.8z"/>
	<path class="st1" d="M289.3,591.3v29.9c0,2.1,0.2,4,0.5,5.7c0.3,1.7,0.9,3.2,1.6,4.4c0.8,1.2,1.7,2.2,2.9,2.9s2.7,1,4.4,1
		c1.7,0,3.2-0.4,4.6-1.1c1.4-0.7,2.5-1.8,3.5-3.2c1-1.4,1.7-3,2.3-4.9c0.5-1.9,0.8-4,0.8-6.2v-28.6h13.9v41.4c0,1.1,0,2.3,0,3.5
		c0,1.2,0,2.4,0.1,3.5c0,1.1,0.1,2.1,0.1,3c0,0.9,0.1,1.5,0.1,2h-13.2c0-0.4-0.1-1-0.2-1.9c-0.1-0.9-0.1-1.8-0.2-2.9l-0.1-3.2
		c-0.1-1.1-0.1-1.9-0.1-2.7h-0.2c-1.8,4-4.2,7-7,8.8c-2.8,1.8-6.2,2.8-10.1,2.8c-3.2,0-5.9-0.5-8.1-1.6c-2.2-1-4-2.5-5.4-4.3
		c-1.4-1.8-2.4-4-3-6.5c-0.6-2.5-0.9-5.2-0.9-8.1v-33.9H289.3z"/>
	<path class="st1" d="M370.4,644.6v-29.9c0-2.1-0.2-4-0.5-5.7s-0.9-3.2-1.6-4.4c-0.8-1.2-1.7-2.2-3-2.9c-1.2-0.7-2.7-1-4.4-1
		c-1.7,0-3.2,0.4-4.6,1.1c-1.4,0.7-2.5,1.8-3.5,3.2c-1,1.4-1.8,3-2.3,4.9c-0.5,1.9-0.8,4-0.8,6.2v28.6h-13.9v-41.4
		c0-1.1,0-2.3,0-3.5c0-1.2,0-2.4-0.1-3.5c0-1.1-0.1-2.1-0.1-3c0-0.9-0.1-1.5-0.1-2h13.2c0.1,0.4,0.1,1,0.2,1.9
		c0.1,0.9,0.1,1.8,0.2,2.9c0.1,1.1,0.1,2.1,0.2,3.2c0,1,0.1,1.9,0.1,2.7h0.2c1.9-4.1,4.2-7,7-8.9c2.8-1.8,6.2-2.8,10.1-2.8
		c3.2,0,5.9,0.5,8.2,1.6c2.2,1.1,4,2.5,5.4,4.3c1.4,1.8,2.4,4,3,6.5c0.6,2.5,0.9,5.2,0.9,8.1v33.9H370.4z"/>
	<path class="st1" d="M395.5,591.3h13.9v53.3h-13.9V591.3z M395.5,571.5h13.9v10.2h-13.9V571.5z"/>
	<path class="st1" d="M455.4,617.6c0-3.5-0.3-6.4-1-8.7c-0.7-2.3-1.5-4.2-2.6-5.5c-1.1-1.4-2.3-2.3-3.6-2.9
		c-1.4-0.5-2.8-0.8-4.2-0.8c-1.8,0-3.3,0.4-4.7,1c-1.4,0.7-2.5,1.8-3.4,3.3c-0.9,1.5-1.6,3.4-2.1,5.7c-0.5,2.3-0.7,5.1-0.7,8.3
		c0,12.1,3.6,18.1,10.9,18.1c1.4,0,2.8-0.3,4.1-0.9c1.4-0.6,2.6-1.6,3.7-3s2-3.3,2.6-5.7C455.1,624.2,455.4,621.2,455.4,617.6
		 M456.1,644.6c-0.1-0.3-0.1-0.7-0.2-1.4c-0.1-0.7-0.2-1.4-0.2-2.3c-0.1-0.9-0.1-1.7-0.2-2.6c0-0.9-0.1-1.7-0.1-2.4h-0.2
		c-1.6,3.4-3.9,5.9-6.7,7.4c-2.9,1.5-6.3,2.2-10.3,2.2c-3.4,0-6.3-0.7-8.7-2.1c-2.4-1.4-4.5-3.3-6.1-5.8c-1.6-2.5-2.8-5.4-3.6-8.7
		c-0.8-3.4-1.2-7-1.2-11c0-4,0.4-7.8,1.2-11.1c0.8-3.4,2-6.3,3.7-8.7c1.7-2.4,3.8-4.4,6.4-5.7c2.6-1.4,5.6-2.1,9.2-2.1
		c1.7,0,3.4,0.2,5,0.5c1.6,0.4,3.1,0.9,4.5,1.7c1.4,0.8,2.6,1.7,3.7,2.9c1.1,1.2,2.1,2.6,2.9,4.3h0.1c0-0.3,0-0.8,0-1.5
		c0-0.6,0-1.4,0-2.2c0-0.8,0-1.7,0-2.6c0-0.9,0-1.7,0-2.6v-19.5h13.9V633c0,2.6,0,4.9,0.1,6.9c0.1,2,0.2,3.6,0.2,4.7H456.1z"/>
	<path class="st1" d="M509.6,619.9l-7.1,0.1c-1.5,0.1-2.9,0.2-4.2,0.4c-1.3,0.2-2.5,0.6-3.5,1.1c-1,0.6-1.8,1.4-2.4,2.5
		c-0.6,1.1-0.9,2.6-0.9,4.4c0,2.5,0.6,4.4,1.7,5.6c1.2,1.2,2.7,1.9,4.7,1.9c1.8,0,3.4-0.4,4.8-1.1c1.4-0.8,2.7-1.7,3.7-3
		c1-1.2,1.8-2.6,2.3-4.3c0.6-1.6,0.8-3.2,0.8-4.9V619.9z M493.5,645.6c-2.6,0-4.9-0.4-6.9-1.1c-2-0.7-3.7-1.7-5.2-3.1
		c-1.4-1.4-2.5-3-3.2-5c-0.8-2-1.1-4.3-1.1-6.9c0-3.2,0.6-5.8,1.7-8c1.1-2.2,2.6-3.9,4.5-5.2c1.9-1.3,4.1-2.3,6.7-2.9
		c2.6-0.6,5.3-0.9,8.2-1l11.5-0.2v-2.7c0-1.9-0.2-3.6-0.5-4.9c-0.3-1.3-0.8-2.4-1.5-3.2c-0.7-0.8-1.5-1.4-2.4-1.7
		c-1-0.4-2.1-0.5-3.3-0.5c-1.1,0-2.2,0.1-3.1,0.4c-0.9,0.2-1.7,0.6-2.3,1.2s-1.2,1.4-1.6,2.3c-0.4,1-0.7,2.2-0.9,3.7l-14.4-0.7
		c0.4-2.3,1.1-4.5,2.2-6.4c1.1-1.9,2.5-3.6,4.4-5s4.1-2.5,6.9-3.3s5.9-1.2,9.5-1.2c3.3,0,6.3,0.4,8.9,1.2c2.6,0.8,4.8,2,6.6,3.7
		c1.8,1.6,3.2,3.6,4.1,6c0.9,2.4,1.4,5.1,1.4,8.2v19.4c0,1.2,0.1,2.4,0.2,3.3c0.1,1,0.3,1.8,0.6,2.5c0.3,0.7,0.8,1.2,1.3,1.5
		c0.6,0.3,1.3,0.5,2.2,0.5c1,0,2.1-0.1,3.1-0.3v7.5c-0.8,0.2-1.6,0.4-2.2,0.5c-0.7,0.2-1.3,0.3-2,0.4c-0.7,0.1-1.4,0.2-2.1,0.2
		c-0.7,0.1-1.6,0.1-2.6,0.1c-3.5,0-6.1-0.9-7.7-2.6c-1.7-1.7-2.7-4.2-3-7.5H511c-1.8,3.3-4.2,5.9-7.1,7.7
		C501.1,644.7,497.6,645.6,493.5,645.6"/>
	<path class="st1" d="M569.2,617.6c0-3.5-0.3-6.4-1-8.7c-0.7-2.3-1.5-4.2-2.6-5.5c-1.1-1.4-2.3-2.3-3.6-2.9
		c-1.4-0.5-2.8-0.8-4.2-0.8c-1.8,0-3.3,0.4-4.7,1c-1.4,0.7-2.5,1.8-3.5,3.3c-0.9,1.5-1.6,3.4-2.1,5.7c-0.5,2.3-0.7,5.1-0.7,8.3
		c0,12.1,3.6,18.1,10.9,18.1c1.4,0,2.8-0.3,4.1-0.9c1.4-0.6,2.6-1.6,3.7-3c1.1-1.4,2-3.3,2.6-5.7
		C568.9,624.2,569.2,621.2,569.2,617.6 M569.9,644.6c-0.1-0.3-0.1-0.7-0.2-1.4c-0.1-0.7-0.2-1.4-0.2-2.3c-0.1-0.9-0.1-1.7-0.2-2.6
		c0-0.9-0.1-1.7-0.1-2.4h-0.2c-1.6,3.4-3.9,5.9-6.7,7.4c-2.9,1.5-6.3,2.2-10.3,2.2c-3.4,0-6.3-0.7-8.7-2.1c-2.4-1.4-4.5-3.3-6.1-5.8
		s-2.8-5.4-3.6-8.7c-0.8-3.4-1.2-7-1.2-11c0-4,0.4-7.8,1.2-11.1c0.8-3.4,2-6.3,3.7-8.7c1.7-2.4,3.8-4.4,6.4-5.7
		c2.6-1.4,5.6-2.1,9.2-2.1c1.7,0,3.4,0.2,5,0.5c1.6,0.4,3.1,0.9,4.5,1.7c1.4,0.8,2.6,1.7,3.7,2.9c1.1,1.2,2.1,2.6,2.9,4.3h0.1
		c0-0.3,0-0.8,0-1.5c0-0.6,0-1.4,0-2.2c0-0.8,0-1.7,0-2.6c0-0.9,0-1.7,0-2.6v-19.5h13.9V633c0,2.6,0,4.9,0.1,6.9
		c0.1,2,0.2,3.6,0.2,4.7H569.9z"/>
	<path class="st1" d="M616.8,599c-1.4,0-2.7,0.2-4,0.7c-1.2,0.5-2.3,1.2-3.2,2.3c-0.9,1-1.6,2.4-2.2,4c-0.6,1.6-0.9,3.6-0.9,5.9
		h20.7c-0.3-4.3-1.3-7.5-3.1-9.7C622.3,600.1,619.8,599,616.8,599 M616.8,645.6c-3.8,0-7.3-0.6-10.4-1.7c-3.1-1.1-5.7-2.9-7.9-5.2
		c-2.2-2.3-3.8-5.2-5-8.7c-1.1-3.5-1.7-7.6-1.7-12.3c0-5.1,0.7-9.4,2-12.9c1.4-3.5,3.2-6.3,5.5-8.5c2.3-2.1,5-3.7,8-4.7
		c3-1,6.2-1.4,9.6-1.4c4.2,0,7.8,0.7,10.8,2.2c3,1.5,5.4,3.5,7.3,6.1c1.9,2.6,3.3,5.8,4.2,9.4c0.9,3.7,1.3,7.7,1.3,12.1v0.4h-34.2
		c0,2.2,0.2,4.3,0.6,6.2c0.4,1.9,1,3.6,1.9,5c0.9,1.4,2,2.5,3.4,3.3c1.4,0.8,3.1,1.2,5.1,1.2c2.4,0,4.4-0.5,6-1.5
		c1.5-1,2.6-2.6,3.3-4.8l13.1,1.1c-0.6,1.5-1.4,3.1-2.5,4.8c-1.1,1.7-2.5,3.3-4.3,4.7c-1.8,1.4-4,2.6-6.6,3.5
		C623.8,645.1,620.6,645.6,616.8,645.6"/>
	<path class="st1" d="M694,629c0,2.6-0.5,4.9-1.6,6.9c-1.1,2-2.6,3.8-4.7,5.2c-2,1.4-4.5,2.5-7.5,3.3c-3,0.8-6.3,1.2-10.1,1.2
		c-3.4,0-6.4-0.2-9.2-0.7c-2.7-0.5-5.1-1.3-7.2-2.4c-2.1-1.1-3.8-2.6-5.2-4.4c-1.4-1.8-2.4-4-3.1-6.7l12.2-1.8
		c0.4,1.5,0.9,2.7,1.6,3.6c0.7,0.9,1.5,1.6,2.6,2.1c1,0.5,2.2,0.8,3.6,1c1.4,0.2,2.9,0.2,4.7,0.2c1.6,0,3-0.1,4.4-0.3
		c1.4-0.2,2.5-0.5,3.5-0.9c1-0.4,1.8-1.1,2.3-1.9c0.6-0.8,0.8-1.8,0.8-3c0-1.4-0.4-2.5-1.2-3.3s-1.9-1.5-3.3-2c-1.4-0.5-3-1-4.9-1.3
		c-1.9-0.4-3.9-0.8-6-1.3c-2.2-0.5-4.4-1.1-6.6-1.8s-4.1-1.6-5.8-2.8c-1.7-1.2-3.1-2.7-4.1-4.5c-1.1-1.8-1.6-4.1-1.6-6.9
		c0-2.5,0.5-4.8,1.5-6.8c1-2,2.4-3.7,4.3-5.1c1.9-1.4,4.3-2.5,7.1-3.2c2.8-0.7,6-1.1,9.7-1.1c2.9,0,5.6,0.3,8.1,0.8
		c2.5,0.5,4.7,1.4,6.7,2.6c2,1.2,3.6,2.7,5,4.5c1.3,1.8,2.3,4,2.8,6.6l-12.3,1.3c-0.2-1.3-0.6-2.3-1.2-3.2c-0.6-0.8-1.3-1.5-2.2-2
		c-0.9-0.5-1.9-0.8-3-1c-1.1-0.2-2.4-0.3-3.8-0.3c-3.3,0-5.7,0.4-7.4,1.3c-1.6,0.8-2.5,2.2-2.5,4.2c0,1.2,0.3,2.2,1,2.9
		c0.7,0.7,1.6,1.3,2.9,1.8c1.2,0.5,2.7,0.9,4.4,1.2c1.7,0.4,3.5,0.8,5.5,1.3c2.5,0.5,4.9,1.1,7.3,1.9s4.5,1.7,6.4,2.9
		c1.9,1.2,3.4,2.8,4.5,4.8C693.5,623.6,694,626,694,629"/>
	<g>
		<defs>
			<path id="SVGID_1_" d="M664.9,711.4c0,0.2,0.1,0.4,0.1,0.3c0.8,0.2,0.7-0.6,0.8-0.7c-0.1,0-0.1,0-0.2,0
				C665.1,711.1,664.9,711.3,664.9,711.4"/>
		</defs>
		<clipPath id="SVGID_2_">
			<use xlink:href="#SVGID_1_"  style="overflow:visible;"/>
		</clipPath>
		<g class="st2">
			<g>
				<defs>
					<rect id="SVGID_3_" x="664.9" y="711.1" width="1" height="0.9"/>
				</defs>
				<clipPath id="SVGID_4_">
					<use xlink:href="#SVGID_3_"  style="overflow:visible;"/>
				</clipPath>
				<g style="clip-path:url(#SVGID_4_);">
					
						<image style="overflow:visible;" width="5" height="5" xlink:href="366466E697F67938.jpg"  transform="matrix(0.24 0 0 0.24 664.8 710.88)">
					</image>
				</g>
			</g>
		</g>
	</g>
	<g>
		<defs>
			<polygon id="SVGID_5_" points="649.6,711 651.4,710.9 651.7,710.6 			"/>
		</defs>
		<clipPath id="SVGID_6_">
			<use xlink:href="#SVGID_5_"  style="overflow:visible;"/>
		</clipPath>
		<g class="st3">
			<g>
				<defs>
					<rect id="SVGID_7_" x="649.6" y="710.6" width="2.1" height="0.4"/>
				</defs>
				<clipPath id="SVGID_8_">
					<use xlink:href="#SVGID_7_"  style="overflow:visible;"/>
				</clipPath>
				<g style="clip-path:url(#SVGID_8_);">
					
						<image style="overflow:visible;" width="11" height="4" xlink:href="366466E697F67939.jpg"  transform="matrix(0.24 0 0 0.24 649.44 710.4)">
					</image>
				</g>
			</g>
		</g>
	</g>
	<g>
		<defs>
			<path id="SVGID_9_" d="M639,708.5c0.9,1.5,4.5,0.7,6.6,1.5l0.3,0.4l1.2-0.8C644.5,709.2,640.9,709.2,639,708.5z"/>
		</defs>
		<clipPath id="SVGID_10_">
			<use xlink:href="#SVGID_9_"  style="overflow:visible;"/>
		</clipPath>
		<g class="st4">
			<g>
				<defs>
					<rect id="SVGID_11_" x="639" y="708.5" width="8.1" height="1.9"/>
				</defs>
				<clipPath id="SVGID_12_">
					<use xlink:href="#SVGID_11_"  style="overflow:visible;"/>
				</clipPath>
				<g style="clip-path:url(#SVGID_12_);">
					
						<image style="overflow:visible;" width="35" height="9" xlink:href="366466E697F6793F.jpg"  transform="matrix(0.24 0 0 0.24 638.88 708.48)">
					</image>
				</g>
			</g>
		</g>
	</g>
	<g>
		<defs>
			<path id="SVGID_13_" d="M632.7,704.9L632.7,704.9C632.7,704.9,632.7,704.9,632.7,704.9 M632.7,704.9c0.1,0,0.5,0,1.8,0.1
				c-0.1-0.1-0.2-0.1-0.3-0.2c-0.3-0.1-0.6-0.1-1.3-0.3C633.1,704.8,632.8,704.9,632.7,704.9"/>
		</defs>
		<clipPath id="SVGID_14_">
			<use xlink:href="#SVGID_13_"  style="overflow:visible;"/>
		</clipPath>
		<g class="st5">
			<g>
				<defs>
					<rect id="SVGID_15_" x="632.7" y="704.5" width="1.8" height="0.4"/>
				</defs>
				<clipPath id="SVGID_16_">
					<use xlink:href="#SVGID_15_"  style="overflow:visible;"/>
				</clipPath>
				<g style="clip-path:url(#SVGID_16_);">
					
						<image style="overflow:visible;" width="8" height="4" xlink:href="366466E697F6793A.jpg"  transform="matrix(0.24 0 0 0.24 632.64 704.4)">
					</image>
				</g>
			</g>
		</g>
	</g>
	<g>
		<defs>
			<path id="SVGID_17_" d="M634.2,704.8c0.6,0.1,0.5,0,0.3-0.1c-0.1-0.1-0.3-0.1-0.4-0.1C634,704.6,634,704.7,634.2,704.8"/>
		</defs>
		<clipPath id="SVGID_18_">
			<use xlink:href="#SVGID_17_"  style="overflow:visible;"/>
		</clipPath>
		<g class="st6">
			<g>
				<defs>
					<rect id="SVGID_19_" x="634" y="704.6" width="0.8" height="0.3"/>
				</defs>
				<clipPath id="SVGID_20_">
					<use xlink:href="#SVGID_19_"  style="overflow:visible;"/>
				</clipPath>
				<g style="clip-path:url(#SVGID_20_);">
					
						<image style="overflow:visible;" width="5" height="4" xlink:href="366466E697F6793B.jpg"  transform="matrix(0.24 0 0 0.24 633.84 704.4)">
					</image>
				</g>
			</g>
		</g>
	</g>
	<g>
		<defs>
			<path id="SVGID_21_" d="M628.1,703.9l1.8-0.1c-0.3-0.4-1.8-0.7-1.2-0.8c-0.2,0-0.4,0-0.6,0C626.9,703,627.3,703.4,628.1,703.9"/>
		</defs>
		<clipPath id="SVGID_22_">
			<use xlink:href="#SVGID_21_"  style="overflow:visible;"/>
		</clipPath>
		<g class="st7">
			<g>
				<defs>
					<rect id="SVGID_23_" x="626.9" y="703" width="2.9" height="0.9"/>
				</defs>
				<clipPath id="SVGID_24_">
					<use xlink:href="#SVGID_23_"  style="overflow:visible;"/>
				</clipPath>
				<g style="clip-path:url(#SVGID_24_);">
					
						<image style="overflow:visible;" width="13" height="5" xlink:href="366466E697F67936.jpg"  transform="matrix(0.24 0 0 0.24 626.88 702.96)">
					</image>
				</g>
			</g>
		</g>
	</g>
	<g>
		<defs>
			<path id="SVGID_25_" d="M626.3,704.5l0.9,0c-0.1-0.1-0.2-0.1-0.3-0.1C626.7,704.4,626.6,704.4,626.3,704.5"/>
		</defs>
		<clipPath id="SVGID_26_">
			<use xlink:href="#SVGID_25_"  style="overflow:visible;"/>
		</clipPath>
		<g class="st8">
			<g>
				<defs>
					<rect id="SVGID_27_" x="626.3" y="704.4" width="0.9" height="0.2"/>
				</defs>
				<clipPath id="SVGID_28_">
					<use xlink:href="#SVGID_27_"  style="overflow:visible;"/>
				</clipPath>
				<g style="clip-path:url(#SVGID_28_);">
					
						<image style="overflow:visible;" width="5" height="3" xlink:href="366466E697F67937.jpg"  transform="matrix(0.24 0 0 0.24 626.16 704.16)">
					</image>
				</g>
			</g>
		</g>
	</g>
	<g>
		<defs>
			<path id="SVGID_29_" d="M627.2,704.5c0.2,0.2,0.2,0.7,0.9,0c-0.2,0.3,0.2,0.1,1.1,0L627.2,704.5z"/>
		</defs>
		<clipPath id="SVGID_30_">
			<use xlink:href="#SVGID_29_"  style="overflow:visible;"/>
		</clipPath>
		<g class="st9">
			<g>
				<defs>
					<rect id="SVGID_31_" x="627.2" y="704.5" width="2" height="0.7"/>
				</defs>
				<clipPath id="SVGID_32_">
					<use xlink:href="#SVGID_31_"  style="overflow:visible;"/>
				</clipPath>
				<g style="clip-path:url(#SVGID_32_);">
					
						<image style="overflow:visible;" width="9" height="5" xlink:href="366466E697F67948.jpg"  transform="matrix(0.24 0 0 0.24 627.12 704.4)">
					</image>
				</g>
			</g>
		</g>
	</g>
	<g>
		<defs>
			<path id="SVGID_33_" d="M630.2,704.9c0.9,0.5,2.1,0.9,0.3,1C633.9,706.3,633.5,705.3,630.2,704.9z"/>
		</defs>
		<clipPath id="SVGID_34_">
			<use xlink:href="#SVGID_33_"  style="overflow:visible;"/>
		</clipPath>
		<g class="st10">
			<g>
				<defs>
					<rect id="SVGID_35_" x="630.2" y="704.9" width="3.7" height="1.4"/>
				</defs>
				<clipPath id="SVGID_36_">
					<use xlink:href="#SVGID_35_"  style="overflow:visible;"/>
				</clipPath>
				<g style="clip-path:url(#SVGID_36_);">
					
						<image style="overflow:visible;" width="17" height="6" xlink:href="366466E697F6794B.jpg"  transform="matrix(0.24 0 0 0.24 630 704.88)">
					</image>
				</g>
			</g>
		</g>
	</g>
	<g>
		<defs>
			<path id="SVGID_37_" d="M638.2,709.6l1.2,0.6l1.2-0.2c-0.3,0-0.7-0.1-1.2-0.2c-0.4-0.1-0.8-0.3-1-0.3
				C638.2,709.5,638.2,709.6,638.2,709.6"/>
		</defs>
		<clipPath id="SVGID_38_">
			<use xlink:href="#SVGID_37_"  style="overflow:visible;"/>
		</clipPath>
		<g class="st11">
			<g>
				<defs>
					<rect id="SVGID_39_" x="638.2" y="709.5" width="2.4" height="0.7"/>
				</defs>
				<clipPath id="SVGID_40_">
					<use xlink:href="#SVGID_39_"  style="overflow:visible;"/>
				</clipPath>
				<g style="clip-path:url(#SVGID_40_);">
					
						<image style="overflow:visible;" width="12" height="5" xlink:href="DC82DF53F69F8567.jpg"  transform="matrix(0.24 0 0 0.24 638.16 709.44)">
					</image>
				</g>
			</g>
		</g>
	</g>
	<g>
		<defs>
			<path id="SVGID_41_" d="M618,702.5l1.3-0.1c-0.6-0.3-1.8-0.6-1.9-1C617.3,701.6,617.9,702.1,618,702.5"/>
		</defs>
		<clipPath id="SVGID_42_">
			<use xlink:href="#SVGID_41_"  style="overflow:visible;"/>
		</clipPath>
		<g class="st12">
			<g>
				<defs>
					<rect id="SVGID_43_" x="617.3" y="701.3" width="2" height="1.1"/>
				</defs>
				<clipPath id="SVGID_44_">
					<use xlink:href="#SVGID_43_"  style="overflow:visible;"/>
				</clipPath>
				<g style="clip-path:url(#SVGID_44_);">
					
						<image style="overflow:visible;" width="9" height="5" xlink:href="DC82DF53F69F8565.jpg"  transform="matrix(0.24 0 0 0.24 617.28 701.28)">
					</image>
				</g>
			</g>
		</g>
	</g>
	<g>
		<defs>
			<path id="SVGID_45_" d="M616,702.7c1.7,0.3,2,0.1,2-0.2L616,702.7z"/>
		</defs>
		<clipPath id="SVGID_46_">
			<use xlink:href="#SVGID_45_"  style="overflow:visible;"/>
		</clipPath>
		<g class="st13">
			<g>
				<defs>
					<rect id="SVGID_47_" x="616" y="702.5" width="2" height="0.5"/>
				</defs>
				<clipPath id="SVGID_48_">
					<use xlink:href="#SVGID_47_"  style="overflow:visible;"/>
				</clipPath>
				<g style="clip-path:url(#SVGID_48_);">
					
						<image style="overflow:visible;" width="10" height="4" xlink:href="DC82DF53F69F8563.jpg"  transform="matrix(0.24 0 0 0.24 615.84 702.24)">
					</image>
				</g>
			</g>
		</g>
	</g>
	<g>
		<defs>
			<polygon id="SVGID_49_" points="625.2,705.7 625.8,705.8 629,705.5 			"/>
		</defs>
		<clipPath id="SVGID_50_">
			<use xlink:href="#SVGID_49_"  style="overflow:visible;"/>
		</clipPath>
		<g class="st14">
			<g>
				<defs>
					<rect id="SVGID_51_" x="625.2" y="705.5" width="3.9" height="0.4"/>
				</defs>
				<clipPath id="SVGID_52_">
					<use xlink:href="#SVGID_51_"  style="overflow:visible;"/>
				</clipPath>
				<g style="clip-path:url(#SVGID_52_);">
					
						<image style="overflow:visible;" width="18" height="4" xlink:href="DC82DF53F69F857D.jpg"  transform="matrix(0.24 0 0 0.24 624.96 705.36)">
					</image>
				</g>
			</g>
		</g>
	</g>
	<g>
		<defs>
			<polygon id="SVGID_53_" points="609.2,700.5 610.1,700.3 611.3,699.8 			"/>
		</defs>
		<clipPath id="SVGID_54_">
			<use xlink:href="#SVGID_53_"  style="overflow:visible;"/>
		</clipPath>
		<g class="st15">
			<g>
				<defs>
					<rect id="SVGID_55_" x="609.2" y="699.8" width="2.1" height="0.6"/>
				</defs>
				<clipPath id="SVGID_56_">
					<use xlink:href="#SVGID_55_"  style="overflow:visible;"/>
				</clipPath>
				<g style="clip-path:url(#SVGID_56_);">
					
						<image style="overflow:visible;" width="11" height="4" xlink:href="DC82DF53F69F857F.jpg"  transform="matrix(0.24 0 0 0.24 609.12 699.6)">
					</image>
				</g>
			</g>
		</g>
	</g>
	<g>
		<defs>
			<path id="SVGID_57_" d="M601.6,698.9c1.1-0.1,2.2,0.1,3.7,0.8c0.9-0.4-1-1-0.1-1.2c-0.2,0-0.4,0-0.6,0
				C603.5,698.5,602.5,698.7,601.6,698.9"/>
		</defs>
		<clipPath id="SVGID_58_">
			<use xlink:href="#SVGID_57_"  style="overflow:visible;"/>
		</clipPath>
		<g class="st16">
			<g>
				<defs>
					<rect id="SVGID_59_" x="601.6" y="698.5" width="4.6" height="1.2"/>
				</defs>
				<clipPath id="SVGID_60_">
					<use xlink:href="#SVGID_59_"  style="overflow:visible;"/>
				</clipPath>
				<g style="clip-path:url(#SVGID_60_);">
					
						<image style="overflow:visible;" width="21" height="7" xlink:href="DC82DF53F69F8562.jpg"  transform="matrix(0.24 0 0 0.24 601.44 698.4)">
					</image>
				</g>
			</g>
		</g>
	</g>
	<g>
		<defs>
			<path id="SVGID_61_" d="M599.8,699.2L599.8,699.2c0.6-0.1,1.1-0.2,1.8-0.3C601,699,600.4,699,599.8,699.2"/>
		</defs>
		<clipPath id="SVGID_62_">
			<use xlink:href="#SVGID_61_"  style="overflow:visible;"/>
		</clipPath>
		<g class="st17">
			<g>
				<defs>
					<rect id="SVGID_63_" x="599.8" y="698.9" width="1.8" height="0.3"/>
				</defs>
				<clipPath id="SVGID_64_">
					<use xlink:href="#SVGID_63_"  style="overflow:visible;"/>
				</clipPath>
				<g style="clip-path:url(#SVGID_64_);">
					
						<image style="overflow:visible;" width="9" height="2" xlink:href="DC82DF53F69F8561.jpg"  transform="matrix(0.24 0 0 0.24 599.76 698.88)">
					</image>
				</g>
			</g>
		</g>
	</g>
	<g>
		<defs>
			<path id="SVGID_65_" d="M611.4,701.1l0.6,0.9c0.2,0,0.5,0.1,0.8,0.1C612.6,701.9,612.4,701.4,611.4,701.1z"/>
		</defs>
		<clipPath id="SVGID_66_">
			<use xlink:href="#SVGID_65_"  style="overflow:visible;"/>
		</clipPath>
		<g class="st18">
			<g>
				<defs>
					<rect id="SVGID_67_" x="611.4" y="701.1" width="1.4" height="1"/>
				</defs>
				<clipPath id="SVGID_68_">
					<use xlink:href="#SVGID_67_"  style="overflow:visible;"/>
				</clipPath>
				<g style="clip-path:url(#SVGID_68_);">
					
						<image style="overflow:visible;" width="8" height="5" xlink:href="DC82DF53F69F8566.jpg"  transform="matrix(0.24 0 0 0.24 611.28 701.04)">
					</image>
				</g>
			</g>
		</g>
	</g>
	<g>
		<defs>
			<path id="SVGID_69_" d="M610.4,701.7c0.2,0,0.7,0.1,1.6,0.3l0,0C611.2,701.8,610.6,701.7,610.4,701.7z"/>
		</defs>
		<clipPath id="SVGID_70_">
			<use xlink:href="#SVGID_69_"  style="overflow:visible;"/>
		</clipPath>
		<g class="st19">
			<g>
				<defs>
					<rect id="SVGID_71_" x="610.4" y="701.7" width="1.6" height="0.3"/>
				</defs>
				<clipPath id="SVGID_72_">
					<use xlink:href="#SVGID_71_"  style="overflow:visible;"/>
				</clipPath>
				<g style="clip-path:url(#SVGID_72_);">
					
						<image style="overflow:visible;" width="9" height="2" xlink:href="DC82DF53F69F8560.jpg"  transform="matrix(0.24 0 0 0.24 610.32 701.52)">
					</image>
				</g>
			</g>
		</g>
	</g>
	<g>
		<defs>
			<path id="SVGID_73_" d="M612.8,702.1c0.1,0.1,0.1,0.1,0.2,0L612.8,702.1z"/>
		</defs>
		<clipPath id="SVGID_74_">
			<use xlink:href="#SVGID_73_"  style="overflow:visible;"/>
		</clipPath>
		<g class="st20">
			<g>
				<defs>
					<rect id="SVGID_75_" x="612.8" y="702.1" width="0.2" height="0.1"/>
				</defs>
				<clipPath id="SVGID_76_">
					<use xlink:href="#SVGID_75_"  style="overflow:visible;"/>
				</clipPath>
				<g style="clip-path:url(#SVGID_76_);">
					
						<image style="overflow:visible;" width="1" height="1" xlink:href="DC82DF53F69F856E.jpg"  transform="matrix(0.24 0 0 0.24 612.72 702)">
					</image>
				</g>
			</g>
		</g>
	</g>
	<g>
		<defs>
			<path id="SVGID_77_" d="M619.5,705.5c0.9-0.4-0.3-1,1.4-1.3C619.7,704.4,617.3,704.5,619.5,705.5"/>
		</defs>
		<clipPath id="SVGID_78_">
			<use xlink:href="#SVGID_77_"  style="overflow:visible;"/>
		</clipPath>
		<g class="st21">
			<g>
				<defs>
					<rect id="SVGID_79_" x="617.3" y="704.2" width="3.6" height="1.3"/>
				</defs>
				<clipPath id="SVGID_80_">
					<use xlink:href="#SVGID_79_"  style="overflow:visible;"/>
				</clipPath>
				<g style="clip-path:url(#SVGID_80_);">
					
						<image style="overflow:visible;" width="17" height="7" xlink:href="DC82DF53F69F8586.jpg"  transform="matrix(0.24 0 0 0.24 617.28 704.16)">
					</image>
				</g>
			</g>
		</g>
	</g>
	<g>
		<defs>
			<path id="SVGID_81_" d="M613.7,703.2l2,0.5c0-0.2-0.3-0.5,0.3-0.7L613.7,703.2z"/>
		</defs>
		<clipPath id="SVGID_82_">
			<use xlink:href="#SVGID_81_"  style="overflow:visible;"/>
		</clipPath>
		<g class="st22">
			<g>
				<defs>
					<rect id="SVGID_83_" x="613.7" y="703" width="2.3" height="0.7"/>
				</defs>
				<clipPath id="SVGID_84_">
					<use xlink:href="#SVGID_83_"  style="overflow:visible;"/>
				</clipPath>
				<g style="clip-path:url(#SVGID_84_);">
					
						<image style="overflow:visible;" width="10" height="5" xlink:href="DC82DF53F69F8585.jpg"  transform="matrix(0.24 0 0 0.24 613.68 702.72)">
					</image>
				</g>
			</g>
		</g>
	</g>
	<g>
		<defs>
			<polygon id="SVGID_85_" points="612.7,703.3 613.7,703.2 613,703 			"/>
		</defs>
		<clipPath id="SVGID_86_">
			<use xlink:href="#SVGID_85_"  style="overflow:visible;"/>
		</clipPath>
		<g class="st23">
			<g>
				<defs>
					<rect id="SVGID_87_" x="612.7" y="703" width="1" height="0.3"/>
				</defs>
				<clipPath id="SVGID_88_">
					<use xlink:href="#SVGID_87_"  style="overflow:visible;"/>
				</clipPath>
				<g style="clip-path:url(#SVGID_88_);">
					
						<image style="overflow:visible;" width="7" height="2" xlink:href="DC82DF53F69F8582.jpg"  transform="matrix(0.24 0 0 0.24 612.48 702.96)">
					</image>
				</g>
			</g>
		</g>
	</g>
	<g>
		<defs>
			<path id="SVGID_89_" d="M600.2,700.4c1.1,0.3,2.3,0.6,3.5,0.7c0.2-0.2,0.8-0.6-0.5-0.7C602.3,700.6,601.3,700.5,600.2,700.4z"/>
		</defs>
		<clipPath id="SVGID_90_">
			<use xlink:href="#SVGID_89_"  style="overflow:visible;"/>
		</clipPath>
		<g class="st24">
			<g>
				<defs>
					<rect id="SVGID_91_" x="600.2" y="700.4" width="4.2" height="0.7"/>
				</defs>
				<clipPath id="SVGID_92_">
					<use xlink:href="#SVGID_91_"  style="overflow:visible;"/>
				</clipPath>
				<g style="clip-path:url(#SVGID_92_);">
					
						<image style="overflow:visible;" width="19" height="5" xlink:href="DC82DF53F69F858D.jpg"  transform="matrix(0.24 0 0 0.24 600 700.32)">
					</image>
				</g>
			</g>
		</g>
	</g>
	<g>
		<defs>
			<path id="SVGID_93_" d="M607.3,701.3c0.1,0.1,0.2,0.1,0.2,0L607.3,701.3z"/>
		</defs>
		<clipPath id="SVGID_94_">
			<use xlink:href="#SVGID_93_"  style="overflow:visible;"/>
		</clipPath>
		<g class="st25">
			<g>
				<defs>
					<rect id="SVGID_95_" x="607.3" y="701.2" width="0.2" height="0.1"/>
				</defs>
				<clipPath id="SVGID_96_">
					<use xlink:href="#SVGID_95_"  style="overflow:visible;"/>
				</clipPath>
				<g style="clip-path:url(#SVGID_96_);">
					
						<image style="overflow:visible;" width="3" height="3" xlink:href="DC82DF53F69F858E.jpg"  transform="matrix(0.24 0 0 0.24 607.2 701.04)">
					</image>
				</g>
			</g>
		</g>
	</g>
	<g>
		<defs>
			<polygon id="SVGID_97_" points="589.5,698.9 589.7,699.1 589.7,698.9 			"/>
		</defs>
		<clipPath id="SVGID_98_">
			<use xlink:href="#SVGID_97_"  style="overflow:visible;"/>
		</clipPath>
		<g class="st26">
			<g>
				<defs>
					<rect id="SVGID_99_" x="589.5" y="698.9" width="0.2" height="0.2"/>
				</defs>
				<clipPath id="SVGID_100_">
					<use xlink:href="#SVGID_99_"  style="overflow:visible;"/>
				</clipPath>
				<g style="clip-path:url(#SVGID_100_);">
					
						<image style="overflow:visible;" width="3" height="1" xlink:href="DC82DF53F69F858C.jpg"  transform="matrix(0.24 0 0 0.24 589.44 698.88)">
					</image>
				</g>
			</g>
		</g>
	</g>
	<g>
		<defs>
			<path id="SVGID_101_" d="M603.8,701.3c0.9,0.3,1.4,0.2,1.9,0c-0.7,0-1.4-0.1-2.1-0.2C603.6,701.2,603.6,701.3,603.8,701.3"/>
		</defs>
		<clipPath id="SVGID_102_">
			<use xlink:href="#SVGID_101_"  style="overflow:visible;"/>
		</clipPath>
		<g class="st27">
			<g>
				<defs>
					<rect id="SVGID_103_" x="603.6" y="701.1" width="2.2" height="0.4"/>
				</defs>
				<clipPath id="SVGID_104_">
					<use xlink:href="#SVGID_103_"  style="overflow:visible;"/>
				</clipPath>
				<g style="clip-path:url(#SVGID_104_);">
					
						<image style="overflow:visible;" width="12" height="4" xlink:href="DC82DF53F69F8583.jpg"  transform="matrix(0.24 0 0 0.24 603.36 701.04)">
					</image>
				</g>
			</g>
		</g>
	</g>
	<g>
		<defs>
			<path id="SVGID_105_" d="M596.8,699.2c0.4,0.2,0.9,0.4,1.5,0.6c-0.4-0.3-1-0.7-1.3-0.7C596.8,699.1,596.8,699.1,596.8,699.2"/>
		</defs>
		<clipPath id="SVGID_106_">
			<use xlink:href="#SVGID_105_"  style="overflow:visible;"/>
		</clipPath>
		<g class="st28">
			<g>
				<defs>
					<rect id="SVGID_107_" x="596.8" y="699.1" width="1.5" height="0.7"/>
				</defs>
				<clipPath id="SVGID_108_">
					<use xlink:href="#SVGID_107_"  style="overflow:visible;"/>
				</clipPath>
				<g style="clip-path:url(#SVGID_108_);">
					
						<image style="overflow:visible;" width="7" height="4" xlink:href="DC82DF53F69F8584.jpg"  transform="matrix(0.24 0 0 0.24 596.64 699.12)">
					</image>
				</g>
			</g>
		</g>
	</g>
	<g>
		<defs>
			<path id="SVGID_109_" d="M607,701l0.1,0c-0.1-0.1-0.2-0.1-0.2-0.1C606.9,700.9,606.9,700.9,607,701"/>
		</defs>
		<clipPath id="SVGID_110_">
			<use xlink:href="#SVGID_109_"  style="overflow:visible;"/>
		</clipPath>
		<g class="st29">
			<g>
				<defs>
					<rect id="SVGID_111_" x="606.9" y="700.9" width="0.2" height="0.1"/>
				</defs>
				<clipPath id="SVGID_112_">
					<use xlink:href="#SVGID_111_"  style="overflow:visible;"/>
				</clipPath>
				<g style="clip-path:url(#SVGID_112_);">
					
						<image style="overflow:visible;" width="2" height="1" xlink:href="DC82DF53F69F8587.jpg"  transform="matrix(0.24 0 0 0.24 606.72 700.8)">
					</image>
				</g>
			</g>
		</g>
	</g>
	<g>
		<defs>
			<path id="SVGID_113_" d="M605.8,701.3c0.5,0,1,0,1.5,0c-0.1-0.1-0.2-0.2-0.3-0.2C606.5,701.1,606.2,701.2,605.8,701.3"/>
		</defs>
		<clipPath id="SVGID_114_">
			<use xlink:href="#SVGID_113_"  style="overflow:visible;"/>
		</clipPath>
		<g class="st30">
			<g>
				<defs>
					<rect id="SVGID_115_" x="605.8" y="701" width="1.5" height="0.3"/>
				</defs>
				<clipPath id="SVGID_116_">
					<use xlink:href="#SVGID_115_"  style="overflow:visible;"/>
				</clipPath>
				<g style="clip-path:url(#SVGID_116_);">
					
						<image style="overflow:visible;" width="7" height="4" xlink:href="DC82DF53F69F85BB.jpg"  transform="matrix(0.24 0 0 0.24 605.76 700.8)">
					</image>
				</g>
			</g>
		</g>
	</g>
	<g>
		<defs>
			<path id="SVGID_117_" d="M587.5,699.8c0.6,0.5,4.3,1.5,2.5,1.9c-2.7,0-2.1-0.6-3.4-1.1c1,1-3.5,0.8-3.1,2.1l2.4-0.1
				c0,0.2-0.9,0.4-0.2,0.7c0.2-0.7,2.6-1,4.5,0c2-0.2,1.1-2.7-0.5-4.2C589.6,699.4,589.5,699.6,587.5,699.8"/>
		</defs>
		<clipPath id="SVGID_118_">
			<use xlink:href="#SVGID_117_"  style="overflow:visible;"/>
		</clipPath>
		<g class="st31">
			<g>
				<defs>
					<rect id="SVGID_119_" x="583.1" y="699.1" width="9.1" height="4.2"/>
				</defs>
				<clipPath id="SVGID_120_">
					<use xlink:href="#SVGID_119_"  style="overflow:visible;"/>
				</clipPath>
				<g style="clip-path:url(#SVGID_120_);">
					
						<image style="overflow:visible;" width="39" height="19" xlink:href="DC82DF53F69F85A9.jpg"  transform="matrix(0.24 0 0 0.24 582.96 698.88)">
					</image>
				</g>
			</g>
		</g>
	</g>
	<g>
		<defs>
			<path id="SVGID_121_" d="M589.7,698.9l4.1,0.7l-0.3,0.1l0.8,0c-0.9-0.3-1.6-0.6-2.7-1.3C590.2,698.5,589.8,698.7,589.7,698.9"/>
		</defs>
		<clipPath id="SVGID_122_">
			<use xlink:href="#SVGID_121_"  style="overflow:visible;"/>
		</clipPath>
		<g class="st32">
			<g>
				<defs>
					<rect id="SVGID_123_" x="589.7" y="698.4" width="4.6" height="1.3"/>
				</defs>
				<clipPath id="SVGID_124_">
					<use xlink:href="#SVGID_123_"  style="overflow:visible;"/>
				</clipPath>
				<g style="clip-path:url(#SVGID_124_);">
					
						<image style="overflow:visible;" width="20" height="8" xlink:href="DC82DF53F69F85A7.jpg"  transform="matrix(0.24 0 0 0.24 589.68 698.16)">
					</image>
				</g>
			</g>
		</g>
	</g>
	<g>
		<defs>
			<path id="SVGID_125_" d="M598.3,699.8L598.3,699.8L598.3,699.8c0.2,0.1,0.2,0.2,0,0.1l-0.1,0c0,0.1-0.1,0.2-0.2,0.2
				c-1.1-0.3-0.2-0.2,0.2-0.2C598.3,699.9,598.3,699.9,598.3,699.8L598.3,699.8z M594.3,699.7c0.8,0.2,1.9,0.3,3.7,0.5
				c-0.7,0.7-2.8,0.7-1.7,1.7c2.4,0.3,1.8-0.4,3.3-0.5c-3.9-0.4,1.2-0.3-1.6-1.1c0.8,0,1.5,0,2.1,0.1c-0.7-0.2-1.4-0.4-2-0.6
				l0.1,0.1L594.3,699.7z"/>
		</defs>
		<clipPath id="SVGID_126_">
			<use xlink:href="#SVGID_125_"  style="overflow:visible;"/>
		</clipPath>
		<g class="st33">
			<g>
				<defs>
					<rect id="SVGID_127_" x="594.3" y="699.7" width="6.5" height="2.5"/>
				</defs>
				<clipPath id="SVGID_128_">
					<use xlink:href="#SVGID_127_"  style="overflow:visible;"/>
				</clipPath>
				<g style="clip-path:url(#SVGID_128_);">
					
						<image style="overflow:visible;" width="29" height="11" xlink:href="DC82DF53F69F8599.jpg"  transform="matrix(0.24 0 0 0.24 594.24 699.6)">
					</image>
				</g>
			</g>
		</g>
	</g>
	<g>
		<defs>
			<path id="SVGID_129_" d="M617.1,706.8L617.1,706.8c-0.1-0.1-0.1-0.1-0.1-0.2C616.8,706.6,616.6,706.7,617.1,706.8"/>
		</defs>
		<clipPath id="SVGID_130_">
			<use xlink:href="#SVGID_129_"  style="overflow:visible;"/>
		</clipPath>
		<g class="st34">
			<g>
				<defs>
					<rect id="SVGID_131_" x="616.6" y="706.6" width="0.5" height="0.2"/>
				</defs>
				<clipPath id="SVGID_132_">
					<use xlink:href="#SVGID_131_"  style="overflow:visible;"/>
				</clipPath>
				<g style="clip-path:url(#SVGID_132_);">
					
						<image style="overflow:visible;" width="4" height="2" xlink:href="DC82DF53F69F859B.jpg"  transform="matrix(0.24 0 0 0.24 616.56 706.56)">
					</image>
				</g>
			</g>
		</g>
	</g>
	<g>
		<defs>
			<path id="SVGID_133_" d="M615.6,706.1c0.3-0.1,0.6-0.3,1.5-0.1c0.8,0.3-0.1,0.4-0.1,0.6c0.6-0.1,2-0.3,0.4-0.9l-0.3,0.1
				c-1.2-0.4-2.6-1.2-3-1.6C614.4,704.8,614.7,705.3,615.6,706.1 M614,704.2c0-0.1-0.1-0.1-0.1-0.2C613.9,704,613.9,704.1,614,704.2
				"/>
		</defs>
		<clipPath id="SVGID_134_">
			<use xlink:href="#SVGID_133_"  style="overflow:visible;"/>
		</clipPath>
		<g class="st35">
			<g>
				<defs>
					<rect id="SVGID_135_" x="613.9" y="704" width="5.2" height="2.6"/>
				</defs>
				<clipPath id="SVGID_136_">
					<use xlink:href="#SVGID_135_"  style="overflow:visible;"/>
				</clipPath>
				<g style="clip-path:url(#SVGID_136_);">
					
						<image style="overflow:visible;" width="23" height="13" xlink:href="DC82DF53F69F8598.jpg"  transform="matrix(0.24 0 0 0.24 613.68 703.92)">
					</image>
				</g>
			</g>
		</g>
	</g>
	<g>
		<defs>
			<path id="SVGID_137_" d="M603.4,703.2l1.6,0.9l0-0.4c1.8,0.4,1.5-0.1,1.8-0.4L603.4,703.2z"/>
		</defs>
		<clipPath id="SVGID_138_">
			<use xlink:href="#SVGID_137_"  style="overflow:visible;"/>
		</clipPath>
		<g class="st36">
			<g>
				<defs>
					<rect id="SVGID_139_" x="603.4" y="703.2" width="3.4" height="0.9"/>
				</defs>
				<clipPath id="SVGID_140_">
					<use xlink:href="#SVGID_139_"  style="overflow:visible;"/>
				</clipPath>
				<g style="clip-path:url(#SVGID_140_);">
					
						<image style="overflow:visible;" width="17" height="5" xlink:href="DC82DF53F69F859F.jpg"  transform="matrix(0.24 0 0 0.24 603.12 703.2)">
					</image>
				</g>
			</g>
		</g>
	</g>
	<g>
		<defs>
			<polygon id="SVGID_141_" points="587.7,698.6 589.2,698.5 589.7,697.7 			"/>
		</defs>
		<clipPath id="SVGID_142_">
			<use xlink:href="#SVGID_141_"  style="overflow:visible;"/>
		</clipPath>
		<g class="st37">
			<g>
				<defs>
					<rect id="SVGID_143_" x="587.7" y="697.7" width="2" height="0.9"/>
				</defs>
				<clipPath id="SVGID_144_">
					<use xlink:href="#SVGID_143_"  style="overflow:visible;"/>
				</clipPath>
				<g style="clip-path:url(#SVGID_144_);">
					
						<image style="overflow:visible;" width="10" height="5" xlink:href="DC82DF53F69F859A.jpg"  transform="matrix(0.24 0 0 0.24 587.52 697.68)">
					</image>
				</g>
			</g>
		</g>
	</g>
	<g>
		<defs>
			<polygon id="SVGID_145_" points="584,697.6 584.9,698 585.2,697.3 			"/>
		</defs>
		<clipPath id="SVGID_146_">
			<use xlink:href="#SVGID_145_"  style="overflow:visible;"/>
		</clipPath>
		<g class="st38">
			<g>
				<defs>
					<rect id="SVGID_147_" x="584" y="697.3" width="1.2" height="0.7"/>
				</defs>
				<clipPath id="SVGID_148_">
					<use xlink:href="#SVGID_147_"  style="overflow:visible;"/>
				</clipPath>
				<g style="clip-path:url(#SVGID_148_);">
					
						<image style="overflow:visible;" width="6" height="5" xlink:href="DC82DF53F69F8596.jpg"  transform="matrix(0.24 0 0 0.24 583.92 697.2)">
					</image>
				</g>
			</g>
		</g>
	</g>
	<g>
		<defs>
			<path id="SVGID_149_" d="M342.9,696.4c0.5-0.1,0.7-0.1,1-0.2L342.9,696.4z"/>
		</defs>
		<clipPath id="SVGID_150_">
			<use xlink:href="#SVGID_149_"  style="overflow:visible;"/>
		</clipPath>
		<g class="st39">
			<g>
				<defs>
					<rect id="SVGID_151_" x="342.9" y="696.2" width="1" height="0.2"/>
				</defs>
				<clipPath id="SVGID_152_">
					<use xlink:href="#SVGID_151_"  style="overflow:visible;"/>
				</clipPath>
				<g style="clip-path:url(#SVGID_152_);">
					
						<image style="overflow:visible;" width="5" height="2" xlink:href="DC82DF53F69F8597.jpg"  transform="matrix(0.24 0 0 0.24 342.72 696)">
					</image>
				</g>
			</g>
		</g>
	</g>
	<g>
		<defs>
			<path id="SVGID_153_" d="M350.9,696.1l0.2-0.4C350.7,695.9,350.6,696.1,350.9,696.1"/>
		</defs>
		<clipPath id="SVGID_154_">
			<use xlink:href="#SVGID_153_"  style="overflow:visible;"/>
		</clipPath>
		<g class="st40">
			<g>
				<defs>
					<rect id="SVGID_155_" x="350.6" y="695.7" width="0.5" height="0.4"/>
				</defs>
				<clipPath id="SVGID_156_">
					<use xlink:href="#SVGID_155_"  style="overflow:visible;"/>
				</clipPath>
				<g style="clip-path:url(#SVGID_156_);">
					
						<image style="overflow:visible;" width="4" height="3" xlink:href="DC82DF53F69F85E7.jpg"  transform="matrix(0.24 0 0 0.24 350.4 695.52)">
					</image>
				</g>
			</g>
		</g>
	</g>
	<g>
		<defs>
			<path id="SVGID_157_" d="M477.3,687.6l0.4,0.8c1-0.1,1.7,0.1,2.4,0.3c-1-0.6-2.2-1.3-2.6-1.3
				C477.4,687.4,477.3,687.4,477.3,687.6"/>
		</defs>
		<clipPath id="SVGID_158_">
			<use xlink:href="#SVGID_157_"  style="overflow:visible;"/>
		</clipPath>
		<g class="st41">
			<g>
				<defs>
					<rect id="SVGID_159_" x="477.3" y="687.4" width="2.8" height="1.3"/>
				</defs>
				<clipPath id="SVGID_160_">
					<use xlink:href="#SVGID_159_"  style="overflow:visible;"/>
				</clipPath>
				<g style="clip-path:url(#SVGID_160_);">
					
						<image style="overflow:visible;" width="13" height="8" xlink:href="DC82DF53F69F85F4.jpg"  transform="matrix(0.24 0 0 0.24 477.12 687.12)">
					</image>
				</g>
			</g>
		</g>
	</g>
	<g>
		<defs>
			<path id="SVGID_161_" d="M408,691.5l0.4,0.2c0.3-0.3,0.7-0.5,1-0.7C409,691.1,408.5,691.3,408,691.5"/>
		</defs>
		<clipPath id="SVGID_162_">
			<use xlink:href="#SVGID_161_"  style="overflow:visible;"/>
		</clipPath>
		<g class="st42">
			<g>
				<defs>
					<rect id="SVGID_163_" x="408" y="691" width="1.4" height="0.7"/>
				</defs>
				<clipPath id="SVGID_164_">
					<use xlink:href="#SVGID_163_"  style="overflow:visible;"/>
				</clipPath>
				<g style="clip-path:url(#SVGID_164_);">
					
						<image style="overflow:visible;" width="6" height="5" xlink:href="DC82DF53F69F85F7.jpg"  transform="matrix(0.24 0 0 0.24 408 690.96)">
					</image>
				</g>
			</g>
		</g>
	</g>
	<g>
		<defs>
			<path id="SVGID_165_" d="M405.2,694.1c0.4,0.2,1,0.3,1.9,0.5L405.2,694.1z"/>
		</defs>
		<clipPath id="SVGID_166_">
			<use xlink:href="#SVGID_165_"  style="overflow:visible;"/>
		</clipPath>
		<g class="st43">
			<g>
				<defs>
					<rect id="SVGID_167_" x="405.2" y="694.1" width="1.9" height="0.5"/>
				</defs>
				<clipPath id="SVGID_168_">
					<use xlink:href="#SVGID_167_"  style="overflow:visible;"/>
				</clipPath>
				<g style="clip-path:url(#SVGID_168_);">
					
						<image style="overflow:visible;" width="9" height="4" xlink:href="DC82DF53F69F85F5.jpg"  transform="matrix(0.24 0 0 0.24 405.12 694.08)">
					</image>
				</g>
			</g>
		</g>
	</g>
	<g>
		<defs>
			<path id="SVGID_169_" d="M304.8,699.3c1.8-0.1,1-0.4,1.1-0.8L304.8,699.3z"/>
		</defs>
		<clipPath id="SVGID_170_">
			<use xlink:href="#SVGID_169_"  style="overflow:visible;"/>
		</clipPath>
		<g class="st44">
			<g>
				<defs>
					<rect id="SVGID_171_" x="304.8" y="698.5" width="1.8" height="0.8"/>
				</defs>
				<clipPath id="SVGID_172_">
					<use xlink:href="#SVGID_171_"  style="overflow:visible;"/>
				</clipPath>
				<g style="clip-path:url(#SVGID_172_);">
					
						<image style="overflow:visible;" width="9" height="5" xlink:href="DC82DF53F69F85F3.jpg"  transform="matrix(0.24 0 0 0.24 304.56 698.4)">
					</image>
				</g>
			</g>
		</g>
	</g>
	<g>
		<defs>
			<path id="SVGID_173_" d="M538.3,692.6c1.4,0.6,2.5,1.4,3,0.8C540.1,693,539.1,692.7,538.3,692.6z"/>
		</defs>
		<clipPath id="SVGID_174_">
			<use xlink:href="#SVGID_173_"  style="overflow:visible;"/>
		</clipPath>
		<g class="st45">
			<g>
				<defs>
					<rect id="SVGID_175_" x="538.3" y="692.6" width="3" height="1.4"/>
				</defs>
				<clipPath id="SVGID_176_">
					<use xlink:href="#SVGID_175_"  style="overflow:visible;"/>
				</clipPath>
				<g style="clip-path:url(#SVGID_176_);">
					
						<image style="overflow:visible;" width="14" height="8" xlink:href="DC82DF53F69F85CC.jpg"  transform="matrix(0.24 0 0 0.24 538.08 692.4)">
					</image>
				</g>
			</g>
		</g>
	</g>
	<g>
		<defs>
			<path id="SVGID_177_" d="M345.6,688.5c0.6-0.1,0.9-0.3,0.8-0.5C345.8,688.2,345.6,688.3,345.6,688.5"/>
		</defs>
		<clipPath id="SVGID_178_">
			<use xlink:href="#SVGID_177_"  style="overflow:visible;"/>
		</clipPath>
		<g class="st46">
			<g>
				<defs>
					<rect id="SVGID_179_" x="345.6" y="688" width="1" height="0.5"/>
				</defs>
				<clipPath id="SVGID_180_">
					<use xlink:href="#SVGID_179_"  style="overflow:visible;"/>
				</clipPath>
				<g style="clip-path:url(#SVGID_180_);">
					
						<image style="overflow:visible;" width="6" height="3" xlink:href="DC82DF53F69F85CF.jpg"  transform="matrix(0.24 0 0 0.24 345.36 687.84)">
					</image>
				</g>
			</g>
		</g>
	</g>
	<g>
		<defs>
			<path id="SVGID_181_" d="M534.8,692.3c0.2,0.1,0.4,0.2,0.6,0.2c0.9,0,1.8-0.1,2.9,0.1c-0.7-0.3-1.5-0.5-2.3-0.5
				C535.6,692.1,535.2,692.1,534.8,692.3"/>
		</defs>
		<clipPath id="SVGID_182_">
			<use xlink:href="#SVGID_181_"  style="overflow:visible;"/>
		</clipPath>
		<g class="st47">
			<g>
				<defs>
					<rect id="SVGID_183_" x="534.8" y="692.1" width="3.5" height="0.5"/>
				</defs>
				<clipPath id="SVGID_184_">
					<use xlink:href="#SVGID_183_"  style="overflow:visible;"/>
				</clipPath>
				<g style="clip-path:url(#SVGID_184_);">
					
						<image style="overflow:visible;" width="15" height="4" xlink:href="DC82DF53F69F85CD.jpg"  transform="matrix(0.24 0 0 0.24 534.72 691.92)">
					</image>
				</g>
			</g>
		</g>
	</g>
	<g>
		<defs>
			<path id="SVGID_185_" d="M168,709c-0.1,0-0.2,0-0.3-0.1C167.7,709,167.9,709,168,709"/>
		</defs>
		<clipPath id="SVGID_186_">
			<use xlink:href="#SVGID_185_"  style="overflow:visible;"/>
		</clipPath>
		<g class="st48">
			<g>
				<defs>
					<rect id="SVGID_187_" x="167.7" y="708.9" width="0.3" height="0.1"/>
				</defs>
				<clipPath id="SVGID_188_">
					<use xlink:href="#SVGID_187_"  style="overflow:visible;"/>
				</clipPath>
				<g style="clip-path:url(#SVGID_188_);">
					
						<image style="overflow:visible;" width="3" height="2" xlink:href="DC82DF53F69F85D3.jpg"  transform="matrix(0.24 0 0 0.24 167.52 708.72)">
					</image>
				</g>
			</g>
		</g>
	</g>
	<g>
		<defs>
			<path id="SVGID_189_" d="M128.6,706.1c-0.3,0-0.8,0.1-1.6,0.3C127.4,706.3,128.1,706.2,128.6,706.1
				C128.7,706.1,128.6,706.1,128.6,706.1"/>
		</defs>
		<clipPath id="SVGID_190_">
			<use xlink:href="#SVGID_189_"  style="overflow:visible;"/>
		</clipPath>
		<g class="st49">
			<g>
				<defs>
					<rect id="SVGID_191_" x="127" y="706.1" width="1.6" height="0.3"/>
				</defs>
				<clipPath id="SVGID_192_">
					<use xlink:href="#SVGID_191_"  style="overflow:visible;"/>
				</clipPath>
				<g style="clip-path:url(#SVGID_192_);">
					
						<image style="overflow:visible;" width="9" height="2" xlink:href="DC82DF53F69F85D4.jpg"  transform="matrix(0.24 0 0 0.24 126.96 706.08)">
					</image>
				</g>
			</g>
		</g>
	</g>
	<g>
		<defs>
			<path id="SVGID_193_" d="M567.9,695.4c0.4,0,0.5,0,0.4,0c0,0-0.1,0-0.2,0C568,695.4,567.9,695.4,567.9,695.4"/>
		</defs>
		<clipPath id="SVGID_194_">
			<use xlink:href="#SVGID_193_"  style="overflow:visible;"/>
		</clipPath>
		<g class="st50">
			<g>
				<defs>
					<rect id="SVGID_195_" x="567.9" y="695.4" width="0.5" height="0"/>
				</defs>
				<clipPath id="SVGID_196_">
					<use xlink:href="#SVGID_195_"  style="overflow:visible;"/>
				</clipPath>
				<g style="clip-path:url(#SVGID_196_);">
					
						<image style="overflow:visible;" width="3" height="2" xlink:href="DC82DF53F69F85D7.jpg"  transform="matrix(0.24 0 0 0.24 567.84 695.28)">
					</image>
				</g>
			</g>
		</g>
	</g>
	<g>
		<defs>
			<path id="SVGID_197_" d="M571.5,699.2c0.1-0.2,0.2-0.3,0.4-0.3C571.7,698.9,571.5,699,571.5,699.2"/>
		</defs>
		<clipPath id="SVGID_198_">
			<use xlink:href="#SVGID_197_"  style="overflow:visible;"/>
		</clipPath>
		<g class="st51">
			<g>
				<defs>
					<rect id="SVGID_199_" x="571.5" y="698.8" width="0.4" height="0.3"/>
				</defs>
				<clipPath id="SVGID_200_">
					<use xlink:href="#SVGID_199_"  style="overflow:visible;"/>
				</clipPath>
				<g style="clip-path:url(#SVGID_200_);">
					
						<image style="overflow:visible;" width="3" height="3" xlink:href="DC82DF53F69F8633.jpg"  transform="matrix(0.24 0 0 0.24 571.44 698.64)">
					</image>
				</g>
			</g>
		</g>
	</g>
	<g>
		<defs>
			<path id="SVGID_201_" d="M525.3,696.1C525.5,696.3,525.5,696.2,525.3,696.1L525.3,696.1z"/>
		</defs>
		<clipPath id="SVGID_202_">
			<use xlink:href="#SVGID_201_"  style="overflow:visible;"/>
		</clipPath>
		<g class="st52">
			<g>
				<defs>
					<rect id="SVGID_203_" x="525.3" y="696.1" width="0.3" height="0.2"/>
				</defs>
				<clipPath id="SVGID_204_">
					<use xlink:href="#SVGID_203_"  style="overflow:visible;"/>
				</clipPath>
				<g style="clip-path:url(#SVGID_204_);">
					
						<image style="overflow:visible;" width="3" height="2" xlink:href="DC82DF53F69F8631.jpg"  transform="matrix(0.24 0 0 0.24 525.12 696)">
					</image>
				</g>
			</g>
		</g>
	</g>
	<g>
		<defs>
			<path id="SVGID_205_" d="M568,695.5c0.2,0.1,0.5,0.2,1.1,0.3C568.8,695.7,568.5,695.6,568,695.5z"/>
		</defs>
		<clipPath id="SVGID_206_">
			<use xlink:href="#SVGID_205_"  style="overflow:visible;"/>
		</clipPath>
		<g class="st53">
			<g>
				<defs>
					<rect id="SVGID_207_" x="568" y="695.5" width="1.1" height="0.3"/>
				</defs>
				<clipPath id="SVGID_208_">
					<use xlink:href="#SVGID_207_"  style="overflow:visible;"/>
				</clipPath>
				<g style="clip-path:url(#SVGID_208_);">
					
						<image style="overflow:visible;" width="6" height="2" xlink:href="DC82DF53F69F8637.jpg"  transform="matrix(0.24 0 0 0.24 567.84 695.52)">
					</image>
				</g>
			</g>
		</g>
	</g>
	<g>
		<defs>
			<path id="SVGID_209_" d="M569,695.5c0.3,0.1,0.5,0.1,0.8,0.1c0.1-0.1,0.1-0.2-0.4-0.2C569.3,695.5,569.2,695.5,569,695.5"/>
		</defs>
		<clipPath id="SVGID_210_">
			<use xlink:href="#SVGID_209_"  style="overflow:visible;"/>
		</clipPath>
		<g class="st54">
			<g>
				<defs>
					<rect id="SVGID_211_" x="569" y="695.5" width="0.9" height="0.2"/>
				</defs>
				<clipPath id="SVGID_212_">
					<use xlink:href="#SVGID_211_"  style="overflow:visible;"/>
				</clipPath>
				<g style="clip-path:url(#SVGID_212_);">
					
						<image style="overflow:visible;" width="5" height="3" xlink:href="DC82DF53F69F8632.jpg"  transform="matrix(0.24 0 0 0.24 568.8 695.28)">
					</image>
				</g>
			</g>
		</g>
	</g>
	<g>
		<defs>
			<path id="SVGID_213_" d="M566.6,695.3c0.5,0,1,0.1,1.5,0.2c-0.2-0.1-0.2-0.1-0.2-0.1C567.6,695.4,567.2,695.4,566.6,695.3z"/>
		</defs>
		<clipPath id="SVGID_214_">
			<use xlink:href="#SVGID_213_"  style="overflow:visible;"/>
		</clipPath>
		<g class="st55">
			<g>
				<defs>
					<rect id="SVGID_215_" x="566.6" y="695.3" width="1.5" height="0.2"/>
				</defs>
				<clipPath id="SVGID_216_">
					<use xlink:href="#SVGID_215_"  style="overflow:visible;"/>
				</clipPath>
				<g style="clip-path:url(#SVGID_216_);">
					
						<image style="overflow:visible;" width="8" height="3" xlink:href="DC82DF53F69F863D.jpg"  transform="matrix(0.24 0 0 0.24 566.4 695.28)">
					</image>
				</g>
			</g>
		</g>
	</g>
	<g>
		<defs>
			<path id="SVGID_217_" d="M241.6,699.9c-0.1,0-0.1,0-0.2-0.1C240.5,700.2,240.9,700.2,241.6,699.9"/>
		</defs>
		<clipPath id="SVGID_218_">
			<use xlink:href="#SVGID_217_"  style="overflow:visible;"/>
		</clipPath>
		<g class="st56">
			<g>
				<defs>
					<rect id="SVGID_219_" x="240.5" y="699.9" width="1.1" height="0.4"/>
				</defs>
				<clipPath id="SVGID_220_">
					<use xlink:href="#SVGID_219_"  style="overflow:visible;"/>
				</clipPath>
				<g style="clip-path:url(#SVGID_220_);">
					
						<image style="overflow:visible;" width="6" height="2" xlink:href="DC82DF53F69F863E.jpg"  transform="matrix(0.24 0 0 0.24 240.48 699.84)">
					</image>
				</g>
			</g>
		</g>
	</g>
	<g>
		<defs>
			<polygon id="SVGID_221_" points="456.2,695.7 456.2,695.8 456.3,695.7 			"/>
		</defs>
		<clipPath id="SVGID_222_">
			<use xlink:href="#SVGID_221_"  style="overflow:visible;"/>
		</clipPath>
		<g class="st57">
			<g>
				<defs>
					<rect id="SVGID_223_" x="456.2" y="695.7" width="0.1" height="0.1"/>
				</defs>
				<clipPath id="SVGID_224_">
					<use xlink:href="#SVGID_223_"  style="overflow:visible;"/>
				</clipPath>
				<g style="clip-path:url(#SVGID_224_);">
					
						<image style="overflow:visible;" width="2" height="1" xlink:href="DC82DF53F69F863F.jpg"  transform="matrix(0.24 0 0 0.24 456 695.52)">
					</image>
				</g>
			</g>
		</g>
	</g>
	<g>
		<defs>
			<path id="SVGID_225_" d="M452.9,696.2c1.4-0.9,2.2-0.8,3.2-0.5l-1-2.2L452.9,696.2z"/>
		</defs>
		<clipPath id="SVGID_226_">
			<use xlink:href="#SVGID_225_"  style="overflow:visible;"/>
		</clipPath>
		<g class="st58">
			<g>
				<defs>
					<rect id="SVGID_227_" x="452.9" y="693.5" width="3.2" height="2.8"/>
				</defs>
				<clipPath id="SVGID_228_">
					<use xlink:href="#SVGID_227_"  style="overflow:visible;"/>
				</clipPath>
				<g style="clip-path:url(#SVGID_228_);">
					
						<image style="overflow:visible;" width="14" height="13" xlink:href="DC82DF53F69F8634.jpg"  transform="matrix(0.24 0 0 0.24 452.88 693.36)">
					</image>
				</g>
			</g>
		</g>
	</g>
	<g>
		<defs>
			<path id="SVGID_229_" d="M174.1,708.3l0.2,0C174.2,708.3,174.2,708.3,174.1,708.3C174.1,708.3,174.1,708.3,174.1,708.3
				 M262.4,701c0.1,0,0.1,0,0.2,0C262.5,701,262.4,701,262.4,701 M291,699.6C291,699.6,291.1,699.6,291,699.6L291,699.6z
				 M291.1,699.6L291.1,699.6C291.1,699.6,291.1,699.6,291.1,699.6 M195.7,698c0,0-0.1-0.1-0.2-0.1
				C195.6,697.9,195.7,697.9,195.7,698 M465.6,695.9C465.7,695.9,465.7,695.9,465.6,695.9L465.6,695.9z M346.6,695.9
				c0.1,0,0.3,0,0.4,0L346.6,695.9z M464.4,695.9c0,0-0.1,0-0.1-0.1C464.3,695.9,464.4,695.9,464.4,695.9 M358.8,695.8
				c0.7-1,1.3-0.5,2.5-0.3c-0.5,0.1-1.3,0.5-1.9,0.5C359.1,696,358.9,695.9,358.8,695.8 M231.5,695l0.6,0.2
				c-0.5,0.1-0.7,0.2-0.8,0.2C231,695.3,231.3,695.1,231.5,695 M557.9,695.1L557.9,695.1C556.3,694.7,556.9,694.8,557.9,695.1
				 M410.9,692.9c0.6-0.1,1.3,0,2.1,0.2c-0.2,0.1-0.4,0.1-0.6,0.1C412,693.3,411.5,693.1,410.9,692.9 M465.2,690.3
				c-0.1,0.1-0.2,0.2-0.2,0.3C465,690.4,464.7,690.3,465.2,690.3 M410.7,689.3c-1.9-0.7-2.8-0.6-4.1,0.3c-0.6-0.5-1.7-1,0.6-1.1
				c-1.3-0.1-7.8-0.7-7.9,0.4c-0.4-0.3-1.8-0.1-2.1,0c-2.9-0.1-3.1-0.2-5.9-0.1l0.8,0.2c-0.7,0.9-1.5,0.7-2.7,0.6
				c-0.6-0.1-1.2-0.2-2-0.1l0.1-0.1c-2.6-0.5-3.2-0.4-3.7-0.3c-0.6,0.1-1.1,0.2-3.7-0.3l0.3,0.8c-0.3,1-1.7,0.6-3.4,0.1
				c-1.3-0.3-2.8-0.7-4.1-0.4l1.1,0.5c-1.6,0.7-4.6-2.4-6.2-2.6c-0.4-0.1,0.6-0.3,1.1-0.4c-4.3-1-0.5,1.1-3.7,1.4
				c-0.6-0.6,0.7-1.5-1.4-1.6c-0.5-0.2-1.8,0.2-3.4,0.6c-1.9,0.5-4.2,1-5.8,0.4c0.7,0.4,1.3,0.9-0.2,1.3c-0.9,0.1-2-0.1-3.1-0.4
				c-1.9-0.3-3.9-0.7-5.1,0.2c-0.3-0.1-0.4-0.2-0.4-0.4c-1.7,0.4-5.6,0.7-6.7,1.6c-0.9-1.4-3.6-0.9-6.1-0.5c-2.4,0.5-4.7,1-4.7-0.4
				l-5.3,0.4l0.1-0.3c-3.4,0-4.6,0.7-5.8,1.4c-0.8-0.2-0.2-0.4-0.2-0.6c-5-0.3-5.5-0.2-9.6,1.3l-0.5-0.9c-0.5,0.2-1.9,0.1-3.7-0.1
				c-2.4-0.2-5.7-0.5-8.4,0.3c0-0.1,0.1-0.3,0.5-0.4c-2.2,0.6-4.9,0.4-7.3,0.2c-3.6-0.2-6.7-0.5-7.8,1.5l-3.6,1
				c4.7,0-0.6,1.4,1.4,1.8c-1.8,0.3-4.8-0.7-2.6-1l0.4,0.1c0.4-0.9-1.4-0.9-3.1-0.9c-1.4,0-2.7,0-2.7-0.5c-9.2,0.6-18.3,0.4-26.9,1
				l1.1,1.2l-3,0.2c-0.8-0.2-1.1-0.9,1-1c-1.2-0.6-3.6,0.9-3.6,1.2c-4.2-0.2,1.5-1.6,0.2-1.6l-1.7,0.2l0.4,0.1
				c-1.4,0.6-1.5,1.2-4,1.3c-1.6-0.1-0.9-0.7-1.5-0.7c0-0.1-0.2-0.1-1,0l-3.8,0.2l1.6,0.9c-1.6,0.6-3.6,0.2-1.7,1.2
				c-1.6-0.9-6.2-0.5-10.1-0.1c-2.7,0.3-5,0.6-5.7,0.4c-2.3,1-4.6,1.2-7.5,1.3c0.7,0.1,1.3,1.2-1.2,1.3c0.7-2.4-4.3-0.7-6.6-2
				c0.9,0.8-7.1,0.9-4.2,2.2c-2.1,0-0.2-0.9-1.8-1.2c-4.8,1.4-10.9,0.6-17,1.5c-0.1,0.3,1,0.7-0.2,1.3l-3.4-1.2
				c-1.2,0.3-0.9,1.9-3.2,1.1c0.3,0.2,0.8,0.6,0.1,0.7c-5.4,0-10.8,0.8-16.2,1.6c-6.7,1-13.5,2-20.4,1.4c1.7,0.4,0.6,0.6-0.6,0.8
				c0.8,0,0.1,0.8,0.3,1.2l-5.2-0.4c-0.8,1.3-5.4,0.8-5.8,2l1.6-0.4c-1.9,1.6,3.4,2.5,3.3,4.2c1-0.8,2.5-0.6,4.1-0.4
				c1.9,0.2,4.1,0.5,6-0.9c0.9,0.2-0.7,0.6-0.1,1c0.9-0.9,2.1-1.2,4.3-1.1l-0.2,0.2c6.2-1,8.9-0.7,16-1l-0.6-0.8
				c1.5-0.1,1.9,0.2,2.6,0.3c0.8-0.7-0.2-0.6-1.3-0.5c-1.1,0.1-2.2,0.2-1.5-0.6c1,0.7,3.6,0.4,6,0.2c2.7-0.3,5.3-0.6,6.1,0.3
				c2.3-0.3-0.8-0.9,1.5-1.1l0.7,0.4l0.5-0.7c1.5-0.1,2.4,0.5,2.5,0.9c-0.4,0-1,0.2-1.4,0.3c1.1,0.2,2.6,0,3.9-0.3
				c0.9-0.2,1.7-0.4,2.1-0.4l-2.1-0.1c6.3-1.2,14-1.3,20-3l-0.5-0.3c2.5-0.7,3.4-0.6,4.5-0.5c0.9,0.1,2,0.1,4.4-0.3l-0.2,0.1
				c1-0.5,2.3-0.8,3.7-0.9c-1.2,0.6,2.5,0.7,0.9,1.3c5-1.2,2.4-0.8,5.6-2.6l0.8,0.6c1.1-0.7,1.1-1,3.7-1.4c-2.1,0.8,1.7,0.8-0.6,1.8
				c2.5,0.4,4.3,0,5.8-0.4c1.9-0.5,3.2-1,4.7,0c1.5-1.3-0.9-1.2-2.4-1c-0.9,0.1-1.5,0.1-1,0c-1.2-0.5,1.9-1.5,3.6-1.5
				c0.8,0,1.6,0.4,2.6,0.9c1.1,0.5,2.6,1,4.8,0.8c-0.4,0-0.4,0.2-0.8,0.2c0.8,0.2,1.5,0,2.2-0.2c0.9-0.2,1.8-0.4,2.9-0.1
				c1-1.2,2.6-0.1,2.8-1.5l-3.9,0.6c2.2-0.5,4.2-2.3,8-1.8c-0.3,0.3-1.3,0.8-2.1,1c0.6,0.2,1.1,0.1,1.6,0c0.5-0.1,1-0.2,1.6-0.1
				c-0.2,1.4-4.8,0.7-7.1,1.9c0.5,0.2,1.3,0,2.1-0.2c1.1-0.3,2-0.5,1.3,0.4c0.8-1.1,2-1.1,3.3-1c1.2,0,2.5,0,3.8-0.8L248,701
				c0.5-0.2,1.4-0.6,2.2-0.7l-1.5,1.2c1.2-0.6,2.5-0.4,3.8-0.2c1,0.2,2.1,0.3,3.1,0c-4.8,0.4-1.1-0.9-3.2-1.4c3.1-0.8,3.9-0.2,5,0.4
				c0.9,0.5,2,1,4.9,0.7c-1,0.1-3.1-0.3-1.8-0.8c1.3,0.1,2.9,0.3,3.7,0.7c4.4-0.4-0.7-0.8,1.1-1.4c1.5,0.9,2.1-0.5,4-1l0.1,0.9
				c2.4,0.1,2.8-0.3,3-0.7c0.3-0.5,0.4-0.9,2.7-0.7l-1.8,1.3l2.3-0.4l-0.4,1c2.5-0.9,3.3-0.7,5.8-0.6c-0.6-0.6,0.2-1.6,2.4-1.7
				c1.5,0.4-0.8,0.9,2.3,0.5c-0.7,0.6-1.4,1.3-2.8,0.6c-0.1,0.3-0.7,0.6-0.8,0.9c1.6,0.5,4.1-0.1,5.2-0.2c-0.4,0-1,0-1.2-0.1
				l4.4-1.4c0.7,0.3,0.2,0.6-0.4,0.8c0.9-0.1,1.5-0.6,2.9-0.7c-0.3,0.7-0.2,1.4-2,1.8l4.1-1c0.3,0.3,2.2,0.7,1.7,1
				c1.1,0.1,2.5-0.2,4-0.6c1.6-0.4,3.3-0.8,5-0.6c0.2-0.1,0.5-0.3,1.1-0.4c3,0,5.6,0.8,9.1-0.3l2,1.2c2.7-0.4-2.8-1.4,1.8-2.1
				c3.2-0.5,1.3,1,2.4,1.3c1.6-0.7,4.4-2.1,7.4-1.2c-1,0.3-1.8,0.1-2.7,0.2l2.3,0.6c-2.7,1.2-4.7,0.9-2.5,1.8c0.2-2.4,8.8-0.6,9.1-3
				l1.5,0.4c-0.2,0-0.3,0-0.5,0.1c-0.1,0-0.2,0.1-0.5,0.1c1.6,0.6,2.1-0.1,2.9-0.7c0.6-0.5,1.4-1,3-0.9c1.3,0.2,2.2,0.5,1.4,0.8
				l2.9-0.6c0.7,0,0.7,0.3,0.2,0.4l4.1-0.2l0,0.1c0.6-0.4,2-1,2.7-1.2c1.1,0.3-0.6,0.3-0.3,0.6l2.5-0.6c1,0.6-1,1.2-2.7,1.2
				c1.3,1.3,1.8,1,2.8,0.6c0.8-0.3,2-0.5,4.2,0l-2.3,0.4c1.5,1.3,3.3,0.8,6,1.6c-0.6-0.4-5.3-2-2.7-2.7c0.8,0.2,1.8,0.2,3.2-0.3
				c0,0.8,1.4,0.6,3.2,0.5l-0.1,1.1c1.9-0.4,1.7-0.9,2.9-1.5c2.1,0.1,2.6,0.9,3.1,1.7c3.4,0.1-2.4-1.4,1.7-1.6
				c2.8,0.4,4.8-0.1,8.2-0.9c2,0.4-0.3,0.7,0.4,1l1.8-0.9c0.4,0,0.3,0.3,0.2,0.4c1.5-0.3,0.1-1.1,2.4-1.4c0.3-0.6,1.5-0.2,2.9,0.3
				c1.5,0.4,3.3,0.9,4.8,0.2c0.7,0.3-0.3,0.7-0.1,1.1c4-0.9,3.4-0.6,6.6-1.9l2.8,0.7c-2-0.9,0.6-1.8,2.9-2.7
				c-0.7-0.4-1.3-0.8-1.7-0.9l3.6-0.6c0.4,0.2,0.1,0.6-0.5,1c0.2-0.1,0.5-0.2,0.7-0.3c1.3,0.4,0.6,1.1-0.3,1.7
				c-0.4-0.2-0.9-0.5-1.3-0.7c-0.9,0.7-1.7,1.4-1.6,2.1c0.2-0.1,0.7-0.2,1.2-0.3c-0.2,0.2-0.4,0.4-0.3,0.5c0.1,0.1,0.5-0.1,1.1-0.4
				l0.8,1.3l0.2-0.5l4.7,0.8c3.4-1.2,6.4-3.1,11.8-3.6c-1.4,0.9-0.3,1.5-0.4,2.6c-0.9-0.7-2.2-0.4-3.7-0.1c-1,0.2-2.1,0.4-3.3,0.3
				c1.5,0.1,1.1,0.6,0.8,0.8l5-1c-0.1,0.9,1,0.7,2.4,1c-1-1.8,3.7-1.2,5.8-1.6c0.1,0.6-0.4,1.2-2.9,1c1.4,0.7,2.3,0.2,3.2-0.3
				c0.9-0.5,1.7-1,3.1-0.4c-0.6,0-0.9-0.1-1.2,0.2c1.4-0.5,4.9,0,4.1,0.5l-0.6,0c4,0.3,12.2,0.4,12.9-1.1c0,0.2-0.6,1.8-0.8,2.1
				l7.3-4.8c-0.7,1.3,1.6,4.4-1.7,5c1,0.2,2.1,0.5,4.2,0.1c-0.6-0.2-1.6-1.9-0.7-2c2.4,1.5,1.7,0.8,4.5,2.1
				c-0.7-0.4,0.4-2.2,1.9-2.1c-0.2,0.3,0,1.9-0.5,2.2l3.7-1.7c-0.7,0.4,0,1.6,0.8,2.2c-0.2-0.2,0.9-0.1,2.1-0.1
				c0.9,0.1,1.8,0.1,2.3,0l-1.6-0.5c2.2,0.2,3.3-0.4,4.4-1.1c1.1-0.7,2.2-1.3,4.3-1.1c-0.5,0.4-1.4,2.4,0.8,2.8
				c1.1-1,4.7-4.6,8.6-5.1l0.7,0.6l3-0.5c-1.9,1.4-7.2,4.3-10.1,5.4c1.6,0.6,0.4,0.7,2.9,0.8c0.8,0.6-1.4,0.7-2.1,0.7l5.6,0.7
				c-0.2-1.2,4.4-0.9,4.2-1.9L489,698c-0.2-1.2,3.7-3.1,7.7-2.7c1,0.5-0.9,2.1-0.8,2.5c0.5-0.4,3.9-0.5,4.2-0.2l-1.7,0.5
				c1,0.3,1.8,0,2.7-0.2c1.1-0.3,2.2-0.6,3.7,0.1c0.9,0.1,2.7,1.7,2.9,1c-1.4-1.4-1.4-5.6-0.4-6.6c0.3,0.1,4.8,1.6,5.8,2.3
				c1.4,1.2-2.5,2.4-1.2,3.4c0.1-0.3,1-0.7,1.3-0.8c0.9,0.3-0.5,1,1.6,1c0.2-0.6,1.2-0.5,1.9-0.4c0.7,0.1,0.9,0.2-0.8-0.5
				c2.1-0.2,2.2,0.4,4.6,0.5c-0.7-0.8,2.4-2.5,4.5-2.7c-0.1,0.3,0.3,0.7,0.5,0.9c4.2,0.5,6.4,1.3,10.4,1.7c0.3,0.3,2.2,0.9,1.4,1.3
				c0.6-0.1,1.1-0.5,2.4-0.4c1.1,0.6,0.5,0.6-0.2,0.6c-0.8,0-1.7,0-0.8,0.7c0.2-0.7,3.2-0.6,5-0.9c-0.4-1.1-4-0.6-5.7-0.3
				c0.1-1.5,3.3-2.7,7.5-3c1.6,0,2,0.2,2,0.5c0,0.3-0.4,0.5-0.1,0.5c2.8,0.4,4.2,0,5.4-0.4c1.4-0.5,2.4-0.9,5.2-0.1
				c1.9,1.1-0.1,1.9,0.3,2.6c-2.7,0.1-4-1-5.9-1.1l2.2,0.7c-0.9,0.2-2.7,0.3-3.6-0.1c1.6,1,10.4,1.2,15,2.4c0.9-0.2,2.4-0.4,1.7-0.9
				l-1.5,0c-1.3-0.9,3-0.8,1.1-1.3c2.1-0.3,4.5-1,7.2-0.1l0.4,1.1c-0.2-0.3-1.8-0.8-2.6-0.6c0.5-0.1,1.4,0.2,2.3,0.6
				c1.2,0.5,2.5,1,3.4,0.3l-1.9-1c2.1-0.3,4.7-1,7.2-0.3c-1-1.2-0.6,0-2.2-1.5c0.7,0.9-0.9,0.6-2.3,0.4c-1.4-0.2-2.7-0.4-2.1,0.3
				c-1.6-1.4-3-0.9-5.1-2.4c0,0.4,0.8,0.8-1.3,0.4c-0.1,0.1-0.4,0.2-0.5,0.3c-0.1,0-0.1,0-0.1,0l0.1,0.1c-0.1,0-0.1,0.1,0,0
				c0.5,0.2,0.9,0.4,1,0.6c-1.1,0.7-4.5,0.4-5.7,0.7c-1.2-0.3,0.6-0.4-0.1-0.8l-1.8,0.5c-0.1-0.8-3.2-1.6-0.2-1.8l-2.7-0.3
				c-1.5-0.6-3.7-1-5-0.8c-0.6-0.1-1.3,0-1.8,0.1c-0.6,0.1-0.9,0.2-0.3,0l-4.2,0.1l0-0.2c-4.1-0.5-8.6,0.5-13.2-1.4
				c-1.4,0.1-2.9,0.2-5.2-0.3l-0.4-0.7c-0.7,0-1.8-0.2-2.8-0.4c-1.5-0.3-2.9-0.6-3.4-0.2c-1.8-2-8.6-1-11.8-1.5l-0.2,0.9
				c-2.2-0.2-4.2-0.1-7,0.1l0.1,0.8c-2.4,0.5-5.9-0.9-9.6-1.1c0.3-0.3,1.2-0.1,1.8,0.1c-2.3-1.1-4.7-0.8-7.1-0.6
				c-2.1,0.2-4.2,0.5-6.1-0.3c-1,0.2-1.7,0.1-2.4-0.2c0.1,0,0.2,0,0.2,0c-0.1,0-0.3,0-0.4,0c-0.4-0.2-0.9-0.3-1.4-0.5
				c0.4,0.2,0.8,0.4,1.1,0.5c-0.8,0-1.9,0-3.1,0.1l-0.4-0.9c-0.1,0-0.2,0-0.3,0c-1.1-0.4-0.9,0.3-0.4,1c-0.6,0.1-1.1,0.3-1.5,0.4
				c-0.4-0.7-1.1-0.6-1.9-0.5c-0.8,0.1-1.6,0.2-2.2-0.6c-0.7,0.6-5,0.4-6.2,1.5c-1.2-0.2-2.5-0.4-3.6,0l-0.5-1.1l-2.8,1.4
				c-1.7-0.7-2.3-1.1-0.6-1.9c-4.1,1.1-3.3,0.4-6.7,1.5l0.2-0.7c-0.5,0-1,0.1-1.6,0.2c-0.9,0.2-1.9,0.4-2.3,0
				c-2.7-1.4-13.5-0.7-20.5-2c0.7,1.1-0.2,0.8-1.3,0.5c-1-0.3-2.1-0.6-2.2,0.2c-0.4-0.5-1.4-0.8-0.2-1.2c-1.4,0.2-2.6,0.1-3.6,0
				c-1.5-0.1-2.8-0.3-4.3,0.5c-0.4-0.5,0.8-0.7,0.4-1c-0.3,0.1-1.1,0.4-1.5,0.1c-0.4-0.3,0.5-0.4,1.1-0.6
				C411.4,686.4,411,687.9,410.7,689.3"/>
		</defs>
		<clipPath id="SVGID_230_">
			<use xlink:href="#SVGID_229_"  style="overflow:visible;"/>
		</clipPath>
		<g class="st59">
			<g>
				<defs>
					<rect id="SVGID_231_" x="117.7" y="685.9" width="465.2" height="26.8"/>
				</defs>
				<clipPath id="SVGID_232_">
					<use xlink:href="#SVGID_231_"  style="overflow:visible;"/>
				</clipPath>
				<g style="clip-path:url(#SVGID_232_);">
					
						<image style="overflow:visible;" width="1939" height="113" xlink:href="DC82DF53F69F8635.jpg"  transform="matrix(0.24 0 0 0.24 117.6 685.68)">
					</image>
				</g>
			</g>
		</g>
	</g>
	<g>
		<defs>
			<path id="SVGID_233_" d="M407.2,694.2c-0.2-0.1-0.2-0.3-0.3-0.5C406.6,693.9,406.6,694.1,407.2,694.2"/>
		</defs>
		<clipPath id="SVGID_234_">
			<use xlink:href="#SVGID_233_"  style="overflow:visible;"/>
		</clipPath>
		<g class="st60">
			<g>
				<defs>
					<rect id="SVGID_235_" x="406.6" y="693.8" width="0.5" height="0.5"/>
				</defs>
				<clipPath id="SVGID_236_">
					<use xlink:href="#SVGID_235_"  style="overflow:visible;"/>
				</clipPath>
				<g style="clip-path:url(#SVGID_236_);">
					
						<image style="overflow:visible;" width="3" height="3" xlink:href="DC82DF53F69F8636.jpg"  transform="matrix(0.24 0 0 0.24 406.56 693.6)">
					</image>
				</g>
			</g>
		</g>
	</g>
	<g>
		<defs>
			<path id="SVGID_237_" d="M305.8,698.5l0.2-0.1h-0.1C305.9,698.4,305.8,698.4,305.8,698.5"/>
		</defs>
		<clipPath id="SVGID_238_">
			<use xlink:href="#SVGID_237_"  style="overflow:visible;"/>
		</clipPath>
		<g class="st61">
			<g>
				<defs>
					<rect id="SVGID_239_" x="305.8" y="698.3" width="0.2" height="0.1"/>
				</defs>
				<clipPath id="SVGID_240_">
					<use xlink:href="#SVGID_239_"  style="overflow:visible;"/>
				</clipPath>
				<g style="clip-path:url(#SVGID_240_);">
					
						<image style="overflow:visible;" width="2" height="3" xlink:href="DC82DF53F69F861A.jpg"  transform="matrix(0.24 0 0 0.24 305.76 698.16)">
					</image>
				</g>
			</g>
		</g>
	</g>
	<g>
		<defs>
			<path id="SVGID_241_" d="M512.9,698.6c-0.6-0.2-1-0.3-1.2-0.5C511.7,698.3,512,698.5,512.9,698.6"/>
		</defs>
		<clipPath id="SVGID_242_">
			<use xlink:href="#SVGID_241_"  style="overflow:visible;"/>
		</clipPath>
		<g class="st62">
			<g>
				<defs>
					<rect id="SVGID_243_" x="511.7" y="698.1" width="1.2" height="0.5"/>
				</defs>
				<clipPath id="SVGID_244_">
					<use xlink:href="#SVGID_243_"  style="overflow:visible;"/>
				</clipPath>
				<g style="clip-path:url(#SVGID_244_);">
					
						<image style="overflow:visible;" width="6" height="4" xlink:href="DC82DF53F69F8619.jpg"  transform="matrix(0.24 0 0 0.24 511.68 697.92)">
					</image>
				</g>
			</g>
		</g>
	</g>
	<g>
		<defs>
			<path id="SVGID_245_" d="M577,696.1l0.2,0C577.2,696.1,577.1,696.1,577,696.1C577.1,696.1,577.1,696.1,577,696.1 M575.3,696.1
				c1,0.1,1.3,0.3,1.7,0.5c0-0.2-0.3-0.4,0-0.5L575.3,696.1z"/>
		</defs>
		<clipPath id="SVGID_246_">
			<use xlink:href="#SVGID_245_"  style="overflow:visible;"/>
		</clipPath>
		<g class="st63">
			<g>
				<defs>
					<rect id="SVGID_247_" x="575.3" y="696.1" width="2" height="0.5"/>
				</defs>
				<clipPath id="SVGID_248_">
					<use xlink:href="#SVGID_247_"  style="overflow:visible;"/>
				</clipPath>
				<g style="clip-path:url(#SVGID_248_);">
					
						<image style="overflow:visible;" width="10" height="4" xlink:href="DC82DF53F69F8616.jpg"  transform="matrix(0.24 0 0 0.24 575.04 696)">
					</image>
				</g>
			</g>
		</g>
	</g>
	<g>
		<defs>
			<path id="SVGID_249_" d="M593.5,703.8c0.1,0,0.3,0,0.5,0c0.1,0,0.3,0,0.4,0l0-0.4c-0.3,0-0.5-0.1-0.8-0.1
				C592.8,703.3,592.5,703.5,593.5,703.8"/>
		</defs>
		<clipPath id="SVGID_250_">
			<use xlink:href="#SVGID_249_"  style="overflow:visible;"/>
		</clipPath>
		<g class="st64">
			<g>
				<defs>
					<rect id="SVGID_251_" x="592.5" y="703.3" width="1.8" height="0.5"/>
				</defs>
				<clipPath id="SVGID_252_">
					<use xlink:href="#SVGID_251_"  style="overflow:visible;"/>
				</clipPath>
				<g style="clip-path:url(#SVGID_252_);">
					
						<image style="overflow:visible;" width="9" height="4" xlink:href="DC82DF53F69F8669.jpg"  transform="matrix(0.24 0 0 0.24 592.32 703.2)">
					</image>
				</g>
			</g>
		</g>
	</g>
	<g>
		<defs>
			<path id="SVGID_253_" d="M578.7,699.2c0.1,0.7,1.3,0.7,2.7,0.7l-0.3,0c0.4-0.6-0.2-0.8-1-0.8
				C579.7,699.1,579.2,699.2,578.7,699.2"/>
		</defs>
		<clipPath id="SVGID_254_">
			<use xlink:href="#SVGID_253_"  style="overflow:visible;"/>
		</clipPath>
		<g class="st65">
			<g>
				<defs>
					<rect id="SVGID_255_" x="578.7" y="699.1" width="2.8" height="0.8"/>
				</defs>
				<clipPath id="SVGID_256_">
					<use xlink:href="#SVGID_255_"  style="overflow:visible;"/>
				</clipPath>
				<g style="clip-path:url(#SVGID_256_);">
					
						<image style="overflow:visible;" width="13" height="5" xlink:href="DC82DF53F69F866A.jpg"  transform="matrix(0.24 0 0 0.24 578.64 699.12)">
					</image>
				</g>
			</g>
		</g>
	</g>
	<g>
		<defs>
			<path id="SVGID_257_" d="M582.3,699.9c-0.2,0-0.4,0-0.6,0c0.4,0,0.9,0.1,1.3,0.2c0.1-0.2,0-0.2-0.2-0.2
				C582.6,699.9,582.5,699.9,582.3,699.9"/>
		</defs>
		<clipPath id="SVGID_258_">
			<use xlink:href="#SVGID_257_"  style="overflow:visible;"/>
		</clipPath>
		<g class="st66">
			<g>
				<defs>
					<rect id="SVGID_259_" x="581.7" y="699.9" width="1.4" height="0.2"/>
				</defs>
				<clipPath id="SVGID_260_">
					<use xlink:href="#SVGID_259_"  style="overflow:visible;"/>
				</clipPath>
				<g style="clip-path:url(#SVGID_260_);">
					
						<image style="overflow:visible;" width="7" height="2" xlink:href="DC82DF53F69F8668.jpg"  transform="matrix(0.24 0 0 0.24 581.52 699.84)">
					</image>
				</g>
			</g>
		</g>
	</g>
	<g>
		<defs>
			<path id="SVGID_261_" d="M563.8,695.3c-0.5,0.2-0.5,0.4,1,0.4c0.3,0.1,0.4-0.1,0.5-0.3c0.1-0.2,0.1-0.4,0.3-0.3
				c0.2-0.2,0.1-0.3-0.2-0.3C565.1,694.9,564.2,695.1,563.8,695.3"/>
		</defs>
		<clipPath id="SVGID_262_">
			<use xlink:href="#SVGID_261_"  style="overflow:visible;"/>
		</clipPath>
		<g class="st67">
			<g>
				<defs>
					<rect id="SVGID_263_" x="563.3" y="694.9" width="2.5" height="0.9"/>
				</defs>
				<clipPath id="SVGID_264_">
					<use xlink:href="#SVGID_263_"  style="overflow:visible;"/>
				</clipPath>
				<g style="clip-path:url(#SVGID_264_);">
					
						<image style="overflow:visible;" width="12" height="5" xlink:href="DC82DF53F69F866E.jpg"  transform="matrix(0.24 0 0 0.24 563.28 694.8)">
					</image>
				</g>
			</g>
		</g>
	</g>
	<g>
		<defs>
			<polygon id="SVGID_265_" points="578.3,701.4 579.5,701.7 579.1,700.8 			"/>
		</defs>
		<clipPath id="SVGID_266_">
			<use xlink:href="#SVGID_265_"  style="overflow:visible;"/>
		</clipPath>
		<g class="st68">
			<g>
				<defs>
					<rect id="SVGID_267_" x="578.3" y="700.8" width="1.2" height="0.9"/>
				</defs>
				<clipPath id="SVGID_268_">
					<use xlink:href="#SVGID_267_"  style="overflow:visible;"/>
				</clipPath>
				<g style="clip-path:url(#SVGID_268_);">
					
						<image style="overflow:visible;" width="7" height="6" xlink:href="DC82DF53F69F866B.jpg"  transform="matrix(0.24 0 0 0.24 578.16 700.56)">
					</image>
				</g>
			</g>
		</g>
	</g>
	<g>
		<defs>
			<path id="SVGID_269_" d="M568.8,699.7l2.2,0.5c0-0.1,0.3-0.2,0.6-0.2c-1-0.1-2-0.3-2.5-0.3C568.9,699.6,568.8,699.6,568.8,699.7"
				/>
		</defs>
		<clipPath id="SVGID_270_">
			<use xlink:href="#SVGID_269_"  style="overflow:visible;"/>
		</clipPath>
		<g class="st69">
			<g>
				<defs>
					<rect id="SVGID_271_" x="568.8" y="699.6" width="2.8" height="0.6"/>
				</defs>
				<clipPath id="SVGID_272_">
					<use xlink:href="#SVGID_271_"  style="overflow:visible;"/>
				</clipPath>
				<g style="clip-path:url(#SVGID_272_);">
					
						<image style="overflow:visible;" width="13" height="5" xlink:href="DC82DF53F69F8666.jpg"  transform="matrix(0.24 0 0 0.24 568.8 699.36)">
					</image>
				</g>
			</g>
		</g>
	</g>
	<g>
		<defs>
			<path id="SVGID_273_" d="M571.6,699.9c0.7,0.1,1.4,0.2,1.8,0.1c-0.3,0-1-0.1-1.5-0.1C571.8,699.9,571.7,699.9,571.6,699.9"/>
		</defs>
		<clipPath id="SVGID_274_">
			<use xlink:href="#SVGID_273_"  style="overflow:visible;"/>
		</clipPath>
		<g class="st70">
			<g>
				<defs>
					<rect id="SVGID_275_" x="571.6" y="699.9" width="1.8" height="0.2"/>
				</defs>
				<clipPath id="SVGID_276_">
					<use xlink:href="#SVGID_275_"  style="overflow:visible;"/>
				</clipPath>
				<g style="clip-path:url(#SVGID_276_);">
					
						<image style="overflow:visible;" width="10" height="1" xlink:href="DC82DF53F69F8667.jpg"  transform="matrix(0.24 0 0 0.24 571.44 699.84)">
					</image>
				</g>
			</g>
		</g>
	</g>
	<g>
		<defs>
			<polygon id="SVGID_277_" points="574.4,701 576.5,701.6 575.9,701.3 			"/>
		</defs>
		<clipPath id="SVGID_278_">
			<use xlink:href="#SVGID_277_"  style="overflow:visible;"/>
		</clipPath>
		<g class="st71">
			<g>
				<defs>
					<rect id="SVGID_279_" x="574.4" y="701" width="2.2" height="0.6"/>
				</defs>
				<clipPath id="SVGID_280_">
					<use xlink:href="#SVGID_279_"  style="overflow:visible;"/>
				</clipPath>
				<g style="clip-path:url(#SVGID_280_);">
					
						<image style="overflow:visible;" width="11" height="5" xlink:href="DC82DF53F69F860D.jpg"  transform="matrix(0.24 0 0 0.24 574.32 700.8)">
					</image>
				</g>
			</g>
		</g>
	</g>
	<g>
		<defs>
			<path id="SVGID_281_" d="M542.9,697.2c-0.3,0.3,0.4,0.5,1.3,0.5c0.6-0.2,1.5-0.2,1.1-0.5L542.9,697.2z"/>
		</defs>
		<clipPath id="SVGID_282_">
			<use xlink:href="#SVGID_281_"  style="overflow:visible;"/>
		</clipPath>
		<g class="st72">
			<g>
				<defs>
					<rect id="SVGID_283_" x="542.6" y="697.1" width="3" height="0.5"/>
				</defs>
				<clipPath id="SVGID_284_">
					<use xlink:href="#SVGID_283_"  style="overflow:visible;"/>
				</clipPath>
				<g style="clip-path:url(#SVGID_284_);">
					
						<image style="overflow:visible;" width="15" height="5" xlink:href="DC82DF53F69F860B.jpg"  transform="matrix(0.24 0 0 0.24 542.4 696.96)">
					</image>
				</g>
			</g>
		</g>
	</g>
	<g>
		<defs>
			<path id="SVGID_285_" d="M551.1,700.6l1.2-0.3c-0.6-0.2-0.7-0.5-1-0.8L551.1,700.6z"/>
		</defs>
		<clipPath id="SVGID_286_">
			<use xlink:href="#SVGID_285_"  style="overflow:visible;"/>
		</clipPath>
		<g class="st73">
			<g>
				<defs>
					<rect id="SVGID_287_" x="551.1" y="699.5" width="1.2" height="1.1"/>
				</defs>
				<clipPath id="SVGID_288_">
					<use xlink:href="#SVGID_287_"  style="overflow:visible;"/>
				</clipPath>
				<g style="clip-path:url(#SVGID_288_);">
					
						<image style="overflow:visible;" width="6" height="7" xlink:href="DC82DF53F69F8605.jpg"  transform="matrix(0.24 0 0 0.24 551.04 699.36)">
					</image>
				</g>
			</g>
		</g>
	</g>
	<g>
		<defs>
			<path id="SVGID_289_" d="M544.8,700.6c0.3-0.3,2.7-0.3,0.5-0.7C545,700.1,541.8,700.4,544.8,700.6"/>
		</defs>
		<clipPath id="SVGID_290_">
			<use xlink:href="#SVGID_289_"  style="overflow:visible;"/>
		</clipPath>
		<g class="st74">
			<g>
				<defs>
					<rect id="SVGID_291_" x="541.8" y="699.8" width="5.7" height="0.8"/>
				</defs>
				<clipPath id="SVGID_292_">
					<use xlink:href="#SVGID_291_"  style="overflow:visible;"/>
				</clipPath>
				<g style="clip-path:url(#SVGID_292_);">
					
						<image style="overflow:visible;" width="25" height="5" xlink:href="DC82DF53F69F8607.jpg"  transform="matrix(0.24 0 0 0.24 541.68 699.6)">
					</image>
				</g>
			</g>
		</g>
	</g>
	<g>
		<defs>
			<polygon id="SVGID_293_" points="509.4,695.4 510.1,695.4 510.1,693.6 			"/>
		</defs>
		<clipPath id="SVGID_294_">
			<use xlink:href="#SVGID_293_"  style="overflow:visible;"/>
		</clipPath>
		<g class="st75">
			<g>
				<defs>
					<rect id="SVGID_295_" x="509.4" y="693.6" width="0.6" height="1.8"/>
				</defs>
				<clipPath id="SVGID_296_">
					<use xlink:href="#SVGID_295_"  style="overflow:visible;"/>
				</clipPath>
				<g style="clip-path:url(#SVGID_296_);">
					
						<image style="overflow:visible;" width="5" height="9" xlink:href="DC82DF53F69F8604.jpg"  transform="matrix(0.24 0 0 0.24 509.28 693.6)">
					</image>
				</g>
			</g>
		</g>
	</g>
	<g>
		<defs>
			<path id="SVGID_297_" d="M477.5,697.7c1.4,0.3,1.6,0,1.7-0.2c0.2-0.3,0.2-0.5,1.5-0.2c0.7-0.4-2.1-0.6-1.4-0.9
				C477.6,696.8,476.7,696.5,477.5,697.7"/>
		</defs>
		<clipPath id="SVGID_298_">
			<use xlink:href="#SVGID_297_"  style="overflow:visible;"/>
		</clipPath>
		<g class="st76">
			<g>
				<defs>
					<rect id="SVGID_299_" x="476.7" y="696.4" width="4.7" height="1.5"/>
				</defs>
				<clipPath id="SVGID_300_">
					<use xlink:href="#SVGID_299_"  style="overflow:visible;"/>
				</clipPath>
				<g style="clip-path:url(#SVGID_300_);">
					
						<image style="overflow:visible;" width="20" height="9" xlink:href="DC82DF53F69F861B.jpg"  transform="matrix(0.24 0 0 0.24 476.64 696.24)">
					</image>
				</g>
			</g>
		</g>
	</g>
	<g>
		<defs>
			<path id="SVGID_301_" d="M479.3,696.4c0.3-0.1,0.5-0.1,0.9-0.2C479.7,696.3,479.5,696.4,479.3,696.4"/>
		</defs>
		<clipPath id="SVGID_302_">
			<use xlink:href="#SVGID_301_"  style="overflow:visible;"/>
		</clipPath>
		<g class="st77">
			<g>
				<defs>
					<rect id="SVGID_303_" x="479.3" y="696.2" width="0.9" height="0.2"/>
				</defs>
				<clipPath id="SVGID_304_">
					<use xlink:href="#SVGID_303_"  style="overflow:visible;"/>
				</clipPath>
				<g style="clip-path:url(#SVGID_304_);">
					
						<image style="overflow:visible;" width="5" height="2" xlink:href="DC82DF53F69F861D.jpg"  transform="matrix(0.24 0 0 0.24 479.28 696)">
					</image>
				</g>
			</g>
		</g>
	</g>
	<g>
		<defs>
			<polygon id="SVGID_305_" points="118.4,706.3 119.6,706.7 120.3,706.4 			"/>
		</defs>
		<clipPath id="SVGID_306_">
			<use xlink:href="#SVGID_305_"  style="overflow:visible;"/>
		</clipPath>
		<g class="st78">
			<g>
				<defs>
					<rect id="SVGID_307_" x="118.4" y="706.3" width="1.9" height="0.4"/>
				</defs>
				<clipPath id="SVGID_308_">
					<use xlink:href="#SVGID_307_"  style="overflow:visible;"/>
				</clipPath>
				<g style="clip-path:url(#SVGID_308_);">
					
						<image style="overflow:visible;" width="9" height="4" xlink:href="DC82DF53F69F861F.jpg"  transform="matrix(0.24 0 0 0.24 118.32 706.08)">
					</image>
				</g>
			</g>
		</g>
	</g>
	<g>
		<defs>
			<path id="SVGID_309_" d="M115.4,708.4c0.4-0.1,1.2-0.3,1.5-0.1l-0.6-1.1L115.4,708.4z"/>
		</defs>
		<clipPath id="SVGID_310_">
			<use xlink:href="#SVGID_309_"  style="overflow:visible;"/>
		</clipPath>
		<g class="st79">
			<g>
				<defs>
					<rect id="SVGID_311_" x="115.4" y="707.2" width="1.5" height="1.2"/>
				</defs>
				<clipPath id="SVGID_312_">
					<use xlink:href="#SVGID_311_"  style="overflow:visible;"/>
				</clipPath>
				<g style="clip-path:url(#SVGID_312_);">
					
						<image style="overflow:visible;" width="9" height="6" xlink:href="DC82DF53F69F861C.jpg"  transform="matrix(0.24 0 0 0.24 115.2 707.04)">
					</image>
				</g>
			</g>
		</g>
	</g>
	<g>
		<defs>
			<path id="SVGID_313_" d="M364.9,697.1l1.4,0.6l0.1-0.3C366.2,697.1,365.8,697.1,364.9,697.1z"/>
		</defs>
		<clipPath id="SVGID_314_">
			<use xlink:href="#SVGID_313_"  style="overflow:visible;"/>
		</clipPath>
		<g class="st80">
			<g>
				<defs>
					<rect id="SVGID_315_" x="364.9" y="697.1" width="1.6" height="0.6"/>
				</defs>
				<clipPath id="SVGID_316_">
					<use xlink:href="#SVGID_315_"  style="overflow:visible;"/>
				</clipPath>
				<g style="clip-path:url(#SVGID_316_);">
					
						<image style="overflow:visible;" width="9" height="5" xlink:href="DC82DF53F69F8606.jpg"  transform="matrix(0.24 0 0 0.24 364.8 696.96)">
					</image>
				</g>
			</g>
		</g>
	</g>
	<g>
		<defs>
			<polygon id="SVGID_317_" points="341.2,696.3 341.6,697.3 342,697.3 			"/>
		</defs>
		<clipPath id="SVGID_318_">
			<use xlink:href="#SVGID_317_"  style="overflow:visible;"/>
		</clipPath>
		<g class="st81">
			<g>
				<defs>
					<rect id="SVGID_319_" x="341.2" y="696.3" width="0.8" height="1"/>
				</defs>
				<clipPath id="SVGID_320_">
					<use xlink:href="#SVGID_319_"  style="overflow:visible;"/>
				</clipPath>
				<g style="clip-path:url(#SVGID_320_);">
					
						<image style="overflow:visible;" width="5" height="5" xlink:href="DC82DF53F69F8620.jpg"  transform="matrix(0.24 0 0 0.24 341.04 696.24)">
					</image>
				</g>
			</g>
		</g>
	</g>
	<g>
		<defs>
			<path id="SVGID_321_" d="M323.6,699.2c-0.2,0-0.4,0-0.6,0C323.2,699.3,323.4,699.3,323.6,699.2
				C323.6,699.2,323.6,699.2,323.6,699.2 M320.9,699.5c0.4,0,0.9-0.1,1.3-0.1c0.2,0,0.5-0.1,0.7-0.1c-0.4,0-0.8-0.1-1.1-0.2
				c-0.3-0.1-0.6-0.2-0.8-0.2C320.9,698.9,320.8,699,320.9,699.5"/>
		</defs>
		<clipPath id="SVGID_322_">
			<use xlink:href="#SVGID_321_"  style="overflow:visible;"/>
		</clipPath>
		<g class="st82">
			<g>
				<defs>
					<rect id="SVGID_323_" x="320.8" y="698.9" width="2.8" height="0.6"/>
				</defs>
				<clipPath id="SVGID_324_">
					<use xlink:href="#SVGID_323_"  style="overflow:visible;"/>
				</clipPath>
				<g style="clip-path:url(#SVGID_324_);">
					
						<image style="overflow:visible;" width="13" height="4" xlink:href="DC82DF53F69F8623.jpg"  transform="matrix(0.24 0 0 0.24 320.64 698.88)">
					</image>
				</g>
			</g>
		</g>
	</g>
</g>
</svg>
