<?xml version="1.0" encoding="utf-8"?>
<!-- Generator: Adobe Illustrator 21.0.2, SVG Export Plug-In . SVG Version: 6.00 Build 0)  -->
<svg version="1.1" id="Capa_1" xmlns="http://www.w3.org/2000/svg" xmlns:xlink="http://www.w3.org/1999/xlink" x="0px" y="0px"
	 viewBox="0 0 800 800" style="enable-background:new 0 0 800 800;" xml:space="preserve">
<style type="text/css">
	.st0{fill:#E30F1C;}
	.st1{fill:#474747;}
	.st2{clip-path:url(#SVGID_2_);}
	.st3{clip-path:url(#SVGID_6_);}
	.st4{clip-path:url(#SVGID_10_);}
	.st5{clip-path:url(#SVGID_14_);}
	.st6{clip-path:url(#SVGID_18_);}
	.st7{clip-path:url(#SVGID_22_);}
	.st8{clip-path:url(#SVGID_26_);}
	.st9{clip-path:url(#SVGID_30_);}
	.st10{clip-path:url(#SVGID_34_);}
	.st11{clip-path:url(#SVGID_38_);}
	.st12{clip-path:url(#SVGID_42_);}
	.st13{clip-path:url(#SVGID_46_);}
	.st14{clip-path:url(#SVGID_50_);}
	.st15{clip-path:url(#SVGID_54_);}
	.st16{clip-path:url(#SVGID_58_);}
	.st17{clip-path:url(#SVGID_62_);}
	.st18{clip-path:url(#SVGID_66_);}
	.st19{clip-path:url(#SVGID_70_);}
	.st20{clip-path:url(#SVGID_74_);}
	.st21{clip-path:url(#SVGID_78_);}
	.st22{clip-path:url(#SVGID_82_);}
	.st23{clip-path:url(#SVGID_86_);}
	.st24{clip-path:url(#SVGID_90_);}
	.st25{clip-path:url(#SVGID_94_);}
	.st26{clip-path:url(#SVGID_98_);}
	.st27{clip-path:url(#SVGID_102_);}
	.st28{clip-path:url(#SVGID_106_);}
	.st29{clip-path:url(#SVGID_110_);}
	.st30{clip-path:url(#SVGID_114_);}
	.st31{clip-path:url(#SVGID_118_);}
	.st32{clip-path:url(#SVGID_122_);}
	.st33{clip-path:url(#SVGID_126_);}
	.st34{clip-path:url(#SVGID_130_);}
	.st35{clip-path:url(#SVGID_134_);}
	.st36{clip-path:url(#SVGID_138_);}
	.st37{clip-path:url(#SVGID_142_);}
	.st38{clip-path:url(#SVGID_146_);}
	.st39{clip-path:url(#SVGID_150_);}
	.st40{clip-path:url(#SVGID_154_);}
	.st41{clip-path:url(#SVGID_158_);}
	.st42{clip-path:url(#SVGID_162_);}
	.st43{clip-path:url(#SVGID_166_);}
	.st44{clip-path:url(#SVGID_170_);}
	.st45{clip-path:url(#SVGID_174_);}
	.st46{clip-path:url(#SVGID_178_);}
	.st47{clip-path:url(#SVGID_182_);}
	.st48{clip-path:url(#SVGID_186_);}
	.st49{clip-path:url(#SVGID_190_);}
	.st50{clip-path:url(#SVGID_194_);}
	.st51{clip-path:url(#SVGID_198_);}
	.st52{clip-path:url(#SVGID_202_);}
	.st53{clip-path:url(#SVGID_206_);}
	.st54{clip-path:url(#SVGID_210_);}
	.st55{clip-path:url(#SVGID_214_);}
	.st56{clip-path:url(#SVGID_218_);}
	.st57{clip-path:url(#SVGID_222_);}
	.st58{clip-path:url(#SVGID_226_);}
	.st59{clip-path:url(#SVGID_230_);}
	.st60{clip-path:url(#SVGID_234_);}
	.st61{clip-path:url(#SVGID_238_);}
	.st62{clip-path:url(#SVGID_242_);}
	.st63{clip-path:url(#SVGID_246_);}
	.st64{clip-path:url(#SVGID_250_);}
	.st65{clip-path:url(#SVGID_254_);}
	.st66{clip-path:url(#SVGID_258_);}
	.st67{clip-path:url(#SVGID_262_);}
	.st68{clip-path:url(#SVGID_266_);}
	.st69{clip-path:url(#SVGID_270_);}
	.st70{clip-path:url(#SVGID_274_);}
	.st71{clip-path:url(#SVGID_278_);}
	.st72{clip-path:url(#SVGID_282_);}
	.st73{clip-path:url(#SVGID_286_);}
	.st74{clip-path:url(#SVGID_290_);}
	.st75{clip-path:url(#SVGID_294_);}
	.st76{clip-path:url(#SVGID_298_);}
	.st77{clip-path:url(#SVGID_302_);}
	.st78{clip-path:url(#SVGID_306_);}
	.st79{clip-path:url(#SVGID_310_);}
	.st80{clip-path:url(#SVGID_314_);}
	.st81{clip-path:url(#SVGID_318_);}
	.st82{clip-path:url(#SVGID_322_);}
	.st83{fill:#FF8F10;}
	.st84{fill:#060D35;}
	.st85{fill:#51488B;}
	.st86{fill:#F8B1A1;}
	.st87{fill:#215A36;}
	.st88{fill:#F8B3A2;}
	.st89{fill:#FFFFFF;}
	.st90{fill:#EE4A7B;}
	.st91{fill:#EE4A7B;stroke:#EE4A7B;stroke-width:7;stroke-miterlimit:10;}
	.st92{fill:#EE4A7B;stroke:#EE4A7B;stroke-width:10;stroke-miterlimit:10;}
	.st93{fill:#EE4A7B;stroke:#EE4A7B;stroke-miterlimit:10;}
	.st94{fill:#E1E0E5;}
</style>
<g>
	<g>
		<g>
			<path class="st85" d="M126.9,625.8H82l-9,19.9H53.6l41-87.3h19.5l41.4,87.3H136L126.9,625.8z M120.8,612.5l-16.4-36l-16.3,36
				H120.8z"/>
			<path class="st85" d="M244.2,630.8v15h-65v-0.1h-10.9v-87.3h18v72.4H244.2z"/>
			<path class="st85" d="M388.6,558.4v87.3h-18v-55.6l-35.8,55.6h-20.1L279,590.3v55.4h-18v-87.3h18l45.7,71.7l45.9-71.7H388.6z"/>
			<path class="st85" d="M474.6,625.8h-44.9l-9,19.9h-19.4l41-87.3h19.5l41.4,87.3h-19.6L474.6,625.8z M468.5,612.5l-16.4-36
				l-16.3,36H468.5z"/>
			<path class="st85" d="M617.1,601.8c0,23.1-13.6,43.9-51.2,43.9h-50v-87.3h50C605.2,558.4,617.1,578.6,617.1,601.8z M598.8,601.8
				c0-14.8-7.5-27.8-33.3-27.8h-31.6v56.2h31.6C591.3,630.1,598.8,616.6,598.8,601.8z"/>
			<path class="st85" d="M695.4,625.8h-44.9l-9,19.9h-19.4l41-87.3h19.5l41.4,87.3h-19.6L695.4,625.8z M689.3,612.5l-16.4-36
				l-16.3,36H689.3z"/>
		</g>
	</g>
	<g>
		<path class="st86" d="M255.8,690.3l-0.4,1.1c-0.8,2.3-2.2,4.2-4.1,5.5c-1.9,1.3-4,2-6.4,2c-3.7,0-6.7-1.5-8.9-4.4
			c-2.1-2.7-3.1-6-3.1-9.9c0-4.2,1.1-7.9,3.2-10.9c2.3-3.3,5.3-5,9-5c0.7,0,2,0.2,4,0.6c0.8,0.2,1.4,0.3,1.6,0.2
			c0.9-0.1,1.5-0.2,1.7-0.3c0.2-0.1,0.6-0.2,1.3-0.5l2,8.8l-1.4,0.3l-0.5-0.9c-1.3-2.2-2.4-3.8-3.4-4.8c-1.4-1.4-3-2-4.8-2
			c-2.4,0-4.3,1.2-5.6,3.7c-1.2,2.1-1.8,4.7-1.8,7.6c0,3.6,0.7,6.8,2.2,9.4c1.7,3.1,4,4.6,6.9,4.6c1.5,0,2.9-0.4,4.1-1.2
			c1.2-0.8,2.1-2,2.8-3.4l0.4-1L255.8,690.3z"/>
		<path class="st86" d="M274.1,698.4h-10.9V697l2.6-0.3v-25.7l-2.6-0.3v-1.4h10.9v1.4l-2.9,0.3v25.7l2.9,0.3V698.4z"/>
		<path class="st86" d="M307.1,670.7c-0.4,0-0.8,0.1-1.2,0.2s-0.8,0.3-1,0.5c-0.5,0.4-0.8,0.9-1,1.4c-0.1,0.5-0.2,1.2-0.2,2v15
			c0,2.8-0.7,5-2.2,6.6c-1.7,1.8-4.1,2.7-7.5,2.7c-3.3,0-5.9-0.8-7.6-2.3c-1.8-1.5-2.7-3.6-2.7-6.3v-19.5l-2.4-0.3v-1.4h10.4v1.4
			l-2.6,0.3v18.4c0,2.2,0.4,4,1.3,5.3c1.1,1.6,2.8,2.4,5.1,2.4c2.1,0,3.7-0.7,4.8-2c0.9-1.2,1.4-2.8,1.4-4.8v-15.5
			c0-0.8-0.1-1.4-0.2-1.8c-0.1-0.4-0.4-0.9-0.9-1.3c-0.2-0.2-0.6-0.5-1.1-0.6c-0.5-0.2-1-0.3-1.3-0.3v-1.4h8.9V670.7z"/>
		<path class="st86" d="M339.6,683.7c0,4.4-1.3,8-4,10.7c-2.6,2.6-5.8,3.9-9.8,3.9h-11.6V697l2.5-0.3v-25.7l-2.5-0.3v-1.4h8.8h3.5
			c3.1,0,5.9,1.1,8.4,3.2C338,675.2,339.6,678.9,339.6,683.7z M334.1,683.5c0-4.6-0.9-7.9-2.6-10.1c-1.5-1.9-3.6-2.8-6.4-2.8
			c-0.6,0-1.4,0.1-2.5,0.2c-0.2,0-0.4,0-0.7,0.1v25.7h4.1c2.8,0,4.9-1.3,6.3-3.8C333.5,690.6,334.1,687.5,334.1,683.5z"/>
		<path class="st86" d="M374.2,698.4h-10.1V697l2.7-0.3l-2.5-7.3h-9.8l-1.2,4c-0.2,0.5-0.3,0.9-0.3,1.4c0,0.4,0.1,0.7,0.2,1
			c0.1,0.3,0.3,0.5,0.6,0.7c0.3,0.2,0.8,0.3,1.6,0.4c0.1,0,0.3,0,0.5,0.1v1.4h-8.6V697c0.7-0.1,1.4-0.3,2-0.7c0.6-0.4,1-0.8,1.3-1.2
			c0.3-0.4,0.5-0.9,0.7-1.6l7-21.8l-1-2.2l5.6-0.5l9.4,27.7l1.9,0.3V698.4z M363.7,687.4l-4.3-13.2l-4.2,13.2H363.7z"/>
		<path class="st86" d="M406.6,683.7c0,4.4-1.3,8-4,10.7c-2.6,2.6-5.8,3.9-9.8,3.9h-11.6V697l2.5-0.3v-25.7l-2.5-0.3v-1.4h8.8h3.5
			c3.1,0,5.9,1.1,8.4,3.2C405,675.2,406.6,678.9,406.6,683.7z M401.1,683.5c0-4.6-0.9-7.9-2.6-10.1c-1.5-1.9-3.6-2.8-6.4-2.8
			c-0.6,0-1.4,0.1-2.5,0.2c-0.2,0-0.4,0-0.7,0.1v25.7h4.1c2.8,0,4.9-1.3,6.3-3.8C400.5,690.6,401.1,687.5,401.1,683.5z"/>
		<path class="st86" d="M454.3,670.7c-0.5,0-0.9,0-1.1,0.1c-0.2,0.1-0.6,0.2-1.1,0.5c-0.5,0.3-0.8,0.6-1.1,1c-0.3,0.4-0.5,1-0.7,1.7
			l-6.9,21.7l1,2.5l-5.7,0.4l-9.2-27.6l-1.9-0.3v-1.4h10v1.4l-2.4,0.3l7.1,21.9l5.9-18.6c0.1-0.3,0.2-0.7,0.2-1.1c0-1-0.3-1.7-1-2
			c-0.3-0.2-0.6-0.3-1-0.3c-0.4,0-0.8-0.1-1.2-0.1v-1.4h9V670.7z"/>
		<path class="st86" d="M472.2,698.4h-10.9V697l2.6-0.3v-25.7l-2.6-0.3v-1.4h10.9v1.4l-2.9,0.3v25.7l2.9,0.3V698.4z"/>
		<path class="st86" d="M505.7,670.7c-0.5,0-0.9,0-1.1,0.1c-0.2,0.1-0.6,0.2-1.1,0.5c-0.5,0.3-0.8,0.6-1.1,1c-0.3,0.4-0.5,1-0.7,1.7
			l-6.9,21.7l1,2.5l-5.7,0.4l-9.2-27.6l-1.9-0.3v-1.4h10v1.4l-2.4,0.3l7.1,21.9l5.9-18.6c0.1-0.3,0.2-0.7,0.2-1.1c0-1-0.3-1.7-1-2
			c-0.3-0.2-0.6-0.3-1-0.3c-0.4,0-0.8-0.1-1.2-0.1v-1.4h9V670.7z"/>
		<path class="st86" d="M539.7,698.4h-10.1V697l2.7-0.3l-2.5-7.3h-9.8l-1.2,4c-0.2,0.5-0.3,0.9-0.3,1.4c0,0.4,0.1,0.7,0.2,1
			c0.1,0.3,0.3,0.5,0.6,0.7c0.3,0.2,0.8,0.3,1.6,0.4c0.1,0,0.3,0,0.5,0.1v1.4h-8.6V697c0.7-0.1,1.4-0.3,2-0.7c0.6-0.4,1-0.8,1.3-1.2
			c0.3-0.4,0.5-0.9,0.7-1.6l7-21.8l-1-2.2l5.6-0.5l9.4,27.7l1.9,0.3V698.4z M529.2,687.4l-4.3-13.2l-4.2,13.2H529.2z"/>
	</g>
	<g>
		<g>
			<path class="st85" d="M180.1,513.6c-0.5-0.7-1.2-1.2-2-1.5c-0.8-0.4-1.7-0.5-2.7-0.5c-1,0-2,0.2-2.9,0.6c-0.9,0.4-1.7,1-2.3,1.7
				c-0.6,0.7-1.2,1.6-1.5,2.6c-0.4,1-0.5,2.1-0.5,3.2c0,1.2,0.2,2.3,0.5,3.2c0.4,1,0.9,1.8,1.5,2.5c0.6,0.7,1.4,1.3,2.2,1.7
				c0.9,0.4,1.8,0.6,2.8,0.6c1.1,0,2.1-0.2,3-0.7c0.9-0.5,1.6-1.1,2.2-2l4.6,3.4c-1.1,1.5-2.4,2.6-4,3.3c-1.6,0.7-3.3,1.1-5,1.1
				c-2,0-3.8-0.3-5.4-0.9c-1.7-0.6-3.1-1.5-4.3-2.6c-1.2-1.1-2.1-2.5-2.8-4.2c-0.7-1.6-1-3.4-1-5.5c0-2,0.3-3.8,1-5.5
				c0.7-1.6,1.6-3,2.8-4.2c1.2-1.1,2.6-2,4.3-2.6c1.7-0.6,3.5-0.9,5.4-0.9c0.7,0,1.4,0.1,2.2,0.2c0.8,0.1,1.5,0.3,2.3,0.6
				c0.7,0.3,1.5,0.7,2.1,1.1c0.7,0.5,1.3,1,1.8,1.7L180.1,513.6z"/>
			<path class="st85" d="M188.1,507.1h17v5.1h-11.5v4.7h10.9v5.1h-10.9v5.1h12.1v5.1h-17.7V507.1z"/>
			<path class="st85" d="M210.2,507.1h9.7c1.3,0,2.5,0.1,3.6,0.4c1.1,0.2,2.1,0.7,3,1.2c0.9,0.6,1.5,1.4,2.1,2.3
				c0.5,1,0.8,2.2,0.8,3.7c0,1.8-0.5,3.3-1.4,4.5c-0.9,1.2-2.3,2-4,2.4l6.4,10.6h-6.6l-5.2-10h-2.7v10h-5.5V507.1z M215.8,517.5h3.3
				c0.5,0,1,0,1.6-0.1c0.6,0,1.1-0.1,1.5-0.3c0.4-0.2,0.8-0.5,1.1-0.8c0.3-0.4,0.4-0.9,0.4-1.6c0-0.6-0.1-1.1-0.4-1.5
				c-0.3-0.4-0.6-0.7-1-0.9c-0.4-0.2-0.9-0.3-1.4-0.4c-0.5-0.1-1-0.1-1.5-0.1h-3.6V517.5z"/>
			<path class="st85" d="M233.2,507.1h9.7c1.3,0,2.5,0.1,3.6,0.4c1.1,0.2,2.1,0.7,3,1.2c0.9,0.6,1.5,1.4,2.1,2.3
				c0.5,1,0.8,2.2,0.8,3.7c0,1.8-0.5,3.3-1.4,4.5c-0.9,1.2-2.3,2-4,2.4l6.4,10.6h-6.6l-5.2-10h-2.7v10h-5.5V507.1z M238.7,517.5h3.3
				c0.5,0,1,0,1.6-0.1c0.6,0,1.1-0.1,1.5-0.3c0.4-0.2,0.8-0.5,1.1-0.8c0.3-0.4,0.4-0.9,0.4-1.6c0-0.6-0.1-1.1-0.4-1.5
				s-0.6-0.7-1-0.9c-0.4-0.2-0.9-0.3-1.4-0.4c-0.5-0.1-1-0.1-1.5-0.1h-3.6V517.5z"/>
			<path class="st85" d="M264.4,507.1h4.6l10.9,25.1h-6.2l-2.2-5.3h-9.7l-2.1,5.3h-6.1L264.4,507.1z M266.5,514.4l-3,7.8h6.1
				L266.5,514.4z"/>
			<path class="st85" d="M282.3,507.1h8.3c2,0,3.9,0.2,5.7,0.7c1.8,0.4,3.4,1.2,4.7,2.2c1.3,1,2.4,2.3,3.2,3.9
				c0.8,1.6,1.2,3.6,1.2,5.8c0,2-0.4,3.8-1.2,5.4c-0.8,1.5-1.8,2.8-3.1,3.9c-1.3,1-2.8,1.8-4.5,2.4c-1.7,0.5-3.5,0.8-5.3,0.8h-9
				V507.1z M287.9,527h2.9c1.3,0,2.5-0.1,3.6-0.4c1.1-0.3,2-0.7,2.8-1.3c0.8-0.6,1.4-1.4,1.9-2.4c0.5-1,0.7-2.2,0.7-3.6
				c0-1.2-0.2-2.3-0.7-3.2c-0.5-0.9-1.1-1.7-1.9-2.2c-0.8-0.6-1.7-1-2.7-1.3c-1-0.3-2.2-0.4-3.3-0.4h-3.3V527z"/>
			<path class="st85" d="M317.5,507.1h4.6l10.9,25.1h-6.2l-2.2-5.3h-9.7l-2.1,5.3h-6.1L317.5,507.1z M319.6,514.4l-3,7.8h6.1
				L319.6,514.4z"/>
			<path class="st85" d="M345.9,507.1h5.5v9.3h10.7v-9.3h5.5v25.1h-5.5v-10.8h-10.7v10.8h-5.5V507.1z"/>
			<path class="st85" d="M381,507.1h4.6l10.9,25.1h-6.2l-2.2-5.3h-9.7l-2.1,5.3h-6.1L381,507.1z M383.2,514.4l-3,7.8h6.1
				L383.2,514.4z"/>
			<path class="st85" d="M399,507.1h9.3c1.1,0,2.2,0.1,3.3,0.2c1.1,0.2,2.1,0.5,3,0.9s1.6,1.1,2.1,1.9c0.5,0.8,0.8,1.9,0.8,3.3
				c0,1.4-0.4,2.6-1.2,3.5c-0.8,0.9-1.8,1.6-3.1,2v0.1c0.8,0.1,1.6,0.3,2.2,0.7c0.7,0.3,1.3,0.8,1.7,1.3s0.9,1.2,1.1,1.9
				c0.3,0.7,0.4,1.5,0.4,2.3c0,1.3-0.3,2.4-0.8,3.3c-0.6,0.9-1.3,1.6-2.2,2.1c-0.9,0.5-1.9,0.9-3,1.2c-1.1,0.2-2.2,0.4-3.3,0.4H399
				V507.1z M404.6,517.1h4c0.4,0,0.8,0,1.3-0.1c0.4-0.1,0.8-0.2,1.1-0.5c0.3-0.2,0.6-0.5,0.8-0.8c0.2-0.4,0.3-0.8,0.3-1.3
				c0-0.5-0.1-0.9-0.3-1.3c-0.2-0.3-0.5-0.6-0.9-0.8c-0.4-0.2-0.8-0.3-1.2-0.4c-0.4-0.1-0.9-0.1-1.3-0.1h-3.8V517.1z M404.6,527.5h5
				c0.4,0,0.9,0,1.3-0.1c0.4-0.1,0.8-0.3,1.2-0.5c0.4-0.2,0.6-0.5,0.9-0.9c0.2-0.4,0.3-0.8,0.3-1.4c0-0.6-0.1-1.1-0.4-1.4
				c-0.3-0.4-0.7-0.6-1.1-0.8c-0.4-0.2-0.9-0.3-1.5-0.4c-0.5-0.1-1-0.1-1.5-0.1h-4.2V527.5z"/>
			<path class="st85" d="M421.9,507.1h5.5v25.1h-5.5V507.1z"/>
			<path class="st85" d="M437.3,512h-7.2v-4.9H450v4.9h-7.2v20.2h-5.5V512z"/>
			<path class="st85" d="M457.8,507.1h4.6l10.9,25.1H467l-2.2-5.3h-9.7l-2.1,5.3h-6.1L457.8,507.1z M459.9,514.4l-3,7.8h6.1
				L459.9,514.4z"/>
			<path class="st85" d="M492.1,513.6c-0.5-0.7-1.2-1.2-2-1.5c-0.8-0.4-1.7-0.5-2.7-0.5c-1,0-2,0.2-2.9,0.6c-0.9,0.4-1.7,1-2.3,1.7
				c-0.6,0.7-1.2,1.6-1.5,2.6c-0.4,1-0.5,2.1-0.5,3.2c0,1.2,0.2,2.3,0.5,3.2c0.4,1,0.9,1.8,1.5,2.5c0.6,0.7,1.4,1.3,2.2,1.7
				c0.9,0.4,1.8,0.6,2.8,0.6c1.1,0,2.1-0.2,3-0.7c0.9-0.5,1.6-1.1,2.2-2l4.6,3.4c-1.1,1.5-2.4,2.6-4,3.3c-1.6,0.7-3.3,1.1-5,1.1
				c-2,0-3.8-0.3-5.4-0.9c-1.7-0.6-3.1-1.5-4.3-2.6c-1.2-1.1-2.1-2.5-2.8-4.2c-0.7-1.6-1-3.4-1-5.5c0-2,0.3-3.8,1-5.5
				c0.7-1.6,1.6-3,2.8-4.2c1.2-1.1,2.6-2,4.3-2.6c1.7-0.6,3.5-0.9,5.4-0.9c0.7,0,1.4,0.1,2.2,0.2c0.8,0.1,1.5,0.3,2.3,0.6
				c0.7,0.3,1.5,0.7,2.1,1.1c0.7,0.5,1.3,1,1.8,1.7L492.1,513.6z"/>
			<path class="st85" d="M499.9,507.1h5.5v25.1h-5.5V507.1z"/>
			<path class="st85" d="M509.1,519.6c0-2,0.3-3.8,1-5.5c0.7-1.6,1.6-3,2.8-4.2c1.2-1.1,2.6-2,4.3-2.6c1.7-0.6,3.5-0.9,5.4-0.9
				c2,0,3.8,0.3,5.4,0.9c1.7,0.6,3.1,1.5,4.3,2.6c1.2,1.1,2.1,2.5,2.8,4.2c0.7,1.6,1,3.4,1,5.5c0,2-0.3,3.8-1,5.5
				c-0.7,1.6-1.6,3-2.8,4.2c-1.2,1.1-2.6,2-4.3,2.6c-1.7,0.6-3.5,0.9-5.4,0.9c-2,0-3.8-0.3-5.4-0.9c-1.7-0.6-3.1-1.5-4.3-2.6
				c-1.2-1.1-2.1-2.5-2.8-4.2C509.5,523.4,509.1,521.6,509.1,519.6z M514.9,519.6c0,1.2,0.2,2.3,0.5,3.2c0.4,1,0.9,1.8,1.6,2.5
				c0.7,0.7,1.5,1.3,2.5,1.7c1,0.4,2,0.6,3.2,0.6c1.2,0,2.2-0.2,3.2-0.6c1-0.4,1.8-1,2.5-1.7c0.7-0.7,1.2-1.6,1.6-2.5
				c0.4-1,0.6-2.1,0.6-3.2c0-1.2-0.2-2.2-0.6-3.2c-0.4-1-0.9-1.8-1.6-2.6c-0.7-0.7-1.5-1.3-2.5-1.7c-1-0.4-2-0.6-3.2-0.6
				c-1.2,0-2.2,0.2-3.2,0.6c-1,0.4-1.8,1-2.5,1.7c-0.7,0.7-1.2,1.6-1.6,2.6C515,517.4,514.9,518.5,514.9,519.6z"/>
			<path class="st85" d="M539.9,507.1h7.5l10.7,17.4h0.1v-17.4h5.5v25.1h-7.2l-10.9-17.8h-0.1v17.8h-5.5V507.1z"/>
			<path class="st85" d="M577,507.1h4.6l10.9,25.1h-6.2l-2.2-5.3h-9.7l-2.1,5.3h-6.1L577,507.1z M579.2,514.4l-3,7.8h6.1
				L579.2,514.4z"/>
			<path class="st85" d="M595.2,507.1h5.5v20H611v5.1h-15.8V507.1z"/>
		</g>
	</g>
	<g>
		<g>
			<g>
				<path class="st85" d="M291.4,424.4L291.4,424.4c17.5,31.6,49.1,41.2,78.1,43.5c34.3,2.8,71.9-3.2,96.4-36
					c11.3-15,18.9-34.6,24.5-54.7c11.8-41.8,15.3-174.7-2.4-212.4c-8.5-18.2-21.3-32.1-35.3-42.4c-44.5-32.8-95.4-26.5-136.6,12
					c-28,26.1-33.3,58-37,102C276.3,272.1,274.6,394.1,291.4,424.4z"/>
			</g>
		</g>
		<g>
			<path class="st86" d="M476.7,272.5c-1-1.1-2.5-1.7-4-1.6l-15.5,0.8c0.8-2.6,1.4-5.3,2.1-7.9c0.5-2,1-4.1,1.6-6.1
				c1.4-5.2,2.6-10.3,3.5-15.2c0.3-1.5-0.2-3.1-1.2-4.3s-2.6-1.8-4.1-1.7l-23.4,1.3c0.1-0.5,0.2-1.1,0.3-1.6
				c0.3-1.8,0.6-3.7,0.9-5.5c0.8-4.7,1.5-9.3,2-13.8c0.2-1.5-0.3-2.9-1.3-4c-1-1.1-2.5-1.7-3.9-1.6l-21.1,1.1
				c-0.7-2.8-1.9-5.1-3.8-7c-2.8-2.8-6.4-4.6-11.1-5.4c-0.2,0-0.4-0.1-0.5-0.1c-0.9-0.1-1.8-0.2-2.7-0.3c-0.8-0.1-1.6-0.2-2.4-0.3
				c-2-0.2-4.1-0.3-6.1-0.2c-2.8,0.1-5.7,0.5-8.5,1.1c-2.4,0.5-5.5,1.2-8.2,3.2c-1.6,1.2-3,2.7-4.2,4.4c-0.5,0.8-1,1.7-1.4,2.6
				l-0.2,0.4c-0.2,0.5-0.6,1.2-0.8,2c-0.1,0.3-0.1,0.6-0.2,0.9c-7.5-0.4-14.1-1.3-20.3-2.8c-1.5-0.4-3.1,0-4.4,1
				c-1.2,1-1.9,2.5-1.9,4.1c0.2,9.5,1.2,17.6,3,24.8c-7-0.4-13.7-1.1-19.9-2.1c-1.5-0.2-3,0.2-4.1,1.2s-1.8,2.4-1.7,3.9
				c0.1,8.3,0.8,19.2,5,30.3c-4.2-0.5-8.3-1.2-12.4-1.9c-1.5-0.3-3,0.1-4.2,1.1c-1.2,1-1.8,2.4-1.8,4c0.3,17,2.5,42.2,17.6,64
				c14.7,21.1,37.8,32.7,65.1,32.9l1.1,0c35.2,0,60.9-11.2,76.4-33.3c7.1-10.1,9.8-22.9,12.4-35.1c0.6-2.8,1.2-5.6,1.8-8.4
				c1.6-7,2.9-14,3.9-20.7C478.2,275.1,477.7,273.6,476.7,272.5z M464.2,295c-0.7,2.8-1.3,5.7-1.9,8.6c-2.5,11.8-4.8,23-10.7,31.4
				c-13.5,19.2-36.4,29-68.2,29l-1,0c-23.9-0.2-44.1-10.3-56.8-28.6c-9.6-13.8-14.5-30.1-15.6-52.3c4.3,0.7,8.7,1.2,13.2,1.7
				c1.3,2.2,2.8,4.4,4.5,6.5c12.3,15.4,31.6,23.8,54.6,23.8h0.3c30.1-0.1,52.2-8.6,65.7-25.1c2-2.5,3.7-5.2,5-8l13.6-0.7
				C466.2,285.8,465.2,290.4,464.2,295z M346.2,222.1c4.8,0.8,9.9,1.4,15.4,1.7c0,0.3,0,0.7,0,1.2c0.1,0.8,0.2,1.6,0.3,2.4l0.1,0.3
				c1.5,8.7,7,12,11.4,13.2c5.1,1.4,9.8,2.1,14.4,2.1c2,0,4-0.1,5.9-0.4c4.8-0.6,8.9-2.6,12.2-5.7c3.3-3.2,5.5-7,6.3-11.5
				c0.2-1,0.4-2,0.5-3l15.3-0.8c-0.3,2.4-0.7,4.8-1.2,7.2c-0.3,1.9-0.7,3.8-1,5.7c-1.3,7.7-2.4,15-5.5,20.3
				c-6.9,11.8-18.1,17.6-34.4,17.6c-0.5,0-1,0-1.5,0c-8.7-0.2-21-3.5-29.7-18.4C349.8,245.5,347.1,235.5,346.2,222.1z M372.2,215.7
				c0.1-0.2,0.1-0.3,0.2-0.5c0.1-0.3,0.3-0.6,0.4-0.9c0.2-0.4,0.3-0.7,0.6-1c0.4-0.7,1-1.3,1.7-1.8c1-0.7,2.6-1.1,4.5-1.5
				c2.2-0.5,4.5-0.8,6.7-0.9c0.4,0,0.8,0,1.2,0c1.2,0,2.4,0.1,3.6,0.2c0.7,0.1,1.3,0.2,2,0.3c1.1,0.2,2.1,0.3,3.2,0.4
				c2.4,0.4,4.1,1.2,5.4,2.5c0.9,0.9,1.3,2.1,1.5,4.1c0.2,2.1-0.1,4.2-0.7,6.8c-0.5,2.4-1.6,4.4-3.4,6.1c-1.7,1.6-3.9,2.6-6.5,3
				c-5.1,0.7-10.3,0.2-16.3-1.4c-2-0.6-3.5-1.7-4.2-5.2l-0.1-0.3c-0.1-0.5-0.2-0.9-0.2-1.4c0.1-0.6,0.1-1.1,0.1-1.7
				c-0.1-1.6-0.1-3,0-4.2C371.8,217.3,371.9,216.4,372.2,215.7z M346.2,259.2c8.6,14.7,22.2,23,38.2,23.4c0.6,0,1.1,0,1.7,0
				c19.9,0,34.4-7.6,43.1-22.6c2.1-3.6,3.5-7.6,4.5-11.9l19.4-1.1c-0.6,2.6-1.3,5.3-2,8c-0.6,2.1-1.1,4.2-1.6,6.3
				c-2.1,8.4-4.1,16.4-9,22.4c-11.5,14.1-30.9,21.3-57.9,21.4h-0.3c-19.8,0-36.4-7.1-46.7-20c-7.5-9.4-11.4-20.5-12.3-35.5
				c6,0.7,12.2,1.2,18.8,1.6C343.3,253.9,344.6,256.6,346.2,259.2z"/>
		</g>
	</g>
</g>
</svg>
