<?xml version="1.0" encoding="utf-8"?>
<!-- Generator: Adobe Illustrator 24.0.2, SVG Export Plug-In . SVG Version: 6.00 Build 0)  -->
<svg version="1.1" id="Capa_1" xmlns="http://www.w3.org/2000/svg" xmlns:xlink="http://www.w3.org/1999/xlink" x="0px" y="0px"
	 viewBox="0 0 1070.04 835" style="enable-background:new 0 0 1070.04 835;" xml:space="preserve">
<style type="text/css">
	.st0{fill:#C1CEC5;}
	.st1{fill:#F8B3A2;}
	.st2{fill:#FFFFFF;}
</style>
<g>
	<g>
		<path class="st0" d="M158.63,595.28v97.69h-20.1v-62.22l-40.02,62.22H76.05l-40.02-62v62h-20.1v-97.69h20.1l51.16,80.25
			l51.33-80.25H158.63z"/>
		<path class="st0" d="M204.79,595.28v97.69h-20.1v-97.69H204.79z"/>
		<path class="st0" d="M332.47,669.69v23.28h-20.04l-0.07-21.87c-0.03-11.14-8.65-14.14-24.51-14.14h-36.92v36.01h-20.1v-97.69
			h66.28c22.56,0,37.47,9.03,37.47,29.59c0,16.52-10.64,23.24-24.63,25.57C325.18,651.66,332.47,655.87,332.47,669.69z
			 M297.12,641.08c10.2,0,17.29-5.66,17.37-15.03c0.07-8.92-7.11-13.34-17.37-13.34h-46.17v28.37H297.12z"/>
		<path class="st0" d="M428.5,670.73h-50.19l-10.09,22.24h-21.7l45.88-97.69h21.84l46.28,97.69h-21.9L428.5,670.73z M421.69,655.76
			l-18.32-40.22l-18.25,40.22H421.69z"/>
		<path class="st0" d="M566.13,595.28l-42.73,97.69h-25.15l-43.12-97.69h22.23l33.46,80.16l33.46-80.16H566.13z"/>
		<path class="st0" d="M676.29,676.21v16.76h-95.52v-97.69h95.32v16.76h-75.22v25.99h61.54v12.5h-61.54v25.68H676.29z"/>
		<path class="st0" d="M798.55,669.69v23.28h-20.04l-0.07-21.87c-0.03-11.14-8.65-14.14-24.51-14.14h-36.92v36.01h-20.1v-97.69
			h66.28c22.56,0,37.47,9.03,37.47,29.59c0,16.52-10.64,23.24-24.63,25.57C791.25,651.66,798.55,655.87,798.55,669.69z
			 M763.19,641.08c10.2,0,17.29-5.66,17.37-15.03c0.07-8.92-7.11-13.34-17.37-13.34h-46.17v28.37H763.19z"/>
		<path class="st0" d="M934.79,643.81c0,25.89-15.25,49.16-57.25,49.16h-55.88v-97.69h55.88
			C921.52,595.28,934.79,617.92,934.79,643.81z M914.32,643.81c0-16.54-8.37-31.1-37.25-31.1h-35.31v62.82h35.31
			C905.95,675.53,914.32,660.36,914.32,643.81z"/>
		<path class="st0" d="M1049.94,676.21v16.76h-95.52v-97.69h95.32v16.76h-75.22v25.99h61.54v12.5h-61.54v25.68H1049.94z"/>
	</g>
	<g>
		<g>
			<path class="st0" d="M287.47,537.88h10.41c1.45,0,2.83,0.13,4.12,0.4c1.29,0.27,2.43,0.72,3.38,1.36
				c0.97,0.65,1.73,1.52,2.3,2.62c0.57,1.09,0.85,2.47,0.85,4.14c0,1.64-0.27,3.01-0.79,4.12c-0.53,1.11-1.25,1.99-2.18,2.65
				c-0.92,0.66-2.01,1.14-3.28,1.41c-1.27,0.28-2.64,0.42-4.12,0.42h-4.51v10.93h-6.18V537.88z M293.65,549.76h4.11
				c0.55,0,1.09-0.05,1.61-0.15s0.97-0.28,1.39-0.54c0.41-0.24,0.74-0.59,0.99-1.02c0.25-0.43,0.38-0.99,0.38-1.64
				c0-0.72-0.16-1.29-0.49-1.73c-0.33-0.43-0.75-0.77-1.27-1.01c-0.52-0.24-1.09-0.38-1.73-0.45c-0.63-0.07-1.24-0.1-1.82-0.1h-3.16
				V549.76z"/>
			<path class="st0" d="M312.42,537.88h10.84c1.43,0,2.78,0.14,4.06,0.41c1.28,0.28,2.4,0.74,3.37,1.39
				c0.96,0.65,1.73,1.52,2.29,2.62s0.86,2.46,0.86,4.1c0,1.98-0.52,3.66-1.55,5.05c-1.03,1.39-2.54,2.26-4.51,2.63l7.13,11.84h-7.41
				l-5.86-11.21h-3.04v11.21h-6.18V537.88z M318.6,549.49h3.64c0.55,0,1.14-0.02,1.76-0.06c0.62-0.04,1.18-0.16,1.68-0.36
				c0.5-0.19,0.92-0.5,1.25-0.93c0.33-0.42,0.49-1.02,0.49-1.78c0-0.72-0.14-1.28-0.43-1.7c-0.29-0.43-0.66-0.75-1.11-0.97
				c-0.45-0.22-0.97-0.38-1.54-0.46c-0.58-0.08-1.15-0.12-1.7-0.12h-4.04V549.49z"/>
			<path class="st0" d="M338,537.88h6.18v28.04H338V537.88z"/>
			<path class="st0" d="M347.03,537.88h7.05l6.93,18.37h0.08l7.05-18.37h6.61l-11.57,28.04h-4.95L347.03,537.88z"/>
			<path class="st0" d="M384.72,537.88h5.11l12.2,28.04h-6.97l-2.41-5.94h-10.9l-2.34,5.94h-6.8L384.72,537.88z M387.1,546.05
				l-3.41,8.71h6.85L387.1,546.05z"/>
			<path class="st0" d="M404.85,537.88h9.27c2.24,0,4.37,0.25,6.39,0.75c2.02,0.5,3.78,1.31,5.29,2.43c1.5,1.13,2.7,2.59,3.58,4.38
				c0.88,1.8,1.33,3.97,1.33,6.53c0,2.27-0.43,4.28-1.28,6c-0.86,1.73-2.01,3.18-3.46,4.36s-3.13,2.06-5.03,2.67
				c-1.9,0.61-3.9,0.91-5.99,0.91h-10.09V537.88z M411.02,560.22h3.21c1.42,0,2.75-0.15,3.98-0.44c1.22-0.29,2.29-0.77,3.18-1.44
				c0.9-0.67,1.6-1.56,2.12-2.65c0.52-1.1,0.77-2.44,0.77-4.03c0-1.37-0.26-2.57-0.77-3.58c-0.52-1.02-1.21-1.85-2.08-2.51
				c-0.87-0.66-1.89-1.15-3.07-1.48c-1.17-0.33-2.41-0.49-3.7-0.49h-3.64V560.22z"/>
			<path class="st0" d="M444.12,537.88h5.11l12.2,28.04h-6.97l-2.41-5.94h-10.9l-2.34,5.94h-6.8L444.12,537.88z M446.5,546.05
				l-3.41,8.71h6.85L446.5,546.05z"/>
			<path class="st0" d="M475.96,537.88h6.18v10.45h11.99v-10.45h6.18v28.04h-6.18V553.8h-11.99v12.12h-6.18V537.88z"/>
			<path class="st0" d="M515.24,537.88h5.11l12.2,28.04h-6.97l-2.41-5.94h-10.9l-2.34,5.94h-6.8L515.24,537.88z M517.62,546.05
				l-3.41,8.71h6.85L517.62,546.05z"/>
			<path class="st0" d="M535.36,537.88h10.45c1.21,0,2.43,0.09,3.66,0.26c1.22,0.17,2.33,0.52,3.3,1.03
				c0.98,0.51,1.77,1.23,2.37,2.15c0.61,0.93,0.91,2.15,0.91,3.69c0,1.59-0.44,2.9-1.33,3.94c-0.88,1.05-2.05,1.79-3.5,2.24v0.08
				c0.92,0.13,1.76,0.38,2.51,0.77c0.75,0.38,1.39,0.88,1.94,1.47c0.54,0.6,0.96,1.29,1.25,2.08c0.29,0.8,0.43,1.64,0.43,2.54
				c0,1.47-0.32,2.71-0.95,3.7c-0.63,0.99-1.45,1.79-2.45,2.4c-1,0.6-2.13,1.05-3.38,1.3c-1.25,0.27-2.5,0.4-3.75,0.4h-11.48V537.88
				z M541.54,549.09h4.47c0.47,0,0.94-0.05,1.4-0.15c0.46-0.11,0.88-0.28,1.25-0.52c0.37-0.24,0.66-0.55,0.88-0.95
				c0.23-0.4,0.34-0.87,0.34-1.42c0-0.58-0.13-1.07-0.38-1.45c-0.25-0.38-0.58-0.69-0.97-0.89c-0.39-0.21-0.84-0.37-1.34-0.46
				c-0.5-0.1-1-0.14-1.47-0.14h-4.19V549.09z M541.54,560.69h5.54c0.47,0,0.95-0.05,1.45-0.16c0.49-0.1,0.93-0.29,1.33-0.55
				c0.39-0.26,0.72-0.6,0.97-1.02c0.25-0.43,0.38-0.94,0.38-1.55c0-0.66-0.16-1.19-0.49-1.6c-0.33-0.41-0.74-0.72-1.25-0.94
				c-0.5-0.21-1.05-0.35-1.62-0.43c-0.58-0.07-1.13-0.12-1.63-0.12h-4.67V560.69z"/>
			<path class="st0" d="M560.94,537.88h6.18v28.04h-6.18V537.88z"/>
			<path class="st0" d="M578.17,543.35h-8v-5.46h22.18v5.46h-8v22.57h-6.18V543.35z"/>
			<path class="st0" d="M601.05,537.88h5.11l12.2,28.04h-6.97l-2.41-5.94h-10.9l-2.34,5.94h-6.8L601.05,537.88z M603.43,546.05
				l-3.41,8.71h6.85L603.43,546.05z"/>
			<path class="st0" d="M639.51,545.17c-0.61-0.74-1.36-1.3-2.24-1.7c-0.88-0.39-1.91-0.59-3.07-0.59c-1.16,0-2.24,0.22-3.23,0.67
				s-1.85,1.08-2.57,1.88c-0.73,0.81-1.29,1.76-1.7,2.88c-0.41,1.11-0.61,2.31-0.61,3.61c0,1.32,0.2,2.52,0.61,3.62
				c0.41,1.1,0.97,2.05,1.68,2.85c0.72,0.8,1.56,1.43,2.51,1.88c0.97,0.45,2.01,0.67,3.11,0.67c1.27,0,2.39-0.27,3.37-0.79
				c0.97-0.53,1.78-1.27,2.41-2.22l5.15,3.84c-1.19,1.67-2.7,2.89-4.52,3.69c-1.82,0.79-3.69,1.19-5.62,1.19
				c-2.19,0-4.21-0.35-6.05-1.03c-1.85-0.69-3.45-1.67-4.79-2.95c-1.35-1.28-2.4-2.83-3.15-4.65c-0.75-1.82-1.13-3.86-1.13-6.1
				c0-2.25,0.38-4.28,1.13-6.1c0.75-1.82,1.8-3.37,3.15-4.65c1.34-1.28,2.94-2.26,4.79-2.95c1.84-0.69,3.86-1.03,6.05-1.03
				c0.8,0,1.62,0.07,2.48,0.22c0.86,0.15,1.7,0.38,2.54,0.69s1.63,0.74,2.4,1.27c0.77,0.53,1.45,1.17,2.06,1.94L639.51,545.17z"/>
			<path class="st0" d="M648.21,537.88h6.18v28.04h-6.18V537.88z"/>
			<path class="st0" d="M658.51,551.91c0-2.25,0.38-4.28,1.13-6.1c0.75-1.82,1.8-3.37,3.15-4.65c1.34-1.28,2.94-2.26,4.79-2.95
				c1.84-0.69,3.86-1.03,6.05-1.03c2.2,0,4.22,0.35,6.06,1.03c1.85,0.69,3.45,1.67,4.79,2.95c1.35,1.28,2.4,2.83,3.15,4.65
				c0.75,1.82,1.13,3.86,1.13,6.1c0,2.24-0.38,4.28-1.13,6.1c-0.75,1.82-1.8,3.37-3.15,4.65c-1.34,1.28-2.94,2.26-4.79,2.95
				c-1.84,0.69-3.86,1.03-6.06,1.03c-2.19,0-4.21-0.35-6.05-1.03c-1.85-0.69-3.45-1.67-4.79-2.95c-1.35-1.28-2.4-2.83-3.15-4.65
				C658.89,556.18,658.51,554.15,658.51,551.91z M664.92,551.91c0,1.32,0.2,2.52,0.61,3.62c0.41,1.1,1,2.05,1.76,2.85
				s1.68,1.43,2.75,1.88s2.26,0.67,3.58,0.67s2.52-0.22,3.59-0.67s1.98-1.08,2.75-1.88s1.35-1.75,1.76-2.85
				c0.41-1.1,0.61-2.3,0.61-3.62c0-1.3-0.21-2.5-0.61-3.61c-0.41-1.11-1-2.06-1.76-2.88c-0.77-0.8-1.68-1.43-2.75-1.88
				s-2.27-0.67-3.59-0.67s-2.51,0.22-3.58,0.67s-1.98,1.08-2.75,1.88c-0.77,0.81-1.35,1.76-1.76,2.88
				C665.12,549.41,664.92,550.61,664.92,551.91z"/>
			<path class="st0" d="M692.96,537.88h8.39l11.92,19.48h0.08v-19.48h6.18v28.04h-8.08l-12.24-19.96h-0.07v19.96h-6.18V537.88z"/>
			<path class="st0" d="M734.45,537.88h5.11l12.2,28.04h-6.97l-2.41-5.94h-10.9l-2.34,5.94h-6.8L734.45,537.88z M736.83,546.05
				l-3.41,8.71h6.85L736.83,546.05z"/>
			<path class="st0" d="M754.81,537.88h6.18v22.34h11.44v5.7h-17.62V537.88z"/>
		</g>
	</g>
	<g>
		<g>
			<g>
				<path class="st1" d="M422.63,445.38L422.63,445.38c19.62,35.35,54.94,46.07,87.38,48.7c38.34,3.1,80.38-3.63,107.88-40.21
					c12.65-16.83,21.12-38.68,27.46-61.18c13.15-46.71,17.09-195.44-2.65-237.6c-9.53-20.36-23.87-35.9-39.45-47.39
					C553.47,71,496.49,78.07,450.43,121.11c-31.27,29.22-37.27,64.89-41.39,114.04C405.71,275,403.82,411.48,422.63,445.38z"/>
			</g>
		</g>
	</g>
	<g>
		<path class="st2" d="M532.04,403.42c-20.13,0-28.77-10.62-32.47-19.52c-10.7-25.81,5.06-73.07,25.86-113.61
			c-11.27-21.27-23.86-40.53-34.6-52.98c-5.48,6.8-11.74,16.52-17.47,27.21c12.08,23.81,20.94,51.33,14.46,66.95
			c-2.43,5.85-8.04,12.81-21.06,12.81c-12.82,0-18.4-6.79-20.82-12.49c-6.47-15.21,2.53-42.98,14.67-67.09
			c-7.2-13.51-15.28-25.47-21.67-31.88c-2.21-2.21-2.2-5.79,0.01-8c2.22-2.22,5.79-2.2,8,0.01c5.71,5.73,13.06,15.91,20.07,28
			c6.88-11.99,14.07-22.12,19.67-27.93c2.12-2.21,6.02-2.21,8.14,0c10.46,10.84,24.21,30.57,36.94,53.52
			c12.92-23.3,26.88-43.18,37.26-53.59c1.06-1.06,2.5-1.66,4-1.66c1.52,0.29,3.01,0.63,4.07,1.73c5.53,5.73,12.59,15.72,19.37,27.54
			c6.94-11.91,14.19-21.94,19.85-27.61c2.2-2.2,5.78-2.23,8-0.01c2.21,2.2,2.22,5.79,0.01,8c-6.33,6.35-14.32,18.15-21.47,31.5
			c12.11,24.12,21.08,52.04,14.56,67.39c-2.44,5.74-8.04,12.57-20.92,12.57c-13,0-18.63-6.96-21.06-12.81
			c-6.51-15.7,2.48-43.44,14.66-67.35c-5.65-10.57-11.8-20.16-17.21-26.87c-10.68,12.13-23.41,31.5-34.78,53.02
			c21.02,40.91,36.92,88.46,26.01,114.14C560.44,393.08,551.88,403.42,532.04,403.42z M531.77,282.78
			c-17.78,36.67-30.12,76.6-21.75,96.78c3.5,8.44,10.7,12.55,22.01,12.55c11.12,0,18.2-3.97,21.67-12.12
			C562.23,359.93,549.78,319.78,531.77,282.78z M596.52,257.05c-9,19.62-14.84,39.92-10.62,50.08c1.13,2.71,3.35,5.83,10.6,5.83
			c7.17,0,9.38-3.04,10.5-5.68C611.35,297.03,605.51,276.7,596.52,257.05z M466.92,257.44c-9.02,19.59-14.87,39.78-10.56,49.92
			c1.11,2.61,3.3,5.6,10.41,5.6c7.25,0,9.48-3.12,10.61-5.83C481.56,297.04,475.83,276.94,466.92,257.44z"/>
	</g>
	<g>
		<path class="st1" d="M384.62,742.43l-0.45,1.2c-0.92,2.62-2.43,4.66-4.53,6.13c-2.09,1.47-4.48,2.21-7.15,2.21
			c-4.13,0-7.45-1.62-9.94-4.86c-2.29-2.97-3.43-6.66-3.43-11.05c0-4.73,1.18-8.78,3.56-12.17c2.58-3.68,5.92-5.53,9.99-5.53
			c0.77,0,2.27,0.21,4.5,0.63c0.92,0.21,1.53,0.28,1.83,0.22c1.01-0.15,1.63-0.25,1.85-0.31c0.22-0.06,0.69-0.24,1.4-0.53l2.23,9.8
			l-1.61,0.36l-0.58-1.02c-1.4-2.48-2.66-4.26-3.79-5.32c-1.58-1.51-3.37-2.26-5.39-2.26c-2.68,0-4.77,1.37-6.28,4.09
			c-1.31,2.37-1.96,5.21-1.96,8.5c0,4.06,0.82,7.56,2.45,10.5c1.9,3.41,4.47,5.12,7.71,5.12c1.69,0,3.2-0.46,4.52-1.38
			c1.32-0.92,2.37-2.2,3.14-3.83l0.49-1.07L384.62,742.43z"/>
		<path class="st1" d="M404.97,751.43H392.8v-1.56l2.9-0.31v-28.7l-2.9-0.31v-1.56h12.17v1.56l-3.21,0.31v28.7l3.21,0.31V751.43z"/>
		<path class="st1" d="M441.81,720.54c-0.42,0-0.85,0.07-1.32,0.22c-0.46,0.15-0.84,0.34-1.13,0.58c-0.57,0.48-0.93,0.99-1.09,1.54
			c-0.17,0.55-0.25,1.29-0.25,2.21v16.72c0,3.09-0.82,5.53-2.45,7.31c-1.85,2.02-4.62,3.03-8.33,3.03c-3.69,0-6.53-0.85-8.51-2.54
			c-1.99-1.69-2.99-4.03-2.99-7v-21.75l-2.68-0.31v-1.56h11.59v1.56l-2.85,0.31v20.5c0,2.49,0.49,4.46,1.46,5.88
			c1.22,1.78,3.11,2.67,5.69,2.67c2.37,0,4.15-0.76,5.33-2.27c1.04-1.34,1.55-3.1,1.55-5.3v-17.29c0-0.86-0.07-1.53-0.2-2.01
			c-0.13-0.47-0.45-0.96-0.96-1.47c-0.26-0.27-0.69-0.5-1.27-0.71c-0.58-0.21-1.07-0.31-1.49-0.31v-1.56h9.9V720.54z"/>
		<path class="st1" d="M478.03,735.12c0,4.93-1.49,8.91-4.46,11.95c-2.85,2.91-6.5,4.37-10.96,4.37h-12.93v-1.57l2.76-0.31v-28.7
			l-2.76-0.31v-1.56h9.76h3.88c3.41,0,6.54,1.19,9.36,3.56C476.24,725.58,478.03,729.77,478.03,735.12z M471.88,734.9
			c0-5.11-0.96-8.85-2.9-11.23c-1.7-2.08-4.07-3.12-7.13-3.12c-0.62,0-1.56,0.07-2.81,0.22c-0.18,0-0.43,0.03-0.75,0.09v28.7h4.54
			c3.15,0,5.5-1.43,7.04-4.28C471.21,742.78,471.88,739.32,471.88,734.9z"/>
		<path class="st1" d="M516.61,751.43h-11.27v-1.55l2.99-0.31l-2.77-8.16h-10.89l-1.38,4.42c-0.19,0.5-0.29,1.04-0.29,1.6
			c0,0.41,0.07,0.78,0.2,1.11c0.14,0.33,0.36,0.59,0.69,0.78c0.32,0.19,0.92,0.35,1.78,0.47c0.12,0,0.31,0.03,0.58,0.09v1.56h-9.63
			v-1.56c0.8-0.09,1.54-0.35,2.23-0.78c0.68-0.43,1.17-0.86,1.45-1.29s0.55-1.03,0.78-1.81l7.84-24.29l-1.07-2.5l6.2-0.53
			l10.48,30.89l2.09,0.31V751.43z M504.89,739.26l-4.82-14.76l-4.67,14.76H504.89z"/>
		<path class="st1" d="M552.78,735.12c0,4.93-1.49,8.91-4.46,11.95c-2.85,2.91-6.5,4.37-10.96,4.37h-12.93v-1.57l2.76-0.31v-28.7
			l-2.76-0.31v-1.56h9.76h3.88c3.41,0,6.54,1.19,9.36,3.56C551,725.58,552.78,729.77,552.78,735.12z M546.63,734.9
			c0-5.11-0.96-8.85-2.9-11.23c-1.7-2.08-4.07-3.12-7.13-3.12c-0.62,0-1.56,0.07-2.81,0.22c-0.18,0-0.43,0.03-0.75,0.09v28.7h4.54
			c3.15,0,5.5-1.43,7.04-4.28C545.96,742.78,546.63,739.32,546.63,734.9z"/>
		<path class="st1" d="M605.92,720.54c-0.57,0-0.98,0.04-1.25,0.11c-0.27,0.07-0.66,0.27-1.18,0.58c-0.52,0.31-0.92,0.7-1.2,1.16
			c-0.28,0.46-0.56,1.11-0.83,1.94l-7.67,24.16l1.16,2.76l-6.33,0.4l-10.25-30.8l-2.14-0.31v-1.56h11.19v1.56l-2.72,0.31l7.97,24.4
			l6.59-20.75c0.13-0.36,0.2-0.76,0.2-1.2c0-1.1-0.37-1.85-1.11-2.27c-0.33-0.18-0.72-0.29-1.16-0.33c-0.45-0.04-0.88-0.1-1.29-0.16
			v-1.56h10.03V720.54z"/>
		<path class="st1" d="M625.95,751.43h-12.17v-1.56l2.9-0.31v-28.7l-2.9-0.31v-1.56h12.17v1.56l-3.21,0.31v28.7l3.21,0.31V751.43z"
			/>
		<path class="st1" d="M663.33,720.54c-0.56,0-0.98,0.04-1.25,0.11c-0.26,0.07-0.66,0.27-1.18,0.58s-0.92,0.7-1.21,1.16
			c-0.28,0.46-0.56,1.11-0.82,1.94l-7.67,24.16l1.16,2.76l-6.33,0.4l-10.25-30.8l-2.14-0.31v-1.56h11.19v1.56l-2.72,0.31l7.97,24.4
			l6.58-20.75c0.13-0.36,0.2-0.76,0.2-1.2c0-1.1-0.37-1.85-1.12-2.27c-0.32-0.18-0.71-0.29-1.16-0.33c-0.45-0.04-0.88-0.1-1.29-0.16
			v-1.56h10.03V720.54z"/>
		<path class="st1" d="M701.24,751.43h-11.28v-1.55l2.99-0.31l-2.76-8.16h-10.89l-1.38,4.42c-0.2,0.5-0.3,1.04-0.3,1.6
			c0,0.41,0.07,0.78,0.2,1.11c0.13,0.33,0.36,0.59,0.69,0.78c0.33,0.19,0.92,0.35,1.78,0.47c0.12,0,0.31,0.03,0.58,0.09v1.56h-9.63
			v-1.56c0.8-0.09,1.55-0.35,2.23-0.78c0.68-0.43,1.16-0.86,1.45-1.29c0.28-0.43,0.54-1.03,0.78-1.81l7.85-24.29l-1.07-2.5l6.2-0.53
			l10.48,30.89l2.1,0.31V751.43z M689.51,739.26l-4.81-14.76l-4.68,14.76H689.51z"/>
	</g>
</g>
</svg>
