<?xml version="1.0" encoding="utf-8"?>
<!-- Generator: Adobe Illustrator 24.0.2, SVG Export Plug-In . SVG Version: 6.00 Build 0)  -->
<svg version="1.1" id="Capa_1" xmlns="http://www.w3.org/2000/svg" xmlns:xlink="http://www.w3.org/1999/xlink" x="0px" y="0px"
	 viewBox="0 0 1176.1 393.5" style="enable-background:new 0 0 1176.1 393.5;" xml:space="preserve">
<style type="text/css">
	.st0{fill:#FFFFFF;}
	.st1{fill:#EE4A7B;}
</style>
<g>
	<g>
		<g>
			<path class="st0" d="M61.3,307.3L61.3,307.3c14.9,26.7,41.4,34.8,65.9,36.8c29,2.4,60.7-2.7,81.4-30.3
				c9.6-12.8,15.9-29.1,20.7-46.2c9.9-35.3,12.9-147.6-2-179.4c-7.2-15.3-18-27.2-29.7-35.7C160.1,24.6,117,30,82.3,62.5
				c-23.6,22.1-28.1,48.9-31.2,86C48.5,178.8,47.1,281.8,61.3,307.3z"/>
		</g>
		<path class="st1" d="M195.2,202.2h3.9v-9.8h-3.9c-18.5,0-34.7,9.3-44.6,23.4v-27.6c17.1-3.6,38.6-20.7,38.6-59.2h-9.8
			c0,33.3-17.4,45.5-29,48.9V162c9.8-2.6,15.5-13.1,15.5-29.3c0-19.5-13.5-34.8-30.6-34.8c-15.2,0-46.4,11.7-46.4,47.7
			c0,32.4,32.3,42.2,51.8,43.2v3.3l0,0v23.6c-9.6-14-25.8-23.3-44.3-23.3h-4.1v9.8h3.9c23.1,0,42,17.6,44.3,40.1
			c-9.9-14-26-23.1-44.3-23.1h-3.9v9.8h3.9c24.6,0,44.6,20,44.6,44.6v3.9v8h9.8v-8v-3.9c0-24.6,20-44.6,44.6-44.6h3.9v-9.8h-3.9
			c-18.3,0-34.5,9.2-44.3,23.1C153.1,219.8,172.2,202.2,195.2,202.2z M98.9,145.6c0-31.5,29-38,36.6-38c11.7,0,20.9,11,20.9,25.1
			c0,4.8-0.6,14.7-5.9,18.6c-0.6-9.8-5.1-21.3-13.4-25.8c-5-2.7-10.4-2.4-15.5,0.9c-5.4,3.5-7.4,10.1-5.3,17.1
			c2.6,8.6,11,17.1,24.3,18.8V179C130.8,178.4,98.9,173.7,98.9,145.6z M141,152.5c-8.4-1.5-13.5-6.6-15-11.7
			c-0.3-1.1-1.2-4.7,1.2-6.2c1.4-0.9,2.4-1.1,3.3-1.1s1.7,0.3,2.3,0.6C137.1,136.6,140.7,144.7,141,152.5z"/>
	</g>
	<g>
		<path class="st0" d="M303.3,265c-1.4-1.5-2.7-2.4-3.9-3c-1.4-0.5-2.6-0.8-3.9-0.8c-2,0-3.6,0.3-5.3,1.1c-1.5,0.8-2.9,1.7-4.1,2.9
			c-1.1,1.2-2,2.6-2.6,4.2c-0.6,1.7-0.9,3.3-0.9,5.3c0,2,0.3,3.8,0.9,5.6c0.6,1.7,1.5,3.2,2.6,4.4c1.1,1.2,2.4,2.3,4.1,2.9
			c1.5,0.8,3.3,1.1,5.3,1.1c1.5,0,3-0.3,4.4-1.1s2.7-1.8,3.9-3.5l5.4,3.9c-1.7,2.3-3.8,4.1-6.2,5c-2.4,1.1-5,1.5-7.7,1.5
			c-2.9,0-5.6-0.5-8-1.4c-2.4-0.9-4.5-2.3-6.2-3.9c-1.8-1.7-3.2-3.8-4.1-6.2c-1.1-2.4-1.5-5-1.5-8s0.5-5.7,1.5-8.1
			c1.1-2.4,2.4-4.5,4.1-6.2c1.8-1.7,3.8-3,6.2-3.9c2.4-0.9,5-1.4,8-1.4c2.6,0,4.8,0.5,7.1,1.4c2.1,0.9,4.2,2.4,6,4.5L303.3,265z"/>
		<path class="st0" d="M324,256.3h6.6v37.1H324V256.3z"/>
		<path class="st0" d="M378.8,279.7c0,2.3-0.5,4.2-1.2,6s-1.8,3.3-3.2,4.7c-1.4,1.2-2.9,2.3-4.7,2.9c-1.8,0.8-3.8,1.1-5.9,1.1
			s-4.1-0.3-5.9-1.1c-1.8-0.8-3.5-1.7-4.8-2.9c-1.4-1.2-2.4-2.9-3.2-4.7c-0.8-1.8-1.1-3.8-1.1-6v-23.4h6.6v23.3
			c0,0.9,0.2,1.8,0.5,2.9c0.3,1.1,0.8,2,1.4,2.7c0.6,0.9,1.5,1.5,2.6,2.1c1.1,0.6,2.4,0.8,3.9,0.8s2.9-0.3,3.9-0.8
			c1.1-0.6,2-1.2,2.6-2.1c0.6-0.9,1.1-1.8,1.4-2.7c0.3-1.1,0.5-2,0.5-2.9v-23.3h6.6V279.7z"/>
		<path class="st0" d="M397.4,256.3H412c2.4,0,4.8,0.5,7.1,1.2s4.4,2,6,3.5c1.8,1.5,3.2,3.5,4.2,5.9c1.1,2.3,1.5,5.1,1.5,8.3
			s-0.6,5.9-1.8,8.3c-1.2,2.3-2.7,4.2-4.7,5.7c-2,1.5-4.1,2.7-6.3,3.5c-2.3,0.8-4.7,1.1-6.9,1.1h-13.8v-37.2L397.4,256.3
			L397.4,256.3z M409,287.4c2.1,0,4.1-0.3,5.9-0.8c1.8-0.5,3.5-1.2,4.8-2.3c1.4-1.1,2.4-2.3,3.2-3.9c0.8-1.7,1.2-3.5,1.2-5.9
			c0-2.3-0.3-4.2-1.1-5.7c-0.8-1.7-1.7-2.9-2.9-3.9s-2.7-1.8-4.4-2.3c-1.7-0.5-3.6-0.8-5.6-0.8h-6v25.1h4.8V287.4z"/>
		<path class="st0" d="M459.7,256.3h5.7l15.9,37.1h-7.5l-3.5-8.6h-16.1l-3.3,8.6h-7.4L459.7,256.3z M468.2,279.3l-5.7-15l-5.9,15
			H468.2z"/>
		<path class="st0" d="M495.9,256.3h14.6c2.4,0,4.8,0.5,7.1,1.2c2.3,0.8,4.4,2,6,3.5c1.8,1.5,3.2,3.5,4.2,5.9
			c1.1,2.3,1.5,5.1,1.5,8.3s-0.6,5.9-1.8,8.3c-1.2,2.3-2.7,4.2-4.7,5.7c-2,1.5-4.1,2.7-6.3,3.5c-2.3,0.8-4.7,1.1-6.9,1.1h-13.8
			v-37.2L495.9,256.3L495.9,256.3z M507.5,287.4c2.1,0,4.1-0.3,5.9-0.8c1.8-0.5,3.5-1.2,4.8-2.3c1.4-1.1,2.4-2.3,3.2-3.9
			c0.8-1.7,1.2-3.5,1.2-5.9c0-2.3-0.3-4.2-1.1-5.7c-0.8-1.7-1.7-2.9-2.9-3.9s-2.7-1.8-4.4-2.3c-1.7-0.5-3.6-0.8-5.6-0.8h-6v25.1h4.8
			V287.4z"/>
		<path class="st0" d="M567.9,256.3h7.7l10.1,28.1l10.4-28.1h7.1l-15,37.1h-5.7L567.9,256.3z"/>
		<path class="st0" d="M617.6,256.3h6.6v37.1h-6.6V256.3z"/>
		<path class="st0" d="M638.4,256.3h7.7l10.1,28.1l10.4-28.1h7.1l-15,37.1h-5.7L638.4,256.3z"/>
		<path class="st0" d="M697.3,256.3h5.7l15.9,37.1h-7.5l-3.5-8.6h-16.1l-3.3,8.6h-7.4L697.3,256.3z M705.5,279.3l-5.7-15l-5.9,15
			H705.5z"/>
	</g>
	<g>
		<path class="st0" d="M365.2,190.1l-7.7,1.5V217l0.5,4.7l0.2,3.6c-2-0.5-3-0.6-3-0.6c-0.9,0-1.7,0-2.3,0c-1.7,0-6.2,1.4-13.2,3.9
			c-7.1,2.6-14,3.9-20.7,3.9c-14.6,0-26.6-5.7-36-17.1c-8.9-10.7-13.4-23.3-13.4-38c0-15.6,4.4-29.4,13.1-41.4
			c9.2-12.5,20.1-18.8,32.9-18.8c3.2,0,6.5,0.3,10.2,1.1c3.6,0.6,7.5,1.4,11.6,2.1c3,0,5.4-0.3,7.5-0.9c2-0.8,3.5-1.4,4.4-1.7
			l7.8,32.6l-5.7,1.4l-2.1-3.6c-4.7-8.1-9-14-13.1-17.6c-5.4-5-11.7-7.4-18.6-7.4c-9,0-16.1,4.7-21.2,13.8c-4.5,8-6.6,17.4-6.6,28.5
			c0,14.9,3.3,28.1,9.9,39.5c7.4,12.8,17,19.2,28.8,19.2c3.8,0,6-0.2,6.9-0.6c0.9-0.5,1.7-0.8,2.3-1.2v-30.9l-9-0.8v-5.3H365
			L365.2,190.1z"/>
		<path class="st0" d="M425.8,161.1c0,3-1.1,5.6-3.3,7.4c-2.3,2-5,2.9-8.4,2.9c-1.7,0-3.6-0.5-6-1.4c-0.5-0.2-0.9-0.5-1.7-0.8
			c-0.8,1.2-1.2,2.1-1.7,2.9c-1.2,2.3-2.1,4.4-2.7,6c-0.6,1.7-1.1,3.3-1.5,4.8c-1.1,4.5-1.7,9-1.7,13.7v26.9l8.9,1.4v5h-34.2v-5.1
			l8.1-1.2v-37.8c0-3.5-0.5-7.1-1.4-11c-0.9-3.9-1.8-6.6-2.9-8c-0.6-0.9-1.7-1.5-3.3-2c-1.7-0.3-2.6-0.6-2.7-0.6v-4.7l18.2-7.7
			c1.7,3.3,2.4,5,2.6,5.3c0.8,1.5,1.4,3.3,1.8,5.6c0.5,2.1,1.1,4.4,1.7,6.6c0.6,2.3,0.9,4.5,0.9,6.8l1.7-4.2
			c2.1-5.4,4.5-9.6,7.2-12.9c3.5-3.9,7.1-5.9,11-5.9c3.8,0,6.3,0.8,7.7,2.4C425.2,156.7,425.8,158.5,425.8,161.1z"/>
		<path class="st0" d="M502.1,223.4c-1.4,2.1-2.7,3.8-3.8,4.7c-3.3,3.2-7.2,4.7-11.6,4.7c-3,0-5.6-0.9-7.7-2.6
			c-2.1-1.7-3.8-4.2-4.8-7.2l-3.6,2.9c-3,2.4-5.7,4.2-8.4,5.3c-2.7,1.1-5.7,1.7-9.2,1.7c-5.3,0-9.8-1.8-13.5-5.6s-5.6-8.3-5.6-13.7
			c0-7.1,3.6-13.5,10.8-19.4c6.3-5.1,14.3-9.2,23.7-11.9l4.1-1.2v-6.6c0-3.9-1.4-7.4-3.9-10.4c-1.2-1.4-3.3-2.7-6-3.6
			c-0.9-0.3-2.1-0.6-3.8-1.1c0.2,2-0.8,4.4-2.7,6.8c-2.4,3-5.4,4.5-9,4.5c-2.6,0-4.7-0.8-6.5-2.3c-1.8-1.5-2.7-3.5-2.7-6
			c0-3,1.4-5.3,3.9-6.8s5.9-2.3,9.9-2.3c10.5,0,19.2,2.3,26.1,6.8c7.5,5,11.3,11.7,11.3,20.4v35.4c0,1.8,0.5,3.5,1.4,4.7
			c0.9,1.4,2.1,2,3.8,2c1.1,0,2.4-0.6,3.9-2c0.2-0.2,0.6-0.6,1.1-1.1L502.1,223.4z M473.3,216.4v-29.6l-3,0.6
			c-5.7,1.4-10.4,4.2-14.1,8.4c-3.8,4.2-5.7,8.6-5.7,13.4c0,3.5,1.2,6.5,3.5,9c2.3,2.6,5.1,3.8,8.6,3.8c2.1,0,4.2-0.6,6.3-1.8
			C470.7,219.1,472.2,217.7,473.3,216.4z"/>
		<path class="st0" d="M581.4,229.9h-31.2v-5.3l7.5-1.1v-44.3c0-3.9-0.9-7.4-2.9-10.4c-2-3.2-4.7-4.7-8-4.7c-2.3,0-4.4,0.3-6.2,1.1
			c-2,0.8-3.8,2-5.4,3.6l-3.2,3.5v50.9l7.7,1.1v5.4H507v-5.4l8.1-1.1v-49.7c0-2.3-0.2-3.9-0.5-4.8c-0.3-1.1-1.1-2.1-2.4-3.2
			c-0.5-0.5-1.2-0.9-2.3-1.1c-1.1-0.2-2-0.3-2.9-0.3c-1.4,0-2.1,0-2.3,0v-4.7l19.5-8.7c2,2,3.5,4.2,4.5,6.8c0.8,1.7,1.2,3.2,1.5,4.2
			c0.3,1.1,0.5,2.4,0.5,3.9c0.9-2,3.3-4.5,7.1-7.4c5.1-3.9,10.1-5.9,14.9-5.9c6.2,0,11.3,2.4,15.3,7.1c4.1,4.8,6.2,10.4,6.2,16.8
			v47.1l6.9,1.1L581.4,229.9L581.4,229.9z"/>
		<path class="st0" d="M711.4,199.2l-1.5,4.1c-3.2,8.9-8.3,15.8-15.3,20.9c-7.1,5-15.2,7.5-24.3,7.5c-14.1,0-25.4-5.6-33.8-16.5
			c-7.8-10.1-11.7-22.7-11.7-37.5c0-16.1,4.1-29.9,12.2-41.4c8.9-12.5,20.1-18.8,33.9-18.8c2.6,0,7.7,0.8,15.3,2.1
			c3.2,0.8,5.3,0.9,6.2,0.8c3.5-0.5,5.6-0.9,6.3-1.1c0.8-0.2,2.4-0.8,4.8-1.8l7.5,33.3l-5.4,1.2l-2-3.5c-4.8-8.4-9-14.4-12.9-18
			c-5.4-5.1-11.4-7.7-18.3-7.7c-9.2,0-16.2,4.7-21.3,14c-4.5,8.1-6.6,17.7-6.6,28.8c0,13.8,2.9,25.7,8.4,35.7
			c6.5,11.6,15.2,17.4,26.3,17.4c5.7,0,10.8-1.5,15.3-4.7c4.5-3.2,8.1-7.5,10.7-13.1l1.7-3.6L711.4,199.2z"/>
		<path class="st0" d="M788.4,223.4c-1.4,2.1-2.7,3.8-3.8,4.7c-3.3,3.2-7.2,4.7-11.6,4.7c-3,0-5.6-0.9-7.7-2.6
			c-2.1-1.7-3.8-4.2-4.8-7.2l-3.6,2.9c-3,2.4-5.7,4.2-8.4,5.3c-2.7,1.1-5.7,1.7-9.2,1.7c-5.3,0-9.8-1.8-13.5-5.6
			c-3.8-3.8-5.6-8.3-5.6-13.7c0-7.1,3.6-13.5,10.8-19.4c6.3-5.1,14.3-9.2,23.7-11.9l4.1-1.2v-6.6c0-3.9-1.4-7.4-3.9-10.4
			c-1.2-1.4-3.3-2.7-6-3.6c-0.9-0.3-2.1-0.6-3.8-1.1c0.2,2-0.8,4.4-2.7,6.8c-2.4,3-5.4,4.5-9,4.5c-2.6,0-4.7-0.8-6.5-2.3
			c-1.8-1.5-2.7-3.5-2.7-6c0-3,1.4-5.3,3.9-6.8c2.6-1.5,5.9-2.3,9.9-2.3c10.5,0,19.2,2.3,26.1,6.8c7.5,5,11.3,11.7,11.3,20.4v35.4
			c0,1.8,0.5,3.5,1.4,4.7c0.9,1.4,2.1,2,3.8,2c1.1,0,2.4-0.6,3.9-2c0.2-0.2,0.6-0.6,1.1-1.1L788.4,223.4z M759.6,216.4v-29.6l-3,0.6
			c-5.7,1.4-10.4,4.2-14.1,8.4c-3.8,4.2-5.7,8.6-5.7,13.4c0,3.5,1.2,6.5,3.5,9c2.3,2.6,5.1,3.8,8.6,3.8c2.1,0,4.2-0.6,6.3-1.8
			C757,219.1,758.7,217.7,759.6,216.4z"/>
		<path class="st0" d="M829.4,229.9h-34.7v-5.3l8.6-1.1v-89.3c0-1.1,0-2,0-2.4c0-0.8,0-1.7,0-2.4c-0.2-1.4-0.9-2.6-2-3.5
			c-1.1-0.9-2.6-1.4-4.7-1.4c-2,0-3.2,0.2-3.5,0.3v-5.3l27.2-10.4v114.3l9.2,1.1v5.3L829.4,229.9L829.4,229.9z"/>
		<path class="st0" d="M900,203.1l-7.5,28.4l-3.9-0.9c-1.1-0.3-1.8-0.5-2.3-0.5c-0.6-0.2-1.4-0.2-2.4-0.2h-45.3v-5l41.6-63.5h-7.4
			c-3.3,0-6,0.5-8.3,1.5c-2.3,1.1-4.7,2.7-7.4,5c-2.3,2-4.7,5.1-7.1,9.2c-0.8,1.4-1.8,3.3-3.2,5.7l-5-1.7l6.5-26.3l3.5,1.2h3.3h44.4
			v5l-41.6,63.5h7.1c3.8,0,6.9-0.6,9.5-1.7c2.6-1.1,5.6-3,8.9-5.7c2.6-2,5.3-5.1,8.1-9.5c0.9-1.4,2.1-3.5,3.6-6L900,203.1z"/>
		<path class="st0" d="M977.2,223.4c-1.4,2.1-2.7,3.8-3.8,4.7c-3.3,3.2-7.2,4.7-11.6,4.7c-3,0-5.6-0.9-7.7-2.6
			c-2.1-1.7-3.8-4.2-4.8-7.2l-3.6,2.9c-3,2.4-5.7,4.2-8.4,5.3c-2.7,1.1-5.7,1.7-9.2,1.7c-5.3,0-9.8-1.8-13.5-5.6
			c-3.8-3.8-5.6-8.3-5.6-13.7c0-7.1,3.6-13.5,10.8-19.4c6.3-5.1,14.3-9.2,23.7-11.9l4.1-1.2v-6.6c0-3.9-1.4-7.4-3.9-10.4
			c-1.2-1.4-3.3-2.7-6-3.6c-0.9-0.3-2.1-0.6-3.8-1.1c0.2,2-0.8,4.4-2.7,6.8c-2.4,3-5.4,4.5-9,4.5c-2.6,0-4.7-0.8-6.5-2.3
			c-1.8-1.5-2.7-3.5-2.7-6c0-3,1.4-5.3,3.9-6.8c2.6-1.5,5.9-2.3,9.9-2.3c10.5,0,19.2,2.3,26.1,6.8c7.5,5,11.3,11.7,11.3,20.4v35.4
			c0,1.8,0.5,3.5,1.4,4.7c0.9,1.4,2.1,2,3.8,2c1.1,0,2.4-0.6,3.9-2c0.2-0.2,0.6-0.6,1.1-1.1L977.2,223.4z M948.3,216.4v-29.6l-3,0.6
			c-5.7,1.4-10.4,4.2-14.1,8.4c-3.8,4.2-5.7,8.6-5.7,13.4c0,3.5,1.2,6.5,3.5,9c2.3,2.6,5.1,3.8,8.6,3.8c2.1,0,4.2-0.6,6.3-1.8
			C945.8,219.1,947.3,217.7,948.3,216.4z"/>
		<path class="st0" d="M1056.1,226.1l-18.9,6.6c-0.6-0.9-1.2-2.1-2-3.5s-1.1-2.3-1.2-2.4c-0.5-0.9-0.8-2-1.2-3
			c-0.3-1.1-0.8-2.6-1.1-4.2l-3,3.8c-4.7,6-10.7,9-18.2,9c-8.4,0-15.2-3.9-20.1-11.7c-4.5-7.1-6.8-15.3-6.8-25.2
			c0-11,2.7-20.4,8-28.5c5.9-9.2,13.7-13.7,23.3-13.7c3.2,0,5.9,0.3,8,0.9c2.3,0.6,4.8,1.7,7.7,3v-25.4c0-2.9-1.2-4.8-3.5-6.2
			c-0.8-0.5-2-0.8-3.6-0.8c-0.8,0-1.5,0-2.1,0c-0.2,0-0.5,0-0.9,0v-5.3l26.9-8.4v98.3c0,2.7,0.3,4.8,0.8,6.5c0.5,1.7,1.7,3,3.3,4.1
			c1.7,0.9,3.3,1.5,4.8,1.5v4.5L1056.1,226.1L1056.1,226.1z M1030.6,212.6v-44.9c-1.2-1.7-2.4-3.3-3.5-4.8c-3-2.9-6.6-4.2-11-4.2
			c-5.7,0-10.1,3.3-12.8,9.8c-2.1,5.1-3.2,11.6-3.2,19.7c0,8.3,1.5,15.5,4.4,21.5c3.6,7.2,8.7,10.8,15.5,10.8c3,0,5.6-1.2,7.7-3.5
			C1029.6,214.3,1030.5,212.8,1030.6,212.6z"/>
		<path class="st0" d="M1131.4,223.4c-1.4,2.1-2.7,3.8-3.8,4.7c-3.3,3.2-7.2,4.7-11.6,4.7c-3,0-5.6-0.9-7.7-2.6
			c-2.1-1.7-3.8-4.2-4.8-7.2l-3.6,2.9c-3,2.4-5.7,4.2-8.4,5.3c-2.7,1.1-5.7,1.7-9.2,1.7c-5.3,0-9.8-1.8-13.5-5.6
			c-3.8-3.8-5.6-8.3-5.6-13.7c0-7.1,3.6-13.5,10.8-19.4c6.3-5.1,14.3-9.2,23.7-11.9l4.1-1.2v-6.6c0-3.9-1.4-7.4-3.9-10.4
			c-1.2-1.4-3.3-2.7-6-3.6c-0.9-0.3-2.1-0.6-3.8-1.1c0.2,2-0.8,4.4-2.7,6.8c-2.4,3-5.4,4.5-9,4.5c-2.6,0-4.7-0.8-6.5-2.3
			c-1.8-1.5-2.7-3.5-2.7-6c0-3,1.4-5.3,3.9-6.8c2.6-1.5,5.9-2.3,9.9-2.3c10.5,0,19.2,2.3,26.1,6.8c7.5,5,11.3,11.7,11.3,20.4v35.4
			c0,1.8,0.5,3.5,1.4,4.7c0.9,1.4,2.1,2,3.8,2c1.1,0,2.4-0.6,3.9-2c0.2-0.2,0.6-0.6,1.1-1.1L1131.4,223.4z M1102.5,216.4v-29.6
			l-3,0.6c-5.7,1.4-10.4,4.2-14.1,8.4c-3.8,4.2-5.7,8.6-5.7,13.4c0,3.5,1.2,6.5,3.5,9c2.3,2.6,5.1,3.8,8.6,3.8
			c2.1,0,4.2-0.6,6.3-1.8C1100,219.1,1101.6,217.7,1102.5,216.4z"/>
	</g>
</g>
</svg>
