<?xml version="1.0" encoding="utf-8"?>
<!-- Generator: Adobe Illustrator 21.0.2, SVG Export Plug-In . SVG Version: 6.00 Build 0)  -->
<svg version="1.1" id="Capa_1" xmlns="http://www.w3.org/2000/svg" xmlns:xlink="http://www.w3.org/1999/xlink" x="0px" y="0px"
	 viewBox="0 0 800 800" style="enable-background:new 0 0 800 800;" xml:space="preserve">
<style type="text/css">
	.st0{fill:#E30F1C;}
	.st1{fill:#474747;}
	.st2{clip-path:url(#SVGID_2_);}
	.st3{clip-path:url(#SVGID_6_);}
	.st4{clip-path:url(#SVGID_10_);}
	.st5{clip-path:url(#SVGID_14_);}
	.st6{clip-path:url(#SVGID_18_);}
	.st7{clip-path:url(#SVGID_22_);}
	.st8{clip-path:url(#SVGID_26_);}
	.st9{clip-path:url(#SVGID_30_);}
	.st10{clip-path:url(#SVGID_34_);}
	.st11{clip-path:url(#SVGID_38_);}
	.st12{clip-path:url(#SVGID_42_);}
	.st13{clip-path:url(#SVGID_46_);}
	.st14{clip-path:url(#SVGID_50_);}
	.st15{clip-path:url(#SVGID_54_);}
	.st16{clip-path:url(#SVGID_58_);}
	.st17{clip-path:url(#SVGID_62_);}
	.st18{clip-path:url(#SVGID_66_);}
	.st19{clip-path:url(#SVGID_70_);}
	.st20{clip-path:url(#SVGID_74_);}
	.st21{clip-path:url(#SVGID_78_);}
	.st22{clip-path:url(#SVGID_82_);}
	.st23{clip-path:url(#SVGID_86_);}
	.st24{clip-path:url(#SVGID_90_);}
	.st25{clip-path:url(#SVGID_94_);}
	.st26{clip-path:url(#SVGID_98_);}
	.st27{clip-path:url(#SVGID_102_);}
	.st28{clip-path:url(#SVGID_106_);}
	.st29{clip-path:url(#SVGID_110_);}
	.st30{clip-path:url(#SVGID_114_);}
	.st31{clip-path:url(#SVGID_118_);}
	.st32{clip-path:url(#SVGID_122_);}
	.st33{clip-path:url(#SVGID_126_);}
	.st34{clip-path:url(#SVGID_130_);}
	.st35{clip-path:url(#SVGID_134_);}
	.st36{clip-path:url(#SVGID_138_);}
	.st37{clip-path:url(#SVGID_142_);}
	.st38{clip-path:url(#SVGID_146_);}
	.st39{clip-path:url(#SVGID_150_);}
	.st40{clip-path:url(#SVGID_154_);}
	.st41{clip-path:url(#SVGID_158_);}
	.st42{clip-path:url(#SVGID_162_);}
	.st43{clip-path:url(#SVGID_166_);}
	.st44{clip-path:url(#SVGID_170_);}
	.st45{clip-path:url(#SVGID_174_);}
	.st46{clip-path:url(#SVGID_178_);}
	.st47{clip-path:url(#SVGID_182_);}
	.st48{clip-path:url(#SVGID_186_);}
	.st49{clip-path:url(#SVGID_190_);}
	.st50{clip-path:url(#SVGID_194_);}
	.st51{clip-path:url(#SVGID_198_);}
	.st52{clip-path:url(#SVGID_202_);}
	.st53{clip-path:url(#SVGID_206_);}
	.st54{clip-path:url(#SVGID_210_);}
	.st55{clip-path:url(#SVGID_214_);}
	.st56{clip-path:url(#SVGID_218_);}
	.st57{clip-path:url(#SVGID_222_);}
	.st58{clip-path:url(#SVGID_226_);}
	.st59{clip-path:url(#SVGID_230_);}
	.st60{clip-path:url(#SVGID_234_);}
	.st61{clip-path:url(#SVGID_238_);}
	.st62{clip-path:url(#SVGID_242_);}
	.st63{clip-path:url(#SVGID_246_);}
	.st64{clip-path:url(#SVGID_250_);}
	.st65{clip-path:url(#SVGID_254_);}
	.st66{clip-path:url(#SVGID_258_);}
	.st67{clip-path:url(#SVGID_262_);}
	.st68{clip-path:url(#SVGID_266_);}
	.st69{clip-path:url(#SVGID_270_);}
	.st70{clip-path:url(#SVGID_274_);}
	.st71{clip-path:url(#SVGID_278_);}
	.st72{clip-path:url(#SVGID_282_);}
	.st73{clip-path:url(#SVGID_286_);}
	.st74{clip-path:url(#SVGID_290_);}
	.st75{clip-path:url(#SVGID_294_);}
	.st76{clip-path:url(#SVGID_298_);}
	.st77{clip-path:url(#SVGID_302_);}
	.st78{clip-path:url(#SVGID_306_);}
	.st79{clip-path:url(#SVGID_310_);}
	.st80{clip-path:url(#SVGID_314_);}
	.st81{clip-path:url(#SVGID_318_);}
	.st82{clip-path:url(#SVGID_322_);}
	.st83{fill:#FF8F10;}
	.st84{fill:#060D35;}
	.st85{fill:#51488B;}
	.st86{fill:#F8B1A1;}
	.st87{fill:#215A36;}
	.st88{fill:#F8B3A2;}
	.st89{fill:#FFFFFF;}
	.st90{fill:#EE4A7B;}
	.st91{fill:#EE4A7B;stroke:#EE4A7B;stroke-width:7;stroke-miterlimit:10;}
	.st92{fill:#EE4A7B;stroke:#EE4A7B;stroke-width:10;stroke-miterlimit:10;}
	.st93{fill:#EE4A7B;stroke:#EE4A7B;stroke-miterlimit:10;}
	.st94{fill:#E1E0E5;}
</style>
<g>
	<g>
		<g>
			<g>
				<path class="st90" d="M211.1,538.2c-21.7-36.5-33.2-78.4-33.2-121.1c0-27.7,4.7-54.8,14-80.6l5.6,2
					c-9.1,25.1-13.7,51.6-13.7,78.6c0,41.6,11.2,82.5,32.3,118.1L211.1,538.2z"/>
			</g>
			<g>
				<path class="st90" d="M619.7,538.2l-5.1-3c21.1-35.6,32.3-76.4,32.3-118.1c0-27-4.6-53.4-13.7-78.6l5.6-2
					c9.3,25.8,14,52.9,14,80.6C652.9,459.8,641.4,501.7,619.7,538.2z"/>
			</g>
		</g>
		<path class="st90" d="M489.8,430.4h6.1v-15h-6.1c-27.7,0-53.2,16-68.6,39.3v-41c26.3-5.5,59.5-31.9,59.5-90.9h-15
			c0,51.2-26.8,70.1-44.5,75.3v-24.7c15.1-3.9,23.9-20.1,23.9-45c0-30.1-20.7-53.6-47.1-53.6c-23.3,0-71.4,17.9-71.4,73.4
			c0,49.9,49.6,65,79.7,66.4v5.1h0v36.3c-15.1-21.7-40.2-35.9-68.6-35.9h-6.1v15h6.1c35.5,0,64.8,27.1,68.2,61.7
			c-15.1-21.4-40.1-35.5-68.2-35.5h-6.1v15h6.1c37.8,0,68.6,30.8,68.6,68.6v6.1v12.3h15v-12.3V545c0-39.1,32-73.4,68.6-73.4h6.1v-15
			h-6.1c-27.3,0-52.6,15.6-68,38.5C426.1,459.8,456,430.4,489.8,430.4z M368.5,390.1c-17.9-9-27-23.1-27-41.8
			c0-48.5,44.5-58.4,56.4-58.4c18,0,32.1,17,32.1,38.6c0,7.4-1,22.7-9,28.6c-0.8-15.1-7.8-32.8-20.5-39.7c-7.6-4.1-16-3.7-23.8,1.3
			c-8.3,5.3-11.4,15.5-8.2,26.4c3.9,13.1,16.8,26.3,37.5,28.8v25.8C395.6,399.1,380.9,396.3,368.5,390.1z M406.2,358.8
			c-12.9-2.2-20.8-10.1-23.1-17.9c-0.5-1.6-1.8-7.2,1.9-9.6c2-1.3,3.6-1.7,5-1.7c1.4,0,2.5,0.5,3.5,1
			C400.3,334.3,405.8,346.7,406.2,358.8z"/>
	</g>
	<g>
		<path class="st94" d="M198.6,278l12.8,4.4l-0.8,2.6c-8.4-0.4-13.3,1.3-15.7,5.4c-2.9,5,0.1,10.3,8.6,15.2
			c10.9,6.3,20.5,6.6,23.9,0.8c0.4-0.8,0.8-1.6,1.4-3.4l-8.4-4.8l-2,2.8l-2.7-1.6l7.8-13.5l2.7,1.6l-1.2,2.8l9,5.2
			c-0.1,0.4-0.1,0.6-0.2,0.8c-0.6,1.9-0.9,2.9-0.9,3.2l-0.9,4.3c-0.6,2.5-1.5,4.8-2.6,6.8c-5.4,9.4-16.4,11.8-26.9,5.7
			c-10.6-6.1-15.3-18.3-10.3-27c0.8-1.4,2.2-3,4.1-4.9c0.8-0.7,1.3-1.3,1.6-1.7c0.3-0.5,0.5-1.2,0.5-2l0.2-1.5L198.6,278z"/>
		<path class="st94" d="M211.8,260.2l10.8-12.1c5.5-6.2,7.7-7.8,11.6-8.6c2.9-0.6,6.3,0.4,8.9,2.7c3.6,3.2,4.1,7.6,1.6,12.7
			l17.5,5.4l2.4-2l2.3,2.1l-7.9,8.9l-19.7-6.3l-2.3,2.5l11.4,10.2l2.6-2.3l2.3,2.1l-10.8,12.1l-2.3-2.1l2-2.9l-25.5-22.8l-2.6,2.3
			L211.8,260.2z M222.8,252.7l12,10.7l1.9-2.2c3.8-4.3,3.7-8-0.4-11.6c-3.9-3.5-8-3.4-11.2,0.3c-0.4,0.5-0.9,1.1-1.3,1.7
			C223.6,251.8,223.3,252.2,222.8,252.7z"/>
		<path class="st94" d="M266.4,208.5l32.7,22.8l2.7-1.5l1.8,2.5l-13.4,9.9l-1.8-2.5l2.5-2.4l-7.4-5.6l-11,8.1l1.1,3.6
			c0.2,0.7,0.6,1.5,0.9,1.9c1.4,1.9,3.5,1.9,6.1,0l1.8,2.5l-10.6,7.8l-1.8-2.5c1.8-1.5,2.1-3.5,1.1-6.4l-0.5-1.5l-9.1-28.4l-4-1.9
			L266.4,208.5z M265.2,218.4l6.2,18.2l9.2-6.8L265.2,218.4z"/>
		<path class="st94" d="M325,176.5l1.3,2.8c-2.8,1.8-2.9,3.8-0.7,8.7l12.8,27.7l-5.1,2.3l-31.2-20.5l8.8,19.2c2.3,5,4,6,8,4.6
			l1.3,2.8l-11.5,5.3l-1.3-2.8c3.1-1.7,3.3-3.4,1-8.5L298,195.6c-2.3-1.1-3.3-1.2-5.3-0.8l-1.3-2.8l11.5-5.3l27.2,18.1l-7.6-16.5
			c-1.9-4-3.8-5.1-7.2-3.8l-1.3-2.8L325,176.5z"/>
		<path class="st94" d="M396.8,160l4,13.4l-2.7,1c-3.9-6.5-8.9-10-13.6-9.4c-5.2,0.7-7.2,6-5.9,15.7c1.6,12.6,6.6,19.2,13.8,18.3
			c4.1-0.5,6.7-3.3,8.7-9.2l2.7,1c-2,7.7-7.4,12.7-14.5,13.6c-10.4,1.3-18.5-6.2-20.1-18.3c-1.6-12.8,4.9-22.9,15.6-24.3
			c1.6-0.2,3.3-0.2,5.1,0c1.6,0.2,2.5,0.3,3.1,0.2c0.9-0.1,1.1-0.3,3-1.6C396.2,160.4,396.4,160.2,396.8,160z"/>
		<path class="st94" d="M436.5,161.7l10.2,38.5l3.1,0.6l-0.2,3.1l-16.7-1.1l0.2-3.1l3.4-0.2l-2-9.1l-13.6-0.9l-1.5,3.5
			c-0.3,0.7-0.5,1.5-0.5,2.1c-0.2,2.4,1.4,3.8,4.7,4l-0.2,3.1l-13.1-0.9l0.2-3.1c2.3,0,3.9-1.3,5-4.1l0.6-1.4l11.3-27.6l-1.8-4.1
			L436.5,161.7z M429.1,168.5l-7,17.9l11.4,0.8L429.1,168.5z"/>
		<path class="st94" d="M482.8,169.8l-0.8,3l-4.1-0.6l-8.8,33.7c1.1,0.3,1.6,0.4,2,0.5c3.6,1,6.3,0.4,10.5-2.3
			c2.7-1.7,3.5-2.3,5.5-4.5l2.1,1.2l-6.6,12.8c-2.2-1.6-2.9-1.9-6.5-2.8l-20.2-5.3l0.8-3l3.5,0.5l8.7-33.1l-3.2-1.3l0.8-3
			L482.8,169.8z"/>
		<path class="st94" d="M538.7,191.7l-1.4,2.9l-33.7,22.7c0.6,0.2,1.1,0.4,1.4,0.6c5.5,2.5,7.3,2.9,10.4,2.2
			c1.8-0.4,3.6-1.2,5.4-2.3c1.6-1,2.2-1.4,3.9-2.8l2.1,1.8l-8.5,11.9c-1.2-1.4-1.8-1.9-4.1-3l-21.5-10.1l1.3-2.9l33.2-22.9
			c-1.2-0.6-1.6-0.9-2.5-1.3c-3.9-1.8-6.3-2-9.8-0.8c-2.4,0.8-3.7,1.6-6.5,4.1l-2.2-1.9l8-10.5c1.1,1.1,2.8,2.1,5.5,3.4L538.7,191.7
			z"/>
		<path class="st94" d="M569.8,212.4l-11.9,38l2.2,2.2l-1.8,2.5l-13.5-9.9l1.8-2.5l3,1.7l3.2-8.7l-11-8.1l-3.1,2.2
			c-0.6,0.5-1.2,1-1.5,1.5c-1.4,1.9-0.8,3.9,1.8,5.9l-1.8,2.5l-10.6-7.7l1.8-2.5c2,1.3,4,1,6.4-0.8l1.3-0.9l24.3-17.2l0.6-4.4
			L569.8,212.4z M559.9,214.2l-15.5,11.3l9.2,6.8L559.9,214.2z"/>
		<path class="st94" d="M593.4,231.6l9.8,10.9c5.5,6.2,7.1,8.9,7.6,13.4c0.8,6.4-1.9,12.9-7.1,17.7c-5.5,5-13.2,7.1-19.3,5.5
			c-4.4-1.2-5.5-2-11.1-8.2l-10.5-11.7l2.3-2.1l2.6,2.3l25.4-22.9l-2-2.9L593.4,231.6z M599.6,243.3l-26,23.5c0.8,1,1.2,1.4,1.6,1.9
			c2.4,2.6,4.6,4.1,6.8,4.4c4,0.5,9-1.8,14.7-7c9.2-8.3,10.7-14.3,5.2-20.5C601.3,244.9,600.9,244.5,599.6,243.3z"/>
		<path class="st94" d="M638.5,290.3l-25.9,30.2l1.2,2.9l-2.7,1.6l-8.5-14.4l2.7-1.6l2.1,2.7l6.3-6.8l-7-11.8L603,294
			c-0.8,0.2-1.5,0.5-2,0.8c-2.1,1.2-2.3,3.3-0.6,6.1l-2.7,1.6l-6.7-11.3l2.7-1.6c1.3,2,3.3,2.5,6.2,1.8l1.5-0.3l29.1-6.3l2.3-3.8
			L638.5,290.3z M628.7,288l-18.7,4.3l5.8,9.8L628.7,288z"/>
	</g>
	<g>
		<path class="st94" d="M244.5,564.5c0.3-2,0.3-3.6-0.1-4.9c-0.4-1.3-1-2.5-1.8-3.5c-1.2-1.5-2.5-2.7-4-3.5
			c-1.5-0.8-3.1-1.3-4.7-1.4c-1.6-0.1-3.3,0-4.9,0.5c-1.6,0.5-3.2,1.3-4.7,2.4c-1.6,1.2-2.8,2.6-3.8,4.1c-1,1.5-1.6,3.1-1.8,4.7
			c-0.3,1.6-0.2,3.3,0.2,4.9c0.4,1.7,1.2,3.2,2.4,4.8c0.9,1.2,2.1,2.1,3.5,2.8c1.4,0.7,3.1,1,5.1,1l0.3,6.7
			c-2.8,0.1-5.4-0.5-7.7-1.8c-2.3-1.3-4.3-3-6-5.1c-1.8-2.3-3-4.6-3.7-7.1c-0.7-2.5-1-4.9-0.7-7.3c0.3-2.4,1.1-4.7,2.3-6.9
			c1.3-2.2,3.1-4.2,5.3-6c2.3-1.8,4.8-3.1,7.3-3.8c2.5-0.7,5-0.9,7.4-0.6c2.4,0.3,4.7,1.1,6.9,2.5c2.2,1.3,4.2,3.1,5.9,5.4
			c1.5,2,2.6,4.1,3.2,6.3c0.6,2.2,0.6,4.7,0.1,7.5L244.5,564.5z"/>
		<path class="st94" d="M264.7,573l4.8,4.5l-25.4,27l-4.8-4.5L264.7,573z"/>
		<path class="st94" d="M293.8,624.9c-1.2,1.9-2.7,3.3-4.3,4.4c-1.6,1.1-3.4,1.7-5.2,2c-1.8,0.3-3.6,0.2-5.5-0.2
			c-1.9-0.5-3.7-1.3-5.5-2.5c-1.8-1.2-3.2-2.6-4.3-4.2c-1.1-1.6-1.9-3.3-2.3-5.1c-0.4-1.8-0.4-3.6,0-5.5c0.4-1.9,1.2-3.8,2.4-5.6
			l13.1-19.4l5.5,3.7l-13,19.3c-0.5,0.8-0.9,1.6-1.2,2.6c-0.3,1-0.5,2-0.4,3.1c0.1,1.1,0.4,2.1,1,3.1c0.6,1,1.5,2,2.8,2.9
			c1.3,0.9,2.5,1.4,3.7,1.5c1.2,0.1,2.3,0.1,3.3-0.3c1-0.3,1.9-0.8,2.7-1.5c0.8-0.7,1.4-1.4,1.9-2.1l13-19.3l5.5,3.7L293.8,624.9z"
			/>
		<path class="st94" d="M322.3,613.7l13.6,5.3c2.3,0.9,4.3,2.1,6.2,3.6c1.8,1.5,3.3,3.3,4.4,5.4c1.1,2.1,1.7,4.4,1.8,6.9
			c0.1,2.5-0.4,5.3-1.5,8.2c-1.2,3-2.7,5.3-4.7,7c-2,1.7-4.1,2.9-6.4,3.7c-2.3,0.7-4.7,1-7.1,0.9c-2.4-0.1-4.7-0.6-6.8-1.4l-12.9-5
			L322.3,613.7z M321.8,646.8c1.9,0.7,3.8,1.2,5.7,1.5c1.9,0.2,3.6,0.1,5.3-0.3c1.6-0.4,3.1-1.2,4.4-2.4c1.3-1.2,2.4-2.8,3.2-5
			c0.8-2.1,1.2-4,1.1-5.7c-0.1-1.7-0.5-3.3-1.3-4.7c-0.8-1.4-1.9-2.6-3.3-3.6c-1.4-1.1-3.1-1.9-4.9-2.7l-5.6-2.2l-9.1,23.4
			L321.8,646.8z"/>
		<path class="st94" d="M380.4,631.2l5.6,0.8l10.3,39l-7.4-1.1l-2.2-8.9l-15.9-2.4l-4.6,7.9l-7.3-1.1L380.4,631.2z M385.3,655.1
			l-3.4-15.7l-8,14L385.3,655.1z"/>
		<path class="st94" d="M415.2,634.6l14.6-1c2.4-0.2,4.8,0,7.1,0.6c2.3,0.6,4.4,1.6,6.2,3s3.4,3.2,4.6,5.5c1.2,2.2,1.9,4.9,2.1,8.1
			c0.2,3.2-0.2,5.9-1.2,8.3c-1,2.4-2.5,4.4-4.2,6.1c-1.8,1.6-3.8,2.9-6.1,3.8c-2.3,0.9-4.5,1.4-6.7,1.6l-13.8,1L415.2,634.6z
			 M428.9,664.8c2.1-0.1,4-0.5,5.8-1.1s3.3-1.4,4.6-2.5c1.3-1.1,2.3-2.4,2.9-4.1c0.7-1.6,0.9-3.6,0.8-5.8c-0.2-2.2-0.6-4.1-1.4-5.7
			s-1.9-2.8-3.2-3.7c-1.3-0.9-2.8-1.5-4.5-1.9c-1.7-0.4-3.6-0.5-5.6-0.3l-6,0.4l1.8,25L428.9,664.8z"/>
		<path class="st94" d="M483.2,624l7-2.9l20.2,21.9l-1.3-29.8l6.6-2.8l0.6,39.9l-5.3,2.2L483.2,624z"/>
		<path class="st94" d="M526.5,603.4l5.6-3.5l19.5,31.5l-5.6,3.5L526.5,603.4z"/>
		<path class="st94" d="M543.1,593.3l5.7-4.9l25.9,14.6l-10.3-28l5.4-4.6l12.8,37.8l-4.3,3.7L543.1,593.3z"/>
		<path class="st94" d="M584.1,553.3l3.5-4.5l39,10.3l-4.7,5.9l-8.8-2.5l-9.9,12.6l4.6,7.9l-4.6,5.8L584.1,553.3z M607.3,560.9
			l-15.4-4.8l8.3,13.9L607.3,560.9z"/>
	</g>
</g>
</svg>
