<?xml version="1.0" encoding="utf-8"?>
<!-- Generator: Adobe Illustrator 24.0.2, SVG Export Plug-In . SVG Version: 6.00 Build 0)  -->
<svg version="1.1" id="Capa_1" xmlns="http://www.w3.org/2000/svg" xmlns:xlink="http://www.w3.org/1999/xlink" x="0px" y="0px"
	 viewBox="0 0 723.67 488.63" style="enable-background:new 0 0 723.67 488.63;" xml:space="preserve">
<style type="text/css">
	.st0{fill:#C1CEC5;}
	.st1{fill:#F8B3A2;}
	.st2{fill:#FFFFFF;}
</style>
<g>
	<g>
		<path class="st0" d="M109.02,363.59v65.44H95.55v-41.68l-26.81,41.68H53.7L26.89,387.5v41.53H13.42v-65.44h13.47l34.27,53.76
			l34.39-53.76H109.02z"/>
		<path class="st0" d="M139.93,363.59v65.44h-13.47v-65.44H139.93z"/>
		<path class="st0" d="M225.47,413.43v15.6h-13.42L212,414.38c-0.02-7.46-5.79-9.47-16.42-9.47h-24.73v24.12h-13.47v-65.44h44.4
			c15.11,0,25.1,6.05,25.1,19.82c0,11.07-7.13,15.57-16.5,17.13C220.58,401.36,225.47,404.18,225.47,413.43z M201.78,394.27
			c6.83,0,11.58-3.79,11.63-10.07c0.05-5.98-4.76-8.93-11.63-8.93h-30.93v19H201.78z"/>
		<path class="st0" d="M289.79,414.13h-33.62l-6.76,14.9h-14.53l30.74-65.44h14.63l31,65.44h-14.67L289.79,414.13z M285.23,404.1
			l-12.27-26.94l-12.23,26.94H285.23z"/>
		<path class="st0" d="M381.98,363.59l-28.62,65.44h-16.84l-28.88-65.44h14.89l22.42,53.69l22.41-53.69H381.98z"/>
		<path class="st0" d="M455.78,417.8v11.22h-63.99v-65.44h63.85v11.22h-50.39v17.41h41.23v8.38h-41.23v17.2H455.78z"/>
		<path class="st0" d="M537.67,413.43v15.6h-13.42l-0.04-14.65c-0.02-7.46-5.79-9.47-16.42-9.47h-24.73v24.12h-13.47v-65.44h44.4
			c15.11,0,25.1,6.05,25.1,19.82c0,11.07-7.13,15.57-16.5,17.13C532.78,401.36,537.67,404.18,537.67,413.43z M513.99,394.27
			c6.83,0,11.58-3.79,11.63-10.07c0.05-5.98-4.76-8.93-11.63-8.93h-30.93v19H513.99z"/>
		<path class="st0" d="M628.94,396.1c0,17.34-10.22,32.93-38.35,32.93h-37.43v-65.44h37.43
			C620.05,363.59,628.94,378.76,628.94,396.1z M615.22,396.1c0-11.08-5.61-20.83-24.95-20.83h-23.65v42.08h23.65
			C609.62,417.35,615.22,407.19,615.22,396.1z"/>
		<path class="st0" d="M706.07,417.8v11.22h-63.99v-65.44h63.85v11.22h-50.39v17.41h41.23v8.38h-41.23v17.2H706.07z"/>
	</g>
	<g>
		<g>
			<path class="st0" d="M195.32,325.15h6.97c0.97,0,1.9,0.09,2.76,0.27c0.86,0.18,1.62,0.48,2.27,0.91
				c0.65,0.43,1.16,1.02,1.54,1.75c0.38,0.73,0.57,1.65,0.57,2.77c0,1.1-0.18,2.01-0.53,2.76c-0.36,0.74-0.84,1.33-1.46,1.77
				c-0.62,0.44-1.35,0.76-2.2,0.94c-0.85,0.19-1.77,0.28-2.76,0.28h-3.02v7.32h-4.14V325.15z M199.46,333.1h2.76
				c0.37,0,0.73-0.03,1.08-0.1c0.35-0.07,0.65-0.19,0.93-0.36c0.27-0.16,0.49-0.4,0.66-0.69c0.17-0.29,0.25-0.66,0.25-1.1
				c0-0.48-0.11-0.86-0.33-1.16c-0.22-0.29-0.5-0.51-0.85-0.68c-0.35-0.16-0.73-0.26-1.16-0.3c-0.42-0.04-0.83-0.07-1.22-0.07h-2.12
				V333.1z"/>
			<path class="st0" d="M212.03,325.15h7.26c0.96,0,1.86,0.09,2.72,0.28c0.86,0.19,1.61,0.5,2.26,0.93
				c0.64,0.43,1.16,1.02,1.54,1.75c0.38,0.74,0.57,1.65,0.57,2.75c0,1.32-0.35,2.45-1.04,3.38c-0.69,0.93-1.7,1.52-3.02,1.76
				l4.78,7.93h-4.96l-3.93-7.51h-2.04v7.51h-4.14V325.15z M216.17,332.92h2.44c0.37,0,0.77-0.01,1.18-0.04
				c0.41-0.03,0.79-0.11,1.13-0.24c0.34-0.13,0.62-0.34,0.83-0.62c0.22-0.28,0.33-0.68,0.33-1.19c0-0.48-0.09-0.86-0.29-1.14
				c-0.19-0.29-0.44-0.5-0.74-0.65c-0.3-0.15-0.65-0.25-1.03-0.31c-0.39-0.05-0.77-0.08-1.14-0.08h-2.71V332.92z"/>
			<path class="st0" d="M229.17,325.15h4.14v18.78h-4.14V325.15z"/>
			<path class="st0" d="M235.22,325.15h4.72l4.64,12.31h0.05l4.72-12.31h4.43l-7.75,18.78h-3.31L235.22,325.15z"/>
			<path class="st0" d="M260.47,325.15h3.42l8.17,18.78h-4.67l-1.61-3.98h-7.3l-1.57,3.98h-4.56L260.47,325.15z M262.06,330.61
				l-2.28,5.83h4.59L262.06,330.61z"/>
			<path class="st0" d="M273.95,325.15h6.21c1.5,0,2.93,0.17,4.28,0.5c1.35,0.34,2.53,0.88,3.54,1.63c1.01,0.76,1.81,1.73,2.4,2.93
				c0.59,1.2,0.89,2.66,0.89,4.38c0,1.52-0.29,2.86-0.86,4.02c-0.58,1.16-1.35,2.13-2.32,2.92c-0.97,0.79-2.1,1.38-3.37,1.79
				c-1.27,0.41-2.61,0.61-4.01,0.61h-6.76V325.15z M278.09,340.11h2.15c0.95,0,1.84-0.1,2.67-0.3c0.82-0.19,1.53-0.51,2.13-0.97
				c0.6-0.45,1.07-1.04,1.42-1.77c0.35-0.74,0.52-1.63,0.52-2.7c0-0.92-0.17-1.72-0.52-2.4c-0.35-0.68-0.81-1.24-1.39-1.68
				c-0.58-0.44-1.27-0.77-2.05-0.99s-1.61-0.33-2.48-0.33h-2.44V340.11z"/>
			<path class="st0" d="M300.25,325.15h3.42l8.17,18.78h-4.67l-1.61-3.98h-7.3l-1.57,3.98h-4.56L300.25,325.15z M301.85,330.61
				l-2.28,5.83h4.59L301.85,330.61z"/>
			<path class="st0" d="M321.58,325.15h4.14v7h8.03v-7h4.14v18.78h-4.14v-8.12h-8.03v8.12h-4.14V325.15z"/>
			<path class="st0" d="M347.89,325.15h3.42l8.17,18.78h-4.67l-1.61-3.98h-7.3l-1.57,3.98h-4.56L347.89,325.15z M349.49,330.61
				l-2.28,5.83h4.59L349.49,330.61z"/>
			<path class="st0" d="M361.37,325.15h7c0.81,0,1.63,0.06,2.45,0.17c0.82,0.11,1.56,0.35,2.21,0.69c0.66,0.34,1.19,0.82,1.59,1.44
				c0.41,0.62,0.61,1.44,0.61,2.47c0,1.06-0.3,1.94-0.89,2.64c-0.59,0.7-1.37,1.2-2.35,1.5v0.05c0.62,0.09,1.18,0.26,1.68,0.51
				c0.5,0.26,0.93,0.59,1.3,0.98c0.36,0.4,0.64,0.86,0.83,1.39c0.19,0.53,0.29,1.1,0.29,1.7c0,0.99-0.21,1.82-0.64,2.48
				c-0.42,0.66-0.97,1.2-1.64,1.6c-0.67,0.4-1.43,0.7-2.27,0.87c-0.84,0.18-1.67,0.27-2.51,0.27h-7.69V325.15z M365.51,332.65h3
				c0.32,0,0.63-0.03,0.94-0.1c0.31-0.07,0.59-0.19,0.84-0.35c0.25-0.16,0.44-0.37,0.59-0.64c0.15-0.27,0.23-0.58,0.23-0.95
				c0-0.39-0.08-0.72-0.25-0.97c-0.17-0.26-0.39-0.46-0.65-0.6c-0.26-0.14-0.56-0.25-0.9-0.31c-0.34-0.06-0.67-0.09-0.98-0.09h-2.81
				V332.65z M365.51,340.42h3.71c0.32,0,0.64-0.03,0.97-0.11c0.33-0.07,0.62-0.19,0.89-0.37c0.26-0.17,0.48-0.4,0.65-0.69
				c0.17-0.29,0.25-0.63,0.25-1.04c0-0.44-0.11-0.8-0.33-1.07c-0.22-0.28-0.5-0.48-0.83-0.63c-0.34-0.14-0.7-0.24-1.09-0.29
				c-0.39-0.05-0.76-0.08-1.09-0.08h-3.13V340.42z"/>
			<path class="st0" d="M378.51,325.15h4.14v18.78h-4.14V325.15z"/>
			<path class="st0" d="M390.05,328.8h-5.36v-3.66h14.85v3.66h-5.36v15.12h-4.14V328.8z"/>
			<path class="st0" d="M405.38,325.15h3.42l8.17,18.78h-4.67l-1.61-3.98h-7.3l-1.57,3.98h-4.56L405.38,325.15z M406.97,330.61
				l-2.28,5.83h4.59L406.97,330.61z"/>
			<path class="st0" d="M431.14,330.02c-0.41-0.49-0.91-0.87-1.5-1.14c-0.59-0.26-1.28-0.4-2.05-0.4c-0.78,0-1.5,0.15-2.16,0.45
				s-1.24,0.72-1.72,1.26c-0.49,0.54-0.86,1.18-1.14,1.93c-0.28,0.74-0.41,1.55-0.41,2.41c0,0.88,0.13,1.69,0.41,2.42
				s0.65,1.37,1.13,1.91c0.48,0.54,1.04,0.96,1.68,1.26c0.65,0.3,1.34,0.45,2.08,0.45c0.85,0,1.6-0.18,2.26-0.53
				c0.65-0.36,1.19-0.85,1.61-1.49l3.45,2.57c-0.8,1.12-1.81,1.94-3.03,2.47c-1.22,0.53-2.47,0.8-3.77,0.8
				c-1.47,0-2.82-0.23-4.05-0.69c-1.24-0.46-2.31-1.12-3.21-1.98c-0.9-0.86-1.6-1.9-2.11-3.12c-0.5-1.22-0.76-2.58-0.76-4.08
				c0-1.51,0.25-2.87,0.76-4.09s1.2-2.26,2.11-3.12c0.9-0.85,1.97-1.52,3.21-1.98c1.23-0.46,2.59-0.69,4.05-0.69
				c0.53,0,1.09,0.05,1.66,0.15c0.58,0.1,1.14,0.25,1.7,0.46s1.09,0.49,1.6,0.85c0.51,0.36,0.97,0.79,1.38,1.3L431.14,330.02z"/>
			<path class="st0" d="M436.97,325.15h4.14v18.78h-4.14V325.15z"/>
			<path class="st0" d="M443.87,334.54c0-1.51,0.25-2.87,0.76-4.09c0.5-1.22,1.2-2.26,2.11-3.12c0.9-0.85,1.97-1.52,3.21-1.98
				c1.23-0.46,2.59-0.69,4.05-0.69c1.47,0,2.82,0.23,4.06,0.69c1.24,0.46,2.31,1.12,3.21,1.98c0.9,0.86,1.6,1.9,2.11,3.12
				c0.5,1.22,0.76,2.58,0.76,4.09c0,1.5-0.25,2.86-0.76,4.08c-0.5,1.22-1.2,2.26-2.11,3.12c-0.9,0.86-1.97,1.52-3.21,1.98
				c-1.23,0.46-2.59,0.69-4.06,0.69c-1.47,0-2.82-0.23-4.05-0.69c-1.24-0.46-2.31-1.12-3.21-1.98c-0.9-0.86-1.6-1.9-2.11-3.12
				C444.12,337.4,443.87,336.04,443.87,334.54z M448.16,334.54c0,0.88,0.13,1.69,0.41,2.42s0.67,1.37,1.18,1.91
				c0.51,0.54,1.13,0.96,1.84,1.26s1.52,0.45,2.4,0.45s1.69-0.15,2.4-0.45s1.33-0.72,1.84-1.26c0.51-0.54,0.9-1.18,1.18-1.91
				c0.27-0.74,0.41-1.54,0.41-2.42c0-0.87-0.14-1.67-0.41-2.41c-0.28-0.75-0.67-1.38-1.18-1.93c-0.51-0.54-1.13-0.96-1.84-1.26
				s-1.52-0.45-2.4-0.45s-1.68,0.15-2.4,0.45s-1.33,0.72-1.84,1.26c-0.51,0.54-0.9,1.18-1.18,1.93
				C448.3,332.86,448.16,333.67,448.16,334.54z"/>
			<path class="st0" d="M466.94,325.15h5.62l7.99,13.05h0.05v-13.05h4.14v18.78h-5.41l-8.2-13.37h-0.05v13.37h-4.14V325.15z"/>
			<path class="st0" d="M494.74,325.15h3.42l8.17,18.78h-4.67l-1.61-3.98h-7.3l-1.57,3.98h-4.56L494.74,325.15z M496.33,330.61
				l-2.28,5.83h4.59L496.33,330.61z"/>
			<path class="st0" d="M508.38,325.15h4.14v14.96h7.66v3.82h-11.8V325.15z"/>
		</g>
	</g>
	<g>
		<g>
			<g>
				<path class="st1" d="M285.86,263.18L285.86,263.18c13.14,23.68,36.8,30.86,58.53,32.62c25.68,2.08,53.85-2.43,72.27-26.94
					c8.47-11.27,14.15-25.91,18.39-40.98c8.81-31.29,11.45-130.92-1.77-159.16c-6.39-13.64-15.99-24.05-26.43-31.74
					c-33.35-24.58-71.51-19.84-102.37,8.99c-20.94,19.57-24.97,43.46-27.72,76.39C274.52,149.05,273.26,240.47,285.86,263.18z"/>
			</g>
		</g>
	</g>
	<g>
		<path class="st2" d="M359.15,235.07c-13.49,0-19.27-7.11-21.75-13.08c-7.17-17.29,3.39-48.95,17.32-76.1
			c-7.55-14.25-15.99-27.15-23.18-35.49c-3.67,4.55-7.86,11.07-11.7,18.23c8.09,15.95,14.02,34.39,9.68,44.85
			c-1.62,3.92-5.39,8.58-14.1,8.58c-8.59,0-12.33-4.55-13.95-8.37c-4.33-10.19,1.69-28.79,9.83-44.94
			c-4.82-9.05-10.23-17.06-14.52-21.36c-1.48-1.48-1.48-3.88,0-5.36c1.49-1.49,3.88-1.47,5.36,0c3.83,3.84,8.75,10.66,13.44,18.76
			c4.61-8.03,9.42-14.82,13.18-18.71c1.42-1.48,4.03-1.48,5.45,0c7.01,7.26,16.22,20.48,24.75,35.85
			c8.66-15.61,18.01-28.92,24.96-35.9c0.71-0.71,1.67-1.11,2.68-1.11c1.02,0.2,2.01,0.42,2.73,1.16c3.7,3.84,8.43,10.53,12.97,18.45
			c4.65-7.98,9.51-14.7,13.29-18.49c1.48-1.48,3.87-1.49,5.36,0c1.48,1.48,1.49,3.88,0,5.36c-4.24,4.26-9.59,12.16-14.38,21.1
			c8.11,16.16,14.12,34.86,9.75,45.14c-1.63,3.84-5.39,8.42-14.01,8.42c-8.71,0-12.48-4.66-14.1-8.58
			c-4.36-10.51,1.66-29.1,9.82-45.11c-3.78-7.08-7.91-13.51-11.53-18c-7.16,8.12-15.68,21.1-23.3,35.52
			c14.08,27.4,24.73,59.26,17.42,76.46C378.17,228.15,372.44,235.07,359.15,235.07z M358.97,154.26
			c-11.91,24.56-20.18,51.31-14.57,64.83c2.35,5.65,7.17,8.41,14.75,8.41c7.45,0,12.19-2.66,14.51-8.12
			C379.37,205.94,371.03,179.05,358.97,154.26z M402.34,137.03c-6.03,13.14-9.94,26.74-7.12,33.55c0.76,1.82,2.24,3.91,7.1,3.91
			c4.8,0,6.28-2.03,7.03-3.81C412.28,163.81,408.36,150.19,402.34,137.03z M315.53,137.29c-6.04,13.12-9.96,26.65-7.08,33.44
			c0.74,1.75,2.21,3.75,6.97,3.75c4.86,0,6.35-2.09,7.11-3.91C325.34,163.81,321.49,150.35,315.53,137.29z"/>
	</g>
	<g>
		<path class="st1" d="M260.4,462.16l-0.3,0.81c-0.62,1.75-1.63,3.12-3.03,4.11c-1.4,0.99-3,1.48-4.79,1.48
			c-2.77,0-4.99-1.08-6.66-3.25c-1.53-1.99-2.3-4.46-2.3-7.4c0-3.17,0.79-5.88,2.39-8.15c1.73-2.47,3.96-3.7,6.69-3.7
			c0.52,0,1.52,0.14,3.01,0.42c0.62,0.14,1.03,0.19,1.22,0.15c0.68-0.1,1.09-0.17,1.24-0.21c0.15-0.04,0.46-0.16,0.94-0.36
			l1.49,6.57l-1.08,0.24l-0.39-0.68c-0.94-1.66-1.78-2.85-2.54-3.56c-1.06-1.01-2.26-1.52-3.61-1.52c-1.79,0-3.19,0.91-4.21,2.74
			c-0.88,1.59-1.31,3.49-1.31,5.69c0,2.72,0.55,5.07,1.64,7.04c1.27,2.29,3,3.43,5.16,3.43c1.13,0,2.14-0.31,3.03-0.93
			c0.89-0.62,1.59-1.47,2.11-2.57l0.33-0.72L260.4,462.16z"/>
		<path class="st1" d="M274.03,468.19h-8.15v-1.05l1.94-0.21v-19.23l-1.94-0.21v-1.04h8.15v1.04l-2.15,0.21v19.23l2.15,0.21V468.19z
			"/>
		<path class="st1" d="M298.71,447.5c-0.28,0-0.57,0.05-0.88,0.15c-0.31,0.1-0.56,0.23-0.76,0.39c-0.38,0.32-0.62,0.66-0.73,1.03
			c-0.11,0.37-0.17,0.86-0.17,1.48v11.2c0,2.07-0.55,3.7-1.64,4.9c-1.24,1.35-3.1,2.03-5.58,2.03c-2.47,0-4.37-0.57-5.7-1.7
			c-1.34-1.13-2-2.7-2-4.69v-14.57l-1.79-0.21v-1.04h7.76v1.04l-1.91,0.21v13.74c0,1.67,0.33,2.99,0.98,3.94
			c0.82,1.19,2.08,1.79,3.81,1.79c1.59,0,2.78-0.51,3.57-1.52c0.69-0.89,1.04-2.08,1.04-3.55v-11.58c0-0.58-0.04-1.03-0.13-1.34
			c-0.09-0.32-0.3-0.65-0.64-0.99c-0.18-0.18-0.46-0.34-0.85-0.48c-0.39-0.14-0.72-0.21-1-0.21v-1.04h6.63V447.5z"/>
		<path class="st1" d="M322.97,457.26c0,3.3-1,5.97-2.99,8c-1.91,1.95-4.36,2.93-7.34,2.93h-8.66v-1.05l1.85-0.2v-19.23l-1.85-0.21
			v-1.04h6.54h2.6c2.29,0,4.38,0.8,6.27,2.39C321.77,450.87,322.97,453.68,322.97,457.26z M318.85,457.11
			c0-3.42-0.65-5.93-1.94-7.52c-1.14-1.39-2.73-2.09-4.78-2.09c-0.42,0-1.04,0.05-1.88,0.15c-0.12,0-0.29,0.02-0.51,0.06v19.23h3.04
			c2.11,0,3.68-0.96,4.72-2.87C318.4,462.4,318.85,460.08,318.85,457.11z"/>
		<path class="st1" d="M348.81,468.19h-7.55v-1.04l2-0.21l-1.86-5.47h-7.29l-0.93,2.96c-0.13,0.34-0.2,0.7-0.2,1.07
			c0,0.28,0.04,0.53,0.13,0.74c0.09,0.22,0.24,0.39,0.46,0.52c0.22,0.13,0.62,0.23,1.19,0.31c0.08,0,0.21,0.02,0.39,0.06v1.04h-6.45
			v-1.05c0.53-0.06,1.03-0.23,1.49-0.52c0.46-0.29,0.78-0.58,0.97-0.87c0.19-0.29,0.37-0.69,0.52-1.21l5.25-16.27l-0.72-1.67
			l4.15-0.36l7.02,20.69l1.4,0.21V468.19z M340.96,460.04l-3.23-9.89l-3.13,9.89H340.96z"/>
		<path class="st1" d="M373.04,457.26c0,3.3-1,5.97-2.99,8c-1.91,1.95-4.36,2.93-7.34,2.93h-8.66v-1.05l1.85-0.2v-19.23l-1.85-0.21
			v-1.04h6.54h2.6c2.29,0,4.38,0.8,6.27,2.39C371.85,450.87,373.04,453.68,373.04,457.26z M368.92,457.11
			c0-3.42-0.65-5.93-1.94-7.52c-1.14-1.39-2.73-2.09-4.78-2.09c-0.42,0-1.04,0.05-1.88,0.15c-0.12,0-0.29,0.02-0.51,0.06v19.23h3.04
			c2.11,0,3.68-0.96,4.72-2.87C368.47,462.4,368.92,460.08,368.92,457.11z"/>
		<path class="st1" d="M408.64,447.5c-0.38,0-0.66,0.03-0.84,0.08c-0.18,0.05-0.44,0.18-0.79,0.39c-0.35,0.21-0.62,0.47-0.8,0.78
			c-0.19,0.31-0.37,0.74-0.55,1.3l-5.14,16.18l0.78,1.85l-4.24,0.27l-6.87-20.63l-1.43-0.21v-1.04h7.49v1.04l-1.82,0.21l5.34,16.34
			l4.41-13.9c0.09-0.24,0.13-0.51,0.13-0.8c0-0.74-0.25-1.24-0.75-1.52c-0.22-0.12-0.48-0.19-0.78-0.22s-0.59-0.06-0.86-0.11v-1.04
			h6.72V447.5z"/>
		<path class="st1" d="M422.06,468.19h-8.15v-1.05l1.94-0.21v-19.23l-1.94-0.21v-1.04h8.15v1.04l-2.15,0.21v19.23l2.15,0.21V468.19z
			"/>
		<path class="st1" d="M447.09,447.5c-0.38,0-0.66,0.03-0.84,0.08c-0.18,0.05-0.44,0.18-0.79,0.39c-0.35,0.21-0.62,0.47-0.81,0.78
			c-0.19,0.31-0.37,0.74-0.55,1.3l-5.14,16.18l0.77,1.85l-4.24,0.27l-6.87-20.63l-1.44-0.21v-1.04h7.49v1.04l-1.82,0.21l5.34,16.34
			l4.41-13.9c0.09-0.24,0.14-0.51,0.14-0.8c0-0.74-0.25-1.24-0.75-1.52c-0.22-0.12-0.48-0.19-0.77-0.22s-0.59-0.06-0.87-0.11v-1.04
			h6.72V447.5z"/>
		<path class="st1" d="M472.49,468.19h-7.56v-1.04l2-0.21l-1.85-5.47h-7.3l-0.92,2.96c-0.13,0.34-0.2,0.7-0.2,1.07
			c0,0.28,0.04,0.53,0.14,0.74c0.09,0.22,0.24,0.39,0.46,0.52c0.22,0.13,0.62,0.23,1.2,0.31c0.08,0,0.21,0.02,0.39,0.06v1.04h-6.45
			v-1.05c0.54-0.06,1.04-0.23,1.49-0.52c0.46-0.29,0.78-0.58,0.97-0.87c0.19-0.29,0.36-0.69,0.52-1.21l5.26-16.27l-0.72-1.67
			l4.15-0.36l7.02,20.69l1.41,0.21V468.19z M464.63,460.04l-3.22-9.89l-3.13,9.89H464.63z"/>
	</g>
</g>
</svg>
